<?xml version="1.0" encoding="utf-8"?>
<!-- Generator: Adobe Illustrator 27.1.1, SVG Export Plug-In . SVG Version: 6.00 Build 0)  -->
<svg version="1.1" id="Слой_1" xmlns="http://www.w3.org/2000/svg" xmlns:xlink="http://www.w3.org/1999/xlink" x="0px" y="0px"
	 viewBox="0 0 1850.1 318.2" style="enable-background:new 0 0 1850.1 318.2;" xml:space="preserve">
<style type="text/css">
	.st0{fill:#FFFFFF;}
	.st1{fill:#FFE450;}
	.st2{fill:#FFE451;}
	.st3{fill:#1D1D1B;}
</style>
<g>
	<rect width="1850.1" height="319.3"/>
	<g>
		<g>
			<path class="st0" d="M86.7,88L98.4,0h24.8l-22,140H76L61.6,57.5L47.3,140H22.1L0,0h24.9l11.7,87.9L51.1,0h21L86.7,88z"/>
			<path class="st0" d="M200.6,79.4h-39v37.1h46.1V140h-71.1V0h70.9v23.6h-45.9v33.1h39V79.4z"/>
			<path class="st0" d="M321.4,111.3h-34.1l-6.6,28.7h-26.5L292.9,0h22.9l39,140h-26.7L321.4,111.3z M292.8,87.8h23.1l-11.6-49.9
				L292.8,87.8z"/>
			<path class="st0" d="M403.8,88.8h-12.4V140h-25V0h39.9c12.5,0,22.2,3.7,29,11s10.2,17.8,10.2,31.3c0,18.6-6,31.6-17.9,39
				l21.7,57.3v1.3h-26.9L403.8,88.8z M391.4,65.3h14.2c5,0,8.7-1.9,11.2-5.6c2.5-3.8,3.7-8.8,3.7-15c0-14-4.8-21.1-14.5-21.1h-14.6
				L391.4,65.3L391.4,65.3z"/>
			<path class="st0" d="M526.7,79.4h-39v37.1h46.1V140h-71.1V0h70.9v23.6h-45.9v33.1h39L526.7,79.4L526.7,79.4z"/>
		</g>
	</g>
	<g>
		<g>
			<path class="st1" d="M608.3,127.3h-13.8l-2.7,11.9h-10.7l15.7-58.3h9.3l15.8,58.3H611L608.3,127.3z M596.7,117.5h9.4l-4.7-20.8
				L596.7,117.5z"/>
			<path class="st1" d="M663.9,123.9c0-2.4-0.5-4.2-1.6-5.4c-1-1.2-2.9-2.5-5.7-3.8c-5-2.2-8.6-4.8-10.9-7.8
				c-2.2-3-3.3-6.5-3.3-10.5c0-4.9,1.5-8.9,4.5-11.8s6.8-4.5,11.4-4.5c3.1,0,5.8,0.8,8.2,2.3s4.3,3.6,5.6,6.4s1.9,5.9,1.9,9.4h-10.1
				c0-2.7-0.5-4.8-1.5-6.2c-1-1.4-2.4-2.1-4.3-2.1c-1.8,0-3.1,0.6-4.1,1.8c-1,1.2-1.5,2.9-1.5,4.9c0,1.6,0.6,3,1.7,4.3
				c1.1,1.3,3.1,2.6,5.9,4c4.9,2.1,8.4,4.6,10.7,7.6c2.2,3,3.3,6.8,3.3,11.4c0,5.1-1.4,9-4.2,11.9s-6.6,4.3-11.3,4.3
				c-3.2,0-6.2-0.8-8.9-2.3s-4.7-3.8-6.3-6.6c-1.5-2.9-2.3-6.3-2.3-10.2h10.2c0,3.4,0.6,5.8,1.7,7.3c1.1,1.5,3,2.3,5.5,2.3
				C662.2,130.4,663.9,128.3,663.9,123.9z"/>
			<path class="st1" d="M694.1,80.9l9.5,42.2l9.4-42.2h13.2v58.3H716v-15.8l0.9-24.3l-10,40.1H700l-10-40.1l0.9,24.3v15.8h-10.1
				V80.9H694.1z"/>
			<path class="st1" d="M758.9,127.3h-13.8l-2.7,11.9h-10.7l15.7-58.3h9.3l15.8,58.3h-10.8L758.9,127.3z M747.3,117.5h9.4L752,96.7
				L747.3,117.5z"/>
			<path class="st1" d="M787.2,129.4H805v9.8h-27.9V80.9h10.1L787.2,129.4L787.2,129.4z"/>
			<path class="st1" d="M821,129.4h17.8v9.8h-27.9V80.9H821V129.4z"/>
		</g>
	</g>
	<g>
		<g>
			<path class="st0" d="M213.5,289.6h-34.1l-6.6,27.9h-26.5L185,181.2h22.9l39,136.3h-26.7L213.5,289.6z M184.8,266.6h23.1
				L196.3,218L184.8,266.6z"/>
			<path class="st0" d="M291,181.2l23.4,98.5l23.3-98.5h32.7v136.3h-25.1v-36.9l2.3-56.8l-24.8,93.7h-17L281,223.8l2.3,56.8v36.9
				h-25V181.2H291z"/>
			<path class="st0" d="M451.1,289.6H417l-6.6,27.9h-26.5l38.7-136.3h22.9l39,136.3h-26.7L451.1,289.6z M422.4,266.6h23.1L434,218.1
				L422.4,266.6z"/>
			<path class="st0" d="M522,294.6h51v22.8h-80.3v-16.6l50.5-96.8h-51v-22.9h79.9v16.2L522,294.6z"/>
			<path class="st0" d="M614.5,317.5h-25V181.2h25V317.5z"/>
			<path class="st0" d="M722.1,317.5h-25l-36.6-89.4v89.4h-25V181.2h25l36.7,89.5v-89.5h24.9L722.1,317.5L722.1,317.5z"/>
			<path class="st0" d="M826.4,302c-4.8,5.7-10.7,10.1-17.7,13s-14.7,4.4-23,4.4c-14.2,0-25.3-4.9-33.2-14.6s-11.9-23.8-12.2-42.3
				V238c0-18.8,3.7-33.2,11.2-43.4c7.5-10.1,18.3-15.2,32.6-15.2c13.4,0,23.6,3.6,30.4,10.9c6.8,7.3,10.8,18.7,11.9,34.3H802
				c-0.7-8.7-2.3-14.6-4.9-17.7c-2.6-3.1-6.7-4.7-12.2-4.7c-6.7,0-11.7,2.7-14.7,8.1c-3.1,5.4-4.6,14.1-4.8,25.9v24.7
				c0,12.4,1.7,21.4,5.1,27.1c3.4,5.6,8.9,8.5,16.6,8.5c4.9,0,8.9-1.1,12-3.3l2.2-1.7v-25h-17.5v-20.8h42.6L826.4,302L826.4,302z"/>
			<path class="st0" d="M959.3,204.1h-30.6v113.3h-25.1V204.1h-30.1v-22.9h85.8L959.3,204.1L959.3,204.1z"/>
			<path class="st0" d="M1037.6,258.5h-39v36.1h46.1v22.8h-71.1V181.2h70.9v22.9h-45.9v32.2h39V258.5z"/>
			<path class="st0" d="M1118.3,289.6h-34.1l-6.6,27.9h-26.5l38.7-136.3h22.9l39,136.3H1125L1118.3,289.6z M1089.6,266.6h23.1
				l-11.6-48.6L1089.6,266.6z"/>
			<path class="st0" d="M1195.8,181.2l23.4,98.5l23.3-98.5h32.7v136.3h-25.1v-36.9l2.3-56.8l-24.8,93.7h-17l-24.8-93.7l2.3,56.8
				v36.9h-25V181.2H1195.8z"/>
			<path class="st0" d="M1296,304c0-4.2,1.3-7.7,3.9-10.5c2.6-2.7,5.9-4.1,10.1-4.1c4,0,7.4,1.4,10,4.1c2.7,2.7,4,6.2,4,10.5
				c0,4.4-1.3,7.9-4,10.5c-2.7,2.7-6,4-10,4s-7.4-1.3-10-4S1296,308.3,1296,304z"/>
		</g>
	</g>
	<g>
		<g>
			<path class="st1" d="M0,317.4v-58.3h15.5c5.2,0,9.2,1.4,11.9,4.1s4.1,6.7,4.1,11.9c0,3-0.6,5.5-1.7,7.6s-2.7,3.7-4.6,4.7
				c2.3,0.7,4,2.2,5.2,4.5c1.2,2.3,1.8,5,1.8,8.3c0,5.7-1.3,9.9-4,12.8s-6.6,4.3-11.6,4.3H0V317.4z M10.1,283.4h5.3c4,0,6-2.4,6-7.2
				c0-2.6-0.5-4.5-1.4-5.7c-0.9-1.1-2.4-1.7-4.5-1.7h-5.4C10.1,268.8,10.1,283.4,10.1,283.4z M10.1,292v15.6h6.5
				c1.8,0,3.2-0.7,4.1-2s1.4-3.2,1.4-5.6c0-5.2-1.6-7.9-4.9-8H10.1z"/>
			<path class="st1" d="M72.2,259.1v40.4c0,6.1-1.5,10.7-4.3,13.9c-2.8,3.2-6.9,4.8-12.2,4.8c-5.4,0-9.5-1.6-12.3-4.9
				s-4.3-8-4.3-14.1v-40.1h10.2v40.1c0,3.3,0.5,5.7,1.4,7.1s2.6,2.1,5,2.1s4.1-0.7,5-2.1s1.4-3.7,1.4-6.9v-40.3H72.2z"/>
			<path class="st1" d="M112.4,268.9H100v48.5H89.8v-48.5H77.6v-9.8h34.8C112.4,259.1,112.4,268.9,112.4,268.9z"/>
		</g>
	</g>
	<g>
		<path d="M1841.6,58.6c-5.4-24-32-47.1-55.7-50.3c-44.3-5.4-88.8-8.3-133.1-8.3s-88.8,2.9-133.1,8.3c-24.3,3.1-50.8,26.3-56.3,50.3
			c-11.4,54.6-11.4,109.1,0,164c5.4,24,32,47.1,55.7,50.3c9.4,1.1,18.9,2.3,28,3.1v29c0,8.6,6.9,14.3,14.3,14.3
			c3.1,0,6.3-1.1,9.1-3.4l42.3-35.7c13.1,0.6,26.3,0.9,39.4,0.9c44.3,0,88.8-2.6,133.1-8.3c24-3.1,50.6-26.3,55.7-50.3
			C1853,167.7,1853,113.1,1841.6,58.6z"/>
		<path class="st2" d="M1566.8,257.9l-17.7-1.7c-10-0.9-19.1-2-27.7-3.1c-16.3-2.3-35.7-19.7-39.1-35.1
			c-10.9-51.4-10.9-103.7,0-155.4c3.4-15.4,22.9-32.8,39.1-34.8c43.1-5.4,87.1-8,130.5-8s87.4,2.6,130.8,8
			c16.3,2.3,35.7,19.7,39.1,35.1c10.9,51.4,10.9,103.7,0,155.4c-3.4,15.4-22.9,32.8-39.1,34.8c-42.6,5.4-86.5,8.3-130,8.3
			c-12.9,0-26-0.3-38.8-0.6l-7.7-0.3l-39.4,33.4C1566.8,293.9,1566.8,257.9,1566.8,257.9z"/>
		<g>
			<path class="st3" d="M1581.7,169.7L1581.7,169.7c-4.6,0-8.3-3.7-8.3-8.3v-42.3c0-4.6,3.7-8.3,8.3-8.3l0,0c4.6,0,8.3,3.7,8.3,8.3
				v42.3C1589.7,165.9,1586.3,169.7,1581.7,169.7z"/>
			<path class="st3" d="M1652.5,161.4L1652.5,161.4c-4.6,0-8.3-3.7-8.3-8.3v-25.4c0-4.6,3.7-8.3,8.3-8.3l0,0c4.6,0,8.3,3.7,8.3,8.3
				v25.4C1660.8,157.7,1657.1,161.4,1652.5,161.4z"/>
			<path class="st3" d="M1723.4,169.7L1723.4,169.7c-4.6,0-8.3-3.7-8.3-8.3v-42.3c0-4.6,3.7-8.3,8.3-8.3l0,0c4.6,0,8.3,3.7,8.3,8.3
				v42.3C1731.7,165.9,1727.9,169.7,1723.4,169.7z"/>
			<path class="st3" d="M1617.1,201.7L1617.1,201.7c-4.6,0-8.3-3.7-8.3-8.3V87.1c0-4.6,3.7-8.3,8.3-8.3l0,0c4.6,0,8.3,3.7,8.3,8.3
				v106.5C1625.4,198.2,1621.7,201.7,1617.1,201.7z"/>
			<path class="st3" d="M1688,201.7L1688,201.7c-4.6,0-8.3-3.7-8.3-8.3V87.1c0-4.6,3.7-8.3,8.3-8.3l0,0c4.6,0,8.3,3.7,8.3,8.3v106.5
				C1696.2,198.2,1692.5,201.7,1688,201.7z"/>
		</g>
	</g>
</g>
</svg>
