<svg width="400" height="400" viewBox="0 0 400 400" fill="none" xmlns="http://www.w3.org/2000/svg">
<path d="M244.58 72.1201C246.814 73.5325 249.374 74.3409 252.014 74.4661C252.44 74.5261 251.814 75.6501 250.17 75.5981C248.23 75.0789 246.324 74.4355 244.466 73.6721C243.98 73.5261 244.354 72.5441 244.58 72.1201Z" fill="white"/>
<path d="M321.126 135.054C315.998 136.584 314.06 136.376 310.012 138.286C307.994 139.008 305.906 139.51 303.78 139.784C299.882 140.658 300.068 141.906 295.904 141.526C288.544 140.852 283.458 131.974 279.336 128.002C271.574 120.522 275.01 118.69 273.26 118.222C272.768 118.09 272.592 118.8 272.566 119.09C272.372 120.578 272.712 122.087 273.528 123.346C273.98 124.614 268.728 130.792 267.824 135.618C267.784 136.784 267.432 137.917 266.804 138.9C265.3 141.112 265.004 141.9 265.966 143.056C267.55 144.946 266.494 144.686 265.156 146.434C264.846 146.775 264.676 147.22 264.676 147.68C264.676 148.141 264.846 148.585 265.156 148.926C266.698 150.58 263.848 150.768 265.008 154.99C265.02 155.04 267.686 165.292 267.698 165.338C270.686 176.494 276.838 175.078 264.098 180.72C259.43 182.788 259.868 183.366 255.518 184.32C253.412 184.776 251.754 183.782 249.288 184.578C247.432 185.068 245.462 184.878 243.734 184.044C240.446 182.278 242.182 160.078 242.68 156.882C242.866 155.682 243.124 156.894 244.48 159.054C246.848 162.804 245.758 155.828 242.94 171.2C242.87 171.698 242.846 172.2 242.866 172.702C242.866 173.008 242.996 173.162 243.326 173.162C243.998 173.162 243.95 170.016 246.726 161.478C247.02 160.568 250.7 163.43 253.61 164.39C256.21 165.248 256.97 165.356 256.822 162.25C256.38 153.014 254.972 151.382 252.386 147.788C250.008 144.48 264.092 121.988 268.292 116.914C271.566 112.958 264.808 108.996 263.754 108.126C274.656 103.454 273.644 103.604 265.812 91.4362C265.236 90.5402 264.868 90.4742 264.868 89.9302C266.472 90.227 267.99 90.8758 269.314 91.8302C271.162 93.1702 274.176 94.0922 276.686 95.5282C279.826 97.3282 281.96 97.0522 282.306 99.5482C282.404 100.264 281.806 101.312 282.906 101.996C283.932 102.632 284.568 105.42 286.476 107.432C291.822 113.07 291.064 113.1 294.374 115.564C297.9 118.186 297.632 118.332 297.162 118.726C288.962 125.62 292.662 128.526 293.248 126.15C294.348 123.219 296.476 120.787 299.236 119.306C301.286 118.306 301.236 120.07 299.798 121.092C298.36 122.114 296.066 125.044 296.104 126.52C296.104 126.92 296.752 127.466 297.358 126.378C298.852 123.567 301.33 121.405 304.318 120.306C305.744 119.566 305.546 121.264 308.332 120.228C312.97 118.502 317.182 116.614 320.316 116.946C319.46 119.226 318.682 119.324 318.552 126.558C318.718 128.609 319.194 130.623 319.968 132.53C320.762 134.388 321.976 134.8 321.126 135.054Z" fill="#FFE451"/>
<path d="M364.012 103.3C364.374 104.794 360.392 105.982 355.496 108.402C352.828 109.72 352.918 109.778 352.696 108.38C352.592 107.696 352.634 107.694 353.272 107.348C356.23 105.633 359.324 104.162 362.52 102.948C363.574 102.638 363.884 102.772 364.012 103.3Z" fill="white"/>
<path d="M363.634 109.06C364.292 109.03 364.546 110.168 363.806 110.538C360.894 111.871 357.852 112.902 354.728 113.614C353.7 114.014 353.652 113.684 353.542 112.814C353.542 111.192 352.43 111.528 357.096 110.376C359.238 109.767 361.424 109.327 363.634 109.06Z" fill="white"/>
<path d="M361.766 114.904C363.928 114.892 362.446 116.484 360.296 116.668C346.696 117.836 351.004 116.588 339.564 123.148C337.252 124.474 337.592 123.462 329.98 127.132C328.326 127.932 328.106 128.042 327.91 127.146C327.312 124.954 327.296 122.643 327.862 120.442C328.198 120.174 328.596 119.995 329.02 119.92C338.128 116.91 337.208 113.434 340.752 110.354C342.69 108.248 345.086 100.14 346.368 100.6C348.404 101.332 344.486 107.718 343.968 111.376C343.502 114.614 341.382 115.034 340.242 117.836C340.066 118.27 340.95 118.964 341.242 118.236C342.38 115.394 347.964 114.754 349.432 114.8C350.008 114.82 349.732 114.314 349.362 114.068L350.578 113.59C350.824 114.018 351.578 113.882 350.67 109.62L351.692 109.396C351.956 110.584 352.292 112.08 352.6 113.87C352.92 115.72 351.936 114.964 361.766 114.904Z" fill="white"/>
<path d="M361.432 101.254C361.616 102.146 361.56 101.964 353.964 105.682C353.692 105.869 353.386 105.999 353.062 106.065C352.738 106.13 352.406 106.129 352.082 106.062C350.852 105.462 351.082 106.594 351.682 109.39L350.66 109.614C350.586 108.911 350.356 108.233 349.988 107.63C348.924 107.05 349.494 108.49 350.256 112.43C350.306 112.827 350.412 113.215 350.568 113.584L349.352 114.062C348.266 113.286 345.928 114.008 345.184 114.146C345.07 111.622 345.004 108.746 347.054 107.282C349.77 105.338 360.924 98.7876 361.432 101.254Z" fill="white"/>
<path d="M327.746 131.564C327.866 131.964 328.48 132.236 328.238 132.64C328.08 132.904 327.54 132.938 327.172 133.078C324.772 133.998 324.328 134.352 323.596 133.904C323.22 133.672 321.796 133.162 321.468 132.012C318.35 126.224 320.268 117.498 323.038 117.012C324.394 116.555 325.786 116.211 327.198 115.982C327.83 115.904 326.398 117.108 326.18 120.562C325.68 128.45 326.4 127.052 327.746 131.564Z" fill="white"/>
<path d="M306.768 281.544C309.012 314.202 310.582 312.556 310.446 314.1C307.45 311.546 304.97 308.444 303.136 304.96C295.442 290.642 297.736 269.634 292.786 254.822C287.23 238.196 282.21 234.622 281.35 232.33C281.55 232.33 287.476 234.834 288.204 235.002C294.054 236.348 300.674 249.65 302.85 255.472C306.464 265.134 306.944 281.53 306.768 281.544Z" fill="white"/>
<path d="M303.64 335.224C304.554 337.386 296.664 331.076 293.61 319.708C285.658 290.108 292.65 263.39 276.226 238.6C267.84 225.942 266.414 228.904 266.256 227.2C266.08 225.304 264.572 224.11 271.21 226.914C282.736 231.78 290.496 249.418 292.904 261.572C295.446 274.412 294.852 284.972 297.704 296.012C299.752 303.928 299.88 301.172 300 304.148C300.284 311.2 300.304 327.32 303.64 335.224Z" fill="#FFE451"/>
<path d="M299.4 360.576C301.982 366.012 303.924 366.604 304.248 367.6C301.944 366.302 299.804 364.732 297.874 362.924C295.378 360.174 293.16 357.184 291.25 354C286.358 345.352 285.51 337.374 284.922 327.586C284.936 327.386 287.632 298.908 288.02 296.894C288.476 297.538 288.932 314.374 294.598 326.51C296.66 330.922 294.442 350.122 299.4 360.576Z" fill="white"/>
<path d="M287.844 350.774C292.196 362.986 305.484 369.36 298.986 367.346C293.636 365.688 288.348 360.958 285.936 359.176C280.292 355.006 276.154 346.79 274.432 339.874C273.302 335.346 279.184 310.66 280.174 306.198C286.574 277.336 283.174 275.938 284.26 264.954C284.382 263.708 283.588 258.678 285.47 268.028C292.2 301.472 276.812 319.81 287.844 350.774Z" fill="white"/>
<path d="M298.138 237.4C295.68 235.896 293.004 234.782 290.206 234.096C279.7 230.812 278.682 227.988 266.77 223.78C266.394 223.648 265.928 224.104 265.7 223.652C265.546 223.35 265.66 222.928 265.572 222.582C264.772 219.382 264.22 219.354 265.542 219.402C283.372 220.036 298.138 235.572 298.138 237.4Z" fill="white"/>
<path d="M281.934 255.668C282.198 251.516 283.278 269.916 282.79 269.916C282.79 295.916 280.032 297.136 273.856 329.856C271.868 340.396 272.334 345.32 271.666 343.424C262.186 316.494 273.452 292.35 274.682 278.924C274.616 277.7 274.734 276.474 275.032 275.286C276.654 271.756 281.54 261.85 281.934 255.668Z" fill="#FFE451"/>
<path d="M269.464 232.264C272.698 234.516 281.122 247.96 280.664 251.896C280.652 264.426 271.94 277.368 269.864 281.184C268.848 283.062 270.288 271.596 270.572 269.126C271.278 262.948 274.464 257.788 274.23 249.262C273.954 238.684 269.644 233.572 269.464 232.264Z" fill="white"/>
<path d="M277.74 57.136C279.718 59.076 276.712 58.952 277.626 61.172C278.742 63.884 276.284 64.172 277.464 65.52C278.134 66.288 277.388 66.89 276.506 67.12C275.542 67.38 275.4 67.494 275.44 69.012C275.478 70.39 274.128 70.534 274.05 70.688C273.9 71.0346 273.646 71.326 273.324 71.5224C273.002 71.7186 272.626 71.81 272.25 71.784C271.892 72.242 271.692 71.984 271.324 71.662C270.754 71.056 270.022 70.628 269.214 70.4304C268.406 70.2326 267.558 70.2734 266.774 70.548C265.228 71.52 263.62 69.19 265.076 68.304C265.852 67.832 266.522 68.152 266.3 66.554C266.132 65.354 266.22 63.93 267.432 63.83C269.644 63.646 266.784 61.976 268.664 60.258C270.464 58.614 266.902 58.722 268.09 56.444C269.824 53.124 266.146 55.802 265.654 52.808C265.59 52.408 265.952 51.764 265.992 51.574C266.03 51.441 266.03 51.2998 265.99 51.1674C265.948 51.035 265.872 50.917 265.766 50.8276C265.66 50.7382 265.53 50.6812 265.394 50.6636C265.256 50.646 265.116 50.6684 264.992 50.728C262.592 52.128 263.278 49.108 261.422 49.798C258.472 50.89 258.912 47.416 257.222 49.012C254.634 51.444 255.606 47.198 253.908 48.412C252.096 49.708 250.606 47.366 251.398 46.464C251.966 45.82 253.666 46.368 253.356 44.806C253.144 43.744 252.618 42.568 253.724 42.606C255.514 42.676 255.866 43.154 256.204 41.984C256.462 41.084 256.046 41.172 256.936 40.28C257.792 39.422 258.424 39.836 259.16 40.71C260.066 41.784 260.48 40.648 260.806 40.188C260.928 39.9366 261.132 39.734 261.384 39.6136C261.636 39.493 261.922 39.4618 262.194 39.5252C262.468 39.5884 262.71 39.7422 262.884 39.9614C263.058 40.1808 263.152 40.4524 263.15 40.732C263.172 41.177 263.1 41.6214 262.938 42.0366C262.776 42.4518 262.53 42.8284 262.214 43.142C261.47 44.368 263.26 44.182 263.834 45.086C264.148 45.582 265.066 45.138 265.114 45.12C267.092 44.42 266.278 46.498 267.804 45.94C272.078 44.38 269.932 48.788 272.28 47.23C273.658 46.318 274.956 48.182 274.562 49.56C274.168 50.938 277.144 49.856 276.502 52.268C276.046 53.972 278.59 53.284 277.73 55.468C277.6 55.824 277.042 56.452 277.74 57.136Z" fill="white"/>
<path d="M270.474 102.338C271.098 103.83 264.164 106.286 262.856 106.804C258.946 108.36 263.026 107.824 267.188 113.162C268.838 115.282 266.744 115.8 264.04 120.042C250.766 140.882 252.47 142.554 250.84 144.922C249.57 142.81 248.452 140.609 247.496 138.336C246.862 136.996 251.372 121.048 251.78 119.586C254.414 110.116 259.422 100.776 260.55 92.9262C259.928 88.3062 257.97 88.3762 258.224 87.9682C260.188 84.1822 268.088 96.6422 270.474 102.338Z" fill="#FFE451"/>
<path d="M270.254 72.676C272.528 74.93 267.696 80.61 263.554 78.476C263.378 78.3504 263.164 78.2944 262.95 78.3188C262.736 78.3432 262.538 78.4462 262.396 78.608C259.702 82.3262 257.34 86.2748 255.34 90.408C254.81 91.546 246.048 91.194 244.848 91.87C244.374 92.136 243.648 91.612 243.466 91.07C242.374 87.992 241.702 89.168 242.84 87.186C243.86 85.404 244.584 86.586 247.508 85.33C250.622 83.98 252.6 83.666 253.356 82.878C253.598 82.626 253.72 81.578 252.756 81.788C248.298 82.768 246.718 84.748 242.932 81.924C240.996 80.482 239.816 79.456 239.914 76.744C242.726 57.288 243.994 65.828 246.534 57.246C247.816 52.916 249.334 53.774 251.058 54.616C251.202 54.6992 251.37 54.7274 251.534 54.695C251.696 54.6628 251.842 54.5724 251.944 54.4406C252.044 54.3088 252.094 54.1448 252.084 53.9792C252.072 53.8134 252.002 53.6574 251.884 53.54C250.904 52.36 249.39 52.698 250.044 52.04C255.044 47.004 253.772 52.608 257.144 50.86C257.798 50.52 257.99 50.282 258.29 50.618C258.526 50.9668 258.856 51.2408 259.242 51.4074C259.628 51.574 260.054 51.6262 260.47 51.558C262.054 51.116 261.792 51.988 263.738 52.528C264.16 52.644 264.196 52.698 264.446 53.616C265.156 56.216 266.89 55.186 266.552 56.384C266.412 56.8558 266.388 57.3542 266.482 57.8372C266.576 58.32 266.786 58.7732 267.092 59.158C267.272 59.38 267.356 59.57 267.174 59.832C265.95 61.606 267.016 62.032 266.442 62.374C264.064 63.808 265.406 66.454 264.458 66.974C264.028 67.247 263.672 67.62 263.418 68.061C263.164 68.502 263.022 68.9978 263.002 69.506C262.82 70.888 264.602 71.556 264.928 72.354C265.36 73.41 267.688 70.134 270.254 72.676ZM269.56 74.248C269.432 73.8804 269.214 73.5512 268.924 73.2906C268.634 73.03 268.284 72.8464 267.906 72.7572C267.528 72.6678 267.132 72.6756 266.756 72.7794C266.382 72.8834 266.038 73.0804 265.76 73.352C264.576 74.406 265.466 75.53 264.596 76.352C263.768 77.128 266.126 77.912 266.414 76.136C266.544 75.324 266.142 74.454 267.112 74.192C268.082 73.93 268.204 74.846 268.312 74.982C268.898 75.756 269.28 75.178 269.56 74.248ZM262.12 59.048C263.132 58.732 262.47 57.512 262.36 56.964C261.716 53.722 255.906 54.296 256.854 56.074C257.144 56.618 257.508 56.328 258.494 56.042C261.874 55.982 260.684 59.496 262.12 59.048ZM254.37 75.388C255.37 76.208 256.086 74.27 255.494 73.322C254.8 72.212 254.894 71.948 254.294 71.974C253.44 72.014 253.922 73.018 253.426 73.04C250.278 73.3492 247.138 72.4018 244.686 70.404C243.43 69.36 242.634 70.284 243.086 70.768C243.662 71.382 243.152 72.286 242.372 75.95C242.372 79.46 246.15 80.188 249.146 78.468C254.49 75.4 253.774 74.896 254.37 75.388ZM255.138 62C255.196 61.28 254.282 60.888 253.9 61.302C251.818 63.56 254.494 64.928 255.138 62ZM250.882 60.504C251.046 60.16 250.72 59.976 250.5 59.81C250.162 59.554 249.996 59.964 249.316 60.858C247.036 63.858 245.268 61.842 244.032 65.282C243.9 65.7592 243.868 66.2584 243.938 66.7482C244.008 67.2382 244.18 67.7084 244.44 68.1296C244.698 68.5508 245.042 68.9138 245.45 69.1962C245.856 69.4784 246.316 69.6738 246.802 69.77C247.79 69.993 248.818 69.9598 249.79 69.674C250.158 69.608 250.308 69.164 250.298 68.792C250.298 68.462 249.93 68.532 249.724 68.418C248.674 67.848 247.466 69.396 245.84 67.476C243.728 64.98 247.618 63.974 248.214 63.676C249.434 62.9484 250.374 61.832 250.882 60.506V60.504ZM248.56 59.144C248.592 58.9798 248.572 58.8096 248.502 58.6576C248.432 58.5054 248.318 58.379 248.172 58.296C248.026 58.213 247.858 58.1776 247.692 58.1948C247.526 58.212 247.37 58.281 247.244 58.392C246.666 58.912 245.916 60.726 247.364 60.806C247.464 60.754 247.716 60.708 247.82 60.56C248.128 60.124 248.378 59.6484 248.56 59.146V59.144Z" fill="white"/>
<path d="M265.31 235.946C265.852 254.208 259.488 260.918 252.224 275.11C244.624 289.956 238.95 297.764 242.098 305.25C244.426 310.786 252.852 319.608 255.954 325.786C257.796 329.454 256.916 330.186 250.602 341.752C246.314 349.61 245.282 352.34 243.138 356.28C238.858 364.138 241.948 369.054 236.868 374.218C235.388 375.722 234.626 374.764 232.268 375.818C231.506 376.162 231.88 375.606 231.804 374.058C231.662 371.154 226.968 376.072 227.004 374.922C227.028 374.02 227.084 373.122 227.194 372.224C227.172 370.72 226.022 371.128 225.578 371.636C224.02 373.42 223.316 374.562 223.296 372.4C223.26 368.046 222.88 369.8 219.484 370.556C220.472 366.956 234.226 352.176 236.174 345.098C241.336 326.362 233.508 324.184 219.116 311.036C215.502 307.736 207.002 300.79 204.052 294.836C199.252 285.142 195.964 278.11 197.676 267.39C198.376 263.02 199.888 256.46 199.91 255.534C200.148 245.04 203.034 246.35 202.13 234.158C202.052 233.112 201.02 226.894 199.87 227.322C198.326 227.894 200.804 230.98 200.66 236.874C200.47 244.674 201.284 237.176 198.002 254.35C197.14 258.852 193.076 254.868 177.602 250.524C173.528 249.38 169.562 247.886 165.402 247.048C157.504 245.448 160.534 245.152 157.836 243.848C157.198 243.54 157.344 243.558 157.622 238.048C157.706 236.38 165.294 237.848 165.402 232.796C165.569 229.184 165.36 225.564 164.778 221.996C164.509 219.516 164.736 217.008 165.446 214.616C166.35 205.532 164.646 208.476 167.688 204.308C168.968 202.558 167.718 201.08 168.566 200.78C169.766 200.356 169.618 200.872 170.746 201.668C182.448 209.922 199.434 219.288 213.786 220.854C225.272 222.11 226.276 219.664 231.446 210.854C234.468 205.71 235.956 199.194 243.496 197.33C244.618 197.054 252.246 201.858 256.18 206.422C259.076 210.36 261.322 214.738 262.832 219.388C264.528 224.742 265.364 230.33 265.31 235.946ZM252.984 328.746C252.844 327.12 252.208 325.578 251.162 324.326C246.832 319.244 248.626 320.294 247.924 320.036C245.402 319.106 247.37 322.59 249.224 324.554C252.424 327.954 250.91 329.916 250.786 331.554C250.704 332.652 252.826 332.762 252.984 328.752V328.746Z" fill="white"/>
<path d="M258.766 92.1421C260.088 93.7421 255.256 105.542 254.546 107.486C246.56 129.362 248.13 130.036 246.504 135.274C243.7 126.915 242.35 118.136 242.514 109.32C242.514 93.7301 242.65 99.9201 245.748 99.7801C248.066 99.4695 250.356 98.9883 252.602 98.3401C259.258 97.0741 258.036 93.2361 258.766 92.1421Z" fill="white"/>
<path d="M257.2 92.43C257.294 96.382 253.6 96.76 246.648 98.288C245.568 98.526 245.168 98.27 245.072 97.178C244.976 96.624 244.97 96.0584 245.05 95.502C245.34 94.186 244.602 93 245.91 92.902C246.454 92.8502 247.002 92.8662 247.542 92.95C259 91.896 257.172 91.446 257.2 92.43Z" fill="white"/>
<path d="M245.458 76.3422C246.142 76.2458 246.838 76.3162 247.488 76.547C248.138 76.7778 248.722 77.1626 249.192 77.6682C248.422 78.373 247.426 78.782 246.384 78.8224C245.34 78.8626 244.316 78.5316 243.494 77.8882C242.912 77.2002 243.704 76.5462 245.458 76.3422Z" fill="white"/>
<path d="M242.856 83.7302C243.558 84.2222 243.146 84.7602 242.774 84.8102C242.016 84.8436 241.278 85.0568 240.62 85.432C239.96 85.8072 239.4 86.3338 238.986 86.9682C236.456 90.2942 235.938 89.4702 232.222 93.1682C224.606 100.752 225.872 102.55 222.336 106.288C210.348 118.96 210.718 126.278 206.536 132.122C204.718 134.418 203.152 136.905 201.87 139.538C201.444 140.652 199.594 142.444 198.492 144.168C197.626 145.396 197.101 146.831 196.97 148.328C196.834 148.516 196.308 148.398 195.97 148.476C193.852 148.964 194.306 150.542 192.814 150.498C187.194 150.338 184.438 152.394 182.894 152.35C183.42 147.37 196.476 137.75 201.226 125.366C204.29 117.366 214.214 102.966 212.208 101.978C210.932 101.35 211.376 104.106 206.118 112.778C205.848 113.571 205.354 114.269 204.698 114.788C204.042 115.308 203.25 115.628 202.416 115.71C197.518 116.91 196.9 119.016 191.604 118.132C189.51 117.782 189.84 118.678 185.254 118.158C184.72 118.098 184.634 116.096 183.67 113.91C182.67 111.66 181.208 110.51 181.982 110.51C184.456 110.494 185.782 111.066 187.992 109.482C191.744 106.802 186.642 108.32 183.1 101.976C182.49 100.882 183.232 101.36 185.786 101.116C188.34 100.872 189.336 99.3302 190.876 100.86C193.788 103.758 192.73 97.1862 195.548 99.1722C198.158 101.012 196.694 98.5342 212.494 92.2782C216.056 90.8782 216.97 88.3382 220.242 87.4082C222.686 86.7142 221.896 84.5642 226.148 83.2082C227.66 82.8762 229.224 82.8504 230.748 83.1322C229.884 83.6422 226.02 83.9942 228.518 89.9322C229.056 91.2082 228.9 91.6342 227.93 91.4842C216.53 89.7202 219.026 92.1222 213.468 104.582C209.668 113.106 195.764 141.824 197.642 142.292C198.796 142.58 199.876 138.004 204.268 127.892C204.284 127.856 216.508 100.88 216.734 100.324C219.258 94.0702 218.756 93.3342 221.692 92.6762C227.34 91.4062 230.332 94.6762 230.312 91.5162C230.312 89.4782 227.448 85.5662 230.512 84.8082C238.556 82.8202 236.998 83.2742 239.218 83.3082C240.446 83.1762 241.69 83.3204 242.856 83.7302Z" fill="#FFE451"/>
<path d="M234.086 192.6C236.596 191.24 244.946 195.2 242.804 195.95C227.804 201.204 232.242 220.05 218.176 219.594C199.776 218.994 185.964 209.226 171.038 199.95C170.939 199.909 170.849 199.846 170.778 199.765C170.706 199.685 170.653 199.589 170.623 199.485C170.593 199.382 170.587 199.272 170.604 199.166C170.622 199.06 170.664 198.959 170.726 198.87C171.42 197.514 169.682 196.378 170.844 195.962C173.412 195.044 173.428 194.882 174.078 195.268C183.186 200.668 191.078 205.84 204.916 208.432C225.13 212.214 216.44 202.158 234.086 192.6Z" fill="white"/>
<path d="M241.61 92.3202C238.994 94.9202 239.266 95.4822 237.982 91.2242C238.276 89.9562 240 87.1082 240.434 87.9382C242.472 91.8282 242.616 91.3202 241.61 92.3202Z" fill="white"/>
<path d="M239.22 146.716C241.128 152.262 241.836 152.976 241.89 153.928C241.936 154.728 241.524 155.69 240.974 159.808C239.502 170.856 241.356 169.366 239.268 172.042C237.224 174.662 233.49 173.602 231.176 171.296C230.18 169.925 229.004 168.694 227.68 167.636C223.418 164.536 224.932 163.08 221.932 161.59C217.132 159.21 217.298 156.248 213.784 154.448C212.696 153.89 216.608 151.498 217.658 148.782C219.084 145.092 221.674 143.644 222.77 139.782C224.076 135.056 226.246 130.612 229.17 126.676C230.37 124.276 236.328 109.582 236.604 111.6C234.884 125.97 236.418 138.578 239.22 146.716Z" fill="white"/>
<path d="M239.548 97.494C240.132 98.736 239.148 98.618 237.626 105.436C236.826 109.006 234.192 112.654 232.55 115.9C230.3 120.346 229.55 124.25 227.57 126.954C224.808 130.874 222.76 135.251 221.524 139.884C220.598 142.942 218.538 143.65 216.346 148.756C215.614 150.46 213.846 150.956 212.642 153.206C212.124 154.17 212.494 153.578 209.042 152.894C207.364 152.837 205.712 152.475 204.164 151.824C200.114 149.824 200.606 151.458 198.84 148.896C197.776 147.352 200.484 143.876 201.724 142.464C203.442 140.506 203.07 139.414 206.304 135.014C211.746 127.614 210.422 125.838 214.348 119.604C220.772 109.404 224.086 107.144 226.264 103.264C228.86 98.6466 232.354 94.5972 236.544 91.356C237.228 92.696 237.958 95.956 238.544 96.086C239.316 96.252 239.298 96.962 239.548 97.494Z" fill="white"/>
<path d="M235.446 189.676C238.082 190.858 232.786 189.578 225.482 197C218.024 204.576 220.576 206.424 211.822 208C198.986 206.454 186.701 201.882 175.978 194.66C175.246 194.168 180.352 192.524 181.208 192.318C186.126 191.138 183.27 193.68 197.008 197.908C200.832 199.193 204.87 199.725 208.896 199.474C213.496 199.292 214.446 195.058 224.784 188.274C228.022 186.15 231.852 188.068 235.446 189.676Z" fill="white"/>
<path d="M229.478 171.538C230.606 173.294 232.372 173.278 231.172 174.828C224.59 183.326 217.486 184.74 206.772 185.654C203.476 185.04 194.868 189.192 185.79 189.842C181.322 190.162 170.292 195.148 168.966 194.502C163.99 192.078 162.034 190.252 161.388 191.418C161.354 191.499 161.336 191.586 161.335 191.674C161.335 191.762 161.352 191.85 161.385 191.931C161.418 192.013 161.467 192.087 161.529 192.15C161.591 192.212 161.665 192.262 161.746 192.296C162.722 192.696 164.898 194.192 166.062 194.872C167.372 195.636 168.372 195.364 168.69 196.504C168.938 197.394 169.852 198.688 168.586 199.022C164.498 200.102 162.146 196.022 161.144 197.526C160.558 198.408 162.406 198.994 165.848 200.68C167.048 201.266 166.756 203.304 165.724 204.394C162.582 207.71 164.802 210.62 163.46 215.714C162.02 221.178 163.686 220.198 163.534 231.338C163.508 233.264 162.968 231.646 148.934 231.996C145.276 232.088 144.638 230.376 141.374 231.396C140.844 231.562 140.362 231.728 140.44 231.102C147.976 170.736 136.814 180.942 166.314 166.544C167.394 166.018 170.866 165.064 173.424 164.258C176.772 163.33 180.008 162.04 183.076 160.41C187.612 158.14 194.73 155.81 196.718 154.942C197.84 154.458 197.318 153.482 196.318 153.758C179.054 158.48 185.748 160.322 180.412 156.106C178.89 154.906 178.45 154.934 180.706 154.526C185.378 153.682 187.546 151.978 191.202 152.126C196.134 152.326 194.18 149.296 197.402 149.822C198.372 149.98 198.39 151.834 201.308 152.222C202.874 152.436 203.296 153.736 207.74 154.184C209.588 154.206 211.4 154.705 213 155.633C214.598 156.561 215.93 157.886 216.866 159.48C218.788 162.324 221.624 162.226 222.982 164.622C225.088 168.328 227.77 168.876 229.478 171.538ZM221.15 172.738C221.58 172.066 219.254 170.834 218.106 170.64C217.062 170.569 216.046 170.279 215.122 169.79C214.196 169.301 213.386 168.623 212.74 167.8C212.38 167.156 212.87 168.344 209.488 164.984C207.518 163.026 206.448 163.008 206.474 161.074C206.514 157.892 203.102 161.4 206.6 164.566L212.502 169.906C214.964 172.32 218.008 171.774 219.584 172.906C219.822 173.071 220.11 173.145 220.398 173.114C220.686 173.083 220.954 172.949 221.15 172.736V172.738Z" fill="#FFE451"/>
<path d="M225.454 374.722C225.76 377.88 226.392 377.052 225.956 377.904C224.814 379.624 224.048 381.564 223.704 383.598C223.26 385.088 222.566 386.494 221.65 387.75C221.278 388.202 221.182 388.118 218.008 388.236C217.154 388.324 217.772 387.436 218.47 386.468C221.07 382.868 219.6 382.268 221.246 379.742C221.944 378.676 225.332 373.454 225.454 374.722Z" fill="white"/>
<path d="M222.902 186.442C223.384 186.68 223.874 186.828 223.44 187.122C212.302 194.674 213.424 198.746 205.828 198.166C198.814 197.436 192.063 195.095 186.102 191.326C189.216 190.936 192.304 190.352 195.346 189.58C198.929 188.392 202.626 187.576 206.376 187.144C222.528 186.764 216.082 183.092 222.902 186.442Z" fill="white"/>
<path d="M206.512 301.292C211.978 306.654 211.606 305.96 211.248 306.566C205.47 316.314 198.058 319.594 198.94 327.614C200.392 340.814 196.822 334.896 187.554 353.16C183.468 361.21 177.872 364.618 173.292 373.176C171.74 376.078 170.892 375.896 168.62 376.556C168.27 376.656 168.172 376.534 168.02 376.192C167.458 374.894 167.374 375.254 161.354 376.77C159.154 377.326 161.716 374.874 162.126 373.51C162.96 370.736 155.444 374.616 155.36 373.472C155.627 372.546 155.979 371.644 156.41 370.782C156.494 370.612 156.525 370.418 156.498 370.23C156.472 370.042 156.39 369.866 156.262 369.724C156.134 369.582 155.967 369.484 155.782 369.438C155.597 369.392 155.403 369.404 155.224 369.47C152.478 370.27 152.354 370.3 152.24 370.176C151.95 369.86 154.562 367.1 155.184 366.542C168.07 355.002 171.248 361.892 181.546 333.814C182.478 331.298 182.94 328.632 182.906 325.948C182.814 319.93 184.846 318.198 184.224 309.8C183.024 293.702 173.274 285.746 177.458 265.054C177.47 265.01 178.27 262.076 180.556 253.772C180.738 253.106 180.858 253.372 184.806 254.668C197.64 258.856 197.706 258.832 197.474 259.81C194.976 270.386 194.832 275.072 197.544 284.662C198.412 287.712 202.944 297.8 206.512 301.292ZM193.788 338.962C198.03 332.718 195.008 333.562 195.082 327.162L195.07 327.202C195.097 327.1 195.1 326.992 195.08 326.888C195.06 326.782 195.017 326.684 194.955 326.598C194.892 326.512 194.812 326.442 194.719 326.39C194.626 326.338 194.522 326.308 194.416 326.302C193.796 326.162 193.616 327.062 193.616 327.702C193.55 332.524 195.45 333.578 193.788 335.998C193.134 336.806 192.637 337.73 192.322 338.72C192.256 339.422 193.28 339.708 193.788 338.962Z" fill="white"/>
<path d="M183.13 104.928C186.154 108.756 189.076 108.078 183.788 108.902C181.67 108.693 179.628 108.005 177.816 106.888C176.004 105.772 174.471 104.258 173.332 102.46C171.416 99.7562 170.198 96.6214 169.786 93.3336C169.704 92.9336 170.468 93.2096 170.818 93.2936C175.306 94.3736 176.452 93.7636 177.218 94.6316C179.122 96.7996 180.372 101.434 183.13 104.928Z" fill="white"/>
<path d="M183.6 122.034C183.512 123.558 183.754 123.368 182.458 122.654C180.035 121.668 177.894 120.099 176.224 118.086C172.244 113.391 170.21 107.352 170.536 101.206C170.616 99.872 171.348 104.274 177.75 108.898C183.142 112.8 183.21 118.262 183.6 122.034Z" fill="white"/>
<path d="M171.484 81.3999C176.172 81.5999 183.884 94.1859 181.858 93.1999C172.658 92.2439 160.634 92.8339 150.556 72.1519C147.676 66.2419 148.888 69.5799 154.654 70.8799C157.228 71.4619 162.024 80.9799 171.484 81.3999Z" fill="#FFE451"/>
<path d="M181.3 159.146C181.818 159.58 181.55 159.546 177.984 161.164C177.464 161.4 177.664 161.458 174.294 157.51C172.694 155.636 174.414 155.242 173.828 154.034C173.314 152.643 172.669 151.304 171.902 150.034C170.374 147.98 172.786 144.996 173.53 140.42C174.098 136.918 174.058 136.352 174.406 134.988C174.806 133.448 177.478 139.976 177.518 143.482C176.474 153.68 174 153.046 181.3 159.146Z" fill="#FFE451"/>
<path d="M179 127.788C179.932 138.12 180.578 135.658 180.578 137.528C178.276 136.818 173.978 133.032 171.934 126.612C171.39 124.892 173.134 124.022 173.272 120.022C173.394 116.678 173.322 117.468 173.432 117.01C178.934 123.18 177.28 121.022 177.832 121.772C176.522 123.4 178.642 123.85 179 127.788Z" fill="white"/>
<path d="M168.072 71.084C175.872 79.884 178.6 77.628 177.522 78.71C175.136 81.11 169.62 80.018 165.988 78.218C163.342 76.908 161.954 75.332 158.134 71.654C157.878 71.41 157.896 71.386 158.234 71.37C167.294 70.906 167.13 70.022 168.072 71.084Z" fill="white"/>
<path d="M175.6 161.37C175.906 161.74 175.898 161.998 175.468 162.03C173.436 162.49 171.44 163.097 169.496 163.846C164.472 164.926 157.452 170.094 157.462 168.202C157.474 165.508 167.636 161.054 171.624 157.546C172.34 156.908 171.758 156.754 175.6 161.37Z" fill="white"/>
<path d="M172.586 132.636C172.95 134.471 172.869 136.367 172.35 138.164C171.75 142.048 172.016 141.218 169.69 137.308C166.298 131.6 161.2 127.788 160.972 122C161.053 120.888 161.267 119.789 161.612 118.728C162.278 117.678 162.104 117.384 163.042 118.538C168.674 125.464 168.442 129.614 170.264 127.806C170.642 127.432 170.544 127.066 172.464 131.606C172.586 131.912 172.482 132.312 172.586 132.636Z" fill="white"/>
<path d="M172.468 68.368C173.152 69.078 171.218 68.244 161.41 69.592C154.64 70.522 148.648 67.41 146.86 64.414C145.124 61.3744 143.087 58.5168 140.78 55.884C139.38 54.054 148.568 62.084 157.348 61.654C158.292 61.5266 159.243 61.4518 160.196 61.43C168.18 62.786 169.706 65.502 172.468 68.368Z" fill="white"/>
<path d="M172.046 153.75C173.668 157.702 155.666 162.678 156.006 169.12C156.046 169.892 155.72 169.378 151.88 171.578C149.002 173.226 148.436 176.236 147.348 166.614C147.35 165.054 147.731 163.517 148.459 162.136C149.186 160.756 150.239 159.573 151.526 158.69C169.768 149.468 167.774 147.048 168.84 148.198C170.384 149.866 169.564 149.778 170.288 150.428C171.115 151.39 171.716 152.525 172.046 153.75Z" fill="white"/>
<path d="M169.876 109.078C171.276 113.198 172.05 114.756 171.898 117.494C171.97 120.398 171.269 123.269 169.866 125.812C169.528 126.33 169.358 125.786 168.976 124.952C166.062 118.6 162.88 117 159.752 111.662C158.985 110.125 158.602 108.425 158.638 106.708C158.638 106.664 158.998 98.9081 159.024 98.8281C162.443 101.62 165.115 105.218 166.8 109.298C167.334 110.206 168.548 110.32 169.158 108.96C169.718 107.704 169.45 107.822 169.876 109.078Z" fill="#FFE451"/>
<path d="M164.894 133.018C165.972 134.39 171.472 142.144 171.068 143.834C169.586 150.034 170.594 145.648 167.444 145.988C165.254 146.224 165.966 147.502 163.754 141.788C163.044 139.942 164.15 132.068 164.894 133.018Z" fill="white"/>
<path d="M168.264 93.11C168.748 96.388 169.74 104.932 167.992 107.71C167.682 108.206 167.672 106.758 164.812 102.778C162.63 99.742 155.012 93.524 153.166 88.11C152.4 85.866 150.068 78.022 150.542 75.728C151.684 76.872 153.542 81.992 159.742 87.338C166.106 92.834 168.032 91.54 168.264 93.11Z" fill="white"/>
<path d="M164.904 56.4778C165.926 56.5998 162.468 59.6578 156.8 60.0578C142.114 59.0578 133.252 44.9438 138.134 47.9598C140.975 49.3212 144.103 49.9764 147.252 49.8698C152.122 49.4698 151.952 48.5238 153.288 49.5658C154.338 50.3858 159.256 55.7998 164.904 56.4778Z" fill="#FFE451"/>
<path d="M162.8 130.95C163.634 132.162 160.57 138.914 162.288 142.846C165.988 151.32 167.644 147.356 150.13 157.618C147.298 159.278 144.24 165.236 146.504 172.094C147.404 174.818 147.612 174.874 146.786 175.798C140.83 182.46 143.608 189.018 142.052 198.688C140.664 207.304 141.212 208.332 140.358 216.91C138.434 236.226 137.148 233.91 145.074 236.13C145.51 236.252 145.516 236.352 145.192 240.898C145.056 242.816 121.992 231.676 113.392 224.212C109.108 220.496 101.526 212.2 101.078 210.492C101.54 210.566 118.108 214.998 126.352 212.01C126.557 211.93 126.725 211.776 126.824 211.58C126.923 211.384 126.946 211.158 126.889 210.944C126.833 210.732 126.7 210.548 126.516 210.428C126.332 210.306 126.11 210.258 125.892 210.29C123.458 210.88 120.958 211.158 118.454 211.112C104.672 211.344 89.1581 203.73 87.7181 202.77C77.0941 195.69 67.1881 182.99 64.5181 190.914C61.0961 201.058 63.6081 209.054 66.1321 216.048C67.2781 219.22 69.1941 219.184 70.7321 220.908C73.4741 223.994 73.7321 223.738 73.6681 224.77C73.4221 228.702 73.5981 229.706 73.1841 230.474C72.6511 231.774 72.2543 233.128 72.0001 234.51C71.8201 235.604 70.5441 233.892 70.1441 235.872C69.8521 237.306 70.2101 238.098 68.9581 238.824C68.0561 239.348 68.2401 238.094 66.7421 239.408C66.0761 239.992 65.6961 241.784 64.2761 240.04C63.5063 238.568 62.6293 237.154 61.6521 235.81C59.5041 232.864 57.7081 229.912 57.9101 226.92C58.4441 219.03 49.8241 205.964 50.8061 194.538C51.7861 183.138 53.7321 173.538 65.5321 172.884C96.7321 171.146 94.7161 172.684 107.69 169.186C112.176 167.839 116.583 166.242 120.89 164.402C122.808 163.364 122.08 162.144 120.104 162.872C110.044 166.578 105.962 169.072 92.3441 169.822C87.1921 170.106 109.6 130.652 111.526 107.73C112.45 96.752 109.662 98.38 112.726 97.78C117.61 96.822 127.43 90.206 127.496 81.342C127.516 78.516 127.666 78.21 127.018 77.574C126.78 77.342 126.618 77.068 126.218 77.258C124.766 77.924 126.358 79.224 125.436 83.51C123.954 90.408 115.758 95.554 111.436 95.962C109.088 96.184 107.784 95.474 103.148 94.22C102.788 94.124 99.8261 94.31 98.7201 94.168C95.5157 94.5286 92.4753 95.7754 89.9401 97.768C87.5841 100.516 83.1001 101.522 79.0361 107.844C77.0581 110.92 75.2661 113.55 72.0081 112.964C71.3061 112.836 71.7281 113.078 74.4081 108.322C76.5281 104.558 75.3061 102.9 76.7281 97.522C76.9521 96.676 77.6461 98.722 78.6901 97.982C80.6301 96.622 75.3821 93.954 73.9941 95.182C73.4561 95.662 73.6441 96.422 74.6841 96.582C75.3901 96.684 71.6561 102.63 67.2721 103.72C64.6141 104.382 63.7541 105.896 61.2921 106.428C60.5821 106.582 59.1961 105.954 59.2921 105.164C59.7441 101.282 56.9741 99.948 57.0701 97.604C57.3561 90.654 57.1361 96.696 58.1541 90.404C58.7541 86.67 59.7901 88.728 63.1261 85.792C75.8141 74.628 73.8841 76.678 76.5481 73.428C85.9181 61.996 79.0501 71.228 94.1481 54.662C96.9047 52.0976 99.8119 49.7 102.854 47.482C103.552 46.926 103.614 46.988 103.758 47.728C104.976 54.002 110.932 56.43 111.406 55.908C112.66 54.528 109.87 51.652 110.59 49.308C111.574 51.446 113.254 53.188 115.354 54.25C117.608 55.204 117.1 52.78 117.056 49.988C116.9 39.858 129.076 31.056 129.478 30.648C130.13 29.986 130.174 29.998 130.448 30.848C136.354 49.266 117.36 56.648 135.332 74.432C136.1 75.19 136.95 76.334 137.916 75.756C138.564 75.37 137.962 74.09 137.516 72.712C136.974 71.05 138.174 72.18 138.876 73.414C139.812 75.054 143.006 76.726 145.076 80.996C145.098 81.04 147.33 85.752 147.354 85.796C148.498 87.974 149.468 84.944 150.254 84.164C151.026 86.02 151.504 90.32 154.036 93.382C156.966 96.924 157.214 97.168 157.248 98.928C157.46 109.792 155.482 107.942 160.626 116.128C161.236 117.124 156.256 121.44 162.8 130.95ZM123.29 53C130.522 46.828 129.476 34.4 127.958 34.23C127.344 34.16 127.316 34.734 127.274 35.348C127.074 38.28 123.494 36.822 120.288 47.148C119.846 48.578 119.162 50.302 120.114 50.5C121.67 50.824 122.514 40.82 127.274 38.446C127.958 39.868 126.652 44.778 126.172 46.296C124.972 50.096 123.522 50.56 122.276 52.162C121.728 52.878 122.6 53.6 123.29 53ZM102.816 65.17C107.696 64.556 106.498 62.738 105.366 62.852C100.934 63.298 101.378 62.264 99.1041 60.8C97.6261 59.846 95.7661 64.06 102.816 65.17ZM68.5401 90.464C69.0921 90.546 69.7021 89.626 69.0481 89.192C67.8861 88.422 68.3641 88.636 65.3101 87.938C62.9321 87.59 61.9681 89.714 60.8601 91.646C59.7981 93.5 60.8881 94.83 62.2341 96.332C62.3745 96.4888 62.5703 96.5848 62.7801 96.6C62.9901 96.6152 63.1975 96.5484 63.3591 96.4134C63.5207 96.2786 63.6235 96.0864 63.6461 95.8772C63.6687 95.668 63.6091 95.4582 63.4801 95.292C62.7161 94.058 61.6801 93.232 62.5281 92.032C63.0761 91.258 63.5281 89.722 65.1781 89.802C68.4781 89.962 67.3581 90.292 68.5401 90.464ZM67.9821 95.212C68.6041 94.496 68.5981 92.454 65.4201 91.412C63.3801 90.738 63.1201 94.612 65.1221 95.012C66.9601 95.356 67.4001 95.884 67.9821 95.212Z" fill="white"/>
<path d="M154.5 375.976C156.181 375.276 157.945 374.794 159.748 374.542C158.872 376.64 157.457 378.468 155.646 379.842C154.768 380.716 154.202 381.984 155.026 382.9C155.606 383.546 155.368 383.664 151.758 387.368C151.558 387.506 145.292 389.044 148.796 385.13C150.648 383.06 151.556 382.628 150.916 381C150.67 380.378 150.256 379.904 150.846 379.324C154.054 376.17 154.092 376.086 154.5 375.976Z" fill="white"/>
<path d="M159.51 268.846C159.55 269.314 159.664 269.79 158.466 270.152C155.722 271.248 152.785 271.784 149.83 271.726C147.144 271.444 141.74 273.508 139.366 274.796C134.38 277.496 129.696 280.152 121.714 277.528C117.19 276.042 121.482 274.544 125.896 272.216C126.572 271.858 128.278 270.43 130.156 269.216C135.058 266.066 135.254 263.272 139.664 260.542C140.012 260.328 140.196 260.742 142.276 261.6C142.952 261.88 144.428 260.6 141.81 259.858C141.568 259.784 141.347 259.652 141.167 259.472C140.987 259.294 140.854 259.074 140.777 258.832C140.701 258.59 140.684 258.334 140.729 258.084C140.774 257.836 140.879 257.6 141.034 257.4C142.202 255.902 142.058 255.568 146.55 257.466C148.696 258.374 149.064 256.038 144.68 255.136C143.842 254.964 144.118 255.256 143.416 247.112C143.314 245.926 143.152 245.79 144.272 246.234C147.01 247.328 150.011 247.584 152.894 246.97C155.158 246.478 156.476 247.612 157.694 246.91C158.448 246.472 157.956 247.83 157.294 253.288C156.648 258.584 158.094 257.468 158.478 263.202C158.964 265.054 159.309 266.942 159.51 268.846Z" fill="white"/>
<path d="M147.744 233.568C157.944 233.662 156.4 232.422 156.128 237.056C155.598 246.056 155.742 245.134 155.672 245.196C155.418 245.416 156.224 245.098 149.792 245.596C148.9 245.588 148.01 245.5 147.134 245.332C146.37 245.254 146.84 245.412 146.958 234.86C146.972 233.568 146.822 233.56 147.744 233.568Z" fill="white"/>
<path d="M155.158 44.9998C159.484 47.1138 157.98 46.4178 153.338 47.1638C151.144 47.8754 148.865 48.2898 146.562 48.3958C136.646 48.1358 134 42.3138 134.2 41.9138C134.274 41.7518 134.8 41.9758 137.35 42.3918C140.067 42.9152 142.871 42.7808 145.526 41.9998C148.905 42.3448 152.18 43.365 155.158 44.9998Z" fill="white"/>
<path d="M147.15 68.8936C148.364 72.0696 149.064 75.4192 149.222 78.8158C148.506 87.5478 148.672 82.5636 145.106 77.5116C143.676 75.7378 142.119 74.0708 140.446 72.5238C136.246 67.6518 136.468 68.6178 136.892 61.9618C137.46 53.0358 136.892 52.0136 137.462 53.0496C141 59.3756 145.218 63.0916 147.15 68.8936Z" fill="white"/>
<path d="M147 39.0361C147.46 39.0621 147.17 39.3241 147.114 39.3561C141.532 42.4141 139.44 40.9081 133.656 40.2601C132.942 40.1801 133.204 39.8381 133.17 36.8601C133.154 35.5161 137.096 36.0301 138.422 36.4901C141.132 37.7783 144.026 38.6373 147 39.0361Z" fill="white"/>
<path d="M133.136 43.1742C137.102 52.0322 135.5 54.3222 135.294 62.3442C135.004 73.7302 135.632 70.6242 135.294 71.9182C132.908 70.3782 130.294 65.1482 129.402 61.7082C128.012 56.3822 131.472 48.6282 131.486 48.5802C132.366 45.6002 132.69 42.1762 133.136 43.1742Z" fill="#FFE451"/>
<path d="M126.242 31.3178C126.38 31.8438 125.842 31.9318 125.58 32.1858C121.15 36.3338 121.68 36.1518 120.952 35.4378C120.012 34.5494 119.291 33.4544 118.847 32.2396C118.403 31.0246 118.248 29.723 118.394 28.4378C118.394 27.5738 118.31 25.7818 118.794 26.5158C120.468 29.1298 125.48 28.3998 126.242 31.3178Z" fill="white"/>
<path d="M120.17 37.2158C118.598 37.1572 117.036 36.936 115.51 36.5558C114.528 36.3438 112.668 34.5678 110.71 33.7558C108.234 31.4198 105.252 31.9558 107.33 30.9558C111.342 29.0438 113.214 30.4318 115.4 31.4778C117.774 32.6198 117.958 35.4198 120.17 37.2158Z" fill="#FFE451"/>
<path d="M117.6 38.532C118.434 38.706 119.4 38.404 119.058 39.19C114.906 45.244 115.838 50.668 115.408 52.39C114.208 52.038 112.626 50.6 111.274 47.138C111.152 46.826 111.01 46.16 110.764 46.036C110.396 45.85 109.976 45.918 109.654 47.01C108.899 49.0938 108.899 51.3762 109.654 53.46C109.906 54.426 105.166 51.214 105.364 46.22C105.82 42.034 107.224 39.182 112.364 38.55C114.08 38.1048 115.881 38.0986 117.6 38.532Z" fill="white"/>
<path d="M112.482 36.834C111.302 37.054 110.151 37.4082 109.052 37.89C108.083 38.5016 107.072 39.0454 106.028 39.518C105.228 39.072 104.15 39.212 103.774 38.084C103.456 37.136 102.414 36.83 103.19 36.18C104.762 34.864 111.332 34.472 112.482 36.834Z" fill="white"/>
<path d="M102.422 41.2342C103.884 40.0862 105.4 41.1462 104.962 41.7222C103.792 43.2602 104.472 44.3722 103.316 45.2582C94.8279 51.7722 95.8739 51.2122 94.9759 50.6062C94.2153 50.1262 93.5689 49.4854 93.0821 48.7292C92.5953 47.973 92.2799 47.1192 92.1579 46.2282C92.0439 44.8722 97.9039 44.7862 102.422 41.2342Z" fill="white"/>
<path d="M98.1998 35.2538C99.8624 36.1528 101.272 37.4562 102.298 39.0438C100.372 41.1598 94.6378 42.9438 91.5218 44.3098C90.9598 44.5558 90.4238 44.1778 89.8758 43.6418C83.7718 37.6898 87.8098 39.2858 92.5798 37.4918C96.3258 36.0778 97.0158 34.5858 98.1998 35.2538Z" fill="white"/>
<path d="M90.8121 28.1318C91.8501 28.9798 96.5801 33.5318 95.3261 34.1178C89.2761 36.9178 91.2641 35.9818 87.8281 36.8498C84.8401 37.6058 85.9741 38.6499 81.8861 32.9759C80.2421 30.6939 85.3381 31.9558 88.4861 29.2718C90.0001 27.9998 90.2841 27.7018 90.8121 28.1318Z" fill="white"/>
<path d="M93.8401 51.7998C94.5681 52.3058 94.5321 51.9318 90.3561 56.4518C89.8761 56.9698 89.8341 56.8678 88.0421 57.1538C84.0721 57.1278 82.6901 53.2838 83.6421 54.0238C86.3441 56.1458 90.7741 53.4378 88.1441 52.4538C87.0693 52.0518 86.1471 51.3238 85.5067 50.3716C84.8661 49.4196 84.5395 48.291 84.5721 47.1438C84.6101 45.8058 85.1721 46.7718 85.9061 47.5958C86.8581 48.6578 89.3641 48.4298 88.3221 46.5958C87.8157 45.8582 87.5437 44.9848 87.5421 44.0898C92.0001 46.4378 89.6521 48.8978 93.8401 51.7998Z" fill="#FFE451"/>
<path d="M80.4258 166.184C91.5618 168.852 90.3158 166.384 89.9158 169.784C87.7278 170.224 85.508 170.489 83.2778 170.574C59.5258 171.068 61.4018 171.058 57.2278 173.874C54.9384 175.311 53.139 177.409 52.0678 179.89C47.894 190.435 48.0196 202.194 52.4178 212.648C52.6578 213.272 51.9918 212.848 51.5978 212.802C50.4218 212.686 50.6258 213.176 50.1098 216.462C49.9538 217.462 49.2418 214.932 48.2638 214.952C46.7758 214.982 48.1138 216.352 46.8898 218.888C46.0698 218.66 42.6278 210.368 40.3778 207.476C37.6778 204.002 35.1458 198.494 37.0618 194.904C45.7198 178.686 43.1158 182.976 47.5438 171.004C49.4498 165.854 60.6198 160.488 63.5438 161.114C69.1138 162.308 70.8378 163.888 80.4258 166.184Z" fill="white"/>
<path d="M88.5998 26C89.4618 26.98 85.9498 28.846 84.6418 29.128C80.2418 30.074 80.5518 30.558 80.1098 30.142C78.7258 28.84 75.7738 25.142 77.5518 25.088C78.512 24.9606 79.46 24.7532 80.3858 24.468C84.5998 23.61 83.2358 19.9199 88.5998 26Z" fill="white"/>
<path d="M79.9442 19.4401C82.6442 21.6402 82.2602 21.5742 81.8042 21.9142C80.2862 23.0482 77.9602 22.8402 76.0782 23.7322C74.467 22.7696 73.2238 21.2962 72.5462 19.5461C72.1862 18.5981 73.5742 19.3581 75.9462 17.2501C76.5342 16.7381 76.6242 16.7441 79.9442 19.4401Z" fill="white"/>
<path d="M78.4198 242.356C80.3658 245.84 80.4358 246.216 80.2758 246.972C79.9676 248.484 79.2878 249.896 78.2978 251.08C75.0718 244.966 75.4978 244.184 73.6818 243.226C72.6624 242.536 71.882 241.546 71.4478 240.394C70.8578 239.826 70.9998 239.262 71.3518 238.64C72.6698 236.308 72.2418 239.004 73.3258 236.086C73.7474 236.778 74.1145 237.502 74.4239 238.25C75.9279 241.188 77.3818 240.496 78.4198 242.356Z" fill="white"/>
<path d="M71.0662 13.0638C74.7262 15.6638 74.9842 15.6838 74.5322 16.0638C73.4782 16.9358 71.7982 17.9698 70.9442 16.8978C69.7106 15.3772 68.7542 13.6516 68.1182 11.7998C69.1762 12.0178 70.179 12.4478 71.0662 13.0638Z" fill="white"/>
<path d="M73.8001 102.4C74.8001 106.186 70.0001 112.926 70.1901 109.306C70.4861 103.936 73.5861 101.548 73.8001 102.4Z" fill="white"/>
<path d="M56.1038 228.702C56.0598 229.158 56.3778 229.342 55.0418 230C54.6418 230.2 54.8258 229.632 53.5818 225.85C51.0058 218.018 50.1618 220.068 51.8358 216.56C51.9218 216.376 51.9878 216.36 52.0578 216.56C55.8798 226.83 54.5998 221.066 56.1038 228.702Z" fill="white"/>
<path d="M364.432 108.28C363.984 108.118 363.498 108.089 363.032 108.196C355.39 109.34 353.7 110.97 363.278 105.818C364.804 104.996 365.306 104.388 365.056 103.128C365.028 102.725 364.842 102.349 364.538 102.082C364.236 101.814 363.84 101.677 363.436 101.698C362.678 101.654 362.76 101.404 362.716 101.004C362.716 96.972 350.808 103.272 347.606 105.292C346.654 105.892 347.698 104.426 348.022 102.004C348.096 99.28 345.696 98.578 344.798 100.332C337.514 114.562 341.262 106.904 337.636 112.194C334.814 116.308 334.502 115.86 332.502 116.976C331.292 117.65 331.79 116.74 330.102 114.562C329.224 113.426 325.702 114.462 324.644 114.892C320.586 116.556 324.108 114.492 316.862 116.092C308.038 118.036 307.462 119.974 306.304 118.926C305.78 118.677 305.202 118.561 304.622 118.589C304.042 118.616 303.476 118.786 302.978 119.084C302.08 119.65 302.242 116.9 299.286 117.632C298.404 117.85 298.426 117.108 296.592 115.564C295.178 114.579 293.83 113.5 292.56 112.336C286.824 106.07 286.006 104.91 285.326 102.778C284.9 101.444 283.388 101.222 283.474 100.002C283.726 96.444 279.936 96.04 277.76 94.826C274.654 93.09 271.78 92.064 270.814 91.372C267.002 88.636 264.814 89.242 262.716 87.878C261.718 87.2186 260.656 86.6632 259.544 86.22C259.262 86.146 259.232 86.08 259.434 85.738C263.116 79.538 262.488 79.76 264.234 80.284C267.088 81.136 269.858 79.214 271.53 76.606C272.93 74.418 271.398 72.968 272.914 73.03C272.956 73.03 274.114 73.132 274.388 72.614C274.97 71.5 276.124 71.75 276.326 70.014C276.472 68.74 276.686 68.65 277.054 68.496C279.706 67.384 278.358 65.594 278.74 64.62C279.608 62.408 278.382 61.238 278.94 60.262C280.54 57.5 278.654 57.528 279.028 55.9C279.198 55.3624 279.206 54.7864 279.05 54.2444C278.894 53.7024 278.58 53.2186 278.15 52.854C278.046 52.7848 277.97 52.6802 277.936 52.5594C277.902 52.4386 277.912 52.3096 277.966 52.196C278.322 51.222 276.914 49.664 276.166 49.418C276.01 49.3752 275.876 49.2782 275.786 49.1446C275.698 49.011 275.658 48.8498 275.678 48.69C275.556 47.943 275.2 47.254 274.66 46.7226C274.122 46.1912 273.426 45.845 272.678 45.734C270.822 45.688 271.818 45.106 270.492 44.644C268.304 43.884 267.836 44.872 266.874 44.068C265.408 42.84 263.176 45.058 264.02 42.752C265.054 39.918 263.22 37.37 260.762 38.596C259.722 39.116 259.994 39.45 259.348 39.11C256.056 37.37 255.01 41.266 254.764 41.424C254.176 41.798 251.978 41.166 251.892 43.096C251.852 43.972 252.2 44.192 252.064 44.508C251.946 44.778 250.898 45.02 250.52 45.708C248.866 48.728 251.618 49.18 250.436 49.976C249.224 51.0612 248.096 52.2344 247.058 53.486C245.724 54.696 244.858 59.808 243.218 61.156C239.778 63.994 237.926 76.83 238.73 79.202C240.154 83.402 241.652 80.978 235.874 81.98C233.298 82.426 225.474 79.484 221.52 84.58C219.72 86.914 218.656 85.48 215.86 88.244C211.802 92.258 208.358 90.988 198.42 97.512C195.862 99.19 195.848 96.072 193.848 97.358C191.448 98.898 192.332 100.102 191.492 99.346C190.885 98.9496 190.182 98.723 189.458 98.6904C188.733 98.6576 188.013 98.8198 187.372 99.16C186.472 99.572 186.652 99.408 182.334 99.662C180.934 99.744 180.886 96.752 179.714 95.22C178.514 93.646 185.286 97.48 184.514 94.462C183.258 89.562 179.802 85.748 176.252 82.154C175.146 81.034 177.052 81.978 179.27 79.416C182.9 75.216 175.964 79.33 170.324 70.908C169.524 69.724 175.236 71.352 175.252 69.708C175.266 68.198 170.64 62.81 163.83 60.414C162.966 60.11 170.89 55.666 167.082 54.952C166.934 54.924 165.968 54.982 165.682 54.934C161.614 54.1232 157.924 52.0008 155.178 48.892C155.094 48.822 155.036 48.664 155.274 48.62C158.046 48.114 158.208 48.606 161.144 49.42C161.32 49.4646 161.504 49.4524 161.672 49.3854C161.84 49.3182 161.983 49.1996 162.079 49.0466C162.176 48.8936 162.221 48.714 162.209 48.5334C162.197 48.353 162.128 48.181 162.012 48.042C158.212 43.712 154.432 42.684 148.832 40.842C152.534 38.172 151.912 36.224 150.108 36.94C145.202 38.89 140.088 34.072 134.884 34.4C133.43 34.492 132.794 35 132.566 34.15C131.618 30.634 132.724 29.036 129.89 28.42C128.798 28.184 128.09 30.8 127.534 29.678C126.856 28.334 125.498 27.736 122.616 26.822C121.86 26.6324 121.157 26.2712 120.562 25.7662C119.968 25.2612 119.498 24.626 119.188 23.91C118.244 22.452 117.09 23.664 116.898 24.83C116.536 26.4496 116.371 28.107 116.406 29.766C116.376 31.092 113.988 27.016 107.206 29.166C105.968 29.566 103.9 30.554 104.226 31.808C104.426 32.546 108.044 33.188 106.626 33.326C101.948 33.782 102.278 35.264 101.46 35.208C100 35.128 95.1801 29.8 94.2941 28.732C92.4501 26.51 90.5601 26.184 90.3281 25.678C89.1131 23.5646 87.2909 21.8652 85.0981 20.8C82.8341 20.068 83.2121 19.7141 81.9381 18.6841C75.5381 13.5021 79.5381 17.2161 74.9041 13.7141C73.1239 12.0572 71.0021 10.8106 68.6881 10.0621C67.4981 9.73814 65.6361 10.7921 66.5321 12.5761C67.3981 14.6444 68.5795 16.5658 70.0341 18.2721C71.2161 19.5081 70.8741 21.228 73.2901 23.672C73.8791 24.1378 74.4283 24.6514 74.9321 25.208C75.3781 25.85 75.5321 26.682 75.9101 27.372C78.1861 31.436 78.3621 30.394 80.0781 33.11C82.7021 37.262 83.0781 37.79 84.3261 38.67C85.3081 39.364 84.2241 39.486 85.8621 41.65C86.2921 42.218 86.0621 42.37 85.8781 44.382C85.8281 44.94 85.4401 44.582 85.0781 44.382C82.6001 42.89 82.5661 48.2 83.6001 50.4C84.4361 52.2 86.9201 54.334 83.1701 51.264C80.2461 48.864 80.5201 57.19 85.6661 58.526C88.4661 59.254 89.4661 58.03 83.6341 63.256C75.2921 70.734 76.5501 72.362 68.3901 78.856C64.1781 82.208 62.5201 85.032 59.3781 85.986C56.6841 86.804 56.6961 89.172 56.4001 90.83C56.1141 92.43 54.3501 96.706 55.5841 99.598C56.6241 102.038 57.7321 103.042 57.4961 105.272C57.2961 107.11 60.1601 109.072 62.5781 108.072C64.2853 107.104 66.0685 106.278 67.9101 105.6C67.9101 107.266 67.1861 105.556 67.1561 110.956C67.1281 115.928 75.2481 116.928 78.9381 111.132C83.5941 103.818 84.6561 104.532 90.3381 99.932C92.1971 98.2188 94.4651 97.0116 96.9245 96.4264C99.3841 95.8412 101.953 95.8976 104.384 96.59C110.676 98.296 109.9 96.962 109.9 103.728C109.666 103.728 110.048 106.002 109.798 108.3C108.3 122.09 102.344 134.964 97.1581 147.826C88.0321 170.45 93.4101 165.506 85.8181 165.6C80.6533 164.631 75.5619 163.306 70.5801 161.634C63.0561 158.21 60.8481 159.474 55.2361 162.068C44.0161 167.256 45.3541 175.002 41.3841 182.966C37.3421 191.08 35.3021 194.278 34.8501 196.534C34.6895 199.787 35.5473 203.01 37.3041 205.752C39.4157 208.65 41.2157 211.762 42.6741 215.038C43.9245 216.942 44.9411 218.99 45.7021 221.136C45.9981 222.47 46.9881 221.382 47.3161 222.348C48.5547 226.212 50.2407 229.916 52.3401 233.388C52.5571 233.688 52.8377 233.938 53.1619 234.118C53.4861 234.296 53.8459 234.402 54.2157 234.428C54.5855 234.452 54.9563 234.396 55.3017 234.262C55.6469 234.128 55.9585 233.918 56.2141 233.65C57.6441 232.36 56.8321 231.65 60.1641 236.954C61.0659 238.686 62.1423 240.32 63.3761 241.834C65.4161 243.682 65.9081 242.14 66.5001 243.01C70.7341 249.226 74.8501 255.61 78.4441 253.44C83.1601 250.588 83.7781 238.07 83.7881 238.026C85.8541 228.584 75.8981 225.476 75.3881 223.976C74.4161 221.08 69.0021 217.444 68.3361 215.934C66.1641 211.004 64.6561 207.026 64.7001 202.836C64.9001 182.994 69.5001 190.98 80.7901 200.01C92.4821 209.352 96.7121 207.342 98.7901 210.338C116.05 235.152 141.444 241.672 144.042 242.848C141.36 244.782 141.704 243.192 142.082 247.706C142.708 255.186 143.052 254.576 142.154 254.788C141.302 255.046 140.558 255.578 140.038 256.3C139.517 257.024 139.25 257.898 139.276 258.788C139.31 260.082 138.476 258.704 134.732 263.15C129.644 269.19 122.146 272.302 120.022 273.814C117.782 275.414 118.96 276.746 118.536 277.288C118.352 277.652 118.243 278.05 118.218 278.456C118.192 278.864 118.25 279.272 118.388 279.656C118.525 280.04 118.74 280.392 119.018 280.692C119.296 280.99 119.633 281.228 120.006 281.392C122.116 282.23 124.342 282.738 126.606 282.896C138.366 283.168 136.946 279.496 148.054 276.264C152.102 275.088 148.614 279.172 156.49 276.684C162.904 274.658 161.33 274.24 161.582 272.606C161.739 271.566 161.506 270.506 160.928 269.628C160.716 269.306 160.826 268.338 160.762 267.952C158.138 252.124 158.06 258.852 159.312 247.838C159.422 246.864 175.64 251.8 175.684 251.814C178.83 252.742 179.106 252.578 178.922 253.37C176.624 263.292 174.366 266.214 174.75 275.788C175.296 289.442 181.232 296.692 182.528 309.372C183.272 316.646 181.41 319.248 181.212 324.874C181.351 327.954 180.895 331.032 179.87 333.94C177.684 340.304 174.741 346.384 171.106 352.048C167.882 356.296 159.43 360.66 154.706 364.874C149.982 369.088 150.674 370.634 148.322 372.89C145.97 375.146 137.512 384.722 139.608 387.216C111.138 387.628 101.832 387.016 98.5881 387.216C97.1021 387.308 95.3581 388.31 98.3881 388.56C108.336 389.376 159.002 389.582 171.568 388.55C178.598 387.974 180.998 389.004 189.55 388.76C194.784 388.612 206.812 388.192 211.054 388.16C212.138 388.16 212.398 389.35 215.354 389.748C221.502 390.576 227.53 389.024 243.98 389.148C263.238 389.288 251.122 390.26 289.762 389.486C291.662 389.448 291.884 389.626 292.162 388.842C292.44 388.058 291.286 387.89 290.47 387.842C290.27 387.842 233.07 388.334 231.656 387.624C233.74 386.58 235.468 387.312 236.494 384.244C237.724 380.572 238.838 377.698 238.456 375.676C238.132 373.964 240.792 372.71 241.562 368.528C243.316 359.024 241.208 363.956 247.924 350.45C258.612 328.96 262.202 330.764 253.672 319.272C241.012 302.212 237.728 303.914 254.77 273.884C271.37 244.622 265.024 245.096 266.77 231.472C266.98 231.608 267.168 231.774 267.326 231.968C277.586 248.61 269.808 259.606 268.344 274.406C268.274 275.118 267.072 285.716 268.758 285.916C270.27 286.094 270.092 283.344 272.904 279.238C273.448 281.972 269.756 294.392 269.744 294.438C268.446 300.104 267.524 305.85 266.984 311.638C266.296 321.672 265.294 333.152 271.048 345.85C273.5 351.264 273.562 343.668 273.716 343.13C275.36 348.394 278.08 353.26 281.7 357.418C285.322 361.578 289.766 364.94 294.754 367.294C303.898 371.988 309.822 370.54 307.9 368.552C307.26 367.89 305.276 366.324 304.9 365.876C298.9 358.618 298.1 354.418 297.418 343.288C296.546 329.14 296.572 330.562 297.312 331.506C298.876 333.494 303.746 339.482 305.712 337.88C306.99 336.838 302.912 335.292 301.926 315.758C301.048 298.342 300.712 309.02 310.382 316.008C311.33 316.692 312.69 316.496 312.488 315.222C311.182 307.022 312.136 318.522 310.004 302.022C307.338 281.396 309.816 284.222 306.234 261.65C303.248 242.814 284.5 230.44 300.446 240.628C305.282 243.718 294.42 224.31 273.226 218.954C262.212 216.17 265.438 220.902 262.704 214.29C259.768 207.19 255.598 201.768 245.052 196.212C244.152 195.738 245.594 195.012 243.732 193.71C241.24 191.97 237.59 191.876 237.684 190.542C237.716 190.1 237.608 189.659 237.374 189.283C237.14 188.906 236.792 188.613 236.382 188.446C224.684 182.868 228.22 188.468 221.782 184.224C222.366 183.566 225.754 182.28 227.826 180.688C229.672 179.106 231.258 177.243 232.524 175.168C233.768 173.518 235.924 176.83 239.636 173.702C240.62 172.876 240.236 172.756 240.812 179.248C241.146 183.058 240.884 184.118 243.234 185.554C245.398 186.574 247.856 186.777 250.158 186.124C252.142 185.456 252.778 186.336 255.046 186.054C260.456 185.382 260.388 183.766 266.788 181.454C269.374 180.662 271.612 179.008 273.128 176.768C274.494 174.324 269.604 170.836 267.5 159.844C266.582 155.044 265.5 153.616 266.1 152.244C268.13 147.618 264.67 148.5 266.74 146.566C267.05 146.296 267.302 145.966 267.482 145.597C267.662 145.227 267.766 144.825 267.788 144.414C267.808 144.004 267.746 143.593 267.606 143.207C267.466 142.821 267.248 142.467 266.968 142.166C266.336 141.408 266.726 141.13 267.258 140.31C270.118 135.91 268.178 135.062 271.028 130.868C276.77 122.41 271.438 122.91 280.246 130.868C281.572 132.068 284.574 137.422 291.036 141.038C293.712 142.536 298.282 143.596 301.066 141.876C303.32 140.476 306.03 141.066 309.582 139.454C312.468 138.298 315.494 137.526 318.582 137.16C322.14 136.346 323.264 135.422 324.816 135.56C324.874 135.56 326.186 135.178 329.52 133.936C331.772 133.098 332.52 130.146 332.57 127.71C332.59 126.886 339.182 124.91 340.38 124.192C351.78 117.304 348.38 118.844 359.884 117.75C364.808 117.282 365.27 114.13 362.336 113.824C359.256 113.502 357.884 113.858 362.21 112.304C364.01 111.662 364.768 111.104 365.07 110.396C365.234 110.025 365.262 109.608 365.144 109.22C365.028 108.831 364.774 108.498 364.432 108.28ZM362.528 102.944C364.502 102.366 364.392 103.924 363.072 104.734C359.816 106.474 356.466 108.027 353.034 109.386C352.788 109.31 352.744 108.64 352.704 108.386C352.6 107.702 352.644 107.7 353.28 107.354C356.238 105.635 359.33 104.16 362.528 102.944ZM270.474 102.344C271.098 103.84 264.138 106.302 262.856 106.81C258.946 108.366 263.026 107.83 267.188 113.168C268.838 115.288 266.744 115.806 264.04 120.048C250.766 140.888 252.466 142.558 250.84 144.928C249.568 142.816 248.45 140.615 247.496 138.342C246.846 137.058 251.402 120.942 251.78 119.592C254.414 110.122 259.424 100.782 260.55 92.932C259.928 88.312 257.97 88.382 258.224 87.974C260.186 84.2 268.094 96.626 270.474 102.338V102.344ZM238.54 96.086C239.316 96.252 239.298 96.962 239.54 97.486C240.124 98.728 239.14 98.61 237.618 105.428C236.818 108.998 234.182 112.652 232.542 115.892C230.292 120.338 229.542 124.242 227.562 126.946C224.8 130.866 222.752 135.243 221.516 139.876C220.59 142.934 218.53 143.642 216.338 148.748C215.606 150.452 213.838 150.948 212.634 153.198C212.118 154.162 212.486 153.57 209.034 152.886C207.356 152.83 205.704 152.467 204.156 151.816C200.106 149.816 200.598 151.45 198.832 148.888C197.768 147.344 200.476 143.868 201.716 142.456C203.434 140.498 203.062 139.406 206.296 135.006C211.738 127.606 210.414 125.83 214.34 119.596C220.764 109.396 224.078 107.136 226.256 103.256C228.852 98.6392 232.348 94.59 236.536 91.348C237.222 92.68 237.962 95.962 238.54 96.086ZM237.982 91.224C238.276 89.956 240 87.108 240.434 87.938C242.47 91.822 242.616 91.32 241.61 92.32C239 94.93 239.266 95.48 237.982 91.224ZM242.514 109.32C242.514 93.73 242.65 99.92 245.748 99.78C248.064 99.4694 250.356 98.9882 252.602 98.34C259.26 97.074 258.036 93.236 258.766 92.14C260.088 93.74 255.256 105.54 254.546 107.484C246.56 129.348 248.128 130.036 246.504 135.272C243.698 126.914 242.348 118.135 242.514 109.32ZM245.914 92.896C246.458 92.8442 247.006 92.8604 247.546 92.944C258.998 91.896 257.18 91.446 257.204 92.43C257.298 96.382 253.578 96.764 246.652 98.288C245.572 98.526 245.174 98.27 245.076 97.178C244.98 96.624 244.974 96.0584 245.054 95.502C245.336 94.186 244.6 93 245.906 92.896H245.914ZM251.4 46.468C251.968 45.824 253.668 46.372 253.358 44.81C253.146 43.748 252.62 42.572 253.726 42.61C255.516 42.682 255.868 43.158 256.206 41.988C256.464 41.088 256.048 41.176 256.938 40.284C257.794 39.426 258.426 39.842 259.162 40.714C260.068 41.788 260.482 40.652 260.808 40.192C260.93 39.9406 261.134 39.738 261.386 39.6176C261.638 39.4972 261.924 39.466 262.196 39.5292C262.47 39.5924 262.712 39.7462 262.886 39.9654C263.06 40.1848 263.154 40.4564 263.152 40.736C263.174 41.181 263.102 41.6256 262.94 42.0408C262.78 42.456 262.532 42.8326 262.216 43.146C261.472 44.372 263.262 44.186 263.836 45.09C264.15 45.586 265.068 45.142 265.116 45.124C267.094 44.424 266.28 46.502 267.806 45.944C272.08 44.384 269.934 48.792 272.282 47.234C273.66 46.322 274.958 48.186 274.564 49.564C274.17 50.942 277.146 49.86 276.504 52.272C276.048 53.976 278.592 53.288 277.732 55.472C277.596 55.82 277.034 56.446 277.732 57.132C279.71 59.072 276.704 58.948 277.618 61.168C278.734 63.88 276.276 64.168 277.456 65.516C278.128 66.284 277.38 66.886 276.498 67.116C275.534 67.376 275.392 67.4902 275.432 69.0082C275.47 70.3842 274.12 70.53 274.042 70.684C273.892 71.0306 273.638 71.322 273.316 71.5184C272.994 71.7146 272.618 71.8062 272.242 71.78C271.886 72.236 271.69 71.992 271.316 71.658C270.746 71.0522 270.014 70.6244 269.206 70.4268C268.398 70.229 267.55 70.2698 266.766 70.544C265.22 71.516 263.612 69.1862 265.068 68.3002C265.844 67.8282 266.514 68.1482 266.292 66.5502C266.124 65.3502 266.212 63.926 267.424 63.826C269.636 63.642 266.776 61.97 268.656 60.254C270.456 58.61 266.894 58.718 268.082 56.44C269.816 53.12 266.14 55.798 265.646 52.804C265.582 52.404 265.944 51.758 265.984 51.57C266.022 51.437 266.022 51.2958 265.982 51.1634C265.94 51.031 265.864 50.913 265.758 50.8236C265.652 50.7342 265.522 50.6772 265.386 50.6596C265.248 50.642 265.108 50.6644 264.984 50.724C262.584 52.124 263.27 49.104 261.414 49.794C258.466 50.886 258.904 47.412 257.214 49.008C254.626 51.44 255.598 47.194 253.9 48.408C252.108 49.71 250.612 47.372 251.4 46.468ZM239.914 76.758C242.7 57.488 243.104 67.292 246.81 56.758C248.776 51.174 251.11 55.924 251.992 54.38C252.066 54.25 252.096 54.0994 252.076 53.951C252.056 53.8026 251.988 53.6648 251.884 53.558C250.904 52.378 249.39 52.716 250.044 52.058C255.044 47.022 253.772 52.626 257.144 50.878C257.798 50.538 257.99 50.3 258.29 50.636C258.526 50.9848 258.856 51.2588 259.242 51.4254C259.628 51.592 260.054 51.6442 260.47 51.576C262.054 51.134 261.794 52.006 263.738 52.546C264.16 52.662 264.196 52.716 264.446 53.634C265.156 56.234 266.89 55.204 266.552 56.402C266.412 56.8738 266.39 57.3722 266.484 57.855C266.578 58.3378 266.786 58.791 267.092 59.176C267.272 59.398 267.356 59.588 267.174 59.85C265.95 61.626 267.016 62.05 266.442 62.392C264.064 63.826 265.406 66.472 264.458 66.992C264.028 67.2652 263.672 67.638 263.418 68.079C263.166 68.52 263.022 69.0158 263.002 69.524C262.82 70.906 264.602 71.574 264.928 72.372C265.352 73.412 267.68 70.136 270.246 72.678C272.52 74.932 267.688 80.612 263.546 78.478C263.37 78.3524 263.156 78.2964 262.942 78.3208C262.728 78.3452 262.53 78.4484 262.388 78.61C259.694 82.328 257.332 86.2766 255.332 90.41C254.802 91.546 246.036 91.198 244.84 91.872C244.366 92.138 243.64 91.614 243.458 91.072C242.37 87.992 241.694 89.17 242.832 87.188C243.852 85.406 244.576 86.588 247.5 85.332C250.614 83.982 252.592 83.666 253.348 82.88C253.59 82.628 253.714 81.58 252.748 81.79C248.29 82.77 246.71 84.748 242.924 81.926C241 80.496 239.824 79.47 239.922 76.758H239.914ZM185.8 101.106C188.326 100.862 189.348 99.32 190.89 100.85C193.802 103.748 192.744 97.174 195.562 99.162C198.172 101 196.708 98.526 212.508 92.268C216.07 90.868 216.984 88.328 220.256 87.398C222.7 86.704 221.912 84.554 226.162 83.198C227.674 82.8662 229.238 82.8404 230.762 83.122C229.898 83.632 226.034 83.984 228.532 89.922C229.07 91.198 228.914 91.626 227.944 91.474C216.518 89.706 219.034 92.132 213.482 104.572C209.682 113.096 195.778 141.814 197.656 142.282C198.81 142.568 199.89 137.994 204.282 127.882C204.298 127.846 216.522 100.87 216.748 100.314C219.272 94.06 218.77 93.324 221.706 92.666C227.362 91.396 230.344 94.666 230.326 91.506C230.326 89.456 227.458 85.558 230.526 84.798C238.57 82.81 237.012 83.264 239.232 83.298C240.458 83.1724 241.698 83.3208 242.86 83.732C243.562 84.224 243.15 84.762 242.778 84.812C242.02 84.8456 241.282 85.0586 240.624 85.4338C239.964 85.8092 239.404 86.3356 238.99 86.97C236.46 90.296 235.942 89.472 232.226 93.17C224.61 100.754 225.876 102.552 222.34 106.29C210.352 118.962 210.722 126.28 206.54 132.124C204.722 134.42 203.156 136.907 201.874 139.54C201.448 140.654 199.598 142.444 198.496 144.17C197.632 145.399 197.107 146.834 196.974 148.33C196.838 148.518 196.312 148.4 195.974 148.478C193.856 148.966 194.31 150.544 192.818 150.5C187.198 150.34 184.442 152.396 182.898 152.352C183.424 147.372 196.48 137.752 201.23 125.368C204.294 117.368 214.218 102.968 212.212 101.98C210.936 101.354 211.38 104.108 206.122 112.78C205.852 113.573 205.358 114.27 204.702 114.79C204.046 115.31 203.254 115.63 202.42 115.712C197.522 116.912 196.904 119.018 191.608 118.134C189.514 117.784 189.842 118.678 185.258 118.16C184.724 118.1 184.638 116.098 183.674 113.912C182.674 111.662 181.212 110.512 181.986 110.512C184.46 110.496 185.786 111.068 187.996 109.484C191.748 106.804 186.644 108.322 183.104 101.978C182.494 100.872 183.236 101.35 185.8 101.106ZM156 169.12C156.04 169.892 155.714 169.378 151.874 171.578C148.996 173.226 148.43 176.236 147.342 166.614C147.344 165.053 147.725 163.517 148.453 162.136C149.181 160.756 150.233 159.573 151.52 158.69C169.762 149.468 167.768 147.05 168.834 148.198C170.378 149.866 169.558 149.778 170.282 150.428C171.109 151.39 171.71 152.525 172.04 153.75C173.668 157.702 155.666 162.678 156 169.12ZM159.018 98.828C162.44 101.619 165.114 105.217 166.8 109.298C167.334 110.206 168.548 110.32 169.158 108.96C169.72 107.704 169.452 107.822 169.878 109.078C171.278 113.198 172.052 114.756 171.9 117.494C171.972 120.398 171.271 123.269 169.868 125.812C169.53 126.33 169.36 125.786 168.978 124.952C166.06 118.6 162.88 117 159.752 111.662C158.985 110.125 158.603 108.425 158.638 106.708C158.642 106.664 159 98.902 159.024 98.828H159.018ZM153.16 88.118C152.394 85.874 150.062 78.03 150.536 75.736C151.678 76.88 153.536 82 159.736 87.346C166.102 92.834 168.028 91.546 168.26 93.11C168.744 96.388 169.736 104.932 167.988 107.71C167.678 108.206 167.668 106.758 164.808 102.778C162.63 99.75 155.016 93.53 153.166 88.118H153.16ZM179 127.788C179.932 138.12 180.578 135.658 180.578 137.528C178.276 136.818 173.978 133.03 171.934 126.612C171.39 124.892 173.134 124.022 173.272 120.022C173.394 116.678 173.322 117.468 173.432 117.01C178.934 123.18 177.278 121.022 177.832 121.772C176.522 123.4 178.642 123.85 179 127.788ZM176.226 118.086C172.246 113.391 170.211 107.352 170.538 101.206C170.618 99.872 171.35 104.274 177.752 108.898C183.152 112.792 183.212 118.262 183.602 122.034C183.514 123.558 183.756 123.368 182.46 122.654C180.037 121.668 177.895 120.099 176.224 118.086H176.226ZM161.614 118.732C162.28 117.682 162.106 117.388 163.044 118.542C168.676 125.468 168.444 129.618 170.266 127.81C170.644 127.436 170.55 127.068 172.466 131.61C172.594 131.914 172.49 132.312 172.594 132.638C172.958 134.473 172.877 136.369 172.358 138.166C171.758 142.05 172.024 141.22 169.698 137.31C166.298 131.6 161.2 127.786 160.972 122C161.051 120.889 161.266 119.791 161.612 118.732H161.614ZM164.896 133.018C165.974 134.39 171.474 142.144 171.07 143.834C169.588 150.034 170.596 145.648 167.446 145.988C165.256 146.224 165.968 147.502 163.756 141.788C163.044 139.942 164.15 132.068 164.894 133.018H164.896ZM171.618 157.546C172.342 156.908 171.762 156.746 175.594 161.37C175.9 161.74 175.892 161.998 175.462 162.03C173.43 162.49 171.434 163.097 169.49 163.846C164.468 164.926 157.446 170.094 157.456 168.202C157.466 165.508 167.628 161.054 171.616 157.546H171.618ZM174.296 157.51C172.696 155.636 174.416 155.242 173.83 154.034C173.316 152.643 172.671 151.304 171.904 150.034C170.376 147.982 172.788 144.996 173.532 140.42C174.1 136.918 174.062 136.352 174.408 134.988C174.808 133.448 177.48 139.976 177.52 143.482C176.476 153.682 174.012 153.04 181.302 159.142C181.82 159.576 181.55 159.542 177.986 161.16C177.466 161.4 177.664 161.458 174.294 157.51H174.296ZM178.244 149.818C181.406 139.418 174.844 136.218 181.192 139.994C181.894 140.41 182.418 140.874 183.126 140.214C183.654 139.722 183.344 139.288 182.012 136.238C180.382 132.504 181.592 127.664 179.358 123.584C179.182 123.262 179.454 123.152 179.596 123.224C184.184 125.53 182.566 125.308 183.65 126.278C183.763 126.411 183.913 126.508 184.08 126.556C184.248 126.605 184.426 126.602 184.593 126.55C184.759 126.497 184.906 126.397 185.016 126.261C185.125 126.125 185.192 125.96 185.208 125.786C185.408 125.048 185.208 123.186 185.378 123.186C184.938 117.798 184.632 120.506 188.718 119.85C193.104 119.146 193.216 121.05 198.414 118.894C199.226 118.56 204.184 116.218 203.336 117.53C199.778 123.034 202.336 122.33 193.288 136.13C188.966 142.73 183.158 145.73 180.982 152.342C180.744 153.066 180.582 152.974 178.69 153.396C177.666 153.624 178.028 150.526 178.242 149.818H178.244ZM183.132 104.928C186.156 108.756 189.078 108.078 183.79 108.902C181.672 108.694 179.63 108.005 177.818 106.889C176.006 105.773 174.473 104.258 173.334 102.46C171.419 99.7566 170.2 96.6218 169.788 93.334C169.706 92.934 170.47 93.21 170.82 93.294C175.308 94.374 176.452 93.764 177.22 94.632C179.122 96.8 180.372 101.434 183.13 104.928H183.132ZM181.858 93.2C172.658 92.244 160.634 92.834 150.556 72.152C147.676 66.242 148.886 69.58 154.654 70.88C157.228 71.46 162.024 80.978 171.484 81.398C176.172 81.6 183.894 94.186 181.858 93.2ZM137.458 53.048C140.994 59.374 145.214 63.092 147.146 68.892C148.361 72.068 149.06 75.4176 149.218 78.814C148.504 87.546 148.668 82.562 145.102 77.51C143.672 75.7362 142.115 74.0692 140.442 72.5222C136.242 67.65 136.464 68.616 136.888 61.96C137.46 53.038 136.884 52.014 137.462 53.05L137.458 53.048ZM177.518 78.708C175.132 81.108 169.616 80.016 165.984 78.216C163.338 76.904 161.948 75.332 158.13 71.652C157.874 71.406 157.892 71.384 158.23 71.368C167.29 70.904 167.124 70.02 168.068 71.082C175.88 79.884 178.6 77.628 177.522 78.71L177.518 78.708ZM172.464 68.366C173.148 69.076 171.214 68.242 161.406 69.59C154.636 70.52 148.642 67.41 146.856 64.412C145.12 61.3726 143.083 58.5148 140.776 55.882C139.376 54.052 148.564 62.082 157.344 61.652C158.289 61.5246 159.239 61.4498 160.192 61.428C168.182 62.782 169.704 65.502 172.468 68.368L172.464 68.366ZM164.9 56.476C165.922 56.598 162.464 59.656 156.796 60.056C142.11 59.056 133.246 44.942 138.13 47.958C140.971 49.3194 144.099 49.9746 147.248 49.868C152.118 49.468 151.948 48.522 153.284 49.564C154.34 50.386 159.256 55.8 164.904 56.478L164.9 56.476ZM155.158 45C159.484 47.114 157.98 46.418 153.338 47.164C151.145 47.8754 148.866 48.2898 146.562 48.396C136.646 48.136 134 42.314 134.2 41.914C134.274 41.752 134.8 41.976 137.35 42.392C140.068 42.9154 142.871 42.781 145.526 42C148.905 42.346 152.18 43.3662 155.158 45ZM133.172 36.86C133.156 35.516 137.098 36.03 138.424 36.49C141.134 37.7782 144.027 38.637 147 39.036C147.46 39.062 147.17 39.324 147.114 39.356C141.536 42.422 139.44 40.908 133.656 40.26C132.944 40.18 133.2 39.838 133.172 36.86ZM133.136 43.174C137.102 52.032 135.5 54.324 135.294 62.344C135.004 73.73 135.632 70.624 135.294 71.918C132.908 70.378 130.294 65.148 129.402 61.708C128.012 56.382 131.472 48.628 131.486 48.58C132.38 45.6 132.69 42.176 133.136 43.174ZM118.784 26.522C120.468 29.122 125.482 28.39 126.242 31.322C126.38 31.848 125.842 31.936 125.58 32.19C121.15 36.34 121.68 36.156 120.952 35.442C120.012 34.5536 119.292 33.4588 118.848 32.2438C118.404 31.0288 118.248 29.7274 118.394 28.442C118.4 27.58 118.31 25.788 118.784 26.522ZM107.322 30.958C111.334 29.046 113.208 30.434 115.392 31.48C117.774 32.62 117.958 35.42 120.17 37.216C118.598 37.1574 117.037 36.9362 115.51 36.556C114.526 36.344 112.666 34.57 110.71 33.756C108.228 31.422 105.242 31.95 107.322 30.958ZM109.652 53.458C109.904 54.424 105.164 51.212 105.362 46.218C105.818 42.034 107.222 39.18 112.362 38.548C114.079 38.1032 115.881 38.0978 117.6 38.532C118.434 38.706 119.4 38.404 119.058 39.19C114.906 45.244 115.838 50.668 115.408 52.39C114.208 52.038 112.63 50.6 111.274 47.138C111.152 46.826 111.01 46.16 110.764 46.036C110.396 45.85 109.976 45.918 109.654 47.01C108.899 49.093 108.899 51.3748 109.652 53.458ZM103.2 36.18C104.772 34.864 111.342 34.472 112.492 36.834C111.313 37.055 110.162 37.4094 109.062 37.89C108.093 38.5016 107.082 39.0456 106.038 39.518C105.238 39.072 104.16 39.212 103.784 38.084C103.456 37.136 102.414 36.83 103.2 36.18ZM104.972 41.722C103.802 43.26 104.482 44.372 103.326 45.258C94.8381 51.772 95.8841 51.212 94.9861 50.606C94.2255 50.126 93.5791 49.4854 93.0923 48.7292C92.6055 47.9728 92.2901 47.1192 92.1681 46.228C92.0541 44.872 97.9141 44.786 102.432 41.228C103.884 40.084 105.4 41.146 104.962 41.722H104.972ZM98.2001 35.254C99.8627 36.1532 101.272 37.4566 102.298 39.044C100.372 41.16 94.6381 42.942 91.5221 44.31C90.9601 44.556 90.4241 44.178 89.8761 43.642C83.7721 37.69 87.8101 39.286 92.5801 37.492C96.3261 36.078 97.0161 34.586 98.2001 35.254ZM70.9441 16.8901C69.7125 15.3712 68.7561 13.6486 68.1181 11.8001C69.1763 12.0193 70.1791 12.4507 71.0661 13.0681C74.7261 15.6681 74.9841 15.6881 74.5321 16.0681C73.4801 16.9301 71.8001 17.9621 70.9441 16.8901ZM72.5441 19.5461C72.1841 18.5981 73.5721 19.3581 75.9441 17.2501C76.5241 16.7381 76.6141 16.7441 79.9441 19.4501C82.6441 21.65 82.2601 21.584 81.8041 21.924C80.2861 23.058 77.9601 22.85 76.0781 23.742C74.4653 22.777 73.2219 21.3 72.5461 19.5461H72.5441ZM80.1041 30.146C78.7201 28.844 75.7681 25.146 77.5461 25.092C78.5063 24.9648 79.4543 24.7574 80.3801 24.472C84.6001 23.61 83.2361 19.9201 88.6001 26C89.4641 26.98 85.9501 28.846 84.6421 29.128C80.2381 30.074 80.5481 30.558 80.1061 30.142L80.1041 30.146ZM81.8841 32.98C80.2401 30.698 85.3361 31.96 88.4841 29.276C89.9921 27.996 90.2841 27.706 90.8021 28.136C91.8401 28.984 96.5701 33.536 95.3161 34.122C89.2661 36.922 91.2541 35.986 87.8181 36.854C84.8401 37.6 85.9741 38.648 81.8861 32.976L81.8841 32.98ZM83.6321 54.032C86.3321 56.154 90.7641 53.446 88.1341 52.462C87.0593 52.06 86.1371 51.332 85.4967 50.3798C84.8561 49.4278 84.5293 48.2992 84.5621 47.152C84.6001 45.814 85.1621 46.78 85.8961 47.604C86.8481 48.666 89.3541 48.438 88.3121 46.604C87.8057 45.8664 87.5337 44.993 87.5321 44.098C91.9941 46.442 89.6481 48.898 93.8381 51.808C94.5641 52.314 94.5301 51.94 90.3541 56.46C89.8741 56.978 89.8301 56.876 88.0401 57.162C84.0721 57.13 82.6901 53.288 83.6341 54.028L83.6321 54.032ZM70.2001 109.302C70.4881 103.934 73.5881 101.548 73.8101 102.396C74.8001 106.18 70.0001 112.922 70.2001 109.302ZM50.1101 216.46C49.9541 217.46 49.2421 214.93 48.2641 214.95C46.7761 214.98 48.1141 216.35 46.8901 218.886C46.0701 218.658 42.6281 210.366 40.3781 207.474C37.6781 204 35.1461 198.492 37.0621 194.902C45.7201 178.684 43.1161 182.974 47.5441 171.002C49.4501 165.852 60.6201 160.486 63.5441 161.112C69.1161 162.312 70.8401 163.888 80.4281 166.184C91.5641 168.852 90.3181 166.384 89.9181 169.784C87.7301 170.224 85.5103 170.488 83.2801 170.574C59.5281 171.068 61.4041 171.058 57.2301 173.874C54.9405 175.311 53.1413 177.409 52.0701 179.89C47.8963 190.435 48.0219 202.194 52.4201 212.648C52.6601 213.272 51.9941 212.848 51.6001 212.802C50.4221 212.684 50.6261 213.174 50.1101 216.46ZM55.0421 230C54.6421 230.2 54.8261 229.632 53.5821 225.85C51.0061 218.018 50.1621 220.068 51.8361 216.56C51.9221 216.376 51.9881 216.36 52.0581 216.56C55.8581 226.844 54.6041 221.076 56.1041 228.71C56.0601 229.158 56.3781 229.342 55.0421 230ZM78.4201 242.356C80.3661 245.84 80.4361 246.216 80.2761 246.972C79.9679 248.484 79.2881 249.896 78.2981 251.08C75.0721 244.968 75.4981 244.184 73.6821 243.226C72.6627 242.536 71.8823 241.546 71.4481 240.394C70.8581 239.826 71.0001 239.262 71.3521 238.64C72.6681 236.308 72.2421 239.004 73.3261 236.086C73.7477 236.778 74.1147 237.502 74.4241 238.25C75.9301 241.188 77.3821 240.496 78.4201 242.356ZM113.4 224.212C109.116 220.496 101.534 212.2 101.086 210.492C101.548 210.566 118.116 214.996 126.36 212.01C126.565 211.93 126.733 211.776 126.832 211.58C126.931 211.384 126.955 211.158 126.898 210.944C126.841 210.732 126.708 210.548 126.524 210.428C126.34 210.306 126.118 210.258 125.9 210.29C123.466 210.88 120.966 211.158 118.462 211.112C104.68 211.344 89.1661 203.73 87.7261 202.77C77.1021 195.69 67.1961 182.99 64.5261 190.914C61.1041 201.058 63.6161 209.054 66.1401 216.048C67.2861 219.22 69.2021 219.186 70.7401 220.908C73.4821 223.994 73.7401 223.738 73.6761 224.77C73.4281 228.702 73.6061 229.706 73.1921 230.474C72.6563 231.774 72.2569 233.126 72.0001 234.51C71.8201 235.604 70.5441 233.892 70.1441 235.872C69.8521 237.306 70.2101 238.098 68.9581 238.824C68.0561 239.348 68.2401 238.092 66.7421 239.408C66.0761 239.992 65.6961 241.784 64.2761 240.04C63.5063 238.568 62.6293 237.154 61.6521 235.81C59.5041 232.864 57.7081 229.912 57.9101 226.92C58.4441 219.03 49.8241 205.964 50.8061 194.538C51.7881 183.112 53.7321 173.538 65.5321 172.884C96.7321 171.146 94.7141 172.67 107.69 169.186C112.176 167.839 116.583 166.241 120.89 164.402C122.808 163.364 122.08 162.144 120.104 162.872C110.044 166.578 105.962 169.072 92.3441 169.822C87.1921 170.104 109.598 130.654 111.526 107.73C112.45 96.752 109.662 98.38 112.726 97.78C117.61 96.822 127.43 90.206 127.496 81.342C127.516 78.516 127.666 78.21 127.018 77.574C126.78 77.34 126.618 77.068 126.218 77.258C124.766 77.924 126.358 79.224 125.436 83.51C123.954 90.408 115.758 95.554 111.436 95.962C109.088 96.184 107.784 95.474 103.148 94.22C102.788 94.124 99.8261 94.31 98.7201 94.168C95.5159 94.5292 92.4755 95.7758 89.9401 97.768C87.5841 100.516 83.1001 101.522 79.0361 107.844C77.0581 110.92 75.2661 113.55 72.0081 112.964C71.3061 112.836 71.7281 113.078 74.4081 108.322C76.5281 104.558 75.3081 102.9 76.7281 97.522C76.9521 96.676 77.6461 98.722 78.6901 97.982C80.6301 96.622 75.3821 93.954 73.9941 95.182C73.4561 95.662 73.6441 96.422 74.6841 96.582C75.3901 96.684 71.6561 102.63 67.2721 103.72C64.6141 104.382 63.7541 105.898 61.2921 106.428C60.5821 106.582 59.1961 105.954 59.2921 105.164C59.7441 101.282 56.9741 99.948 57.0701 97.604C57.3561 90.654 57.1361 96.696 58.1541 90.404C58.7541 86.67 59.7901 88.728 63.1261 85.792C75.8141 74.628 73.8841 76.678 76.5481 73.428C85.9181 61.996 79.0501 71.228 94.1481 54.662C96.9047 52.0976 99.8119 49.7 102.854 47.482C103.552 46.926 103.614 46.986 103.758 47.728C104.976 54.002 110.93 56.43 111.406 55.908C112.658 54.528 109.87 51.652 110.59 49.308C111.575 51.4462 113.254 53.188 115.354 54.25C117.608 55.204 117.1 52.78 117.056 49.988C116.9 39.858 129.076 31.056 129.478 30.648C130.13 29.986 130.174 29.998 130.448 30.848C136.354 49.272 117.356 56.648 135.332 74.432C136.1 75.19 136.95 76.334 137.916 75.756C138.564 75.37 137.962 74.09 137.516 72.712C136.974 71.05 138.174 72.18 138.876 73.414C139.812 75.054 142.99 76.734 145.076 80.996C145.098 81.04 147.33 85.752 147.354 85.796C148.49 87.978 149.468 84.944 150.254 84.164C151.026 86.02 151.504 90.32 154.036 93.382C156.966 96.924 157.214 97.168 157.248 98.928C157.46 109.792 155.482 107.942 160.626 116.128C161.242 117.106 156.262 121.422 162.802 130.928C163.636 132.14 160.572 138.892 162.29 142.824C165.99 151.298 167.646 147.332 150.132 157.596C147.302 159.256 144.242 165.214 146.506 172.072C147.406 174.796 147.614 174.852 146.788 175.776C140.83 182.436 143.61 188.996 142.054 198.666C140.666 207.282 141.214 208.312 140.36 216.888C138.434 236.204 137.15 233.888 145.076 236.108C145.512 236.23 145.518 236.33 145.194 240.876C145.052 242.818 122 231.676 113.4 224.212ZM159.962 273.864C148.322 278.57 153.194 274.212 149.106 274.572C140.388 275.342 133.77 285.49 120.37 280.428C119.944 280.268 119.424 279.748 119.448 278.608C119.41 278.498 119.534 278.208 119.556 278.146C119.676 277.852 120.756 278.346 122.308 278.832C134.19 282.51 139.258 274.14 148.688 272.774C150.75 272.474 152.434 273.02 154.372 272.332C156.137 271.92 157.87 271.386 159.56 270.732C160.664 270.138 160.824 273.514 159.954 273.864H159.962ZM159.518 268.846C159.558 269.316 159.492 269.646 158.294 270.016C155.586 271.066 152.696 271.57 149.792 271.5C147.108 271.22 141.64 273.544 139.266 274.83C134.28 277.532 130.108 280.108 122.128 277.484C117.604 275.996 121.49 274.544 125.904 272.216C126.58 271.858 128.286 270.43 130.164 269.216C135.066 266.066 135.262 263.272 139.672 260.542C140.02 260.328 140.204 260.742 142.284 261.6C142.96 261.88 144.436 260.6 141.818 259.858C141.576 259.784 141.355 259.652 141.175 259.472C140.995 259.294 140.861 259.074 140.785 258.832C140.709 258.59 140.692 258.334 140.737 258.084C140.782 257.836 140.887 257.6 141.042 257.4C142.21 255.902 142.066 255.568 146.558 257.466C148.704 258.374 149.072 256.038 144.688 255.136C143.85 254.964 144.126 255.256 143.424 247.112C143.322 245.926 143.16 245.79 144.28 246.234C147.018 247.328 150.019 247.584 152.902 246.97C155.166 246.478 156.484 247.614 157.702 246.91C158.456 246.472 157.964 247.83 157.302 253.288C156.656 258.586 158.102 257.468 158.486 263.202C158.97 265.054 159.313 266.942 159.51 268.846H159.518ZM147.752 233.568C157.952 233.662 156.408 232.422 156.136 237.056C155.606 246.056 155.75 245.134 155.68 245.196C155.426 245.416 156.232 245.098 149.8 245.596C148.908 245.588 148.018 245.5 147.142 245.332C146.378 245.254 146.846 245.412 146.966 234.86C146.972 233.568 146.822 233.56 147.744 233.568H147.752ZM155.654 379.842C154.776 380.716 154.21 381.984 155.034 382.9C155.614 383.546 155.376 383.664 151.766 387.368C151.566 387.506 145.19 389.168 148.804 385.13C150.656 383.06 151.564 382.628 150.924 381C150.678 380.378 150.264 379.904 150.854 379.324C154.054 376.17 154.1 376.086 154.508 375.976C156.189 375.276 157.953 374.794 159.756 374.542C158.878 376.64 157.46 378.47 155.646 379.842H155.654ZM162.138 373.51C162.972 370.736 155.456 374.616 155.372 373.472C155.639 372.544 155.991 371.644 156.422 370.782C156.506 370.61 156.537 370.418 156.51 370.23C156.484 370.042 156.402 369.866 156.274 369.724C156.146 369.582 155.979 369.482 155.794 369.438C155.609 369.392 155.415 369.404 155.236 369.47C152.49 370.27 152.366 370.3 152.252 370.176C151.962 369.86 154.574 367.1 155.196 366.542C168.082 355.004 171.26 361.892 181.558 333.814C182.49 331.298 182.951 328.632 182.918 325.948C182.826 319.93 184.858 318.198 184.236 309.8C183.036 293.642 173.284 285.748 177.47 265.054C181.628 251.092 178.918 252.742 184.818 254.668C197.652 258.856 197.718 258.832 197.486 259.81C194.986 270.384 194.844 275.072 197.556 284.662C198.42 287.712 202.956 297.792 206.52 301.292C211.986 306.656 211.614 305.96 211.256 306.566C205.476 316.312 198.066 319.594 198.948 327.614C200.4 340.814 196.83 334.896 187.562 353.16C183.476 361.21 177.88 364.618 173.3 373.176C171.748 376.078 170.9 375.896 168.628 376.556C168.278 376.658 168.18 376.534 168.028 376.192C167.466 374.894 167.382 375.252 161.362 376.77C159.152 377.328 161.72 374.874 162.13 373.51H162.138ZM210.22 386.6C175.06 387.686 185.73 386.82 178.22 386.842C159.494 386.896 168.208 387.578 164.272 387.204C165.238 385.736 169.672 381.546 171.2 377.784C171.662 376.644 172.864 377.244 174.614 374.138C179.564 365.35 184.894 361.768 188.496 354.938C198.48 336.016 202.668 340.516 200.496 325.97C199.882 321.868 206.574 316.666 212.496 307.734C212.912 307.106 219.908 314.004 220.018 314.162C224.418 320.58 251.418 328.614 224.15 360.698C222.708 362.396 220.128 366.698 218.986 368.058C217.344 370.028 218.41 371.382 217.232 373.046C210.61 382.35 211.95 386.546 210.212 386.6H210.22ZM225.964 377.904C224.822 379.622 224.054 381.562 223.712 383.598C223.268 385.088 222.574 386.492 221.658 387.75C221.286 388.202 221.188 388.118 218.016 388.236C217.162 388.324 217.78 387.436 218.478 386.468C221.078 382.868 219.608 382.268 221.254 379.742C221.952 378.674 225.34 373.454 225.454 374.722C225.76 377.882 226.4 377.054 225.956 377.904H225.964ZM269.884 281.184C268.868 283.062 270.308 271.596 270.592 269.126C271.3 262.948 274.484 257.788 274.25 249.262C273.962 238.684 269.65 233.572 269.472 232.262C272.706 234.512 281.13 247.958 280.672 251.894C280.652 264.426 271.942 277.368 269.876 281.184H269.884ZM271.684 343.424C262.204 316.494 273.47 292.35 274.7 278.924C274.634 277.7 274.752 276.474 275.05 275.286C276.672 271.756 281.558 261.85 281.952 255.668C282.216 251.528 283.296 269.916 282.808 269.916C282.808 295.934 280.046 297.156 273.874 329.856C271.868 340.4 272.334 345.32 271.666 343.424H271.684ZM299.004 367.346C293.654 365.688 288.366 360.958 285.954 359.176C280.31 355.006 276.172 346.79 274.45 339.874C273.322 335.348 279.192 310.706 280.192 306.198C286.626 277.224 283.192 275.998 284.278 264.954C284.4 263.706 283.606 258.68 285.488 268.028C292.206 301.392 276.852 319.872 287.862 350.774C292.2 362.986 305.484 369.36 298.986 367.346H299.004ZM299.424 360.576C302.006 366.012 303.948 366.604 304.272 367.6C301.968 366.302 299.828 364.732 297.898 362.924C295.394 360.174 293.168 357.186 291.25 354C286.358 345.352 285.51 337.376 284.922 327.586C284.936 327.386 287.63 298.914 288.02 296.894C288.476 297.538 288.934 314.374 294.598 326.51C296.66 330.924 294.442 350.122 299.4 360.576H299.424ZM303.658 335.224C304.572 337.386 296.684 331.076 293.628 319.708C285.676 290.108 292.668 263.388 276.244 238.6C267.856 225.942 266.432 228.904 266.274 227.2C266.098 225.304 264.59 224.11 271.228 226.914C282.754 231.78 290.514 249.418 292.922 261.572C295.464 274.412 294.87 284.972 297.722 296.012C299.77 303.928 299.898 301.172 300.018 304.148C300.284 311.2 300.304 327.32 303.64 335.224H303.658ZM302.868 255.472C306.482 265.134 306.962 281.53 306.786 281.544C309.03 314.202 310.6 312.556 310.464 314.1C307.468 311.546 304.988 308.444 303.154 304.96C295.46 290.642 297.754 269.634 292.804 254.822C287.248 238.196 282.228 234.622 281.368 232.33C281.568 232.33 287.494 234.834 288.222 235.002C294.054 236.348 300.674 249.648 302.85 255.472H302.868ZM265.542 219.4C283.372 220.036 298.142 235.572 298.142 237.4C295.684 235.896 293.008 234.782 290.21 234.096C279.704 230.812 278.686 227.988 266.774 223.78C266.398 223.648 265.932 224.104 265.704 223.652C265.55 223.35 265.664 222.93 265.576 222.582C264.764 219.382 264.22 219.352 265.542 219.4ZM256.182 206.442C259.078 210.38 261.324 214.758 262.834 219.408C264.528 224.756 265.364 230.338 265.31 235.946C265.852 254.208 259.488 260.918 252.224 275.11C244.624 289.956 238.95 297.764 242.098 305.25C244.426 310.788 252.852 319.608 255.954 325.786C257.796 329.454 256.914 330.186 250.602 341.752C246.314 349.612 245.282 352.34 243.138 356.28C238.858 364.138 241.948 369.052 236.868 374.218C235.388 375.722 234.626 374.764 232.268 375.818C231.506 376.162 231.88 375.618 231.804 374.058C231.662 371.154 226.968 376.072 227.004 374.922C227.028 374.02 227.084 373.122 227.194 372.224C227.172 370.718 226.022 371.128 225.578 371.636C224.018 373.42 223.316 374.562 223.296 372.4C223.26 368.048 222.88 369.8 219.484 370.556C220.472 366.956 234.226 352.176 236.174 345.098C241.336 326.362 233.508 324.184 219.116 311.036C215.502 307.736 207.002 300.79 204.052 294.836C199.252 285.144 195.964 278.11 197.676 267.39C198.376 263.02 199.89 256.46 199.91 255.534C200.146 245.04 203.032 246.35 202.13 234.158C202.052 233.114 201.02 226.894 199.87 227.322C198.326 227.894 200.804 230.98 200.66 236.874C200.47 244.674 201.286 237.176 198.002 254.35C197.14 258.852 193.076 254.868 177.602 250.524C173.528 249.38 169.562 247.886 165.402 247.048C157.504 245.448 160.534 245.152 157.836 243.848C157.198 243.54 157.344 243.558 157.622 238.048C157.706 236.38 165.294 237.848 165.402 232.796C165.569 229.184 165.36 225.564 164.778 221.996C164.51 219.516 164.737 217.008 165.446 214.616C166.348 205.532 164.646 208.476 167.688 204.308C168.968 202.558 167.718 201.08 168.566 200.78C169.766 200.356 169.618 200.872 170.746 201.668C182.48 209.944 199.46 219.29 213.786 220.854C225.272 222.11 226.276 219.664 231.446 210.854C234.468 205.71 235.954 199.192 243.496 197.33C244.62 197.074 252.248 201.878 256.182 206.442ZM242.8 195.948C227.812 201.204 232.24 220.048 218.172 219.592C199.772 218.992 185.972 209.224 171.034 199.948C170.935 199.907 170.845 199.843 170.774 199.763C170.702 199.682 170.649 199.587 170.619 199.483C170.589 199.379 170.583 199.27 170.6 199.164C170.618 199.057 170.66 198.956 170.722 198.868C171.416 197.512 169.678 196.376 170.84 195.96C173.406 195.04 173.424 194.88 174.074 195.266C183.182 200.666 191.074 205.838 204.912 208.43C225.126 212.214 216.434 202.156 234.082 192.598C236.6 191.24 244.946 195.2 242.8 195.948ZM235.442 189.676C238.078 190.858 232.782 189.578 225.478 197C218.02 204.576 220.572 206.424 211.818 208C198.983 206.454 186.7 201.882 175.978 194.66C175.246 194.168 180.354 192.524 181.208 192.318C186.126 191.138 183.27 193.68 197.008 197.908C200.832 199.193 204.87 199.725 208.896 199.474C213.496 199.292 214.446 195.058 224.784 188.274C228.022 186.15 231.852 188.068 235.446 189.676H235.442ZM222.898 186.442C223.38 186.68 223.872 186.828 223.436 187.122C212.294 194.668 213.42 198.746 205.824 198.166C198.81 197.436 192.059 195.095 186.098 191.326C189.213 190.935 192.3 190.352 195.342 189.58C198.926 188.392 202.622 187.576 206.372 187.144C222.528 186.766 216.082 183.092 222.902 186.442H222.898ZM206.768 185.654C203.472 185.04 194.864 189.192 185.786 189.842C181.318 190.162 170.288 195.148 168.962 194.502C163.986 192.078 162.03 190.252 161.384 191.418C161.35 191.499 161.332 191.586 161.331 191.674C161.33 191.763 161.347 191.85 161.38 191.932C161.414 192.013 161.463 192.087 161.525 192.15C161.587 192.213 161.661 192.262 161.742 192.296C162.718 192.696 164.9 194.194 166.058 194.872C167.368 195.638 168.368 195.364 168.686 196.504C168.934 197.394 169.848 198.688 168.582 199.022C164.494 200.102 162.142 196.022 161.14 197.526C160.554 198.408 162.402 198.994 165.844 200.68C167.044 201.266 166.752 203.304 165.72 204.394C162.578 207.71 164.798 210.62 163.456 215.714C162.016 221.178 163.682 220.198 163.53 231.338C163.504 233.264 162.964 231.646 148.93 231.996C145.272 232.088 144.634 230.378 141.37 231.396C140.84 231.562 140.358 231.728 140.436 231.102C147.954 170.714 136.836 180.924 166.31 166.544C167.39 166.018 170.862 165.064 173.42 164.258C176.768 163.33 180.004 162.04 183.072 160.41C187.608 158.14 194.724 155.81 196.714 154.942C197.836 154.458 197.314 153.482 196.314 153.758C179.048 158.476 185.744 160.322 180.408 156.106C178.886 154.906 178.446 154.934 180.702 154.526C185.374 153.682 187.542 151.978 191.198 152.126C196.13 152.326 194.176 149.294 197.398 149.822C198.368 149.98 198.386 151.834 201.304 152.222C202.87 152.436 203.29 153.736 207.736 154.184C209.584 154.206 211.396 154.705 212.996 155.633C214.594 156.56 215.926 157.886 216.862 159.48C218.784 162.324 221.62 162.226 222.978 164.622C225.078 168.324 227.76 168.87 229.468 171.534C230.594 173.29 232.362 173.274 231.162 174.824C224.6 183.326 217.486 184.74 206.772 185.654H206.768ZM239.264 172.042C237.22 174.662 233.486 173.602 231.172 171.296C230.176 169.925 229 168.694 227.676 167.636C223.414 164.536 224.928 163.08 221.928 161.59C217.128 159.21 217.294 156.248 213.78 154.448C212.692 153.89 216.604 151.498 217.654 148.782C219.08 145.092 221.67 143.644 222.766 139.782C224.072 135.056 226.242 130.612 229.166 126.676C230.366 124.276 236.324 109.58 236.6 111.6C234.888 125.978 236.422 138.586 239.224 146.724C241.132 152.268 241.838 152.986 241.894 153.936C241.942 154.736 241.528 155.692 240.978 159.816C239.504 170.858 241.356 169.366 239.268 172.042H239.264ZM321.122 135.054C315.994 136.584 314.056 136.376 310.008 138.286C307.99 139.008 305.902 139.51 303.776 139.784C299.878 140.658 300.064 141.906 295.9 141.526C288.54 140.852 283.454 131.974 279.332 128.002C271.57 120.522 275.006 118.69 273.256 118.222C272.764 118.09 272.588 118.8 272.562 119.09C272.368 120.578 272.708 122.086 273.524 123.346C273.976 124.614 268.724 130.792 267.82 135.618C267.78 136.784 267.428 137.917 266.8 138.9C265.296 141.112 265 141.9 265.962 143.056C267.546 144.946 266.49 144.686 265.152 146.434C264.842 146.775 264.672 147.22 264.672 147.68C264.672 148.141 264.842 148.585 265.152 148.926C266.694 150.58 263.844 150.768 265.004 154.99C265.016 155.04 267.682 165.292 267.694 165.338C270.682 176.494 276.834 175.078 264.094 180.72C259.426 182.788 259.864 183.366 255.514 184.32C253.408 184.776 251.75 183.782 249.284 184.578C247.428 185.068 245.458 184.878 243.73 184.044C240.442 182.278 242.178 160.078 242.676 156.882C242.862 155.682 243.12 156.894 244.476 159.054C246.844 162.804 245.754 155.828 242.936 171.2C242.866 171.698 242.842 172.2 242.862 172.702C242.862 173.008 242.992 173.162 243.322 173.162C243.994 173.162 243.946 170.016 246.722 161.478C247.016 160.568 250.696 163.43 253.606 164.39C256.206 165.248 256.966 165.356 256.818 162.25C256.376 153.014 254.968 151.382 252.382 147.788C250.004 144.48 264.088 121.988 268.288 116.914C271.562 112.958 264.804 108.996 263.75 108.126C274.652 103.454 273.64 103.604 265.808 91.436C265.232 90.54 264.864 90.474 264.864 89.93C266.468 90.227 267.986 90.8758 269.31 91.83C271.158 93.17 274.172 94.092 276.682 95.528C279.822 97.328 281.956 97.052 282.302 99.548C282.4 100.264 281.802 101.312 282.902 101.996C283.928 102.632 284.564 105.42 286.472 107.432C291.818 113.07 291.06 113.1 294.37 115.564C297.896 118.186 297.628 118.332 297.158 118.726C288.958 125.62 292.658 128.526 293.244 126.15C294.344 123.219 296.472 120.787 299.232 119.306C301.282 118.306 301.232 120.07 299.794 121.092C298.356 122.114 296.062 125.044 296.1 126.52C296.1 126.92 296.748 127.466 297.354 126.378C298.848 123.567 301.326 121.405 304.314 120.306C305.74 119.566 305.542 121.264 308.328 120.228C312.966 118.502 317.178 116.614 320.312 116.946C319.456 119.226 318.678 119.324 318.548 126.558C318.714 128.609 319.19 130.623 319.964 132.53C320.762 134.388 321.976 134.8 321.126 135.054H321.122ZM328.234 132.64C328.076 132.904 327.536 132.938 327.168 133.078C324.768 134 324.324 134.352 323.592 133.904C323.216 133.672 321.792 133.162 321.464 132.012C318.112 125.788 320.614 117.434 323.034 117.012C324.39 116.556 325.782 116.211 327.194 115.982C327.826 115.904 326.394 117.108 326.176 120.562C325.676 128.456 326.398 127.058 327.742 131.562C327.866 131.964 328.48 132.236 328.238 132.64H328.234ZM361.762 114.904C363.932 114.892 362.428 116.488 360.292 116.668C346.692 117.816 351 116.588 339.56 123.148C337.248 124.474 337.588 123.462 329.976 127.132C328.322 127.932 328.102 128.042 327.906 127.146C327.308 124.954 327.292 122.643 327.858 120.442C328.194 120.174 328.592 119.995 329.016 119.92C338.124 116.91 337.204 113.434 340.748 110.354C342.686 108.248 345.082 100.14 346.364 100.6C348.4 101.334 344.482 107.716 343.964 111.376C343.498 114.614 341.378 115.034 340.238 117.836C340.062 118.27 340.946 118.964 341.238 118.236C342.376 115.394 347.96 114.754 349.428 114.8C350.108 114.822 349.59 114.102 349.14 113.958C347.5 113.436 347.086 113.8 345.19 114.158C345.076 111.634 345.01 108.758 347.06 107.294C349.942 105.23 357.074 101.132 360.45 100.694C361.45 100.568 362.098 101.718 360.582 102.432C354.64 105.232 352.982 106.5 352.084 106.064C350.32 105.21 351.55 107.908 352.596 113.864C352.92 115.72 351.936 114.96 361.766 114.904H361.762ZM363.802 110.538C360.888 111.87 357.846 112.9 354.724 113.614C353.696 114.014 353.648 113.684 353.538 112.814C353.538 112.284 353.266 111.726 353.552 111.432C356.828 110.325 360.204 109.533 363.63 109.068C364.292 109.03 364.546 110.168 363.8 110.538H363.802Z" fill="black"/>
<path d="M350 107.63C348.938 107.05 349.504 108.49 350.268 112.43C350.318 112.828 350.424 113.216 350.58 113.584C351.012 114.334 351.324 112.606 350.892 110.632C350.76 109.59 350.46 108.575 350 107.63Z" fill="black"/>
<path d="M279.638 100.566C278.894 101.247 278.22 102 277.626 102.816C275.372 105.603 273.852 108.911 273.21 112.438C272.78 113.996 272.228 115.192 273.118 115.352C273.61 115.44 273.808 115.186 273.944 114.702C277.31 102.764 277.186 106.972 280.534 101.088C280.416 100.838 280.324 100.11 279.638 100.566Z" fill="black"/>
<path d="M266.424 76.13C266.554 75.318 266.152 74.448 267.122 74.186C268.092 73.924 268.212 74.84 268.322 74.976C268.908 75.756 269.288 75.176 269.568 74.248C269.44 73.8804 269.222 73.551 268.932 73.2904C268.642 73.0298 268.292 72.8464 267.914 72.757C267.536 72.6678 267.14 72.6754 266.764 72.7794C266.39 72.8834 266.046 73.0804 265.768 73.352C264.584 74.406 265.474 75.53 264.604 76.352C263.778 77.122 266.136 77.908 266.424 76.13Z" fill="black"/>
<path d="M258.494 56.0418C261.874 55.9818 260.684 59.4958 262.12 59.0418C263.132 58.7258 262.47 57.5058 262.36 56.9578C261.716 53.7158 255.906 54.2898 256.854 56.0678C257.144 56.6178 257.508 56.3278 258.494 56.0418Z" fill="black"/>
<path d="M249.14 78.4679C254.49 75.3979 253.774 74.8959 254.37 75.3879C255.37 76.2079 256.086 74.2699 255.494 73.3219C254.8 72.2119 254.894 71.9479 254.294 71.9739C253.438 72.0139 253.922 73.0179 253.426 73.0399C250.278 73.3491 247.138 72.4015 244.686 70.4039C243.43 69.3599 242.634 70.2839 243.086 70.7679C243.662 71.3819 243.152 72.2859 242.372 75.9499C242.37 79.4599 246.144 80.1879 249.14 78.4679ZM244.58 72.1199C246.814 73.5325 249.374 74.3409 252.014 74.4659C252.44 74.5259 251.814 75.6499 250.17 75.5979C248.23 75.0787 246.324 74.4355 244.466 73.6719C243.98 73.5259 244.354 72.5439 244.58 72.1199ZM248.61 77.6599C247.934 78.1625 247.114 78.4301 246.272 78.4217C245.43 78.4135 244.614 78.1297 243.948 77.6139C243.344 77.1079 246.86 75.5079 248.61 77.6599Z" fill="black"/>
<path d="M255.138 62C255.194 61.28 254.282 60.888 253.9 61.302C251.818 63.56 254.494 64.928 255.138 62Z" fill="black"/>
<path d="M250.786 331.568C250.704 332.652 252.826 332.768 252.986 328.752C252.848 327.126 252.212 325.582 251.164 324.332C246.834 319.25 248.628 320.3 247.926 320.042C245.404 319.112 247.372 322.596 249.226 324.56C252.43 327.96 250.91 329.924 250.786 331.568Z" fill="black"/>
<path d="M246.8 69.7722C247.788 69.995 248.816 69.962 249.788 69.6762C250.156 69.6102 250.306 69.1662 250.296 68.7942C250.296 68.4642 249.928 68.5342 249.722 68.4202C248.674 67.8502 247.464 69.3982 245.838 67.4782C243.726 64.9822 247.616 63.9762 248.212 63.6782C249.43 62.952 250.37 61.8388 250.88 60.5162C251.044 60.1722 250.718 59.9882 250.498 59.8222C250.16 59.5662 249.994 59.9762 249.314 60.8702C247.034 63.8702 245.266 61.8542 244.03 65.2942C243.898 65.7706 243.866 66.2692 243.936 66.7588C244.006 67.2482 244.176 67.7178 244.436 68.1384C244.696 68.5588 245.042 68.921 245.448 69.2022C245.854 69.4832 246.314 69.6774 246.8 69.7722Z" fill="black"/>
<path d="M247.364 60.8C247.464 60.748 247.716 60.702 247.82 60.554C248.128 60.1174 248.378 59.641 248.56 59.138C248.592 58.9738 248.572 58.8038 248.502 58.6516C248.432 58.4994 248.318 58.373 248.172 58.29C248.026 58.207 247.858 58.1716 247.692 58.1888C247.526 58.206 247.37 58.275 247.244 58.386C246.666 58.914 245.916 60.728 247.364 60.8Z" fill="black"/>
<path d="M218.106 170.638C217.062 170.567 216.046 170.278 215.122 169.789C214.198 169.3 213.386 168.622 212.74 167.8C212.378 167.156 212.872 168.344 209.488 164.984C207.518 163.026 206.448 163.008 206.474 161.074C206.514 157.892 203.102 161.4 206.6 164.566L212.502 169.906C214.964 172.32 218.008 171.774 219.584 172.906C219.822 173.071 220.112 173.144 220.4 173.111C220.688 173.079 220.954 172.943 221.15 172.73C221.58 172.064 219.254 170.832 218.106 170.638Z" fill="black"/>
<path d="M192.314 338.708C192.256 339.422 193.28 339.708 193.788 338.962C198.03 332.718 195.008 333.562 195.082 327.162L195.07 327.202C195.096 327.1 195.1 326.992 195.08 326.888C195.06 326.782 195.017 326.684 194.955 326.598C194.892 326.512 194.811 326.44 194.718 326.39C194.625 326.338 194.522 326.308 194.416 326.302C193.798 326.162 193.616 327.06 193.616 327.702C193.55 332.524 195.45 333.578 193.788 335.998C193.132 336.802 192.632 337.72 192.314 338.708Z" fill="black"/>
<path d="M127.958 34.2319C127.344 34.1619 127.316 34.7359 127.274 35.3499C127.074 38.2819 123.492 36.8219 120.288 47.1499C119.846 48.5799 119.162 50.3039 120.114 50.5019C121.67 50.8259 122.514 40.8219 127.274 38.4479C127.958 39.8699 126.652 44.7799 126.172 46.2979C124.972 50.0979 123.522 50.5619 122.276 52.1639C121.728 52.8699 122.6 53.5819 123.29 52.9939C130.522 46.8279 129.476 34.3999 127.958 34.2319Z" fill="black"/>
<path d="M105.366 62.8521C100.934 63.2981 101.378 62.2641 99.104 60.8001C97.626 59.8461 95.766 64.0601 102.816 65.1701C107.696 64.5561 106.498 62.7381 105.366 62.8521Z" fill="black"/>
<path d="M69.048 89.1999C67.886 88.4319 68.364 88.6439 65.31 87.9459C62.932 87.5979 61.968 89.7219 60.86 91.6539C59.798 93.5079 60.892 94.8339 62.234 96.3399C62.3744 96.4965 62.5702 96.5925 62.78 96.6077C62.99 96.6229 63.1974 96.5561 63.359 96.4213C63.5206 96.2865 63.6234 96.0943 63.646 95.8851C63.6686 95.6759 63.609 95.4661 63.48 95.2999C62.716 94.0659 61.68 93.2399 62.528 92.0399C63.076 91.2659 63.528 89.7299 65.178 89.8099C68.478 89.9699 67.358 90.2999 68.54 90.4719C69.092 90.5459 69.702 89.6259 69.048 89.1999Z" fill="black"/>
<path d="M65.42 91.3998C63.38 90.7258 63.12 94.5998 65.122 94.9998C66.96 95.3578 67.398 95.8858 67.982 95.2138C68.6 94.4958 68.6 92.4538 65.42 91.3998Z" fill="black"/>
<path d="M159.954 273.864C148.314 278.57 153.186 274.212 149.098 274.572C140.38 275.342 133.762 285.49 120.362 280.428C119.936 280.268 119.416 279.748 119.44 278.608C119.402 278.498 119.526 278.208 119.548 278.146C119.668 277.852 120.748 278.346 122.3 278.832C134.182 282.51 139.25 274.14 148.68 272.774C150.742 272.474 152.426 273.02 154.364 272.332C156.128 271.92 157.862 271.386 159.552 270.732C160.664 270.138 160.826 273.514 159.954 273.864Z" fill="white"/>
</svg>
