<svg width="400" height="400" viewBox="0 0 400 400" fill="none" xmlns="http://www.w3.org/2000/svg">
<path d="M277.959 116.705C277.196 116.375 277.258 116.086 278.413 115.446C279.569 114.806 288.731 108.884 289.412 108.1C290.093 107.316 290.341 108.389 290.032 109.441C289.722 110.494 288.154 116.581 285.223 118.046C282.293 119.512 278.723 117.077 277.959 116.705Z" fill="white"/>
<path d="M20.2976 189.097C20.3222 189.452 20.3776 189.804 20.4626 190.149C20.5246 190.273 20.5246 190.066 20.2976 189.097Z" fill="#FFD942"/>
<path d="M33.4015 158.514C33.1263 158.751 32.8369 158.972 32.5349 159.174C32.9063 159.153 33.5461 158.514 33.4015 158.514Z" fill="#FFD942"/>
<path d="M133.156 226.076C138.418 234.331 144.031 230.72 136.933 192.44C136.933 192.44 147.519 215.779 154.907 221.33C162.294 226.881 163.471 219.886 163.161 210.166C163.161 210.166 162.129 199.167 161.263 193.513C161.263 193.513 167.928 211.631 174.016 210.764C180.103 209.898 184.169 196.691 186.067 181.874L186.934 185.052C186.934 185.052 186.645 216.666 192.01 218.978C197.376 221.289 204.619 204.532 206.786 199.126C206.786 199.126 201.276 218.4 206.641 227.376C212.007 236.353 211.862 251.438 211.862 251.005C211.862 250.571 211.718 256.37 207.735 258.124C203.752 259.878 216.299 276.532 220.117 279.71C220.117 279.71 201.771 265.739 192.732 270.877C188.832 273.085 190.669 281.195 190.669 281.195C190.669 281.195 182.167 272.012 173.231 283.919C168.697 290.29 165.387 297.449 163.471 305.03C161.554 312.611 167.371 284.146 163.471 276.325C159.57 268.504 147.374 281.546 142.154 292.112L140.276 293.577C140.276 293.577 146.941 278.925 143.165 271.682C139.388 264.439 137.944 261.963 138.233 257.237C138.522 252.511 135.921 232.164 133.156 226.076Z" fill="white"/>
<path d="M110.446 96.2957C111.334 91.2565 109.377 86.6999 106.078 86.1181C102.778 85.5361 99.3832 89.1515 98.4958 94.1909C97.6086 99.2301 99.5628 103.787 102.862 104.369C106.164 104.949 109.559 101.335 110.446 96.2957Z" fill="white"/>
<path d="M261.471 74.1122C257.344 74.4218 252.928 67.488 254.971 61.4004C255.65 66.247 257.94 70.7242 261.471 74.1122Z" fill="white"/>
<path d="M157.755 253.068C155.876 251.528 153.364 251.004 151.027 251.665C148.963 252.456 147.727 254.576 148.056 256.762C149.108 261.487 155.423 263.365 158.085 260.889C159.734 259.301 160.158 256.825 159.131 254.779C158.799 254.117 158.33 253.534 157.755 253.068ZM154.185 260.972C153.898 260.938 153.622 260.839 153.38 260.682C153.284 260.599 153.316 260.443 153.436 260.402C153.451 260.397 153.467 260.394 153.483 260.394C154.632 260.469 155.754 260.021 156.537 259.176C158.993 255.648 148.633 251.892 149.707 257.752C149.707 257.917 149.5 258 149.418 257.752C149.274 257.499 149.19 257.217 149.17 256.927C148.572 252.552 155.093 251.747 157.651 256.225C158.98 258.241 157.629 260.94 155.218 261.083C154.87 261.104 154.521 261.066 154.185 260.972Z" fill="white"/>
<path d="M158.394 245.577C158.459 245.602 158.517 245.64 158.565 245.689C158.665 245.786 158.719 245.921 158.712 246.06C158.709 246.129 158.692 246.197 158.662 246.258C158.25 247.62 157.775 248.962 157.362 250.386C157.362 250.716 157.218 250.881 156.826 250.716C154.184 249.705 153.834 249.994 154.019 249.086C154.252 247.907 154.548 246.743 154.907 245.598C154.907 245.392 155.113 244.731 155.711 244.855C156.624 245.024 157.521 245.266 158.394 245.577Z" fill="white"/>
<path d="M382.997 196.381C386.237 202.2 389.58 209.072 388.032 214.954C386.897 219.37 382.914 227.149 378.23 235.961C377.074 238.169 367.912 255.318 366.117 257.03C365.257 254.734 364.952 252.266 365.229 249.829C365.436 243.039 360.07 245.474 363.496 242.73C365.787 240.893 365.56 237.344 361.886 235.796C360.648 235.28 363.64 232.721 361.226 231.359C359.307 230.245 359.72 228.078 359.781 226.489C361.205 213.076 357.14 212.209 357.718 208.969C358.296 205.729 358.77 203.562 360.875 201.231C361.824 200.157 362.939 198.816 362.299 198.445C361.659 198.073 361.185 198.899 360.545 199.497C358.809 201.296 357.411 203.393 356.418 205.688C356.191 206.369 355.902 206.018 355.716 205.688C354.87 204.058 353.653 202.531 352.992 200.838C349.236 191.862 347.895 195.349 343.727 186.208C342.468 183.463 340.982 180.801 339.599 178.118C338.98 176.901 338.01 176.323 338.258 177.582C339.083 181.895 341.56 184.784 344.242 190.665C345.182 192.675 346.599 194.425 348.37 195.762C349.608 197.124 350.512 198.756 351.011 200.529C351.839 203.032 352.947 205.434 354.313 207.69C355.799 209.753 357.037 212.106 358.44 214.314C358.816 216.71 359.016 219.131 359.039 221.557C359.039 223.229 358.646 224.9 358.502 226.572C358.254 229.399 358.791 229.708 357.986 229.543C355.551 229.089 353.095 228.677 350.66 228.243C350.66 228.243 348.989 227.748 349.03 228.243C349.133 229.358 351.857 229.708 356.748 231.05C359.988 231.937 360.648 232.247 360.566 232.989C360.215 236.002 358.832 233.629 348.865 234.682C346.162 234.971 345.274 234.682 345.047 235.218C344.655 236.25 349.876 235.94 351.073 235.879C354.788 235.693 358.296 235.445 361.742 237.653C362.815 238.334 364.136 239.985 362.443 241.285C360.751 242.585 357.408 245.02 360.008 245.412C363.393 245.97 364.136 247.352 363.867 250.324C363.663 252.594 363.886 254.884 364.528 257.072C365.436 260.229 370.719 280.349 372.225 284.869C372.411 285.405 372.225 285.467 371.812 285.405C368.82 284.93 338.795 285.096 334.667 285.261C333.574 285.261 333.12 285.261 332.893 284.064C332.893 284.064 330.54 272.219 330.086 269.515C329.632 266.812 329.55 263.324 329.385 260.786C326.207 213.323 324.824 236.023 319.768 193.182C313.866 142.975 312.071 151.064 312.484 134.927C312.484 134.308 313 134.101 313.454 134.04C314.857 133.813 320.181 133.235 321.089 134.308C327.28 141.469 328.58 141.118 332.294 147.102C333.078 148.34 332.789 148.836 331.572 149.744C326.826 153.272 319.995 156.719 324.081 158.39C327.176 159.649 330.272 159.69 335.575 160.743C337.639 161.155 337.639 162.311 337.061 164.106C332.934 177.561 325.01 200.075 325.175 211.569C325.175 212.725 325.938 212.89 326.042 211.982C327.775 198.321 327.589 201.334 330.643 190.005C331.407 187.177 337.082 169.368 338.072 165.778C338.753 163.425 339.826 160.557 337.453 159.793C335.305 159.15 333.089 158.763 330.85 158.638C328.972 158.638 323.276 157.854 324.659 156.574C327.197 154.511 329.508 153.85 333.636 150.652C336.587 148.34 330.54 142.397 323.916 135.298C323.421 134.762 323.648 134.7 324.205 134.638C334.378 133.42 340.941 136.186 346.368 142.892C368.284 169.43 373.814 179.872 382.997 196.381Z" fill="#FFD942"/>
<path d="M371.338 328.287C365.539 298.942 364.92 298.302 365.869 295.001C366.393 292.416 365.776 289.731 364.177 287.634C363.866 287.091 363.275 286.771 362.65 286.808C359.617 286.994 342.447 286.684 333.759 287.076C332.852 287.242 331.964 286.701 331.696 285.818C329.962 279.627 331.221 284.146 328.311 268.71C328.311 268.298 328.105 268.091 327.693 268.112H326.764C319.587 268.869 312.374 269.214 305.158 269.144C300.717 269.387 296.267 269.387 291.827 269.144C291.146 269.144 290.919 269.144 290.878 269.887C290.527 277.708 290.073 284.724 289.908 287.613C289.908 288.232 289.681 288.686 289.041 288.81C282.458 290.131 274.596 288.397 271.067 288.81C270.85 288.888 270.693 289.078 270.654 289.305C270.654 290.358 270.902 291.369 271.046 292.442C272.697 304.349 271.665 296.858 272.264 307.857C272.513 314.241 273.265 320.596 274.513 326.863C274.802 328.183 274.761 328.782 274.947 328.782C279.074 328.782 293.086 328.452 313.598 328.782C314.238 328.782 314.423 328.637 314.361 327.977C313.771 321.238 313.668 314.466 314.052 307.712C320.243 307.258 317.89 307.403 318.819 307.506C319.747 307.609 324.473 328.142 324.494 328.142C324.583 328.4 324.79 328.599 325.051 328.679C326.578 328.679 357.945 329.422 368.098 328.803C371.07 328.885 371.338 328.617 371.338 328.287Z" fill="white"/>
<path d="M307.655 95.9039C307.325 96.9149 307.056 97.1007 306.891 96.8325C306.573 97.1383 306.13 97.2761 305.694 97.2039C303.936 97.7777 302.014 97.5355 300.453 96.5435C297.894 94.8513 299.957 92.7259 300.7 90.3527C301.443 87.9795 300.7 87.6081 299.421 87.3605C293.684 86.1635 293.23 80.7363 294.097 77.4759C294.324 76.6091 293.457 76.7329 292.033 76.6297C283.655 75.9693 283.118 67.9625 283.903 67.0133C283.531 65.3211 282.603 65.5481 281.715 65.8371C280.353 67.2815 278.145 66.3323 271.789 69.7785C270.984 70.2325 270.097 70.9961 269.478 71.3881C268.034 74.2773 266.341 73.2867 265.867 72.9153C265.867 73.3485 265.66 73.5343 265.516 73.2867C265 74.2773 264.402 74.5455 263.865 74.5249C262.843 75.8377 262.105 77.3485 261.698 78.9615C261.574 79.6013 261.574 79.5601 262.193 79.5393C263.372 79.4193 264.543 79.8273 265.392 80.6537C265.982 81.2151 265.982 82.1561 265.392 82.7173C264.567 83.5635 263.989 82.3871 262.916 81.8093C261.843 81.2315 260.976 82.4077 260.852 83.5635C260.508 87.3219 260.808 91.1113 261.74 94.7687C263.514 99.9691 261.74 100.774 262.936 106.531C265 117.634 269.003 126.982 279.136 129.087C281.699 129.417 284.297 129.332 286.833 128.839C287.243 128.704 287.685 128.925 287.824 129.334C287.824 129.561 287.658 129.912 287.493 130.18C287.328 130.449 284.212 132.842 283.758 133.193C283.382 133.429 283.155 133.843 283.16 134.287C283.16 135.814 283.036 137.341 283.16 138.889C283.265 139.534 282.992 140.183 282.458 140.56C277.98 143.408 277.815 142.624 278.331 144.254C280.954 151.797 284.689 158.905 289.412 165.344C295.438 172.773 301.072 174.754 305.674 166.397C308.048 161.587 309.557 156.397 310.131 151.064C310.42 149.145 310.544 147.184 310.812 145.265C311.148 142.686 311.26 140.084 311.142 137.486C311.142 136.97 310.957 136.763 310.441 136.743C309.925 136.722 309.141 136.743 308.501 136.557C307.661 136.547 306.94 135.955 306.767 135.133C306.54 134.039 306.19 132.946 306.025 131.852C305.393 128.612 305.117 125.31 305.199 122.008C305.199 121.802 308.315 110.225 308.088 109.627C307.737 108.698 304.766 107.708 304.27 105.314C304.126 104.571 304.89 104.365 305.344 104.757C307.902 106.82 312.669 111.34 316.446 103.147C321.295 92.6227 310.585 87.1337 307.655 95.9039ZM264.649 91.6529C265.805 90.7241 267.043 92.8497 266.837 94.9339C266.651 95.9657 265.557 95.9451 264.979 95.2847C264.03 94.2943 263.824 92.3339 264.649 91.6529ZM274.121 104.86C271.944 106.583 268.979 106.926 266.465 105.747C264.9 104.942 264.217 103.069 264.895 101.445C265.11 100.926 265.451 100.468 265.887 100.114C268.983 97.6373 272.635 99.8453 270.696 100.217C269.561 100.423 266.156 100.692 266.197 102.425C266.238 104.158 269.829 106.305 273.007 103.89C274.224 103.023 275.091 103.869 274.121 104.86ZM275.855 80.5713C277.027 79.0805 278.983 78.4447 280.807 78.9617C284.48 80.3443 284.46 83.2333 283.655 83.6667C282.85 84.1001 282.499 83.4603 282.21 83.0269C279.383 78.6315 278.558 82.0363 276.701 82.1189C275.855 82.1603 275.112 81.6855 275.855 80.6331V80.5713ZM279.012 94.1497C277.423 94.7275 276.948 92.2925 277.299 90.6211C277.609 89.6099 278.682 89.7543 279.177 90.4971C279.92 91.6529 280.188 93.7783 279.012 94.2117V94.1497ZM290.857 107.378C290.651 109.441 289.103 115.735 286.544 117.902C284.48 119.574 282.252 119.367 276.783 116.891C275.132 116.148 277.753 115.715 282.376 112.764C289.99 107.625 290.857 104.633 290.857 107.378ZM313.557 96.0895C312.731 95.0991 312.174 96.0895 311.617 96.8737C311.06 97.6579 310.998 98.5039 312.38 99.1231C313.307 99.5535 313.908 100.475 313.928 101.496C313.928 102.714 313.206 103.56 311.864 103.56C311.101 103.56 311.225 103.766 311.41 104.406C311.906 106.16 310.73 106.635 310.461 106.057C310.022 105.141 309.663 104.188 309.388 103.209C309.12 102.239 309.925 101.641 310.915 101.909C311.39 102.033 312.36 102.28 312.504 101.661C312.649 101.042 310.296 99.5977 309.76 99.1025C309.18 98.4649 309.129 97.5081 309.636 96.8119C310.174 95.9925 310.798 95.2331 311.493 94.5419C312.195 93.7469 313.413 93.6817 314.196 94.3973C315.455 95.8831 314.485 97.1419 313.557 96.0895Z" fill="white"/>
<path d="M290.403 230.843C290.96 246.073 288.504 279.854 287.844 286.56C287.7 288.129 287.576 287.943 283.057 287.778C277.258 287.592 270.964 286.416 267.125 287.221C266.465 287.365 266.506 287.076 266.548 286.684C268.157 266.543 268.137 274.984 270.448 242.791C270.448 241.533 270.675 240.274 270.757 239.015C270.757 238.272 269.478 237.921 268.405 236.828C267.52 236.128 267.028 235.044 267.084 233.918C267.291 230.41 273.151 227.191 272.986 226.922C272.821 226.654 272.119 226.716 271.727 226.922C270.303 227.933 270.365 227.913 269.994 226.2C269.561 224.136 267.456 214.293 266.672 210.331C266.176 207.731 265.867 198.568 265.289 194.544C264.87 191.172 264.18 187.839 263.225 184.577C262.854 183.525 262.544 182.926 262.441 183.009C261.698 183.504 263.555 189.612 263.906 195.679C264.463 205.997 265.413 206.947 263.411 210.331C250.761 231.834 257.736 225.705 240.711 235.094C237.465 236.82 234.336 238.758 231.343 240.893C229.568 242.172 227.587 243.183 225.709 244.318C219.518 248.074 217.186 249.539 214.772 250.819C214.561 250.884 214.331 250.829 214.173 250.674C212.921 248.249 211.314 246.023 209.406 244.071C206.786 241.141 204.02 238.355 201.152 235.589C200.368 234.547 199.256 233.798 197.995 233.464C196.734 233.129 197.85 233.34 197.768 233.278L198.057 233.051C199.646 232.205 201.214 231.276 202.865 230.534C212.997 226.014 216.939 220.36 223.212 218.75C226.328 217.946 228.495 220.958 229.898 224.57C230.971 227.252 231.178 226.056 231.054 225.148C230.641 222.011 229.382 218.131 226.679 217.657C223.976 217.182 223.315 218.296 222.985 216.914C222.799 216.088 222.758 215.572 223.439 215.139C225.399 213.839 226.369 214.891 230.579 216.666C232.643 217.512 234.851 218.544 235.098 217.822C235.47 216.749 226.514 213.529 226.844 212.704C227.038 211.976 227.498 211.346 228.132 210.94C228.764 210.531 229.527 210.372 230.27 210.496C231.423 210.578 232.566 210.785 233.674 211.115C235.992 211.833 238.41 212.174 240.835 212.126C242.713 212.126 243.539 211.92 242.899 211.486C241.846 210.661 241.413 211.301 236.708 210.455C236.048 210.331 235.965 210.083 236.068 209.609C236.841 204.606 238.724 199.839 241.578 195.659C244.962 189.984 249.647 171.824 252.577 164.044C254.187 159.814 255.796 153.251 269.395 146.937C269.21 147.473 266.754 153.128 266.052 155.191C265.742 155.879 265.726 156.663 266.009 157.362C266.297 158.06 266.857 158.61 267.559 158.885C269.375 159.793 271.273 160.598 273.131 161.423C277.258 163.281 276.329 162.723 276.804 163.157C275.442 164.539 263.762 168.316 266.135 172.856C272.573 185.237 270.654 181.11 282.644 216.026C284.233 220.628 284.707 223.332 285.161 222.692C285.3 222.426 285.351 222.122 285.306 221.825C281.598 207.848 277.169 194.072 272.037 180.553C271.019 178.087 269.819 175.7 268.446 173.413C266.486 170.4 268.776 169.967 277.609 164.808C277.995 164.591 278.368 164.35 278.723 164.085C279.631 163.404 279.734 163.095 278.723 162.517C274.431 160.041 273.585 160.453 268.838 157.564C267.662 156.863 267.311 156.285 267.868 154.799C269.107 151.497 270.118 148.794 271.521 145.575C271.769 144.997 271.665 144.584 273.585 143.511C274.167 143.202 274.767 142.927 275.38 142.686C275.731 142.541 276.205 142.459 276.412 143.016C277.299 145.781 278.826 149.083 279.755 151.828C280.89 155.171 282.004 157.152 283.036 160.536C283.655 162.6 283.923 166.727 284.336 168.79C286.008 177.313 290.238 226.221 290.403 230.843Z" fill="#FFD942"/>
<path d="M207.322 244.277C207.983 244.958 207.962 245.02 207.075 245.474C199.377 249.312 197.685 250.53 196.447 250.86C193.689 251.428 190.826 251.199 188.193 250.2C188.729 249.147 191.494 246.073 191.577 245.536C191.659 244.999 191.061 244.731 190.772 245.02C189.348 246.423 188.564 248.116 186.232 249.312C186.018 249.385 185.786 249.385 185.572 249.312C184.478 248.962 183.364 248.652 182.291 248.198C181.218 247.744 180.66 245.268 178.638 247.992C177.255 249.849 174.325 254.368 173.768 255.091C172.943 256.184 172.365 257.01 170.549 256.597C169.145 256.267 169.703 255.276 169.847 255.008C170.858 253.233 171.911 251.52 172.839 249.684C173.547 247.953 174.49 246.326 175.646 244.855C178.163 241.966 177.916 239.717 181.506 239.737C188.874 239.737 190.586 240.831 194.239 238.788C195.766 237.942 197.334 237.158 198.841 236.312C199.058 236.097 199.408 236.097 199.625 236.312C199.934 236.601 200.265 236.848 200.554 237.137C202.762 239.572 205.052 241.904 207.322 244.277Z" fill="white"/>
<path d="M189.74 256.143C191.406 256.015 193.045 255.654 194.61 255.07C196.023 254.841 197.372 254.321 198.573 253.543C199.011 253.248 199.154 252.667 198.903 252.202C198.676 251.644 198.325 251.768 197.83 251.81C188.585 252.656 191.412 252.037 189.039 251.665C186.531 251.101 184.08 250.314 181.713 249.313C181.238 249.148 180.722 248.632 180.31 248.735C179.897 248.838 179.381 249.395 178.968 249.808C177.298 251.923 175.754 254.135 174.346 256.432C173.361 257.872 171.51 258.438 169.888 257.794C168.299 257.175 167.123 256.184 168.65 254.224C169.744 252.821 170.532 251.205 170.961 249.478C171.704 246.279 173.273 245.97 175.976 242.173C174.679 242.154 173.382 242.23 172.096 242.4C171.259 242.554 170.466 242.901 169.785 243.411C167.226 245.611 163.977 246.844 160.602 246.898C160.128 246.898 159.983 247.146 159.859 247.579C159.054 250.86 158.229 251.438 159.343 252.491C161.344 254.276 161.998 257.132 160.974 259.61C160.705 260.208 160.974 260.25 161.345 260.435C162.975 261.158 164.606 261.818 166.153 262.685C170.961 265.367 174.655 267.018 180.062 266.028C181.533 265.867 182.946 265.365 184.189 264.563C183.26 264.418 181.3 264.852 181.135 264.15C181.078 263.935 181.195 263.712 181.403 263.634C181.55 263.58 181.702 263.546 181.857 263.531C183.756 263.325 185.633 262.974 187.532 262.788C188.659 262.648 189.631 261.928 190.091 260.889C188.688 260.889 187.718 261.694 186.294 261.137C184.87 260.58 185.778 260.023 186.418 260.064C188.187 260.039 189.941 259.74 191.618 259.177C194.074 258.681 194.569 257.856 195.002 256.411C193.166 256.411 193.558 257.567 189.905 256.989C188.915 256.824 188.708 256.226 189.74 256.143ZM187.677 255.937C187.035 256.275 186.574 256.879 186.418 257.588C186.124 258.877 185.201 259.932 183.962 260.394C183.611 260.584 183.329 260.88 183.157 261.24C182.757 262.165 182.019 262.903 181.094 263.304C180.685 263.5 180.31 263.758 179.979 264.067C179.154 264.604 178.37 265.182 177.524 265.677C177.346 265.824 177.108 265.879 176.884 265.824C176.658 265.767 176.474 265.605 176.389 265.388C175.976 264.315 177.73 264.913 179.278 262.994C179.536 262.668 179.879 262.418 180.268 262.272C181.098 262.023 181.754 261.383 182.022 260.559C182.273 259.879 182.832 259.358 183.529 259.156C184.394 258.876 185.041 258.15 185.221 257.257C185.458 256.329 186.024 255.516 186.81 254.967C188.275 253.646 187.388 252.367 188.378 252.573C188.667 252.573 188.874 253.233 189.018 253.44C189.027 254.417 188.576 255.342 187.801 255.937H187.677Z" fill="white"/>
<path d="M153.524 245.804C153.256 246.918 152.967 248.053 152.595 249.126C152.429 249.476 152.121 249.739 151.749 249.848C149.78 250.092 148.069 251.32 147.209 253.109C145.703 256.576 148.055 257.587 145.146 256.328C145.858 252.665 146.879 249.068 148.2 245.577C148.757 244.256 149.376 244.05 149.706 244.173C152.699 245.329 153.503 245.185 153.524 245.804Z" fill="white"/>
<path d="M126.903 232.35C145.703 240.15 149.892 239.779 148.984 241.038C147.38 243.822 146.191 246.825 145.455 249.952C144.281 253.172 143.694 256.575 143.722 260.002C144.031 265.14 145.331 266.193 143.722 265.966C141.127 265.421 138.564 264.732 136.045 263.902C103.028 254.472 105.669 254.637 93.9065 250.613C91.4715 249.787 89.2841 250.076 87.0141 247.352C85.3689 245.268 83.0853 243.782 80.5137 243.122C76.9849 242.276 76.1389 240.439 64.4589 228.346C37.4463 200.24 31.1317 193.595 29.1093 185.031C28.3251 181.73 28.5521 182.617 27.8711 181.544C27.1933 182.209 26.8983 183.172 27.0869 184.103C28.6347 192.914 35.5891 200.612 40.9131 206.039C40.9131 206.039 62.9937 229.956 63.6127 230.802C64.0007 231.194 64.2731 231.687 64.3969 232.226C63.0763 248.735 62.3333 263.345 60.8269 272.714C59.4237 281.216 61.4873 285.715 58.1029 285.199C32.6587 281.278 46.5261 286.169 24.8377 280.927C2.6125 275.479 9.1955 278.203 13.5085 253.44C14.7879 246.114 16.1293 246.795 20.1739 239.098C21.8453 235.94 17.2849 232.412 19.0389 225.354C20.1533 220.794 17.3881 177.272 28.3457 163.817C34.2683 156.45 38.4987 154.387 54.0995 148.547C54.3885 148.547 54.5535 148.547 54.6567 148.877C55.0803 150.529 56.2931 151.865 57.8965 152.447C58.3667 152.615 58.7071 153.027 58.7839 153.52C59.7745 157.008 60.8475 160.433 61.8381 163.838C62.0857 164.767 64.2937 173.393 64.2319 174.362C63.7573 174.012 64.3763 174.734 61.2397 170.916C60.4761 170.008 51.0867 158.535 49.6629 158.535C48.2389 158.535 50.0549 160.598 52.2011 163.033C54.7805 165.922 57.8347 169.224 59.0935 170.751C65.6765 179.294 87.4475 207.504 95.4543 215.614C95.7019 215.882 95.1859 216.46 94.5257 217.863C91.4095 224.611 87.3443 235.156 87.5507 230.41C87.8809 222.321 91.4715 219.555 90.7493 218.235C90.4809 217.781 89.3667 219.555 89.0777 220.009C81.7519 231.916 88.1697 239.118 92.9779 225.911C97.4765 213.53 105.855 208.267 99.6433 220.711C96.9607 226.076 105.153 217.368 106.866 218.647C109.528 220.711 103.441 229.131 106.123 229.399C106.845 229.399 106.804 229.151 108.187 224.9C108.723 223.311 108.372 224.653 126.903 232.35Z" fill="white"/>
<path d="M126.181 294.897C126.676 296.569 122.652 294.711 114.377 299.169C113.552 299.623 113.985 300.242 113.036 290.192C113.036 288.995 113.49 289.325 114.811 288.706C117.101 287.86 117.617 287.22 117.927 284.971C117.944 282.887 117.708 280.808 117.225 278.78C116.668 275.313 116.75 268.669 116.028 260.93C116.028 260.394 116.028 260.105 116.75 260.311C120.506 261.405 121.27 261.157 121.497 262.003C125.562 281.298 126.14 287.757 126.181 294.897Z" fill="white"/>
<path d="M121.992 301.46C121.621 305.587 123.911 307.382 123.003 313.16C122.508 316.4 121.951 319.619 121.29 322.797C121.095 323.549 120.669 324.22 120.073 324.717C118.971 325.674 117.774 326.518 116.503 327.234C116.482 327.084 116.482 326.931 116.503 326.78C118.257 321.085 119 319.578 118.917 317.019C118.835 314.46 120.135 313.676 121.786 309.879C122.26 308.786 120.733 307.547 118.113 313.573C117.593 314.802 117.312 316.119 117.287 317.453C116.994 319.675 116.447 321.856 115.657 323.953C114.996 322.282 114.873 312.252 114.315 302.12C114.315 301.542 114.315 301.274 114.831 301.088C123.086 297.663 121.744 297.745 121.992 301.46Z" fill="white"/>
<path d="M117.101 186.496C117.101 187.425 117.225 226.675 116.833 226.51C116.07 226.138 109.507 223.105 109.156 222.919C108.806 222.733 109.156 221.66 109.156 220.133C109.156 216.15 105.772 216.006 102.966 218.069C105.132 211.053 101.088 210.331 97.332 213.942C96.878 214.396 96.6304 214.314 96.1764 213.942C93.2668 211.631 91.5746 208.35 89.3872 205.502C89.1858 205.153 89.1128 204.744 89.1808 204.346C91.2444 186.496 90.5428 192.357 92.2762 181.234C93.9584 172.228 95.0476 163.122 95.5366 153.974C95.5366 153.004 96.7748 150.012 98.2194 151.147C99.6638 152.282 101.789 153.767 103.42 155.274C112.499 163.673 116.503 174.362 117.101 186.496ZM106.783 166.975C107.169 164.458 106.412 161.901 104.72 160C101.893 156.409 100.366 156.326 98.1988 154.18C97.9718 153.953 97.7242 153.809 97.5178 154.18C96.4654 156.244 112.355 163.879 101.645 171.473C97.9512 174.073 97.2288 174.197 98.3226 174.816C100.907 176.032 103.007 178.082 104.286 180.636C107.052 186.826 96.9606 191.49 91.9048 201.395C91.9048 201.581 92.3382 202.634 93.019 201.395C93.6588 200.384 94.346 199.406 95.0826 198.465C99.5814 192.728 108.641 187.796 106.453 180.615C104.782 175.126 98.5496 175.126 101.439 173.351C104.472 171.391 106.267 169.76 106.783 166.975Z" fill="white"/>
<path d="M116.338 284.022C116.338 284.166 115.987 284.414 115.946 284.393C113.655 282.928 111.096 283.836 108.702 283.939C102.512 284.249 88.8918 284.826 88.2108 284.93C86.6218 285.177 85.487 284.806 85.6108 283.63C85.7758 282.123 85.879 280.596 86.0648 279.09C86.2958 277.137 86.3288 275.167 86.168 273.208C85.941 270.484 85.879 267.74 85.7346 264.954C85.607 261.657 85.6966 258.355 86.0028 255.069C86.3742 250.632 85.7346 250.179 86.725 250.467C88.7886 251.066 90.8522 251.54 92.9158 252.098C99.2512 253.81 106.082 257.092 114.212 259.3C114.635 260.907 114.815 262.57 114.749 264.232C114.79 270.858 115.321 277.473 116.338 284.022Z" fill="white"/>
<path d="M113.676 326.057V328.575C113.624 328.77 113.476 328.926 113.284 328.988C112.803 329.019 112.32 329.019 111.839 328.988C97.621 328.059 93.5556 329.627 72.6306 328.843C71.3924 328.843 71.2686 328.699 71.1654 327.522C70.5258 320.568 70.0718 317.535 69.8036 316.193C69.5352 314.852 70.856 314.315 71.4956 314.13C74.4008 313.519 77.3912 313.428 80.328 313.861C81.7106 313.985 82.0408 312.52 80.4518 312.231C78.9462 312.039 77.4294 311.949 75.9118 311.963C75.3958 311.963 75.2514 311.777 75.3958 311.261C77.4594 303.708 80.8232 294.876 80.8232 279.048C80.8232 277.48 80.6994 277.48 82.6804 277.459C84.6614 277.439 84.4138 277.459 84.29 279.152C83.7742 286.622 82.928 286.477 91.6778 286.477C92.6064 286.477 102.264 285.817 110.003 285.425C111.055 285.425 111.055 285.425 111.117 286.436C111.261 288.954 112.438 292.008 112.665 294.505C112.933 297.394 113.242 301.17 113.531 304.039C114.088 310.229 112.727 306.804 113.676 326.057Z" fill="#FFD942"/>
<path d="M104.534 84.2234C104.534 86.8028 101.831 85.2138 99.5194 91.3222C99.2718 91.9618 99.2718 92.8492 98.8178 93.2C98.3638 93.5508 97.621 92.973 97.0018 92.9112C95.8026 92.77 94.5902 93.0312 93.5556 93.654C92.9984 93.9842 93.0398 93.7778 93.019 93.3238C92.9172 90.9278 92.0492 88.6276 90.5428 86.7616C87.8234 83.401 82.9716 82.7078 79.42 85.1726C77.078 86.9938 75.4496 89.579 74.818 92.4778C74.4466 94.046 74.5292 94.0874 72.9814 94.273C58.4124 96.0684 70.113 92.6634 66.6256 87.4012C66.1328 86.8962 66.1328 86.0904 66.6256 85.5854C67.6988 83.6224 67.1822 81.1702 65.408 79.8072C64.1946 79.1448 63.035 78.3834 61.9412 77.5372C60.8768 75.95 58.8618 75.301 57.071 75.969C55.9154 76.361 54.5742 74.8132 54.5742 73.9054C54.5742 72.9974 56.6378 73.183 57.8758 73.9054C59.1424 74.744 60.6286 75.189 62.1476 75.1848C62.8114 75.1552 63.449 75.447 63.8604 75.969C65.2478 77.2986 66.953 78.2508 68.813 78.7342C70.8576 79.1078 72.811 77.7312 73.1466 75.68C73.6418 72.2132 70.7734 70.3146 67.389 69.4892C66.318 69.0572 65.3 68.5032 64.3556 67.8384C64.046 67.6732 64.108 67.5494 64.3556 67.4874C65.9858 67.0748 67.5542 66.6208 69.0194 68.1066C70.4844 69.5924 70.794 68.1066 75.0244 72.11C75.9662 73.2182 77.637 73.3302 78.7182 72.3576C83.7948 68.8908 77.4182 65.362 76.8816 64.4746C82.5772 63.1952 84.4138 74.5862 89.4904 70.067C91.265 68.4986 89.6554 65.9398 88.7268 64.165C91.258 65.5584 93.0582 67.9836 93.6588 70.81C94.0736 72.2476 95.6062 73.0468 97.0224 72.564C98.9416 71.8418 101.005 67.8176 100.139 74.1116C99.994 75.1022 100.737 75.907 102.016 76.1752C102.615 76.361 103.378 76.3198 103.482 77.1864V77.7436C103.29 77.7752 103.095 77.7752 102.904 77.7436C101.129 76.815 99.0242 77.7436 99.9322 81.6026C100.262 83.047 103.151 82.7168 103.812 82.8614C104.472 83.0058 104.493 83.336 104.534 84.2234ZM85.6932 82.1598C92.111 82.8408 89.965 77.4134 89.1394 77.1864C86.383 76.6384 83.529 76.8526 80.885 77.8056C78.8214 78.6928 79.3374 79.6628 78.45 80.4056C77.5626 81.1486 77.3976 81.747 77.7896 82.4692C78.1816 83.1914 78.6564 83.4186 79.8532 83.047C81.712 82.329 83.7052 82.0262 85.6932 82.1598Z" fill="white"/>
<path d="M103.977 106.924C103.757 110.717 102.745 114.421 101.005 117.799C100.854 116.58 100.31 115.443 99.4577 114.559C97.3941 112.496 98.4671 113.135 96.3003 109.503C96.3003 108.265 96.9401 109.008 100.015 108.884C101.748 108.822 102.801 107.584 103.977 106.924Z" fill="white"/>
<path d="M102.243 102.59C104.204 104.922 100.881 107.893 97.6209 106.717C96.5891 106.345 95.5573 106.16 94.4635 105.891C91.9665 105.272 90.0267 108.388 88.9123 106.16C88.4791 105.231 88.7267 104.406 90.1093 103.828C91.4919 103.25 89.9855 102.652 90.3981 102.115C91.5229 100.695 92.3255 99.0471 92.7507 97.2861C93.8279 95.6027 95.9281 94.8913 97.8065 95.5733C98.7765 95.7383 98.5081 96.2543 98.5081 97.3893C98.6383 97.8333 98.3467 98.2903 97.8891 98.3591C97.3319 98.5035 97.3939 99.0607 97.8891 99.3909C99.4223 100.34 100.877 101.411 102.243 102.59Z" fill="white"/>
<path d="M94.6701 146.359C96.3209 146.07 96.3623 148.629 95.7019 149.702C87.4475 163.322 66.8113 150.816 60.6205 151.043C59.0049 151.275 57.4235 150.442 56.6997 148.979C55.6473 147.04 57.5045 144.646 57.9585 143.965C58.4125 143.284 58.8459 143.738 59.3205 143.965C59.7951 144.192 60.3317 144.336 60.4967 143.965C61.0745 142.562 59.4237 141.447 58.1029 140.704C51.2105 136.804 63.0349 131.645 62.6635 136.144C62.4985 138.207 61.7761 139.838 63.4889 140.684C77.1293 147.349 88.2523 146.544 89.0777 143.243C89.3047 142.273 89.3873 140.973 89.5317 140.003C89.6761 139.033 89.9443 138.785 90.9349 138.888C92.2683 138.927 93.5665 139.326 94.6907 140.044C95.6885 140.634 96.0055 141.929 95.3923 142.913C94.7939 144.192 94.2161 145.224 89.2015 146.854C88.0045 147.246 88.8095 148.113 89.4697 148.01C90.1301 147.906 91.2651 147.638 92.1525 147.432C92.7509 147.184 94.1953 146.441 94.6701 146.359Z" fill="white"/>
<path d="M95.3303 118.686C95.6811 120.502 94.4429 120.749 94.6905 122.4C94.7453 122.86 94.6435 123.326 94.4015 123.721C93.7619 124.753 93.6587 126.094 92.4825 126.858C91.6569 127.291 90.9347 127.972 89.7997 127.766C88.9173 127.67 88.0535 128.066 87.5505 128.797C87.3385 129.211 86.8377 129.384 86.4155 129.189C85.6813 129.028 84.9145 129.228 84.3519 129.726C83.4025 130.386 82.9693 129.499 80.2247 129.355C78.5943 129.355 78.5943 130.923 77.8927 129.829C76.9847 128.405 75.8291 129.169 74.9831 129.293C74.2003 129.508 73.4395 128.885 73.4973 128.075C73.4973 126.61 72.6719 125.888 71.7431 125.826C70.8145 125.764 70.6083 125.454 70.5875 124.629C70.4175 123.687 70.1261 122.772 69.7209 121.905C70.1341 120.542 70.0387 119.076 69.4525 117.778C69.3783 117.277 69.4351 116.765 69.6177 116.292C69.6177 116.086 69.8859 115.9 69.8653 115.735C69.6589 114.62 70.6289 114.331 71.2067 113.671C73.4973 111.319 73.2703 110.204 74.7355 110.782C75.9311 111.268 77.2963 111.071 78.3055 110.266C78.5647 110.134 78.8717 110.134 79.1309 110.266C80.0485 110.729 81.0935 110.874 82.1025 110.679C82.5977 110.617 83.0971 110.716 83.5263 110.968C84.6203 111.977 86.2451 112.153 87.5297 111.401C88.7679 110.927 88.7473 110.865 89.5933 111.876C90.5633 112.736 91.4589 113.675 92.2761 114.682C93.3285 116.147 94.8145 116.23 95.3303 118.686ZM90.5013 125.31C90.9347 125.31 91.4093 125.31 91.3681 124.691C91.2807 124.366 91.0647 124.09 90.7697 123.927C87.8547 122.229 85.1349 120.215 82.6597 117.922C80.9263 116.313 79.0277 114.847 77.1911 113.341C76.5101 112.784 76.2831 112.846 76.1799 113.733C76.0767 114.62 76.0561 118.871 76.1799 119.779C76.1433 121.743 77.1585 123.577 78.8421 124.588C82.4327 126.899 85.7139 125.846 90.5013 125.31Z" fill="white"/>
<path d="M94.1129 154.882C94.7733 160.66 90.8317 175.25 87.7569 203.108C87.7219 203.263 87.6745 203.416 87.6125 203.562C87.4621 203.523 87.3215 203.453 87.1997 203.356C86.0855 202.097 84.9299 200.88 83.9187 199.559C63.8603 173.372 67.1829 180.141 65.8001 173.64C64.6869 167.677 63.1491 161.802 61.1983 156.058C60.5793 154.387 60.3729 154.366 62.4777 154.552C63.3445 154.552 70.7323 157.173 76.7785 158.308C81.8551 159.277 89.1395 159.752 94.1129 154.882Z" fill="white"/>
<path d="M88.1283 138.414C88.2727 138.786 88.1283 139.281 87.9837 139.714C87.8393 140.622 87.7361 141.53 87.5091 142.418C86.9727 144.481 75.2513 144.853 65.3873 139.694C63.9841 138.951 63.9841 138.971 64.1285 137.362C64.2729 135.752 64.4173 133.668 64.5619 131.831C64.5619 131.027 64.7683 130.965 65.4905 131.377C66.2757 131.695 66.8955 132.322 67.2033 133.111C67.6353 134.373 68.9647 135.092 70.2575 134.762C70.5339 134.76 70.7945 134.89 70.9591 135.112C71.5811 136.141 72.8607 136.562 73.9719 136.103C74.7973 135.814 75.1069 135.938 75.5815 136.763C76.5651 138.214 78.4679 138.716 80.0389 137.94C80.8643 137.403 80.6373 137.94 81.7517 138.765C83.2375 139.838 84.1867 139.673 85.1773 138.187C85.8377 137.197 86.1059 137.135 87.2409 137.775C87.4679 137.981 88.0251 138.125 88.1283 138.414Z" fill="white"/>
<path d="M75.9119 243.286C79.1517 246.65 84.9505 243.452 84.4759 250.138C84.0425 256.184 82.8869 266.378 84.2075 273.106C84.4759 274.529 84.4553 275.169 83.7123 275.293C78.8855 275.98 73.9927 276.085 69.1433 275.603C67.0753 275.198 65.0457 274.618 63.0763 273.869C62.8029 273.783 62.5763 273.589 62.4489 273.333C62.3239 273.074 62.3119 272.775 62.4159 272.507C63.5097 267.534 65.8827 233.051 65.9033 233.01C66.9971 233.588 73.7451 241.058 75.9119 243.286Z" fill="white"/>
<path d="M78.0371 277.604C78.6769 277.604 79.5643 277.336 79.5643 277.935C79.7603 289.173 77.9433 300.355 74.1989 310.953C74.0337 311.468 73.7655 311.551 73.3115 311.551C56.5137 311.365 53.2119 311.365 53.0675 315.121C52.8405 320.507 55.3169 320.59 55.1311 318.712C55.0279 317.721 54.7803 316.648 54.7185 315.719C54.5327 312.129 65.3047 313.47 65.4905 313.511C63.6091 314.272 61.7699 315.133 59.9807 316.091C58.9901 316.854 59.9807 317.762 60.8267 317.432C70.9797 313.697 65.9651 313.573 64.4793 327.75C64.4793 328.245 64.2523 328.514 63.7571 328.534C50.3435 329.195 37.2809 328.679 19.6577 327.812C18.2751 327.812 18.1513 327.957 18.0687 326.595C17.4703 316.875 17.8831 321.25 19.2451 314.213C20.2975 308.682 18.3989 306.825 16.5005 301.584C13.7145 293.845 15.6131 286.581 16.6243 281.463C16.7481 280.844 17.0783 280.638 17.7179 280.741C20.4419 281.236 23.1039 281.835 25.8073 282.495C39.6129 285.838 37.9825 283.589 52.7581 285.962C54.5739 286.251 56.4313 286.334 58.2679 286.519C62.5395 286.953 61.7347 281.463 61.9205 275.995C61.9205 275.149 61.9205 275.128 62.8077 275.438C69.6795 277.997 71.0621 276.717 71.0621 278.863C71.0943 284.836 70.6179 290.801 69.6383 296.693C69.2669 299.334 68.1937 306.454 68.1937 309.074C68.1937 310.375 69.5351 310.209 69.7003 309.074C70.0097 307.011 70.6701 303.771 71.4337 295.991C72.0119 290.136 72.1637 284.246 71.8877 278.368C71.8877 277.831 72.0115 277.708 72.3417 277.687C77.8721 277.563 77.3353 277.687 78.0371 277.604Z" fill="#FFD942"/>
<path d="M77.7896 103.601C78.3262 104.117 75.726 104.819 75.561 104.84C74.2608 104.84 72.9608 104.84 72.0528 106.016C70.4218 106.155 68.8664 106.764 67.5748 107.77C67.3082 108.058 66.9518 108.247 66.5636 108.306C63.9428 108.306 63.2 110.164 61.9618 111.546C60.589 112.869 58.515 113.145 56.844 112.227C45.0814 107.357 53.1296 90.4974 62.2506 101.331C64.3142 103.663 63.9428 98.4836 65.9652 98.2772C67.9876 98.071 71.929 97.8646 73.1052 97.8232C75.1688 97.8232 74.653 98.1328 75.1688 99.598C75.7356 101.11 76.6308 102.477 77.7896 103.601ZM59.8776 111.051C60.5998 111.175 60.9094 110.638 60.7856 110.37C59.6506 107.935 57.525 110.762 56.844 108.513C56.163 106.263 61.8586 107.337 60.5586 104.571C58.7426 100.692 52.8612 100.96 52.8406 104.571C52.8406 105.686 53.7486 105.892 54.2026 104.901C54.62 103.964 55.572 103.382 56.5964 103.436C57.645 103.41 58.622 103.966 59.1346 104.881C59.3204 105.521 57.7726 105.727 56.8234 106.202C55.8742 106.676 55.3376 107.275 55.482 108.1C55.3582 109.441 56.5346 111.113 58.1854 110.494C59.4648 110.019 58.949 110.803 59.8776 111.051Z" fill="white"/>
<path d="M62.2301 62.6173C64.0275 62.2423 65.8719 62.1447 67.6987 62.3283C65.6351 63.2569 61.3015 62.7205 61.1571 65.8365C61.1571 66.4555 56.2045 66.6413 54.1409 67.5905C48.7961 70.1081 52.0773 72.5433 48.9819 74.8957C48.1563 75.5355 47.6405 69.4479 54.1409 65.6301C56.6441 64.1683 59.3807 63.1491 62.2301 62.6173Z" fill="#FFD942"/>
<path d="M319.479 77.0421C318.732 75.5483 317.841 74.1313 316.817 72.8117C315.794 71.4921 319.293 69.4273 317.539 66.9923C315.785 64.5573 309.12 61.5857 307.098 61.1317C305.075 60.6777 296.387 58.9443 296.387 58.9443C298.802 58.2973 300.651 56.3529 301.175 53.9091C301.699 51.4653 299.111 56.1583 293.333 53.5789C287.555 50.9995 276.721 47.9865 269.251 53.9091C266.022 56.2059 263.927 59.7723 263.494 63.7111C263.3 65.4165 262.905 67.0927 262.317 68.7051C262.317 67.9003 261.678 61.3173 261.636 57.6855C259.676 60.4713 258.747 63.1333 260.501 68.7877C260.747 69.6027 261.056 70.3973 261.43 71.1607C261.172 72.0985 261.516 73.0981 262.297 73.6783C263.077 74.2585 264.36 76.2373 265.784 72.8941C265.784 72.8941 267.848 74.9577 269.54 71.4703C271.232 67.9829 279.652 66.2081 280.91 66.1255C282.169 66.0431 284.315 64.0619 284.088 69.6337C284.088 69.6337 285.595 75.1849 290.382 75.8245C295.17 76.4643 295.397 75.6801 295.046 78.1151C294.695 80.5501 294.179 84.5743 297.213 85.7299C300.246 86.8855 303.012 87.4013 301.877 90.5587C300.742 93.7159 299.276 95.9035 302.661 96.7495C306.045 97.5955 307.015 97.5955 307.242 96.3575C307.469 95.1193 308.645 91.0745 311.039 90.9301C313.433 90.7857 315.435 92.0033 315.703 91.2397C315.971 90.4761 317.147 85.6885 317.147 85.6885C317.147 85.6885 321.357 80.4263 319.479 77.0421Z" fill="white"/>
<path d="M98.6321 358.085C111.323 343.165 123.705 328.348 134.023 318.67C134.023 318.67 138.15 328.988 146.405 330.164C154.659 331.341 190.029 337.242 194.466 337.469L193.867 339.987C175.295 364.152 184.953 351.585 166.174 375.337L150.614 374.14C150.614 374.14 128.224 370.301 115.162 364.874L98.6321 358.085Z" fill="white"/>
<path d="M197.871 366.298L205.321 358.601L243.951 337.635C243.951 337.635 248.244 338.44 246.716 341.762L207.116 364.998C204.069 365.649 200.979 366.083 197.871 366.298Z" fill="white"/>
<path d="M83.8565 104.777C88.6545 104.777 92.5443 100.287 92.5443 94.7479C92.5443 89.2093 88.6545 84.7188 83.8565 84.7188C79.0585 84.7188 75.1687 89.2091 75.1687 94.7479C75.1687 100.287 79.0587 104.777 83.8565 104.777Z" fill="white"/>
<path d="M373.401 328.761C372.823 328.761 366.694 298.405 367.21 296.589C367.766 294.701 367.893 292.713 367.582 290.77C367.582 290.626 367.891 290.275 368.077 290.254C369.803 290.007 371.46 289.41 372.947 288.5C373.885 288.187 374.339 287.125 373.917 286.23C372.081 279.771 368.428 267.493 367.19 260.373C367.135 260.063 367.185 259.743 367.334 259.465C377.652 241.698 377.281 240.15 381.243 233.175C383.988 228.325 388.651 221.681 390.013 214.499C392.882 199.249 357.738 153.891 348.741 142.583C342.818 134.923 333.046 131.31 323.565 133.276C321.192 133.688 322.389 132.615 321.151 132.388C318.341 131.902 315.463 131.993 312.69 132.657C311.884 132.857 311.224 133.433 310.915 134.204C310.835 134.406 310.679 134.568 310.482 134.658C309.017 134.947 308.418 134.534 308.15 133.069C307.675 131.006 305.963 123.412 306.355 121.946C307.015 119.47 308.418 116.292 310.214 110.452C310.335 110.227 310.558 110.073 310.812 110.039C313.529 109.627 315.936 108.063 317.416 105.747C320.573 99.7009 319.871 94.6451 317.23 91.3021C317.147 91.0683 317.147 90.8135 317.23 90.5797C317.622 89.0733 317.952 87.5463 318.344 86.0605C318.571 85.1937 322.946 82.6555 320.14 76.8361C319.417 75.2885 317.601 73.3279 317.931 72.7089C318.505 71.7391 318.811 70.6371 318.819 69.5103C319.211 64.6815 314.692 62.1227 309.966 60.8225C306.26 59.7923 302.468 59.1015 298.637 58.7589C302.248 56.3445 302.475 52.1967 301.753 52.0523C301.031 51.9077 301.134 53.5793 299.689 54.1159C295.748 55.4571 283.428 45.5725 271.108 52.0523C265.825 54.7969 264.484 58.9653 263.019 62.7005C263.019 61.4209 262.689 59.7701 262.73 58.4701C262.771 57.1699 262.73 55.2301 261.76 56.4065C259.131 58.7111 257.849 62.1917 258.355 65.6513C258.621 67.5087 259.179 69.3123 260.006 70.9961C259.171 69.9649 258.477 68.8267 257.942 67.6119C256.701 65.3275 256.068 62.7619 256.106 60.1621C256.106 59.3367 255.776 59.1923 255.177 59.7907C253.657 61.6047 253.077 64.0265 253.609 66.3323C253.917 69.5349 255.585 72.4511 258.19 74.3391C255.948 74.1163 253.936 72.8663 252.742 70.9549C251.896 69.5929 251.566 71.0993 252.742 72.7915C254.423 75.1015 257.277 76.2475 260.089 75.7425C260.749 75.7425 261.946 75.1027 261.616 75.5773C260.747 76.7063 260.192 78.0445 260.006 79.4569C259.893 80.0623 259.514 80.5849 258.974 80.8809C258.017 81.5705 257.401 82.6373 257.282 83.8111C257.138 84.5747 257.736 85.3589 258.273 85.1319C258.809 84.9049 259.243 84.6365 259.222 85.1319C258.582 94.7069 261.451 95.1403 261.285 101.021C261.087 103.582 261.17 106.156 261.533 108.698C263.927 119.615 268.075 128.777 278.95 131.15C280.663 131.522 281.571 130.903 281.756 132.677C281.953 134.563 281.953 136.466 281.756 138.352C281.786 138.819 281.566 139.266 281.179 139.528C280.011 140.288 278.797 140.977 277.547 141.592C277.237 141.757 277.093 141.262 276.721 141.241C275.672 141.297 274.652 141.609 273.75 142.149C271.81 143.098 271.562 143.098 270.902 144.027C270.417 144.733 269.746 145.29 268.962 145.637C251.979 153.355 252.123 160.082 244.302 184.577C242.011 191.738 240.98 194.276 238.111 198.465C236.12 201.602 234.793 205.113 234.211 208.783C234.067 209.361 233.819 209.567 233.179 209.361C232.562 209.158 231.926 209.02 231.281 208.948C229.458 208.533 227.548 209.034 226.163 210.289C225.75 210.702 225.234 211.362 225.317 211.816C225.503 212.89 224.925 213.013 224.203 213.158C222.139 213.591 220.715 214.871 221.355 217.141C221.52 217.698 221.355 217.842 220.818 218.028C217.569 219.563 214.49 221.438 211.635 223.62C207.298 226.628 202.69 229.226 197.871 231.379C195.703 232.382 194.306 234.542 194.28 236.931C194.254 237.236 194.096 237.515 193.847 237.694C188.523 239.613 186.129 237.694 180.929 238.561C179.508 238.652 178.187 239.323 177.276 240.418C176.389 241.656 172.282 239.861 167.825 243.369C165.872 244.828 163.514 245.643 161.077 245.701C160.671 245.75 160.272 245.567 160.045 245.226C159.385 244.215 158.518 244.112 155.216 243.431C154.764 243.282 154.281 243.548 154.164 244.009C153.999 244.525 153.854 244.38 153.194 244.194C152.824 244.091 152.465 243.953 152.121 243.782C151.895 243.584 151.767 243.298 151.77 242.998C151.77 241.883 151.398 239.737 150.305 239.448C150.305 239.448 138.852 235.63 128.121 231.194C118.814 227.397 118.69 227.768 118.69 226.489C118.69 222.795 118.071 218.626 118.69 193.636C119.124 174.919 114.336 159.091 98.3638 149.454C97.8492 149.19 97.535 148.65 97.559 148.072C97.4974 147.144 97.0196 146.295 96.2588 145.76C95.9906 145.554 95.7842 145.533 96.6922 143.841C97.544 142.227 97.196 140.241 95.8462 139.012C94.126 137.887 92.0724 137.385 90.0268 137.589C90.1858 137.215 90.3796 136.854 90.6046 136.516C90.79 136.395 91.0032 136.324 91.2236 136.309C92.4086 136.098 93.5222 135.594 94.4636 134.844C95.0294 134.246 95.353 133.459 95.3716 132.636C95.467 132.315 95.6808 132.042 95.97 131.872C96.3084 131.641 96.6674 131.439 97.043 131.274C98.1162 130.655 98.694 129.85 98.3844 128.88C97.7654 127.002 99.932 127.023 100.077 124.753C100.125 124.038 100.307 123.338 100.613 122.689C103.172 118.129 105.917 111.463 105.586 106.634C105.586 105.644 105.586 104.984 106.598 104.571C108.868 102.844 110.354 100.28 110.725 97.4515C111.695 92.9529 111.034 86.4731 106.701 85.6271C105.958 85.4827 106.185 85.0081 106.164 84.5541C106.144 84.1001 106.164 83.7699 106.907 84.0587C110.766 85.4413 108.785 81.6649 108.806 81.6237C109.404 78.6315 105.504 79.8283 105.132 76.8981C104.988 75.8663 104.204 75.4535 105.132 74.3805C106.055 73.3487 106.556 72.0073 106.536 70.6247C106.536 70.3565 105.834 66.4975 100.943 67.2817C100.533 67.4335 100.15 67.6495 99.8082 67.9213C97.7446 61.0083 89.2014 58.4493 86.3742 61.5449C85.8376 62.1227 74.6942 55.5191 72.548 62.1845C72.548 62.3703 72.2386 62.6591 72.1354 62.6385C71.7102 62.5889 71.3088 62.4169 70.9798 62.1433C70.6082 61.6893 70.9798 60.3067 71.4544 59.8733C74.7768 56.8399 77.8516 54.8587 76.6958 50.8759C76.1388 48.9569 76.9022 48.9569 82.5772 42.9105C85.1566 40.1865 82.4328 36.5133 79.3374 35.0687C74.9212 33.0051 74.6116 37.3593 73.8894 37.8133C68.4622 41.0739 71.2068 46.0677 70.113 46.8107C69.2188 47.4679 68.8656 48.6367 69.2462 49.6791C69.7002 51.6189 67.3272 55.8699 66.1508 57.3351C66.1508 55.2715 65.862 54.8587 66.8112 53.6205C67.7192 52.4503 68.1004 50.9555 67.8636 49.4933C67.1208 44.2931 70.505 42.6835 68.7304 39.1753C67.3684 36.5133 70.9384 33.6037 70.2988 28.4239C70.187 27.6469 69.8332 26.9249 69.2876 26.3603C65.6556 23.2237 57.0916 22.6253 57.2774 27.6811C57.2774 30.3019 58.2886 30.4051 57.6694 31.8083C56.8818 33.4087 57.0404 35.3131 58.0822 36.7609C61.6522 42.3533 57.2154 44.4789 60.1458 47.8013C61.5078 49.3489 58.7838 51.9285 59.6298 53.8269C59.9502 55.0085 59.8176 56.2669 59.2584 57.3557C58.3212 55.8865 57.9678 54.1197 58.268 52.4031C58.5288 50.9463 58.3788 49.4457 57.8346 48.0695C56.0186 43.4883 57.3392 44.3137 57.0298 42.8485C56.0598 38.1023 54.12 37.4007 54.8424 35.4609C55.8948 32.6131 52.7788 30.9209 52.0152 28.4653C51.7116 27.5261 51.4704 26.5679 51.293 25.5969C51.0144 24.2153 49.656 23.3313 48.28 23.6365C42.2338 24.0905 41.3258 23.8841 39.3034 27.7637C38.1684 30.0335 43.4306 37.3593 44.318 37.7515C47.145 38.9897 44.318 41.6517 47.434 43.9423C49.1468 45.2423 46.4228 48.2347 50.3024 50.8553C51.3548 51.5571 50.5088 54.5493 50.3024 54.9827C47.888 53.2699 49.1056 50.5871 47.5784 48.7917C45.8774 46.8419 44.4854 44.6427 43.4512 42.2707C42.7702 40.8881 34.9698 34.8831 33.5666 34.6973C28.5932 33.9131 27.3758 38.6387 26.4472 40.2071C22.8978 46.0059 30.8426 46.8313 34.9698 51.6395C38.1478 55.1889 40.4384 52.5269 42.3782 57.5415C42.3782 57.5415 42.1924 57.8097 42.1512 57.8097C40.6166 57.4939 39.1218 57.0095 37.6938 56.3651C34.5778 54.6729 30.5538 52.9189 28.0568 55.4159C27.757 55.6657 27.373 55.7911 26.9836 55.7667C23.0216 55.4985 21.0612 54.4047 19.6786 57.1493C15.283 65.8991 23.0422 67.4673 26.0344 66.1673C26.4058 66.0023 28.4282 65.2593 28.8616 65.6721C31.6062 68.2929 38.5604 65.4451 40.459 66.6419C41.1702 66.9809 41.9286 67.2105 42.7084 67.3229C42.8592 67.3725 42.8998 67.5669 42.7814 67.6727C42.7602 67.6917 42.7354 67.7061 42.7084 67.7149C42.275 67.7149 41.3258 67.9419 39.0764 68.3753C31.7918 69.7787 31.3792 72.5025 29.068 72.5025C25.6218 72.2549 24.4042 76.8981 26.1788 79.9521C26.7452 81.1479 27.785 82.0531 29.0474 82.4491C30.681 82.8145 32.382 82.7433 33.9794 82.2427C34.7004 81.9435 35.3532 81.5013 35.8984 80.9427C36.4436 80.3841 40.3764 75.9695 45.2878 75.5361C45.2878 77.5997 42.0686 78.4457 44.3386 81.4999C44.6068 81.8713 44.545 82.0157 44.1736 82.1809C42.0752 82.9177 41.5614 85.6499 43.2488 87.0987C43.314 87.1545 43.3814 87.2075 43.4512 87.2573C44.7306 88.3717 42.3988 87.9795 42.1924 90.8687C42.1532 92.0665 42.8138 93.1781 43.8846 93.7165C44.5656 94.1705 44.6482 94.5213 44.1736 95.2023C42.11 98.1325 46.134 99.2057 45.8656 99.9279C45.0196 101.991 46.8562 102.61 47.661 103.457C46.6912 104.138 45.4116 104.323 45.4324 106.469C45.4324 108.966 47.1658 108.843 47.599 109.358C48.3008 110.225 45.8244 114.724 51.1072 114.167C51.52 114.167 51.7882 114.167 51.6024 114.724C51.3814 115.524 51.493 116.38 51.912 117.097C52.4692 118.356 55.6058 119.986 57.6488 116.416C58.5774 117.675 59.5268 118.686 59.0728 120.027C58.8946 120.793 59.1666 121.593 59.7744 122.091C60.476 122.793 61.1156 123.02 61.1156 123.618C60.6306 125.201 61.2968 126.909 62.7254 127.745C63.146 127.998 63.4042 128.452 63.4062 128.942C63.4062 130.201 63.2618 130.903 63.1586 131.955C63.0554 133.007 62.8904 132.987 62.23 132.925C58.371 132.574 54.4916 133.812 54.3884 137.919C54.2976 139.479 55.0966 140.957 56.452 141.736C57.0298 142.149 56.844 142.479 56.452 142.892C54.3884 145.822 55.2138 145.822 54.2646 146.441C45.2878 152.323 27.4376 150.259 20.5246 177.994C16.3974 194.008 18.626 215.634 16.934 227.19C15.8814 234.372 19.6786 236.621 18.5848 238.354C13.921 245.742 11.878 247.599 11.7956 251.974C11.6304 261.405 4.9238 268.483 8.5556 275.685C10.9082 280.39 15.8608 278.822 15.345 281.216C14.1292 285.162 13.3608 289.232 13.0544 293.35C12.559 302.347 18.5642 306.68 16.9958 313.057C15.9408 317.712 15.497 322.485 15.6752 327.255C15.6752 327.894 15.5306 327.977 14.9942 327.997C11.5132 327.81 8.0256 328.208 4.6762 329.174C3.2728 329.504 4.3046 330.887 5.5016 330.577C8.2022 329.92 10.9774 329.622 13.756 329.69C15.2004 329.69 38.5192 331.568 61.219 330.68C62.1682 330.68 98.3638 330.288 120.424 331.093C119.825 332.414 113.738 336.685 98.302 357.713C96.8162 359.777 98.467 359.344 112.087 364.007C128.864 369.744 145.93 375.254 165.245 376.389C166.33 376.571 167.406 376.017 167.887 375.027C171.008 369.952 174.586 365.172 178.576 360.747C184.51 353.848 190.023 346.599 195.085 339.038C197.85 335.076 190.132 337.119 172.654 334.106C172.654 334.106 148.179 329.669 147.705 329.504C149.521 328.864 308.79 330.825 323.751 330.845H325.484C371.255 332.022 384.441 329.339 394.533 330.494C394.533 330.494 397.834 329.442 394.533 328.844C392.18 328.369 386.34 328.163 373.401 328.761ZM312.525 135.05C312.525 134.431 313.041 134.225 313.495 134.163C314.898 133.936 320.222 133.358 321.13 134.431C327.321 141.592 328.621 141.241 332.335 147.226C333.12 148.464 332.831 148.959 331.613 149.867C326.867 153.396 320.036 156.842 324.122 158.514C327.218 159.772 330.313 159.814 335.617 160.866C337.68 161.279 337.68 162.434 337.102 164.23C332.975 177.684 325.051 200.198 325.216 211.693C325.216 212.848 325.98 213.013 326.083 212.105C327.816 198.444 327.63 201.457 330.685 190.128C331.448 187.301 337.123 169.492 338.114 165.901C338.795 163.549 339.868 160.68 337.494 159.917C332.418 158.348 330.354 159.174 325.918 157.998C324.803 157.709 324.164 157.255 324.762 156.759C327.3 154.696 329.612 154.035 333.739 150.837C336.69 148.526 330.643 142.582 324.019 135.484C323.524 134.947 323.751 134.885 324.308 134.823C334.482 133.606 341.044 136.371 346.471 143.078C368.283 169.636 373.814 180.078 382.997 196.587C386.237 202.406 389.58 209.278 388.032 215.16C386.897 219.576 382.914 227.355 378.23 236.167C377.074 238.354 367.912 255.524 366.117 257.236C365.257 254.939 364.952 252.472 365.229 250.034C365.436 243.245 360.07 245.68 363.496 242.936C365.787 241.099 365.56 237.55 361.886 236.002C360.648 235.486 363.64 232.927 361.226 231.565C359.307 230.451 360.008 228.655 360.05 227.067C360.123 222.182 361.031 217.345 362.732 212.766C363.918 209.671 366.265 207.161 369.274 205.77C370.409 205.13 373.566 202.799 373.277 202.365C372.988 201.932 371.73 202.716 371.214 203.046C368.634 204.594 367.19 205.481 364.652 207.173C362.113 208.866 361.474 212.601 360.524 213.571C359.554 211.507 357.677 210.95 358.337 207.71C358.626 205.359 359.554 203.132 361.02 201.271C361.907 200.136 363.083 198.857 362.443 198.486C361.804 198.114 361.329 198.94 360.689 199.538C358.953 201.337 357.555 203.434 356.562 205.729C356.335 206.41 356.046 206.059 355.861 205.729C355.014 204.099 353.797 202.572 353.137 200.879C349.381 191.903 348.039 195.39 343.871 186.248C342.612 183.504 341.126 180.842 339.744 178.159C339.125 176.942 338.155 176.364 338.402 177.623C339.228 181.935 341.704 184.825 344.387 190.706C345.326 192.716 346.743 194.466 348.514 195.803C349.752 197.165 350.656 198.797 351.156 200.57C351.983 203.073 353.091 205.475 354.457 207.731C355.943 209.794 357.181 212.147 358.585 214.355C358.961 216.751 359.161 219.172 359.183 221.598C359.183 223.269 358.791 224.941 358.646 226.613C358.399 229.44 358.935 229.749 358.131 229.584C355.695 229.13 353.24 228.717 350.805 228.284C350.805 228.284 349.133 227.789 349.174 228.284C349.278 229.398 352.002 229.749 356.892 231.091C360.132 231.978 360.793 232.287 360.71 233.03C360.359 236.043 358.977 233.67 349.009 234.722C346.306 235.011 345.419 234.722 345.192 235.259C344.8 236.291 350.021 235.981 351.217 235.919C354.932 235.734 358.44 235.486 361.886 237.694C362.959 238.375 364.28 240.026 362.588 241.326C360.896 242.626 357.553 245.061 360.153 245.453C363.537 246.01 364.28 247.393 364.012 250.365C363.807 252.635 364.03 254.925 364.672 257.113C365.58 260.27 370.863 280.39 372.369 284.909C372.555 285.446 372.369 285.508 371.957 285.446C368.964 284.971 338.939 285.136 334.812 285.301C333.718 285.301 333.264 285.301 333.037 284.105C333.037 284.105 330.685 272.259 330.231 269.556C329.777 266.853 329.694 263.365 329.529 260.827C326.351 213.364 324.968 236.064 319.913 193.223C313.887 142.995 312.112 151.477 312.525 135.05ZM254.971 61.4003C255.65 66.2469 257.94 70.7241 261.471 74.1121C257.427 74.4217 252.907 67.5705 254.971 61.4003ZM282.355 140.601C282.889 140.224 283.162 139.575 283.057 138.93V134.328C283.051 133.884 283.278 133.469 283.655 133.234C284.109 132.884 287.184 130.469 287.39 130.221C287.596 129.974 287.782 129.602 287.72 129.375C287.583 128.966 287.14 128.744 286.73 128.88C284.194 129.373 281.595 129.458 279.032 129.128C268.9 127.064 265 117.675 262.833 106.573C261.719 100.815 263.411 100.01 261.636 94.8101C260.705 91.1527 260.405 87.3631 260.749 83.6047C260.749 82.4491 261.698 81.3761 262.813 81.8507C263.927 82.3253 264.463 83.6047 265.289 82.7587C265.88 82.1979 265.88 81.2557 265.289 80.6951C264.44 79.8679 263.269 79.4597 262.09 79.5807C261.471 79.5807 261.471 79.5807 261.595 79.0029C261.832 77.6615 262.408 76.4069 263.267 75.3503C264.917 73.2867 262.214 74.8137 260.336 68.7467C258.582 63.0925 259.511 60.4923 261.471 57.6445C261.471 61.1115 261.905 65.5689 262.008 66.9309C261.975 68.8885 262.406 70.8263 263.267 72.5851C263.307 72.6587 263.356 72.7279 263.411 72.7915C263.824 73.2041 264.009 72.3787 263.927 72.1311C263.25 69.7703 263.2 67.2737 263.782 64.8879C264.327 61.9071 265.533 59.0865 267.311 56.6335C269.453 54.1791 272.362 52.5211 275.566 51.9283C287.452 49.2045 293.849 56.6541 299.916 55.0651C298.286 59.1923 293.725 57.7271 291.084 57.3557C288.442 56.9843 283.201 56.6747 281.241 58.6971C280.725 59.2335 280.002 60.1829 281.468 59.5843C284.402 58.4663 287.595 58.2087 290.671 58.8415C287.163 59.7907 285.925 60.3685 285.533 60.9051C285.141 61.4417 285.388 61.9369 286.874 61.4829C289.02 60.8589 291.243 60.5395 293.478 60.5337C297.537 60.6037 301.586 60.9669 305.591 61.6273C310.564 62.7417 317.973 64.9703 316.796 71.1405C316.796 71.5945 316.631 71.8835 316.033 71.4089C313.698 69.4973 311.034 68.0285 308.171 67.0753C306.932 66.6419 304.043 66.0641 304.043 66.4149C303.775 67.1785 310.007 68.4785 314.588 72.6057C316.159 74.0665 317.471 75.7829 318.468 77.6821C319.444 79.6163 319.115 81.9535 317.642 83.5429C317.25 84.0999 317.127 83.5429 316.962 83.3365C316.121 81.6501 315.082 80.0705 313.866 78.6315C311.183 75.7631 306.313 73.1217 306.148 73.8025C305.756 75.2883 309.904 74.2773 315.455 84.4301C316.342 86.0397 315.455 87.7733 314.939 89.3003C314.813 89.4795 314.599 89.5747 314.382 89.5479C305.467 87.3399 306.128 100.567 307.613 95.7387C310.544 86.9685 321.254 92.4577 316.363 103.023C312.587 111.278 307.82 106.779 305.261 104.633C304.807 104.241 304.043 104.447 304.188 105.19C304.683 107.584 307.655 108.574 308.005 109.503C307.272 113.609 306.321 117.673 305.158 121.678C304.642 123.618 305.591 129.479 305.942 131.728C306.107 132.822 306.458 133.915 306.685 135.009C306.858 135.831 307.578 136.423 308.418 136.433C309.058 136.433 309.698 136.577 310.358 136.619C311.018 136.66 311.039 136.846 311.06 137.362C311.177 139.96 311.066 142.562 310.729 145.141C310.461 147.061 310.337 149.021 310.048 150.94C309.474 156.273 307.965 161.463 305.591 166.273C303.239 170.895 299.792 173.372 295.479 170.895C287.596 166.479 281.468 152.529 278.29 144.233C277.712 142.748 277.877 143.449 282.355 140.601ZM197.995 233.051C199.584 232.205 201.152 231.276 202.803 230.533C212.935 226.014 216.877 220.36 223.15 218.75C226.266 217.945 228.433 220.958 229.836 224.57C230.909 227.252 231.116 226.055 230.992 225.147C230.579 222.011 229.32 218.131 226.617 217.656C223.914 217.182 223.253 218.296 222.923 216.914C222.737 216.088 222.696 215.572 223.377 215.139C225.337 213.839 226.307 214.891 230.517 216.666C232.581 217.512 234.789 218.544 235.036 217.822C235.408 216.748 226.452 213.529 226.782 212.704C226.976 211.975 227.436 211.346 228.07 210.939C228.702 210.53 229.465 210.372 230.208 210.496C231.361 210.578 232.504 210.785 233.613 211.115C235.93 211.833 238.349 212.173 240.773 212.126C242.651 212.126 243.477 211.92 242.837 211.486C241.784 210.661 241.351 211.301 236.646 210.454C235.986 210.331 235.903 210.083 236.006 209.608C236.797 204.6 238.701 199.833 241.578 195.658C244.962 189.983 249.647 171.824 252.577 164.044C254.187 159.814 255.796 153.251 269.395 146.937C269.21 147.473 266.754 153.127 266.052 155.191C265.742 155.878 265.726 156.663 266.009 157.362C266.297 158.06 266.856 158.61 267.559 158.885C269.375 159.793 271.273 160.598 273.131 161.423C277.258 163.28 276.329 162.723 276.804 163.157C275.442 164.539 263.762 168.316 266.135 172.856C272.573 185.237 270.654 181.11 282.644 216.026C284.233 220.628 284.707 223.331 285.161 222.692C285.3 222.425 285.351 222.122 285.306 221.825C281.598 207.848 277.169 194.072 272.037 180.553C271.019 178.087 269.819 175.7 268.446 173.413C266.486 170.4 268.776 169.966 277.609 164.807C277.995 164.591 278.368 164.349 278.723 164.085C279.631 163.404 279.734 163.095 278.723 162.517C274.431 160.041 273.585 160.453 268.838 157.564C267.662 156.863 267.311 156.285 267.868 154.799C269.107 151.497 270.118 148.794 271.521 145.575C271.769 144.997 271.665 144.584 273.585 143.511C274.167 143.202 274.767 142.927 275.38 142.686C275.731 142.541 276.205 142.459 276.412 143.016C277.299 145.781 278.826 149.083 279.755 151.827C280.89 155.17 282.004 157.151 283.036 160.536C283.655 162.599 283.923 166.727 284.336 168.79C285.966 177.168 290.217 226.158 290.382 230.698C290.94 245.928 288.484 279.709 287.823 286.416C287.679 287.984 287.555 287.798 283.036 287.633C277.258 287.448 270.943 286.271 267.105 287.076C266.445 287.221 266.486 286.932 266.527 286.54C268.137 266.399 268.116 274.839 270.427 242.647C270.427 241.388 270.675 240.129 270.737 238.87C270.752 238.21 271.209 237.643 271.851 237.488C274.781 236.456 277.918 237.219 277.464 236.146C277.299 235.775 276.02 235.63 275.731 235.61C273.593 235.207 271.381 235.627 269.54 236.786C267.93 238.065 265.784 233.01 269.54 230.348C270.262 229.832 273.337 227.52 272.842 226.778C272.346 226.035 271.975 226.571 271.583 226.778C270.159 227.789 270.221 227.768 269.849 226.055C265.289 204.057 266.733 212.229 266.011 204.614C265.681 201.209 265.64 197.784 265.144 194.4C264.726 191.027 264.036 187.694 263.081 184.432C262.709 183.38 262.4 182.781 262.297 182.864C262.193 182.947 262.028 183.751 262.297 185.567C263.535 192.687 263.349 190.252 264.36 204.387C264.463 205.458 264.463 206.536 264.36 207.607C264.121 208.515 263.754 209.383 263.267 210.186C261.884 212.539 256.003 223.228 254.29 226.117C253.213 227.708 251.731 228.983 249.998 229.811C243.491 233.014 237.198 236.633 231.157 240.645C229.382 241.924 227.401 242.936 225.523 244.071C219.332 247.826 217.001 249.291 214.586 250.571C214.375 250.636 214.145 250.581 213.988 250.426C212.735 248.001 211.129 245.775 209.221 243.823C206.6 240.893 203.835 238.107 200.966 235.341C200.188 234.43 199.152 233.775 197.995 233.464C196.837 233.152 197.85 233.34 197.768 233.278L197.995 233.051ZM181.486 239.758C188.853 239.758 190.566 240.851 194.218 238.808C195.745 237.962 197.314 237.178 198.82 236.332C199.037 236.117 199.387 236.117 199.604 236.332C199.914 236.621 200.244 236.869 200.533 237.158C202.824 239.51 205.114 241.842 207.384 244.215C208.044 244.896 208.024 244.958 207.136 245.412C199.439 249.25 197.747 250.468 196.509 250.798C193.751 251.366 190.888 251.136 188.254 250.138C188.791 249.085 191.556 246.01 191.639 245.474C191.721 244.937 191.123 244.669 190.834 244.958C189.41 246.361 188.626 248.053 186.294 249.25C186.08 249.323 185.848 249.323 185.634 249.25C184.54 248.9 183.426 248.59 182.353 248.136C181.279 247.682 180.722 245.206 178.7 247.93C177.297 249.808 174.408 254.306 173.83 255.028C173.004 256.122 172.427 256.948 170.611 256.535C169.207 256.205 169.765 255.214 169.909 254.946C170.92 253.171 171.973 251.458 172.901 249.622C173.609 247.89 174.552 246.264 175.708 244.793C178.102 241.986 177.833 239.737 181.486 239.758ZM159.921 247.579C160.045 247.145 160.189 246.898 160.664 246.898C164.039 246.844 167.288 245.61 169.847 243.41C170.525 242.892 171.318 242.546 172.158 242.399C173.443 242.219 174.741 242.143 176.038 242.172C175.153 243.415 174.173 244.588 173.108 245.68C170.446 248.404 171.601 250.509 168.712 254.224C167.185 256.163 168.361 257.154 169.95 257.794C171.572 258.436 173.422 257.871 174.408 256.432C175.8 254.123 177.344 251.91 179.03 249.807C179.443 249.395 179.856 248.838 180.372 248.734C180.887 248.631 181.3 249.147 181.775 249.312C184.17 250.313 186.649 251.1 189.183 251.665C191.577 252.016 188.75 252.655 197.974 251.809C198.469 251.809 198.82 251.644 199.047 252.201C199.297 252.667 199.154 253.246 198.717 253.543C197.512 254.312 196.164 254.831 194.755 255.07C193.19 255.654 191.55 256.015 189.885 256.143C188.77 256.143 188.977 256.824 189.885 256.989C193.558 257.567 193.145 256.452 194.982 256.411C194.548 257.856 194.053 258.681 191.598 259.176C189.921 259.74 188.166 260.039 186.397 260.064C185.758 260.064 185.097 260.662 186.273 261.137C187.45 261.611 188.667 260.992 190.07 260.889C189.614 261.93 188.641 262.652 187.512 262.788C185.613 262.973 183.735 263.324 181.837 263.53C181.682 263.545 181.529 263.58 181.383 263.634C181.174 263.711 181.058 263.934 181.114 264.15C181.279 264.851 183.178 264.418 184.169 264.562C182.925 265.365 181.512 265.867 180.041 266.027C174.614 267.018 170.961 265.388 166.133 262.684C164.606 261.818 162.955 261.157 161.324 260.435C160.912 260.249 160.685 260.208 160.953 259.61C161.976 257.131 161.323 254.276 159.323 252.49C158.229 251.376 159.034 250.819 159.859 247.579H159.921ZM154.081 249.023C154.314 247.845 154.609 246.681 154.969 245.536C154.969 245.329 155.175 244.669 155.773 244.793C156.688 244.983 157.585 245.245 158.456 245.577C158.576 245.627 158.673 245.722 158.724 245.841C158.78 245.959 158.786 246.093 158.745 246.217C158.745 246.423 157.486 250.117 157.424 250.344C157.218 251.046 157.424 250.757 154.597 249.89C154.102 249.725 153.895 249.622 154.019 249.023H154.081ZM157.816 253.151C158.977 254.091 159.679 255.484 159.744 256.976C159.808 258.469 159.226 259.917 158.146 260.951C157.247 261.688 156.109 262.07 154.948 262.024C151.754 262.064 148.941 259.931 148.117 256.844C147.789 254.658 149.025 252.538 151.089 251.747C153.394 251.095 155.872 251.586 157.754 253.068L157.816 253.151ZM149.727 244.256C152.719 245.391 153.565 245.185 153.586 245.887C153.318 247.001 153.029 248.136 152.657 249.209C152.491 249.559 152.183 249.822 151.811 249.931C149.842 250.175 148.131 251.403 147.271 253.192C145.765 256.659 148.117 257.67 145.208 256.411C145.923 252.748 146.945 249.152 148.262 245.66C148.716 244.256 149.335 244.05 149.665 244.174L149.727 244.256ZM98.1988 151.208C99.9322 152.57 101.769 153.829 103.399 155.336C112.499 163.59 116.503 174.383 117.101 186.517C117.101 187.445 117.101 226.489 116.771 226.303C116.008 225.952 114.708 225.457 113.944 225.044C113.758 225.044 113.676 224.611 113.634 224.363C112.334 215.779 112.396 197 112.541 188.952C112.541 187.569 113.263 180.243 112.747 178.985C112.747 178.985 112.272 178.386 112.149 179.954C111.798 184.845 110.312 207.71 112.149 223.455C112.149 224.033 112.149 224.157 111.571 223.95C110.415 223.455 109.507 223.022 109.239 222.836C108.971 222.65 109.239 221.681 109.239 220.153C109.239 216.171 105.855 216.026 103.048 218.09C105.215 211.074 101.17 210.351 97.4146 213.963C96.9606 214.417 96.713 214.334 96.259 213.963C93.3492 211.651 91.657 208.37 89.4696 205.523C89.2686 205.173 89.1956 204.764 89.2632 204.367C91.3268 186.517 90.6252 192.377 92.3586 181.255C94.0388 172.249 95.128 163.142 95.6192 153.994C95.5572 153.066 96.7544 150.073 98.1988 151.208ZM87.7568 203.108C87.7218 203.263 87.6744 203.416 87.6124 203.562C87.462 203.523 87.3214 203.453 87.1996 203.356C86.0854 202.097 84.9298 200.879 83.9186 199.559C63.8602 173.372 67.1828 180.14 65.8 173.64C64.6868 167.677 63.149 161.801 61.1982 156.058C60.5792 154.386 60.3728 154.366 62.4776 154.551C63.3444 154.551 70.7322 157.172 76.7784 158.307C81.855 159.277 89.1602 159.752 94.1128 154.882C94.8144 160.577 90.8316 175.249 87.7568 203.108ZM94.9588 120.75C94.3192 122.008 94.9588 122.669 94.4016 123.721C93.8444 124.774 93.6588 126.094 92.4826 126.858C91.657 127.291 90.9348 127.972 89.7998 127.766C88.9174 127.67 88.0536 128.066 87.5504 128.798C87.3386 129.212 86.8378 129.385 86.4156 129.19C85.6814 129.029 84.9146 129.228 84.352 129.726C83.4026 130.387 82.9692 129.499 80.2246 129.355C78.5944 129.355 78.5944 130.923 77.8928 129.829C76.9848 128.406 75.8292 129.169 74.9832 129.293C74.2004 129.509 73.4396 128.885 73.4974 128.075C73.4974 126.61 72.6718 125.888 71.7432 125.826C70.8146 125.764 70.6082 125.455 70.5876 124.629C70.4176 123.688 70.1262 122.772 69.721 121.905C70.1342 120.542 70.0388 119.076 69.4526 117.778C69.3784 117.277 69.4352 116.765 69.6178 116.292C69.6178 116.086 69.886 115.9 69.8654 115.735C69.659 114.621 70.629 114.332 71.2068 113.671C73.4974 111.319 73.2704 110.204 74.7354 110.782C75.9312 111.268 77.2962 111.071 78.3056 110.266C78.5648 110.134 78.8718 110.134 79.131 110.266C80.0486 110.729 81.0936 110.874 82.1026 110.679C82.5978 110.617 83.0972 110.716 83.5264 110.968C84.6204 111.977 86.2452 112.153 87.5298 111.401C88.768 110.927 88.7474 110.865 89.5934 111.876C90.5634 112.737 91.459 113.675 92.2762 114.683C93.3698 116.251 94.9176 116.333 95.3716 118.81C95.4748 119.485 95.3302 120.176 94.9588 120.75ZM87.9838 139.714C87.8394 140.622 87.7362 141.53 87.5092 142.417C86.9728 144.481 75.2514 144.852 65.3874 139.693C63.9842 138.951 63.9842 138.971 64.1286 137.362C64.273 135.752 64.4174 133.668 64.562 131.831C64.562 131.026 64.7684 130.964 65.4906 131.377C66.2758 131.694 66.8956 132.321 67.2034 133.111C67.6354 134.373 68.9648 135.092 70.2576 134.761C70.534 134.76 70.7946 134.89 70.9592 135.112C71.5812 136.141 72.8608 136.562 73.972 136.103C74.7974 135.814 75.107 135.938 75.5816 136.763C76.5652 138.213 78.468 138.716 80.039 137.939C80.8644 137.403 80.6374 137.939 81.7518 138.765C83.2376 139.838 84.1868 139.673 85.1774 138.187C85.8378 137.196 86.106 137.135 87.241 137.774C87.5918 137.981 88.1284 138.125 88.2316 138.414C88.3346 138.703 88.0458 139.281 87.9838 139.714ZM76.015 94.5419C75.7674 85.4413 87.406 81.5205 90.6666 90.4147C92.243 94.1363 91.501 98.4359 88.768 101.414C86.69 104.389 82.5864 105.102 79.6262 103.003C76.6546 100.733 76.0974 97.9881 76.015 94.5419ZM94.4636 105.912C91.9666 105.272 90.0268 108.409 88.9124 106.18C88.4792 105.252 88.7268 104.426 90.1094 103.849C91.492 103.271 89.9856 102.672 90.3982 102.136C91.5256 100.71 92.3284 99.0547 92.7508 97.2865C93.828 95.6031 95.9282 94.8917 97.8066 95.5737C98.7766 95.7387 98.5082 96.2547 98.5082 97.3897C98.6384 97.8337 98.3468 98.2907 97.8892 98.3595C97.332 98.5039 97.394 99.0611 97.8892 99.3913C99.4162 100.351 100.871 101.42 102.243 102.59C104.204 104.922 100.881 107.893 97.6208 106.717C96.589 106.387 95.516 106.201 94.4636 105.933V105.912ZM101.005 117.799C100.854 116.58 100.31 115.443 99.4576 114.559C97.394 112.495 98.467 113.135 96.3002 109.503C96.3002 108.265 96.94 109.008 100.015 108.884C101.707 108.884 102.759 107.584 103.936 106.944C103.726 110.727 102.728 114.424 101.005 117.799ZM107.196 87.6701C110.89 91.0131 109.487 99.7627 105.999 102.569C104.802 103.539 104.39 103.271 103.936 102.569C103.467 101.544 102.658 100.712 101.645 100.217C100.4 99.7531 99.627 98.5047 99.767 97.1833C99.7572 97.0183 99.7572 96.8529 99.767 96.6881C99.767 93.5637 100.964 90.5591 103.11 88.2891C104.947 86.7621 106.288 86.7207 107.341 87.6701H107.196ZM75.1276 72.1311C76.0694 73.2393 77.7402 73.3515 78.8214 72.3787C83.898 68.9119 77.5214 65.3831 76.9848 64.4957C82.6804 63.2163 84.517 74.6075 89.5936 70.0881C91.3682 68.5197 89.7586 65.9609 88.83 64.1863C91.3612 65.5795 93.1614 68.0047 93.762 70.8311C94.1768 72.2687 95.7094 73.0679 97.1256 72.5851C98.9416 71.8421 101.005 67.8181 100.139 74.1121C99.994 75.1027 100.737 75.9075 102.016 76.1757C102.615 76.3615 103.378 76.3203 103.482 77.1869V77.7441C103.29 77.7757 103.095 77.7757 102.904 77.7441C101.129 76.8155 99.0242 77.7441 99.9322 81.6031C100.262 83.0475 103.151 82.7173 103.812 82.8619C104.472 83.0063 104.451 83.2745 104.493 84.1413C104.493 86.7207 101.789 85.1319 99.4782 91.2401C99.2306 91.8797 99.2306 92.7671 98.7766 93.1179C98.3226 93.4687 97.5796 92.8909 96.9606 92.8291C95.7612 92.6879 94.549 92.9493 93.5144 93.5719C92.9572 93.9021 92.9984 93.6957 92.9778 93.2417C92.8758 90.8457 92.008 88.5455 90.5014 86.6795C87.782 83.3189 82.9304 82.6257 79.3786 85.0905C77.0358 86.9391 75.4208 89.5555 74.818 92.4783C74.4466 94.0465 74.5292 94.0879 72.9814 94.2735C58.4124 96.0689 70.113 92.6639 66.6256 87.4017C66.1328 86.8967 66.1328 86.0909 66.6256 85.5859C67.6988 83.6229 67.1822 81.1707 65.408 79.8077C64.1946 79.1453 63.035 78.3839 61.9412 77.5377C60.8768 75.9505 58.8618 75.3015 57.071 75.9695C55.9154 76.3615 54.5742 74.8137 54.5742 73.9059C54.5742 72.9979 56.6378 73.1835 57.8758 73.9059C59.1424 74.7445 60.6286 75.1895 62.1476 75.1853C62.8114 75.1557 63.449 75.4475 63.8604 75.9695C65.2478 77.2991 66.953 78.2513 68.813 78.7347C70.8576 79.1083 72.811 77.7317 73.1466 75.6805C73.6418 72.2137 70.7734 70.3151 67.389 69.4897C66.318 69.0577 65.3 68.5037 64.3556 67.8389C64.046 67.6737 64.108 67.5499 64.3556 67.4879C65.9858 67.0753 67.5542 66.6213 69.0194 68.1071C70.4844 69.5929 70.8972 68.2309 75.1276 72.1311ZM48.9818 74.8963C48.1562 75.5361 47.6404 69.4485 54.1408 65.6307C56.644 64.1689 59.3804 63.1497 62.23 62.6179C64.0274 62.2429 65.8718 62.1453 67.6986 62.3289C65.635 63.2575 61.3014 62.7211 61.157 65.8371C61.157 66.4561 56.2044 66.6419 54.1408 67.5911C48.7754 70.1087 52.0152 72.5439 48.9818 74.8963ZM61.9618 111.546C60.589 112.869 58.5152 113.145 56.844 112.227C45.0816 107.357 53.1296 90.4971 62.2508 101.331C64.3144 103.663 63.9428 98.4833 65.9652 98.2769C67.9876 98.0707 71.929 97.8643 73.1052 97.8229C75.1688 97.8229 74.653 98.1325 75.1688 99.5977C75.7296 101.108 76.6176 102.475 77.769 103.601C78.3056 104.117 75.7054 104.818 75.5404 104.839C74.2402 104.839 72.9402 104.839 72.0322 106.015C70.4012 106.155 68.8458 106.764 67.5542 107.769C67.2876 108.058 66.9312 108.247 66.543 108.306C63.8604 108.327 63.2 110.163 61.9618 111.546ZM57.9378 143.903C58.2886 143.387 58.8252 143.676 59.2998 143.903C59.7744 144.13 60.311 144.275 60.476 143.903C61.0538 142.5 59.403 141.386 58.0822 140.643C51.1898 136.742 63.0142 131.583 62.6428 136.082C62.4778 138.146 61.7554 139.776 63.4682 140.622C77.1086 147.288 88.2316 146.483 89.057 143.181C89.284 142.211 89.3664 140.911 89.511 139.941C89.6556 138.971 89.9236 138.724 90.9142 138.827C92.2476 138.865 93.5458 139.264 94.67 139.982C95.67 140.57 95.9872 141.868 95.3716 142.851C94.7732 144.13 94.1954 145.162 89.1808 146.792C87.9838 147.184 88.7886 148.051 89.449 147.948C90.8434 147.709 92.2216 147.385 93.5762 146.978C95.6398 146.338 96.197 148.381 95.6398 149.454C87.3854 163.074 66.7494 150.878 60.5586 151.105C58.943 151.337 57.3614 150.504 56.6376 149.042C55.6058 146.978 57.4838 144.584 57.9378 143.903ZM13.5084 253.439C14.7878 246.114 16.1292 246.795 20.1738 239.097C21.8452 235.94 17.2848 232.411 19.0388 225.354C20.1532 220.793 17.388 177.272 28.3456 163.817C34.2682 156.45 38.4986 154.386 54.0994 148.546C54.3884 148.546 54.5534 148.546 54.6566 148.876C55.08 150.529 56.2928 151.865 57.8964 152.447C58.3666 152.615 58.707 153.026 58.7838 153.52C59.7744 157.007 60.8474 160.433 61.838 163.838C62.0856 164.766 64.2936 173.392 64.2318 174.362C63.7572 174.011 64.3762 174.733 61.2396 170.916C60.476 170.008 51.0866 158.534 49.6628 158.534C48.2388 158.534 50.0548 160.598 52.201 163.033C54.7804 165.922 57.8346 169.224 59.0934 170.751C65.6764 179.294 87.4474 207.504 95.4542 215.614C95.7018 215.882 95.1858 216.46 94.5256 217.863C91.4094 224.611 87.3442 235.156 87.5506 230.41C87.8808 222.32 91.4714 219.555 90.7492 218.234C90.4808 217.78 89.3666 219.555 89.0776 220.009C81.7518 231.916 88.1696 239.118 92.9778 225.911C97.4764 213.529 105.855 208.267 99.6432 220.711C96.9606 226.076 105.153 217.368 106.866 218.647C109.528 220.711 103.44 229.13 106.123 229.398C106.845 229.398 106.783 229.151 108.187 224.9C108.702 223.331 108.352 224.673 126.883 232.37C145.414 240.067 149.871 239.799 148.963 241.058C147.127 243.617 145.538 249.519 144.671 252.779C143.408 256.8 143.336 261.1 144.465 265.161C144.63 266.007 144.238 265.966 143.743 265.883C141.147 265.338 138.585 264.649 136.066 263.819C133.547 262.99 113.511 257.629 102.862 253.708C90.6666 249.333 94.608 250.695 90.8524 249.746C89.3514 249.341 88.016 248.475 87.0346 247.269C85.3712 245.213 83.0814 243.756 80.5136 243.121C76.9848 242.275 76.1388 240.439 64.4588 228.346C37.4462 200.24 31.1316 193.595 29.1092 185.031C28.325 181.729 28.552 182.616 27.871 181.543C27.1932 182.209 26.8982 183.172 27.0868 184.102C28.6346 192.914 35.589 200.611 40.913 206.038C40.913 206.038 62.9936 229.956 63.6126 230.802C64.0006 231.194 64.273 231.687 64.3968 232.226C63.0762 248.734 62.3332 263.345 60.8268 272.714C59.4236 281.216 61.4872 285.714 58.1028 285.198C32.6586 281.277 46.526 286.168 24.8376 280.927C2.61241 275.479 9.1954 278.203 13.5084 253.439ZM86.1678 273.291C85.9408 270.567 85.879 267.823 85.7346 265.037C85.607 261.74 85.6966 258.438 86.0028 255.152C86.3742 250.715 85.7346 250.261 86.725 250.55C88.7886 251.149 90.8522 251.623 92.9158 252.181C99.2512 253.893 106.082 257.175 114.212 259.383C114.635 260.99 114.815 262.653 114.749 264.315C114.827 270.922 115.393 277.518 116.441 284.043C116.441 284.187 116.09 284.435 116.049 284.414C113.758 282.949 111.199 283.857 108.806 283.96C102.615 284.27 88.995 284.847 88.314 284.951C86.725 285.198 85.59 284.827 85.714 283.651C85.879 282.144 85.9822 280.617 86.168 279.111C86.3742 277.148 86.3742 275.171 86.168 273.209L86.1678 273.291ZM84.1042 273.188C84.3726 274.612 84.352 275.252 83.609 275.376C78.7822 276.063 73.8894 276.168 69.04 275.685C66.972 275.281 64.9424 274.701 62.973 273.952C62.6996 273.866 62.473 273.672 62.3456 273.415C62.2206 273.156 62.2086 272.858 62.3126 272.59C63.4064 267.616 65.7794 233.134 65.8002 233.092C66.8938 233.67 73.6418 241.099 75.8086 243.41C79.0484 246.774 84.8472 243.575 84.3726 250.261C84.0218 256.39 82.8868 266.399 84.2074 273.106L84.1042 273.188ZM63.6334 328.534C50.2198 329.194 37.1572 328.678 19.534 327.812C18.1514 327.812 18.0276 327.956 17.945 326.594C17.3466 316.875 17.7594 321.25 19.1214 314.213C20.1738 308.682 18.2752 306.825 16.3768 301.583C13.5908 293.845 15.4894 286.581 16.5006 281.463C16.6244 280.844 16.9546 280.638 17.5942 280.741C20.3182 281.236 22.9802 281.835 25.6836 282.495C39.4892 285.838 37.8588 283.589 52.6344 285.962C54.4502 286.251 56.3076 286.333 58.1442 286.519C62.4158 286.952 61.611 281.463 61.7968 275.995C61.7968 274.282 61.7968 275.995 69.6796 277.357C70.6084 277.522 71.0004 277.873 70.9592 278.863C70.9914 284.836 70.515 290.801 69.5352 296.693C69.1638 299.334 68.0908 306.453 68.0908 309.074C68.0908 310.374 69.432 310.209 69.5972 309.074C69.9068 307.011 70.567 303.771 71.3306 295.991C71.9088 290.135 72.0606 284.245 71.7846 278.368C71.7846 277.831 71.9084 277.707 72.2386 277.687C77.7484 277.48 77.2326 277.687 77.9342 277.522C78.6358 277.357 79.1104 277.522 79.1104 278.161C79.2734 289.281 77.607 300.352 74.1784 310.931C74.0338 311.468 73.745 311.53 73.291 311.53C56.4932 311.344 53.1914 311.344 53.047 315.1C52.82 320.486 55.2964 320.569 55.1106 318.691C55.0074 317.7 54.7598 316.627 54.6978 315.698C54.5122 312.108 65.2842 313.449 65.47 313.49C63.5886 314.251 61.7494 315.112 59.96 316.07C58.9696 316.833 59.96 317.741 60.8062 317.411C70.9592 313.676 65.9652 313.552 64.4588 327.729C64.3968 328.183 64.2318 328.431 63.7364 328.451L63.6334 328.534ZM69.2256 327.729C69.2256 328.74 67.9668 328.72 67.3272 328.596C65.4286 328.266 66.1716 328.926 67.9876 318.278C68.1526 317.308 68.4622 317.845 68.5654 318.154C69.0978 321.318 69.3186 324.524 69.2256 327.729ZM113.676 328.637C113.622 328.832 113.475 328.986 113.284 329.05C112.803 329.081 112.32 329.081 111.839 329.05C97.621 328.121 93.5556 329.69 72.6306 328.905C71.3924 328.905 71.2686 328.761 71.1654 327.585C70.5258 320.63 70.0718 317.597 69.8036 316.256C69.5352 314.914 70.856 314.378 71.4956 314.192C74.4008 313.581 77.3912 313.49 80.328 313.924C81.7106 314.048 82.0408 312.582 80.4518 312.293C78.9462 312.101 77.4294 312.011 75.9118 312.025C75.3958 312.025 75.2514 311.839 75.3958 311.324C77.4594 303.771 80.8232 294.939 80.8232 279.111C80.8232 277.542 80.8232 277.563 82.3708 277.522C84.4344 277.522 84.4344 277.522 84.29 279.214C83.7742 286.684 82.928 286.54 91.6778 286.54C92.6064 286.54 102.264 285.879 110.003 285.487C111.055 285.487 111.055 285.487 111.117 286.498C111.282 289.078 111.117 285.9 112.871 303.255C113.469 309.446 112.871 306.928 113.738 326.182L113.676 328.575V328.637ZM113.036 290.254C113.036 289.057 113.511 289.367 114.811 288.768C117.101 287.922 117.617 287.283 117.927 285.033C117.944 282.949 117.708 280.87 117.225 278.842C116.668 275.376 116.751 268.731 116.028 260.992C116.028 260.456 116.028 260.167 116.751 260.373C120.506 261.467 121.27 261.219 121.497 262.065C125.624 281.36 126.14 287.819 126.181 294.959C126.676 296.631 122.673 294.794 114.377 299.231C113.552 299.623 113.985 300.242 113.036 290.192V290.254ZM116.503 327.296C116.483 327.145 116.483 326.993 116.503 326.842C118.257 321.146 119 319.64 118.917 317.081C118.835 314.522 120.135 313.738 121.786 309.941C122.26 308.847 120.733 307.609 118.113 313.635C117.592 314.863 117.312 316.18 117.287 317.514C116.994 319.736 116.447 321.917 115.657 324.015C114.996 322.343 114.873 312.314 114.316 302.182C114.316 301.604 114.316 301.336 114.831 301.15C123.086 297.724 121.786 297.807 122.033 301.521C121.662 305.649 123.953 307.444 123.045 313.222C122.549 316.462 121.992 319.681 121.332 322.859C121.136 323.61 120.711 324.281 120.114 324.778C118.996 325.717 117.786 326.541 116.503 327.234V327.296ZM187.12 337.222C191.556 337.531 194.383 337.696 193.702 338.625C190.359 343.268 181.321 355.939 177.194 359.818C173.212 364.233 169.667 369.022 166.607 374.119C166.133 374.862 166.112 374.862 165.142 374.8C145.311 371.746 141.184 373.851 112.273 362.418C109.301 361.222 106.226 360.355 103.172 359.323C99.5194 358.126 98.4876 360.231 103.378 353.834C108.269 347.437 109.239 345.579 124.964 329.463C134.394 319.846 133.775 319.475 134.312 320.218C135.509 321.93 137.056 327.585 144.197 330.247C145.455 330.598 184.045 336.954 187.12 337.16V337.222ZM272.285 328.782C261.595 327.936 236.11 328.782 175.13 328.018C127.13 327.358 151.976 327.812 143.577 327.667C139.718 327.667 136.355 322.075 134.848 318.587C134.271 317.927 133.899 317.886 133.259 318.587C130.474 321.415 127.069 325.067 123.189 328.74C122.467 329.421 119.186 329.256 118.092 329.236C117.932 329.219 117.778 329.17 117.638 329.091C118.473 328.294 119.402 327.601 120.403 327.028C121.816 326.311 122.771 324.929 122.941 323.354C123.375 319.826 124.138 316.359 124.572 312.851C125.438 305.752 122.116 302.12 124.18 300.861C124.894 300.432 125.583 299.963 126.243 299.458C127.31 298.745 127.947 297.543 127.935 296.259C127.311 284.97 125.779 273.749 123.354 262.705C123.354 262.313 123.21 262.21 123.684 262.354L139.884 266.708C141.473 267.121 143.103 267.327 144.692 267.658C146.144 268.013 147.645 267.297 148.282 265.945C149.067 264.82 149.595 263.539 149.83 262.189C149.954 261.095 150.449 262.189 153.957 263.097C155.892 263.459 157.887 262.945 159.405 261.694C159.653 261.508 159.97 261.44 160.272 261.508C161.829 261.997 163.314 262.691 164.688 263.572C170.098 267.198 176.863 268.17 183.075 266.213C185.345 265.45 185.427 264.149 187.202 263.943C189.161 263.853 190.834 262.498 191.329 260.6C191.515 260.002 194.775 260.291 195.869 257.174C195.869 256.968 196.158 256.7 196.096 256.514C195.601 255.049 197.582 256.287 199.728 254.058C200.314 253.405 200.422 252.453 199.996 251.685C199.481 250.158 199.687 250.839 202.885 249.003C203.361 248.629 204.048 248.702 204.433 249.168C207.59 251.83 209.283 253.687 212.295 254.038C212.838 254.054 213.375 253.92 213.843 253.646C217.351 251.582 220.88 249.518 224.347 247.455C228.619 244.813 234.665 239.985 240.34 237.611C241.867 236.951 243.27 236.043 244.756 235.342C247.358 234.114 249.887 232.736 252.329 231.214C254.6 229.735 256.41 227.647 257.55 225.189C259.119 221.928 260.832 218.709 262.524 215.51C263.225 214.169 264.03 212.889 264.773 211.61C264.872 211.47 264.982 211.339 265.103 211.218C266.341 213.013 266.94 220.566 267.662 224.384C267.93 225.849 268.157 227.314 268.343 228.8C268.33 229.089 268.195 229.359 267.972 229.543C266.206 230.999 265.304 233.255 265.578 235.527C265.621 236.873 266.419 238.079 267.641 238.643C268.57 239.035 269.065 238.643 269.024 239.386C268.054 260.848 265.103 278.595 264.649 288.376C264.606 289.785 265.355 291.1 266.589 291.781C268.157 292.772 269.003 292.73 269.127 293.473C271.892 309.982 268.364 302.45 273.069 327.791C273.254 328.823 273.213 328.864 272.285 328.782ZM317.457 329.132C316.92 329.132 316.797 329.029 316.693 328.513C315.981 322.61 315.596 316.671 315.538 310.725C315.538 310.23 315.641 309.776 315.992 309.714C316.343 309.652 317.024 309.281 317.271 310.065C318.901 315.43 317.024 308.455 322.1 328.183C322.471 329.545 322.451 328.864 317.478 329.132H317.457ZM367.995 329.132C357.842 329.752 326.475 329.132 324.948 329.009C324.687 328.928 324.481 328.729 324.391 328.472C324.301 328.215 319.479 307.836 318.716 307.836C317.952 307.836 318.138 307.32 318.055 306.907C317.478 304.039 316.838 300.717 315.992 297.518C314.796 293.235 313.846 288.888 313.144 284.497C312.277 276.242 312.772 274.777 311.534 274.777C310.709 274.777 310.895 275.314 310.977 277.687C311.204 283.774 314.527 295.805 316.673 306.392C316.982 307.919 316.673 307.733 315.827 307.795L313.082 307.981C312.698 308.062 312.303 307.907 312.077 307.586C312.005 307.481 311.954 307.363 311.926 307.238C310.152 302.079 308.006 297.415 306.375 292.276C302.681 280.576 304.91 273.704 302.62 275.437C301.835 276.057 304.167 289.449 304.683 291.265C306.747 299.52 306.334 297.312 310.75 307.134C311.204 308.146 311.122 308.125 310.09 308.331C306.582 308.971 300.721 309.879 298.307 312.459C298.256 312.512 298.221 312.578 298.208 312.651C298.161 312.879 298.322 313.097 298.554 313.119C299.075 313.27 299.635 313.179 300.081 312.871C303.247 311.203 306.712 310.179 310.275 309.858C311.204 309.724 312.143 309.662 313.082 309.673C313.804 309.673 313.804 309.797 313.784 310.932C313.534 316.699 313.679 322.477 314.217 328.225C314.217 328.885 314.093 329.05 313.453 329.029C292.941 328.637 279.012 329.029 274.802 329.029C274.616 329.029 274.658 328.431 274.369 327.11C273.121 320.844 272.369 314.489 272.119 308.104C271.521 297.105 272.553 304.596 270.902 292.689C270.757 291.657 270.592 290.626 270.51 289.553C270.548 289.325 270.706 289.136 270.922 289.057C274.493 288.583 282.314 290.316 288.896 289.057C289.536 288.933 289.743 288.479 289.763 287.86C289.928 284.971 290.382 277.955 290.733 270.134C290.733 268.875 291.29 269.577 294.86 269.515C330.664 268.875 317.952 268.689 327.548 268.277C327.961 268.277 328.105 268.462 328.167 268.875C331.077 284.311 329.818 279.73 331.551 285.983C331.819 286.865 332.707 287.407 333.615 287.241C342.282 286.849 359.431 287.241 362.505 286.973C363.13 286.934 363.723 287.255 364.032 287.798C365.633 289.895 366.25 292.581 365.725 295.166C364.775 298.467 365.394 299.107 371.193 328.452C371.338 328.617 371.069 328.885 368.015 329.071L367.995 329.132Z" fill="black"/>
<path d="M312.504 101.702C312.36 102.322 311.39 102.074 310.915 101.95C309.925 101.682 309.12 102.28 309.388 103.25C309.663 104.229 310.022 105.182 310.461 106.098C310.73 106.676 311.906 106.098 311.411 104.447C311.225 103.807 311.101 103.663 311.865 103.601C313.268 103.601 314.093 102.714 313.928 101.537C313.909 100.515 313.308 99.5937 312.38 99.1641C310.998 98.5451 311.08 97.6165 311.617 96.9149C312.153 96.2133 312.731 95.1401 313.557 96.1307C314.382 97.1211 315.393 95.9243 314.052 94.5211C313.321 93.8667 312.213 93.8755 311.493 94.5417C310.828 95.2233 310.234 95.9699 309.718 96.7703C309.211 97.4667 309.263 98.4235 309.842 99.0609C310.296 99.7213 312.69 100.733 312.504 101.702Z" fill="black"/>
<path d="M291.992 76.7126C293.457 76.7126 294.324 76.7126 294.056 77.5586C293.23 80.8192 293.643 86.2464 299.38 87.4434C300.577 87.691 301.443 88.1656 300.659 90.4356C299.875 92.7056 297.853 94.8518 300.412 96.6264C302.475 97.9884 305.818 97.7202 305.818 97.0392C305.818 96.3582 304.786 96.7502 302.434 95.8216C301.093 95.3058 301.113 94.893 301.567 93.5516C302.289 91.488 303.321 87.3608 301.196 86.5148C297.068 85.0084 295.005 82.3876 295.748 77.4968C295.85 76.9346 296.22 76.4572 296.738 76.2174C299.112 74.938 299.235 74.3394 298.946 73.968C298.431 73.287 297.007 75.2474 293.168 75.2268C289.249 75.344 285.746 72.7992 284.645 69.036C284.13 67.6534 284.398 66.8486 283.923 66.9724C283.036 67.3232 283.242 75.9698 291.992 76.7126Z" fill="black"/>
<path d="M282.334 112.681C277.712 115.714 275.091 116.148 276.742 116.808C282.21 119.284 284.501 119.491 286.503 117.819C289.062 115.756 290.63 109.42 290.816 107.295C290.857 104.633 289.99 107.625 282.334 112.681ZM284.006 117.572C282.021 117.365 280.066 116.919 278.186 116.251C278.971 115.652 281.55 114.476 284.377 112.454C286.255 111.092 288.154 109.792 289.557 108.677C289.371 109.833 286.73 117.881 284.006 117.572Z" fill="black"/>
<path d="M276.701 82.1603C278.558 82.1603 279.404 78.6727 282.21 83.0683C282.499 83.5015 282.85 84.1413 283.655 83.7079C284.46 83.2745 284.48 80.3855 280.807 79.0029C278.983 78.4873 277.027 79.1227 275.855 80.6125C275.112 81.6857 275.855 82.1603 276.701 82.1603Z" fill="black"/>
<path d="M269.024 69.3655C268.405 70.8307 268.529 71.5529 268.735 71.6973C268.941 71.8419 270.53 70.5417 271.748 69.8607C278.207 66.3527 280.002 67.4463 281.653 65.9399C281.71 65.8919 281.75 65.8279 281.769 65.7563C281.786 65.6843 281.781 65.6087 281.754 65.5395C281.726 65.4719 281.678 65.4143 281.616 65.3745C281.553 65.3351 281.48 65.3163 281.406 65.3209C278.537 64.8461 272.594 67.9829 270.923 68.7257C271.251 67.8693 271.711 67.0687 272.285 66.3527C273.572 64.8017 275.098 63.4645 276.804 62.3905C277.072 62.1841 278.001 61.6269 277.732 61.2349C277.464 60.8427 274.493 62.3079 273.853 62.7619C271.64 64.4517 269.963 66.7449 269.024 69.3655Z" fill="black"/>
<path d="M277.299 90.6826C276.907 92.3542 277.423 94.8098 279.012 94.2114C280.188 93.778 279.92 91.6524 279.177 90.5588C278.682 89.8158 277.609 89.6714 277.299 90.6826Z" fill="black"/>
<path d="M267.724 65.4863C269.994 60.4717 273.048 59.1511 274.513 57.6033C275.483 56.5715 274.08 57.0667 273.77 57.2525C270.208 58.9355 267.45 61.9523 266.094 65.6513C265.237 67.7691 264.932 70.0695 265.206 72.3375C265.516 74.2979 265.825 73.4517 265.949 72.2137C266.156 69.8869 266.756 67.6121 267.724 65.4863Z" fill="black"/>
<path d="M273.007 103.952C269.829 106.367 266.218 104.53 266.197 102.487C266.176 100.444 269.561 100.423 270.696 100.279C272.635 99.9076 268.983 97.6994 265.887 100.176C263.993 101.713 264.298 104.689 266.465 105.809C268.979 106.988 271.944 106.645 274.121 104.922C275.091 103.87 274.224 103.024 273.007 103.952Z" fill="black"/>
<path d="M266.837 94.9337C267.043 92.8701 265.805 90.8065 264.649 91.6527C263.824 92.3335 264.092 94.2941 264.98 95.2845C265.557 95.9655 266.651 95.9655 266.837 94.9337Z" fill="black"/>
<path d="M242.362 337.758C241.124 338.542 240.298 338.563 223.274 348.2C205.671 358.126 211.181 355.381 204.928 358.188C204.428 358.399 203.988 358.733 203.649 359.158C201.998 361.489 199.522 363.017 197.974 365.163C195.91 368.114 199.625 367.515 202.782 366.669C206.909 365.555 206.765 366.009 207.425 365.617C218.424 358.951 243.786 345.104 245.953 343.66C247.28 342.998 248.041 341.567 247.847 340.096C247.716 339.135 247.191 338.272 246.396 337.715C245.182 336.862 243.558 336.879 242.362 337.758ZM206.868 364.069C205.939 364.399 200.677 365.596 200.037 365.761C199.398 365.926 198.985 365.761 199.769 365.101C201.193 363.78 204.722 360.375 204.763 360.354C205.465 359.859 208.003 363.677 206.868 364.069ZM216.629 358.002C214.38 359.261 211.779 360.994 209.613 362.397C208.746 362.975 208.725 361.737 207.549 360.334C206.806 359.323 206.951 358.992 208.003 358.435C208.23 358.311 240.649 339.863 244.116 338.666C244.818 338.418 246.304 339.78 246.283 340.73C245.994 342.463 246.056 341.452 216.567 358.002H216.629Z" fill="black"/>
<path d="M208.416 258.66C208.705 258.66 209.056 258.062 208.416 257.773C207.998 257.638 207.542 257.698 207.174 257.936C206.804 258.171 206.556 258.557 206.497 258.991C205.713 265.181 215.556 275.025 216.815 276.923C214.751 275.396 197.706 263.716 191.226 272.012C189.389 274.364 189.947 277.357 190.38 279.915C184.87 274.839 179.505 275.664 174.531 281.216C168.114 288.356 165.761 296.755 164.791 298.797C164.791 297.436 167.268 282.124 163.842 275.83C162.911 273.648 160.44 272.571 158.208 273.374C151.337 275.21 143.577 289.284 142.401 290.502C142.577 289.755 142.81 289.024 143.103 288.314C144.016 285.269 144.604 282.135 144.857 278.966C145.043 276.614 145.146 271.579 142.504 271.166C141.411 270.98 141.658 270.98 142.669 272.466C143.99 274.406 145.579 278.863 141.926 288.356C140.523 291.988 138.934 295.537 137.407 299.086C136.891 300.263 137.779 301.15 138.542 299.747C142.298 292.916 150.429 277.893 158.167 274.591C167.515 270.629 164.028 295.227 162.48 305.195C162.232 306.784 163.801 306.557 164.131 305.422C164.855 302.347 165.792 299.327 166.937 296.383C171.415 285.116 180.392 271.228 190.235 281.546C190.493 281.831 190.811 282.055 191.164 282.206C191.242 282.249 191.335 282.254 191.418 282.221C191.501 282.189 191.566 282.124 191.597 282.041C191.742 281.731 189.843 275.85 192.278 272.466C195.539 268.05 205.857 270.402 214.318 276.593C216.712 278.368 219.064 280.184 221.417 282C222.531 282.846 223.48 281.649 222.51 280.596C207.859 266.523 205.671 258.516 208.416 258.66Z" fill="black"/>
<path d="M177.648 265.821C179.03 265.017 180.743 263.758 181.176 263.448C182.105 263.052 182.844 262.313 183.24 261.385C183.411 261.024 183.693 260.728 184.045 260.539C185.345 260.061 186.295 258.93 186.542 257.567C186.698 256.858 187.158 256.254 187.8 255.916C188.613 255.357 189.111 254.446 189.142 253.46C188.935 253.172 188.812 252.614 188.42 252.594C187.532 252.594 188.42 253.687 186.934 254.988C186.148 255.536 185.582 256.349 185.345 257.278C185.174 258.174 184.523 258.904 183.653 259.177C182.958 259.382 182.4 259.901 182.146 260.58C181.877 261.404 181.222 262.043 180.392 262.293C180.003 262.439 179.66 262.689 179.402 263.015C177.916 264.913 176.1 264.356 176.513 265.409C176.632 265.915 177.231 266.132 177.648 265.821Z" fill="black"/>
<path d="M161.882 370.405C160.437 371.457 162.624 372.468 167.35 366.773C169.259 364.262 170.783 361.479 171.869 358.518C171.979 358.204 172.163 357.921 172.406 357.693C174.577 356.569 176.053 354.445 176.347 352.018C176.347 351.275 177.008 351.915 177.606 351.667C178.205 351.419 179.34 348.881 179.918 348.922C184.045 349.211 185.365 343.908 182.621 346.075C178.494 349.273 181.816 345.662 178.906 343.722C178.196 343.151 177.157 343.271 176.595 343.988C176.417 344.216 176.303 344.488 176.265 344.775C175.687 347.045 178.329 348.283 177.833 348.902C175.893 351.419 174.985 349.026 175.109 350.965C175.109 352.389 174.552 353.297 173.046 354.205L172.922 353.669C172.757 351.605 170.446 350.202 168.01 352.286C166.789 353.469 166.682 355.391 167.763 356.702C169.826 359.158 171.292 356.083 168.918 361.18C167.54 364.885 165.09 368.096 161.882 370.405ZM177.73 344.878C178.329 343.536 179.484 346.57 178.948 347.416C178.948 347.416 177.132 346.302 177.73 344.878ZM168.691 355.196C168.597 354.267 169.102 353.38 169.95 352.988C173.624 352.1 169.414 359.942 168.691 355.155V355.196Z" fill="black"/>
<path d="M139.863 365.493C142.546 362.708 160.189 341.391 160.231 341.349C161.345 340.07 162.934 338.894 161.18 337.82C158.807 339.987 139.636 363.616 138.934 364.647C138.233 365.679 139.677 365.679 139.863 365.493Z" fill="black"/>
<path d="M156.413 353.71C154.948 355.588 153.668 357.631 152.141 359.447C150.181 361.581 148.56 364.003 147.333 366.629C148.2 368.692 148.221 367.475 152.43 361.985C152.43 361.985 159.054 353.731 159.508 353.277C160.437 352.596 159.426 349.851 156.413 353.71Z" fill="black"/>
<path d="M149.273 257.567C149.309 257.689 149.357 257.806 149.418 257.918C149.432 257.944 149.453 257.966 149.48 257.98C149.505 257.994 149.533 258.002 149.562 258.002C149.591 258.002 149.62 257.994 149.645 257.98C149.671 257.966 149.692 257.944 149.707 257.918C148.695 252.057 158.993 255.854 156.537 259.342C155.757 260.191 154.633 260.639 153.483 260.559C153.45 260.561 153.419 260.572 153.392 260.59C153.306 260.652 153.3 260.778 153.38 260.848C153.838 261.11 154.36 261.232 154.886 261.199C157.264 261.299 158.858 258.788 157.756 256.679C157.724 256.616 157.689 256.554 157.651 256.494C155.01 251.686 148.097 252.718 149.273 257.567Z" fill="black"/>
<path d="M130.866 363.203L146.59 342.917C147.808 341.349 145.992 340.854 145.27 341.886C138.439 350.615 129.524 362.047 129.153 362.728C129.442 363.038 130.04 364.296 130.866 363.203Z" fill="black"/>
<path d="M135.736 228.49C134.601 227.087 133.383 224.508 132.909 224.735C132.434 224.962 133.177 226.674 133.569 227.335C134.89 229.584 136.912 231.916 138.542 230.389C144.197 225.106 139.471 203.686 138.233 196.422C139.512 198.795 144.692 208.556 146.301 211.383C151.935 221.247 160.747 230.43 163.182 218.791C164.667 211.383 162.996 199.951 163.037 198.609C163.986 199.786 168.609 214.355 175.584 211.507C182.559 208.659 185.159 191.738 186.253 185.01C186.81 194.008 185.386 199.043 188.77 214.128C192.567 231.049 203.814 206.369 205.073 204.573H205.259C204.97 206.926 202.555 220.298 204.66 223.538C204.694 223.583 204.741 223.618 204.794 223.637C204.847 223.656 204.905 223.659 204.959 223.645C205.071 223.619 205.157 223.528 205.176 223.414C204.672 221.392 204.512 219.299 204.701 217.223C204.928 204.842 208.21 200.714 211.181 190.19C211.181 190.066 211.408 189.447 210.913 189.344C210.418 189.241 210.17 189.757 210.108 189.901C200.76 211.982 192.237 230.348 188.812 208.473C187.807 201.799 187.29 195.061 187.264 188.312C187.016 177.292 187.883 177.994 187.14 177.292C187.009 177.143 186.776 177.143 186.645 177.292C185.531 178.448 183.632 207.05 174.862 210.31C166.958 213.199 161.159 187.445 158.25 179.727C158.25 179.521 157.961 178.737 157.486 178.902C157.012 179.067 157.28 179.954 157.486 180.429C161.386 193.739 163.904 210.702 162.315 218.544C159.777 231.049 148.633 213.674 142.69 202.427C136.747 191.18 133.404 181.213 132.372 181.42C131.939 181.42 132.682 183.359 134.436 188.002C141.369 207.689 141.473 235.527 135.736 228.49Z" fill="black"/>
<path d="M141.452 333.673C140.833 333.673 126.779 350.182 120.589 358.436C120.504 358.59 120.504 358.777 120.589 358.931C120.738 359.148 120.985 359.277 121.249 359.276C121.512 359.276 121.759 359.147 121.909 358.931C123.024 357.755 138.748 339.616 142.071 335.221C142.277 335.014 142.545 334.23 141.452 333.673Z" fill="black"/>
<path d="M134.167 329.565C130.701 332.723 114.15 351.749 111.323 356.619C111.014 357.156 112.541 357.878 113.222 356.619C116.771 351.935 130.123 336.355 132.516 333.672C135.736 330.061 136.087 329.586 134.167 329.565Z" fill="black"/>
<path d="M92.7507 201.436C93.3905 200.425 94.0775 199.447 94.8143 198.506C99.3129 192.769 108.372 187.837 106.185 180.656C104.513 175.167 98.2811 175.167 101.17 173.392C104.41 171.328 106.205 169.76 106.721 166.974C107.107 164.458 106.35 161.901 104.658 159.999C101.81 156.408 100.324 156.326 98.1367 154.18C97.9097 153.953 97.6621 153.808 97.4557 154.18C96.4033 156.243 112.293 163.879 101.583 171.473C97.8891 174.073 97.1669 174.197 98.2605 174.816C100.845 176.032 102.945 178.081 104.224 180.635C106.989 186.826 96.8985 191.49 91.8427 201.395C91.5745 201.643 92.1109 202.695 92.7507 201.436Z" fill="black"/>
<path d="M101.707 96.0684C101.253 96.7494 101.438 97.1416 101.913 97.1002C103.371 96.824 104.879 97.0342 106.205 97.6986C106.701 97.8844 107.258 97.1208 106.535 96.6256C105.586 96.0548 104.484 95.7882 103.378 95.862C104.204 95.1192 106.721 95.47 106.68 94.7064C106.68 94.2938 106.35 94.2318 106.123 94.1286C104.396 93.8376 102.661 94.5998 101.707 96.0684Z" fill="black"/>
<path d="M90.6872 123.928C87.7722 122.229 85.0526 120.215 82.5772 117.923C80.8438 116.313 78.9452 114.848 77.1086 113.342C76.4276 112.784 76.2006 112.846 76.0974 113.734C75.9944 114.621 75.9736 118.872 76.0974 119.78C76.0608 121.744 77.076 123.577 78.7596 124.588C82.536 126.899 85.7346 125.847 90.5222 125.311C90.9554 125.311 91.43 125.311 91.3888 124.691C91.278 124.347 91.0216 124.068 90.6872 123.928ZM78.0166 122.091C76.923 120.812 77.15 115.467 77.2738 114.889C78.1612 115.475 78.972 116.169 79.6882 116.953C82.4288 119.551 85.3454 121.958 88.4172 124.155C85.8584 125.187 80.8232 125.269 78.0992 122.091H78.0166Z" fill="black"/>
<path d="M79.8738 83.151C81.7184 82.4008 83.7044 82.0626 85.6932 82.1606C92.111 82.8414 89.965 77.4142 89.1394 77.1872C86.3828 76.6392 83.529 76.8534 80.885 77.8062C78.8214 78.6936 79.3374 79.6636 78.45 80.4064C77.5626 81.1494 77.3976 81.7478 77.7896 82.47C78.1816 83.1922 78.7388 83.5224 79.8738 83.151Z" fill="black"/>
<path d="M81.8549 95.5526C83.1337 95.0628 84.5569 95.1148 85.7963 95.697C84.5995 95.697 82.1231 95.9034 81.4009 97.0176C81.2563 97.2446 81.1119 98.0082 81.9167 97.8432C83.6089 97.451 84.5375 96.4606 87.3853 97.3272C88.1283 97.5542 88.3759 96.8114 88.0251 96.2748C86.6859 93.9254 83.6735 93.142 81.3595 94.5414C80.6579 95.1398 80.4929 95.9446 81.8549 95.5526Z" fill="black"/>
<path d="M56.844 108.43C56.163 106.202 61.8586 107.254 60.5586 104.489C58.7426 100.609 52.8612 100.877 52.8406 104.489C52.8406 105.603 53.7486 105.809 54.2026 104.819C54.62 103.882 55.572 103.299 56.5964 103.354C57.645 103.327 58.622 103.883 59.1346 104.798C59.3204 105.438 57.7726 105.644 56.8234 106.119C55.8742 106.594 55.3376 107.192 55.482 108.018C55.3582 109.359 56.5346 111.03 58.1854 110.411C59.4648 109.937 58.949 110.721 59.8776 110.886C60.8062 111.051 60.9094 110.473 60.7856 110.205C59.7332 107.873 57.525 110.659 56.844 108.43Z" fill="black"/>
</svg>
