<svg width="400" height="400" viewBox="0 0 400 400" fill="none" xmlns="http://www.w3.org/2000/svg">
<path d="M271.02 259.12C266.46 254 261.74 251.86 257.8 249.28C252.64 245.6 252.04 242.92 249.5 243.8C246.96 244.68 258.3 260 257.8 260.88C263.94 275.44 267.64 295.68 266.86 300.6C266.86 300.76 268.86 301.5 268.86 301.66C274.231 304.607 279.301 308.07 284 312C285.6 313.6 288 317.08 290.96 320.62C292.84 309.02 293.48 299.4 291.32 291.46C287.4 277.2 278.3 267.28 271.02 259.12Z" fill="white"/>
<path d="M341.02 270.7C341.18 273.74 340.82 272.7 331.02 301.86C323.76 323.2 324.42 339 323.02 348.9C322.52 352.74 320.1 364.26 317.02 366.76C315.14 368.32 313.54 372.88 307.36 379.22C305.36 381.38 302.3 382.54 295.9 385.52C294.574 386.078 293.117 386.245 291.7 386C292.378 384.94 292.758 383.718 292.8 382.46C292.58 380.1 311.24 375.44 313.68 351.98C316.92 321.44 327.84 298.9 324.7 301.26C322.88 302.62 316.38 323.56 314.22 336.18C310.02 360.54 314.08 362.7 293.84 379.7C293.678 373.955 295.059 368.271 297.84 363.24C308.36 339.14 297.42 337.9 322.66 291.04C325.4 286 331.86 279.82 341.02 270.7Z" fill="white"/>
<path d="M294.2 355.06C294 358.024 294 360.996 294.2 363.96C293.86 368.8 292.46 370.36 292.5 374.44C292.52 374.814 292.52 375.186 292.5 375.56C292.142 377.79 291.641 379.995 291 382.16C290.842 383.588 290.348 384.959 289.56 386.16C283.44 386 290.08 386.56 289.56 372.56C289.56 370.28 291.28 366.8 290.2 360.06C289.56 356.06 291.96 353.48 290.54 345.72C289.655 343.03 289.097 340.243 288.88 337.42C288.88 330.48 284.08 322.38 274.44 318.66C277.136 318.567 279.821 319.055 282.312 320.09C284.803 321.126 287.043 322.684 288.88 324.66C293 328.5 294 337.26 293.86 337.88C293.16 341 296 346 294.2 355.06Z" fill="white"/>
<path d="M290.54 322.82C282.84 306.2 253.98 290.82 237.86 305.54L236.66 306.6C238.482 309.559 239.832 312.785 240.66 316.16C242.145 315.482 243.458 314.477 244.5 313.22C250.5 306.54 254.88 306.22 263.84 306.46C264.84 306.46 265 307.78 263.84 308.08C263.72 308.08 257.84 308.2 257.84 308.2C247.84 308.38 247.24 315.34 241.26 317.84C241.52 319.22 245.58 330.62 245.76 330.78C245.94 330.94 249.22 330.34 249.58 330.4C250.102 329.564 250.78 328.836 251.58 328.26C254.593 325.698 257.817 323.396 261.22 321.38C270.52 314.52 281.72 316.84 286.02 320.18C290.32 323.52 291.34 324.56 290.54 322.82Z" fill="white"/>
<path d="M275.86 332.58L275.74 333.46C273.24 353.68 268.88 351.76 272.02 353.18C277.24 345.92 278.02 328.54 278.74 323.06C280.5 323.6 285.12 328.86 286.46 333.96C287.98 339.7 286.46 343.96 285.02 349.96C282.1 361.86 281.94 361.46 276.72 370.62C275.2 368.9 276.42 368.88 272.26 365.46C270.36 363.9 264.98 358.94 265.46 356.6C267.6 346.02 266.36 326.6 266.52 320.6C270.86 318.6 274.4 320.92 277.14 322.02C276.2 330.02 275.9 332.5 275.82 333.1C275.856 332.929 275.87 332.754 275.86 332.58Z" fill="white"/>
<path d="M275.1 372.32C272.52 366.64 272.34 368.82 266.94 363.02C262.66 358.42 264.94 359.18 259.68 353.2C258.293 351.607 256.651 350.255 254.82 349.2C254.02 349.34 251.92 350.1 251.4 350.22C250.88 350.34 250.38 350.68 250.36 351.7C251.397 355.989 252.066 360.358 252.36 364.76C254.093 366.487 256.126 367.883 258.36 368.88C265.54 372.1 267.16 383.2 271.28 386.58C272.08 387.24 272 387.02 277.58 386.14C278.158 381.389 277.294 376.574 275.1 372.32Z" fill="white"/>
<path d="M254.98 369C254.063 368.504 253.205 367.907 252.42 367.22C252.266 371.209 251.628 375.165 250.52 379C250.302 380.039 249.938 381.043 249.44 381.98C252.033 384.337 255.168 386.016 258.567 386.868C261.966 387.719 265.522 387.717 268.92 386.86C260.92 374.62 264.2 374 254.98 369Z" fill="white"/>
<path d="M206 365.2C205.654 368.051 206.266 370.936 207.74 373.4C210.26 367.4 209.62 368 213.92 363.16C211.174 363.328 208.486 364.02 206 365.2Z" fill="white"/>
<path d="M101.78 364.48C103.959 368.71 104.823 373.495 104.26 378.22C98.68 379.1 98.76 379.3 97.96 378.66C93.84 375.28 92.22 364.18 85.04 360.94C79.2 358.34 76.94 354.24 70.1 346.84C68.1 344.72 63.84 343.62 59.2 342.1C48.78 338.7 42.86 329.58 40.32 334.1C40.56 334.24 40.78 334.46 41.02 334.48C44.76 334.72 46.54 337.46 50.8 340.26C55.62 343.4 59.96 343.74 66.8 346.82C70.26 348.38 76.12 358.32 81.66 361.24C90.92 366.1 90.14 369.82 98.12 382.06C96 382.52 90.92 383.84 89.64 379.68C74.94 379.32 68.62 364.56 62.7 356.26C54.7 344.78 43.34 348.06 35.72 340.48C26.64 331.44 18.06 328.62 13.22 317C31.74 328.38 38.28 327 46.56 326.7C53 326.5 56.68 330.24 70.16 337.04C75.92 339.94 80.64 339.04 86.36 345.44C91.64 351.44 89.34 350.66 93.62 355.26C99 360.98 99.2 358.78 101.78 364.48Z" fill="white"/>
<path d="M54.4201 286.92C80.0801 334.58 68.4201 334.06 79.3601 359.42C82.1151 364.354 83.4511 369.954 83.2201 375.6C62.9601 358.58 67.0201 356.4 62.8401 332.08C60.6801 319.44 54.1601 298.5 52.3601 297.14C49.1001 294.7 60.1001 317 63.3801 347.88C65.8201 371.4 84.4801 376 84.2601 378.34C84.3061 379.6 84.6801 380.826 85.3401 381.9C83.9276 382.136 82.4771 381.962 81.1601 381.4C74.7601 378.44 71.7801 377.26 69.7001 375.12C63.5201 368.76 61.9201 364.22 60.0401 362.66C57.0601 360.16 54.8601 349.22 54.4201 346.66C52.6401 336.66 53.8801 320.34 46.1801 297.66C36.4001 268.74 35.9601 269.54 36.1801 266.52C45.2801 275.7 51.7401 282 54.4201 286.92ZM51.4201 296.92C51.2801 296.44 51.2601 296.44 51.4201 296.92Z" fill="white"/>
<path d="M41.26 250.38C45.26 254.64 51.92 255.84 62.54 267.28C74.54 280.24 80.92 282.7 86.12 315.02C94.12 305.54 96.72 304.78 96.44 303.5C92.14 285.3 92.56 279.04 63.92 261.78C62.68 261.04 63.48 259.9 64.46 260.18C65.44 260.46 65.94 260.82 72.96 265.24C100.52 282.6 95.82 300.84 98.16 303.02C101.446 300.683 104.888 298.571 108.46 296.7C107.98 291.92 103.4 283.82 101 279.7C94.14 267.88 65.54 252.08 54.12 252.68C50.52 252.88 46.24 250.78 41.26 250.38Z" fill="white"/>
<path d="M82.9399 350.94C83.1399 353.91 83.1399 356.89 82.9399 359.86C83.2799 364.7 84.6799 366.24 84.6399 370.32C84.6199 370.7 84.6199 371.08 84.6399 371.46C85.0019 373.688 85.5039 375.894 86.1399 378.06C86.2959 379.488 86.7879 380.86 87.5799 382.06C93.6799 381.92 87.0599 382.46 87.5799 368.46C87.5799 366.2 85.8599 362.7 86.9399 355.96C87.5799 351.96 85.1599 349.4 86.5999 341.64C87.4839 338.95 88.0399 336.164 88.2599 333.34C88.2599 326.38 93.0599 318.28 102.7 314.58C100.003 314.481 97.3164 314.966 94.8242 316.002C92.332 317.037 90.0928 318.599 88.2599 320.58C84.1399 324.42 83.1399 333.18 83.2799 333.8C83.9999 336.9 81.1599 341.86 82.9399 350.94Z" fill="white"/>
<path d="M114.62 312.62C115 311.82 116.38 308.84 116.84 308.06C117.26 306.768 117.476 305.418 117.48 304.06H113.14C112.06 303.76 112.22 302.46 113.14 302.44C114.98 302.44 115.86 302.34 117.36 302.44C117.36 301.22 117.02 297.14 116.82 296.3C103.52 299 90.9599 309.24 86.5199 318.86C85.7199 320.6 86.6599 319.46 90.8399 316.2C95.0199 312.94 104.64 310.92 113.46 316C113.664 314.818 114.055 313.677 114.62 312.62Z" fill="white"/>
<path d="M103.16 339.56C104.842 338.606 106.747 338.116 108.68 338.14C109.16 335.82 109.76 333.54 110.42 331.28C110.42 324.88 110.7 319.12 110.62 316.32C106.28 314.32 102.74 316.64 100 317.74C100.628 325.068 101.684 332.354 103.16 339.56Z" fill="white"/>
<path d="M103.86 360C102.92 358.92 99.26 358.22 99.42 353.58C99.42 350.96 101.42 348.34 100.94 345.8C100.913 344.072 101.128 342.348 101.58 340.68C99.58 332.68 98.98 322.84 98.4 318.96C96.64 319.5 92.02 324.76 90.68 329.86C89.16 335.6 90.68 339.86 92.12 345.86C95.04 357.86 95.2 357.34 100.42 366.52C101.94 364.78 100.76 364.8 104.88 361.36C105.08 361.1 105.08 361.38 103.86 360Z" fill="white"/>
<path d="M111.24 368.8C111.06 367.3 113.86 364.36 113.58 362.8C113.3 361.24 107.92 362.02 107.58 360.54C102.96 365.28 104.58 362.76 102.14 368.14C99.9051 372.395 98.9993 377.224 99.5401 382C105.14 382.9 104.94 383.06 105.74 382.42C108.504 378.314 110.377 373.674 111.24 368.8Z" fill="white"/>
<path d="M168.48 330.16C168.15 332.477 167.587 334.756 166.8 336.96C165.48 341.94 164.8 342.6 163.8 347.24C165.384 346.434 166.834 345.388 168.1 344.14C177.24 335.04 185.74 332.3 190.58 320.66C180.32 326.98 173.72 329.34 168.48 330.16Z" fill="white"/>
<path d="M171.14 358.48C171.54 349.04 172.1 356.64 171.14 344.02L165.56 348.52C166.58 354.4 168.28 355.28 167.1 356C167.006 356.066 166.9 356.113 166.788 356.137C166.676 356.161 166.561 356.162 166.448 356.14C166.336 356.117 166.23 356.071 166.136 356.006C166.041 355.94 165.961 355.857 165.9 355.76C165.635 357.33 165.094 358.84 164.3 360.22C167.48 363.84 167.16 363.78 169.46 369.3C171.88 365.6 170.98 362 171.14 358.48Z" fill="white"/>
<path d="M78.5601 150.86C78.7601 151.28 76.3401 152.16 75.0601 152.52C73.7801 152.88 71.5601 153.8 71.0601 153.3C70.5601 152.8 73.5601 151.56 74.6801 151.2C76.1401 150.7 78.3401 150.44 78.5601 150.86Z" fill="white"/>
<path d="M79.72 152.78C80.262 154.25 80.658 155.772 80.9 157.32C78.8285 158.774 76.3879 159.613 73.86 159.74C73.5778 159.719 73.3063 159.622 73.0741 159.461C72.8419 159.299 72.6575 159.078 72.54 158.82C69.76 152.32 70.8 156.54 79.14 152.56C79.2184 152.52 79.3074 152.506 79.3944 152.519C79.4814 152.533 79.5618 152.574 79.624 152.636C79.6657 152.677 79.6984 152.726 79.72 152.78Z" fill="white"/>
<path d="M86.6999 192.82C84.4599 201.14 85.4399 197.68 82.9199 205.98C80.6999 201.38 80.9199 203.56 83.4399 192.72C83.6599 191.82 83.4999 192 86.6999 192.82Z" fill="white"/>
<path d="M85.28 185.64C87.74 178.06 86.74 177.84 88.28 186.32C87.14 186 86.26 185.84 85.28 185.64Z" fill="white"/>
<path d="M88.5601 188.18C88.8201 189.42 89.0401 190.58 89.3001 191.84C84.7298 190.666 80.2777 189.072 76.0001 187.08C75.7327 187.019 75.4909 186.877 75.3081 186.673C75.1253 186.469 75.0107 186.212 74.9801 185.94C74.4601 182.94 70.5001 182.54 88.5601 188.18Z" fill="white"/>
<path d="M92.96 209.14C93.16 209.76 90.26 211.26 88.14 211.44C87.24 211.44 85.98 211.66 84.26 208.66C83.7 207.7 84.46 206.04 88.14 193.36C91.28 193.82 88.82 195.74 92.96 209.14Z" fill="white"/>
<path d="M82.18 191.48C80.18 200.46 80.52 199.48 80.02 199.48C76.02 189.9 75.14 188.2 76.2 188.72C77.26 189.24 80.4 190.74 82.18 191.48Z" fill="white"/>
<path d="M85.7801 177.56C84.3801 175.34 84.2801 171.04 83.3801 169.84C82.1027 170.624 80.6168 171.001 79.1201 170.92C77.6601 170.92 78.0001 169.24 78.9801 169.22C80.4959 169.318 82.0065 168.963 83.3201 168.2C82.8401 165.32 81.9601 161.24 81.3201 158.8C79.1914 160.063 76.8193 160.86 74.3601 161.14C76.5001 167.14 77.3401 168.26 76.3601 170.68C74.3601 176.24 73.4801 177.08 73.7401 181.72C77.0401 183.04 80.4201 183.98 83.9201 185.02C85.8601 179.02 86.2601 178.32 85.7801 177.56Z" fill="white"/>
<path d="M120.42 252C119.84 250.746 119.539 249.382 119.539 248C119.539 246.619 119.84 245.254 120.42 244C124.76 230 125.3 231.46 118.68 233.58C119.24 234.5 120.58 234.96 120.46 236.32C119.34 236.82 119.82 237.18 116.46 234.12C115.78 233.5 118.46 232.98 111.96 234.48C114.866 236.602 117.107 239.509 118.42 242.86C117.28 243.4 117.04 243.8 115.94 241.64C114.64 239.06 110.86 234.82 107.76 235.04C105.538 234.758 103.344 234.29 101.2 233.64L98.26 236C107.22 234.46 116.74 248.62 113.62 249.6C111.78 250.16 112.44 242.44 101.84 238.22C97.48 236.5 92.08 241.7 93.6 249.9C94.0522 252.161 94.8624 254.335 96 256.34C104 271.24 114.78 268.34 116 264.04C116.546 262.184 116.655 260.226 116.32 258.32C116.16 257.4 116.32 257.22 116.56 256.98C116.61 256.932 116.671 256.898 116.738 256.882C116.839 256.858 116.945 256.873 117.034 256.925C117.124 256.977 117.191 257.061 117.22 257.16C117.76 258.946 117.958 260.82 117.8 262.68C119.52 262.84 121.3 261.2 122.34 258.52C119.22 255.24 121.74 254.6 120.42 252ZM95.3 249.5C94.9 247.86 94.86 243.5 96.6 243.72C97.02 244.28 96.94 244.72 96.84 245.48C95.62 254.18 105.28 265.74 111.46 263.48C113.98 262.58 112.42 256.72 111.46 254.18C108.92 246.64 102.84 241.92 100.84 244.3C98.3 247.34 104.18 257.2 108.96 258.96C109.58 259.2 109.18 257.4 108.96 256.62C106.52 248.94 101.56 247.44 102.48 246.62C104.92 244.62 110.04 254.18 110.84 258.32C112.22 265.52 98.84 254.96 98.84 246.32C98.84 243.02 100.84 241.44 103.08 241.86C105.976 242.751 108.441 244.681 110 247.28C124.76 271.44 100.9 270.7 95.3 249.52V249.5Z" fill="white"/>
<path d="M376.8 71.9998C381.74 73.6598 387.16 80.5598 387.58 93.1598C387.58 123.46 363.12 134.58 357.2 108.44C352.36 87.1198 366 68.4198 376.8 71.9998ZM384 95.6398C384.38 80.1198 376 72.8198 369.48 76.9198C360.02 82.9198 357.34 104.5 364.26 115.36C372.26 128.12 383.5 112.12 384 95.6398Z" fill="#FFE451"/>
<path d="M353.68 103.28C355.32 121.48 367.68 122.94 351.8 119.02C349.24 118.38 339.18 115.94 336.56 115.02C328.56 112.26 324.68 117.26 335.96 103.62C336.159 103.382 336.296 103.099 336.359 102.795C336.421 102.492 336.408 102.177 336.32 101.88C336.06 101.18 335.76 100.44 334.08 100.58C329 100.96 326.78 106.68 325.32 107.64C325.851 105.122 326.553 102.643 327.42 100.22C328 99.0201 326.34 98.0001 325.42 98.0801C319.02 98.6401 318.6 111.9 314.14 109.48C314.342 106.7 314.396 103.908 314.3 101.12C314.298 100.873 314.242 100.628 314.136 100.405C314.03 100.181 313.876 99.9834 313.686 99.8253C313.495 99.6672 313.273 99.5526 313.033 99.4896C312.794 99.4265 312.544 99.4164 312.3 99.4601C311.442 99.6801 310.656 100.12 310.02 100.74C308.98 98.7401 308.24 85.1001 316.38 75.2201C318.2 73.0201 353.72 72.8201 365.94 71.6401C356.98 79.7001 352.46 89.5401 353.68 103.28Z" fill="#FFE451"/>
<path d="M334.24 102.94C326.24 113.5 325.72 115.84 320.6 115.46C324.32 110.02 322.92 114.3 329.58 105.18C330.604 103.726 332.128 102.7 333.86 102.3C333.939 102.287 334.02 102.299 334.093 102.333C334.166 102.367 334.227 102.421 334.268 102.49C334.309 102.559 334.328 102.639 334.323 102.719C334.318 102.799 334.289 102.876 334.24 102.94Z" fill="white"/>
<path d="M325.4 100.68C323.4 107.2 319.4 118.52 312.7 115.66C313.12 114.3 313.44 111.92 315.22 111.92C319.36 111.92 321.22 101.14 324.9 100.14C324.973 100.122 325.049 100.124 325.122 100.145C325.194 100.166 325.259 100.207 325.31 100.262C325.361 100.317 325.397 100.385 325.413 100.458C325.429 100.532 325.424 100.608 325.4 100.68Z" fill="white"/>
<path d="M312.74 101.62C313.46 105.62 312.5 116.56 308.88 116.52C292.44 116.3 296.56 116.02 288.54 127.48C268 156.76 258 174 248.68 183.3C245.5 186.46 243.64 188.78 240.9 189.42C235.88 190.64 229.92 187.82 222.26 181.04C219.1 178.22 223.1 173.44 229.9 155.6C231.9 157.34 235.26 160.68 237.26 158.94C245.26 152 258.58 135.46 266.24 128.22C289.6 106.22 280.14 111.9 283.52 103.76L289.84 104.82C290.96 109.14 289.84 104.82 293.34 105.44C301.08 106.88 298.74 106.56 307.76 108.12C307.867 108.572 307.871 109.043 307.771 109.497C307.67 109.95 307.468 110.376 307.18 110.74C300.96 109.3 292.86 106.36 288.9 111.46C287.86 112.8 288.74 113.16 289.16 113C291.16 112.32 290.84 110.46 295.96 110.48C303.56 110.48 308.86 115.88 309.74 108.36C309.823 106.143 310.29 103.958 311.12 101.9C312 100.2 312.64 101.08 312.74 101.62Z" fill="white"/>
<path d="M309.66 76.3999C303.22 88.6799 304.56 95.9399 305.24 105.54C304.38 105.4 269.36 99.0599 268.84 98.3799C264.96 93.0999 266.5 85.0999 269.54 79.2599C270.94 76.5399 270.22 76.3999 309.66 76.3999Z" fill="#FFE451"/>
<path d="M250.16 78.9199H265.78C263.224 84.1345 262.458 90.0461 263.6 95.7399C254.14 94.1399 256.04 95.2399 257.4 91.7399C258.12 89.7399 257.16 87.9599 255.4 88.6399C253.932 89.3439 252.422 89.9599 250.88 90.4799C246.1 92.0199 249.24 92.6599 244.88 92.6599C245.594 91.5411 246.634 90.6684 247.86 90.1599C254.48 87.3199 255.52 80.4199 251.48 81.4199C248.42 82.0999 250.18 82.6999 250.16 78.9199Z" fill="#FFE451"/>
<path d="M256.18 345C256.4 345.62 256.02 346.44 255.88 347.22C248.08 347.66 242.86 349.86 234.96 352.78C231.48 354.06 225.68 355.48 224.8 355.86C194.5 368.76 195.32 368.86 191.78 363.18C191.516 362.831 191.342 362.422 191.272 361.99C191.203 361.558 191.24 361.115 191.38 360.7C191.84 354.98 186.78 356.16 189.04 352.04C189.98 350.34 189.4 350.36 193.34 351.62C197.28 352.88 220.02 342.12 227.72 340.56C229.299 340.164 230.844 339.643 232.34 339C237.76 336.9 236.78 338 240.46 336.7C248.3 333.96 248.74 334.14 248.46 332.5C248 332.5 246.14 332.36 246.78 332.12C251.02 330.42 254.34 333.58 253.78 334.92C253.523 335.788 253.479 336.705 253.653 337.593C253.827 338.481 254.214 339.314 254.78 340.02C255.382 341.638 255.85 343.304 256.18 345Z" fill="#FFE451"/>
<path d="M255.74 90.6599C255.74 93.8799 252.18 94.0199 249.54 96.3799C247.54 98.0799 246.84 100.2 243.54 102.68C242.48 103.44 241.04 106.42 238.76 109.82C235.26 115.04 232.98 114.28 231.38 118.24C230.44 120.5 230.96 120.24 228.24 119.34C227.28 116.44 226.88 113.56 222.46 112.8C221.498 112.666 220.518 112.736 219.585 113.005C218.651 113.273 217.784 113.735 217.04 114.36C216.72 111.72 219.42 106.36 220.5 98.7199C221.083 95.433 222.636 92.3959 224.96 89.9999C228.385 86.5924 232.294 83.7082 236.56 81.4399C241.22 78.5799 240.32 78.5599 240.8 80.6599C239.505 81.0313 238.323 81.7186 237.36 82.6599C232.62 87.6399 231.36 86.4399 230.28 89.4199C229.2 92.3999 225.46 93.2799 228.28 94.6599C233.66 89.0599 231.06 90.1799 233.8 88.1799C242.72 81.7399 233.14 86.0399 248.06 79.4599C249.34 80.1999 247.3 82.3599 245.94 83.1999C240.72 86.4199 242.74 84.4799 240.54 86.4999C240.06 86.9399 231.22 94.4999 233.28 96.0599C234.14 96.6399 235 95.2399 235.42 94.2999C236.82 91.3199 239.86 90.2999 241.56 88.0799C242.6 86.6399 242.8 86.8999 251.72 83.3399C251.742 83.7866 251.67 84.2331 251.508 84.65C251.346 85.067 251.098 85.4452 250.78 85.7599C248.36 88.9199 246.46 87.4799 243.38 91.2799C241.872 92.9939 240.532 94.8491 239.38 96.8199C238.4 98.0799 240.52 100.58 242.3 99.1399C251.1 91.9999 246.16 94.0999 255.74 90.6599Z" fill="white"/>
<path d="M216 375.3C215.375 378.146 214.499 380.93 213.38 383.62C215.016 383.614 216.649 383.466 218.26 383.18C230.62 380.82 232.84 386.78 246.26 386.56C246.214 384.86 246.614 383.178 247.42 381.68C254 370.56 252.54 364.64 248.14 350.12C218.64 363.84 214.84 364.12 215.56 367.18C216.492 369.787 216.645 372.608 216 375.3Z" fill="white"/>
<path d="M225.88 78.56C237.88 78.56 236.94 78.3 237.14 78.9C225.14 85.76 228.52 84.26 224.1 88.9C221.78 86.22 223.4 78.54 225.88 78.56Z" fill="#FFE451"/>
<path d="M228.72 126.68C228.02 129.64 228.72 128.34 224.72 138.9C224.38 139.76 211.38 191.34 206.52 200.3C202.2 208.3 192.02 207.84 185.88 205.26C172.96 199.84 151.46 188.58 151.4 188.54C154.167 183.768 157.755 179.523 162 176C172.32 166.64 171.18 166.84 175.2 169.4C183.96 175 185.06 177.16 187.46 173C196.24 157.88 199.46 155.54 202.82 144.7C203.74 142.2 206.64 137.52 208.82 133.06C214.22 121.82 214.34 119.76 214.82 121.98C215.058 122.961 215.527 123.872 216.187 124.636C216.847 125.401 217.679 125.997 218.615 126.376C219.551 126.755 220.564 126.906 221.57 126.817C222.576 126.727 223.546 126.399 224.4 125.86C225.68 124.9 226.62 125.66 228.72 126.68Z" fill="white"/>
<path d="M224.78 146.2L230 150.92C212.56 190.72 219.88 188.56 214 183.8C214.454 182.214 214.894 180.734 215.32 179.36C225.6 145.36 218.3 168.38 224.78 146.2Z" fill="white"/>
<path d="M219.78 80.0001C221.16 80.8601 219.24 82.9801 219.96 87.8201C188.76 82.5001 186.28 83.3001 185.14 81.8201C184.926 81.3385 184.815 80.8173 184.815 80.2901C184.815 79.7629 184.926 79.2416 185.14 78.7601C185.242 78.4099 185.464 78.1071 185.768 77.9057C186.072 77.7042 186.438 77.6172 186.8 77.6601C211.38 78.9001 218.56 79.2801 219.78 80.0001Z" fill="#FFE451"/>
<path d="M216.52 235.84C216.52 239.68 219.86 242.38 219.5 247.66C219.26 250.94 217.38 251.26 214.2 251.88C213.8 250.3 213.08 249.74 211.66 250.16C210.438 250.522 209.186 250.776 207.92 250.92C205.48 251.26 206.92 253.08 204.6 253.34C195.26 255.2 188.2 255.66 183.06 256.48C180.68 256.76 150.14 258.26 148.78 257.94C146.78 257.5 147.6 256.08 144.48 256.54C139.02 257.36 139.14 257.32 139 259.2C139 259.64 138.76 259.9 138.08 259.88C130.08 259.68 128.08 259.88 125.54 258.26C119.54 254.56 124.56 254.7 122.06 250.82C120.46 248.32 121.6 246.7 124.94 235.52C126 231.98 124.42 227.86 124.8 223.18C129.22 221.48 131.86 220.7 133.8 218.54C137.141 214.643 139.634 210.093 141.12 205.18C142.2 201.84 142.62 199.56 143 199.86C143.648 200.358 144.431 200.651 145.247 200.701C146.063 200.75 146.876 200.555 147.58 200.14C162.2 193.68 151.88 190.78 174.14 202.14C190.38 210.5 203.84 213.18 210.14 196.14C210.74 194.54 212.76 212.14 212.78 212.14C213.8 232.26 216.48 230.6 216.52 235.84ZM197.24 242.72C198.54 242.28 198.64 240.96 197.14 240.84C194.96 240.64 189.78 242.62 175.14 241.38C161.68 240.24 151.98 234.42 148.84 233.62C144.187 232.196 139.738 230.18 135.6 227.62C135 227.34 135.36 227.04 134.46 228.36C135.08 230.84 145.64 234.64 148.1 235.34C153.72 236.92 155.56 240.34 171.76 242.76C180.22 243.838 188.784 243.824 197.24 242.72ZM183.5 231.48C183.717 231.415 183.903 231.273 184.023 231.082C184.144 230.891 184.192 230.662 184.158 230.438C184.124 230.215 184.01 230.011 183.838 229.864C183.666 229.717 183.446 229.638 183.22 229.64C166.26 230 150.22 224.38 147.58 225.4C143.1 227.14 177.36 232.6 183.5 231.48Z" fill="white"/>
<path d="M218.98 252.42C219.32 254.8 219.66 257.18 220.04 259.88L215.7 261.1C215.26 258.58 214.88 256.24 214.46 253.84L218.98 252.42Z" fill="white"/>
<path d="M213.86 263.52C213.878 263.784 213.924 264.046 214 264.3C209.64 265.42 209.48 265.94 209.56 262.9C209.554 259.468 208.874 256.07 207.56 252.9C210.92 252.08 212.62 251.22 212.74 253.3C212.9 256.22 214.2 260 213.86 263.52Z" fill="#FFE451"/>
<path d="M206.92 256C208.54 264.4 210.2 263 199.54 264.6C196.5 265.06 197.54 265.98 196.12 256.6C206.56 255.26 206.54 254 206.92 256Z" fill="white"/>
<path d="M208.34 130.2C198.34 148.96 200.54 147 199.72 146.8C197.097 136.36 193.885 126.077 190.1 116C196.78 117 203.3 124.86 208.34 130.2Z" fill="white"/>
<path d="M196.4 140.64C199.52 151.86 198 152.2 197.14 154C192.44 141.34 198.42 154 183.14 114C184.352 113.605 185.631 113.462 186.9 113.58C187.974 115.443 188.833 117.422 189.46 119.48C192.88 129.12 195.06 135.86 196.4 140.64Z" fill="white"/>
<path d="M194.3 256.72C194.52 258.1 195.5 265.28 195.5 265.34C195.1 265.44 178.12 267.34 177.74 267.2C176.6 266.96 176.92 265.52 176.3 259.02C177.46 258.7 194 256.78 194.3 256.72ZM193.4 263.26C193.4 259.26 193.06 258.6 191.4 258.62C190.66 258.62 182.24 259.38 179.94 259.74C177.64 260.1 177.82 260.2 178.56 264.86C178.7 265.74 179.2 265.9 179.9 266C181.758 266.076 183.618 265.928 185.44 265.56C193.04 264.54 193.44 264.92 193.4 263.26Z" fill="black"/>
<path d="M189.54 135.26C197.16 160.9 196.78 154.22 192.5 161.02C184 174.52 186.62 174.72 182.32 171.88C171.66 164.88 147.02 147.48 146.64 147.24C145.88 137.56 141.98 126.24 135.1 118.98C135.975 118.238 137.093 117.846 138.24 117.88C138.84 121.02 138.42 122.36 142.24 125C144.231 126.258 145.978 127.863 147.4 129.74C148.92 133.04 153.14 134.66 155.9 136.94C159.74 140.12 160.48 142.54 166.34 144.16C171.9 145.7 171.92 124.16 171.16 118.76C173.66 117.8 176.02 118.28 177.16 114.98H181.6C184.758 121.528 187.413 128.308 189.54 135.26ZM177.54 131.08C177.54 127.08 177.54 126.98 177.36 126.38C177.322 126.284 177.262 126.199 177.186 126.129C177.11 126.06 177.019 126.009 176.92 125.98C176.46 125.86 175.76 126.5 175.88 127.3C175.88 132.24 175.88 132.62 176.68 132.58C177.48 132.54 177.58 131.8 177.58 131.08H177.54ZM177.14 139.08C177.3 138.24 177.14 138 176.92 137.76C176.873 137.705 176.815 137.661 176.749 137.631C176.684 137.601 176.612 137.585 176.54 137.585C176.468 137.585 176.397 137.601 176.331 137.631C176.265 137.661 176.207 137.705 176.16 137.76C175.12 139.08 175.22 141.02 174.52 144.2C174 146.72 171.24 152 168 150.46C158 145.74 158.68 145.96 149.8 138.82C149.22 138.36 146.76 138.52 151.92 142.82C155.075 145.279 158.419 147.485 161.92 149.42C167.76 152.38 169.66 153.96 172.42 151.28C176 147.72 176.22 144.14 177.18 139L177.14 139.08Z" fill="white"/>
<path d="M191.76 260.18C192.048 261.05 192.172 261.966 192.12 262.88C192.12 262.98 192.12 263.4 191.92 263.4C178.56 264.96 180.06 265.4 179.6 262.62C179.46 261.84 178.8 261.42 180.06 261.14C182.06 260.66 184.74 260.78 191.42 259.98C191.49 259.979 191.558 259.997 191.618 260.032C191.678 260.068 191.727 260.119 191.76 260.18Z" fill="white"/>
<path d="M187.76 63.3802C187.76 66.3202 173.52 73.0802 154.94 78.3802C145.803 81.0971 136.234 82.054 126.74 81.2002C113.84 79.8802 119.4 77.2002 124 72.8602C135 74.1202 152.14 69.8202 162 66.3602C171.86 62.9002 175.56 60.0002 178 59.3402C179.78 58.9002 187.8 62.0002 187.76 63.3802Z" fill="#FFE451"/>
<path d="M180.88 87.84C181.31 87.8626 181.728 87.9848 182.103 88.1968C182.477 88.4088 182.797 88.7048 183.038 89.0616C183.278 89.4184 183.432 89.8262 183.488 90.2528C183.544 90.6795 183.5 91.1132 183.36 91.52C182.12 94.82 177.02 96.3 173.82 94.7C173.44 94.52 171.06 95.58 169.48 94.9C169.02 94.7048 168.519 94.6247 168.02 94.6665C167.522 94.7083 167.041 94.8708 166.62 95.14C165.7 95.72 162.62 93.78 160.96 96.66C160.06 96.8 158.54 96.28 157.22 98.18C156.24 99.6 152.76 98.62 153.02 102.08C153.02 103.16 152.32 103.78 151.64 106.84C151.4 107.98 153.12 108.84 152.32 110.84C151.52 112.84 153.66 113 153.94 115.06C154.22 117.12 155.94 117.24 156.96 117.74C163.46 120.82 161.24 118.52 164.62 119.92C165.02 123.72 165.04 124.82 165.56 125.36C167.16 127.06 166.9 125.06 166.88 124.7C166.53 123.232 166.348 121.729 166.34 120.22C170.58 119.64 170.76 117.02 168.96 137.36C168.04 147.68 161.88 138.7 153.3 132.84C147 128.54 150.24 127.92 143.1 123.36C138.8 120.62 140.38 119.76 141.1 108.46C142.1 107.14 143.34 106.02 142.36 105.3C141.78 104.86 141.26 105.3 140.84 105.78C138.96 108.32 135.48 106.3 134.54 104.4C133.08 101.46 127.52 95.74 133.66 92.4C134.069 92.0461 134.555 91.793 135.08 91.661C135.604 91.529 136.152 91.5218 136.68 91.64C143.02 93.4 141.52 96.42 142.68 96.84C146.18 98.1 148.68 96.96 149.18 95.3C149.58 94.22 148.82 92.96 148.44 91.58C148.06 90.2 149.9 88.36 148.44 87.34C146.98 86.32 148.44 85.68 147.48 82.2C172.3 75.46 167.48 76.2 177.6 72.48C178.26 75.52 176.86 72.28 174.2 75.66C173.86 76.1 173.58 76.96 174.38 77.32C175.18 77.68 175.66 76.34 176.58 75.88C177.5 75.42 178.58 75.88 178.72 77.18C180.24 86.06 180.72 85.42 180.02 85.96C178.34 85.72 177.4 86.1 176.02 84.28C174.3 81.88 172.88 87.04 178.8 87.76C179.44 88 180.16 87.82 180.88 87.84ZM176.28 81.72C176.274 82.0263 176.388 82.3227 176.597 82.5466C176.806 82.7706 177.094 82.9045 177.4 82.92C177.704 82.9254 177.999 82.811 178.219 82.6015C178.44 82.392 178.57 82.1041 178.58 81.8C178.68 79.76 176.3 79.78 176.28 81.72ZM169.88 79.2C170.04 78.24 168.56 78.14 167.54 78.04C164.32 77.74 162.68 81.28 163.54 82.22C163.94 82.7 164.34 82.7 164.76 81.94C166.86 78 169.5 81.56 169.88 79.2ZM167.14 84.2C167.14 85.88 169.42 85.98 169.34 84.2C169.34 84.0555 169.312 83.9125 169.256 83.779C169.201 83.6456 169.12 83.5243 169.018 83.4222C168.916 83.32 168.794 83.239 168.661 83.1837C168.527 83.1284 168.384 83.1 168.24 83.1C168.096 83.1 167.953 83.1284 167.819 83.1837C167.686 83.239 167.564 83.32 167.462 83.4222C167.36 83.5243 167.279 83.6456 167.224 83.779C167.168 83.9125 167.14 84.0555 167.14 84.2ZM145.56 117.32C147.28 114.88 146.94 107.88 145.18 111.04C142.78 115.32 142.74 115.36 142.68 116.32C142.62 117.28 144.28 119.18 145.56 117.32ZM139.56 99.96C140.9 97.7 138.72 94.46 136.06 93.72C132.74 92.8 130.58 97.72 133.52 97.48C134.22 95.92 134.46 95.04 136.1 95.7C137.04 96.08 138.68 97.9 137.78 99.36C136.04 102.1 136.96 103.68 138.62 103.96C139.88 104.16 140.16 103.96 140.62 102.52C138.24 101.64 138.28 102 139.52 100L139.56 99.96Z" fill="white"/>
<path d="M234 301.54C231.744 292.415 228.85 283.46 225.34 274.74C221.96 265.96 227.34 266.4 220.62 261.54C217.76 262.38 219 262 215.78 263C215.26 265.2 216.04 267 209.28 266.78C208.34 266.78 208.32 266.04 208.02 265.08C188.074 268.31 167.923 270.108 147.72 270.46C147.56 272.46 147.54 273.3 145.58 273.38C141.98 273.52 141 274.06 140.34 272.26C139.68 270.46 141.5 270.48 133.88 270.26C123 269.76 126.62 269.18 124.98 269.56C118.98 270.86 122.18 273.18 121.48 276.38C116.56 298.78 117.28 294.38 119.62 302.1C123.4 314.52 133.02 332.46 131.24 333.46C130.22 334.02 129.72 332.78 129.24 331.76C115.62 298.54 118.9 303.96 117.24 309.9C115.12 317.42 115.24 315.48 114.74 317.66C106.74 356.36 105.9 341.16 120.24 347.66C125.32 349.96 150.24 351.5 151.42 351.8C154.92 352.62 157.7 351.8 161.1 351.94C164.56 344.22 162.88 344.84 165.52 337.94C168.64 329.72 167.34 327.94 168.54 324.16C169.74 320.38 170.82 317.94 172 314.32C177.38 297.82 174.62 303.38 184.22 300.6C187.9 299.58 201.54 298.46 199.68 301.5C198.82 302.9 192.72 299.24 182.14 304.08C180.14 304.98 178.7 305.02 179.5 307.04C183.62 317.58 184.7 318.66 186.2 327.04C187.92 336.66 188.2 330.44 192.44 349.88C199.02 350.36 198.44 349 213.72 343.56C241.1 333.84 234.02 337.56 244.92 333.18C236.48 307.82 236 311.32 234 301.54ZM122 335.54C120.4 335.8 120.46 335.16 117.84 321.16C117.644 320.656 117.58 320.111 117.653 319.576C117.727 319.04 117.935 318.532 118.26 318.1C120.26 319.36 118.12 316.92 122.1 332.54C122.44 334.4 122.68 334.66 121.86 335.52L122 335.54ZM182 282.68C181.729 288.479 180.464 294.189 178.26 299.56C178.199 299.833 178.055 300.079 177.847 300.266C177.639 300.452 177.378 300.569 177.1 300.6C176.66 300.6 176.34 300.22 176.56 299.54C182.28 282.18 179.66 272.88 180.56 269.94C180.569 269.749 180.652 269.57 180.792 269.44C180.861 269.376 180.943 269.326 181.032 269.293C181.121 269.26 181.215 269.246 181.31 269.25C181.405 269.254 181.498 269.276 181.584 269.316C181.67 269.355 181.747 269.412 181.811 269.481C181.875 269.551 181.925 269.633 181.957 269.722C181.99 269.811 182.004 269.905 182 270C182.249 274.223 182.249 278.457 182 282.68ZM190.34 270.5C190.275 280.324 188.049 290.013 183.82 298.88C183.38 299.74 182.04 299.08 182.4 298.14C186.203 289.221 188.365 279.688 188.78 270C188.88 268.24 190.46 268.46 190.4 270.5H190.34ZM216.54 330.26C215.14 328.1 219.7 328 227.4 305.5C228.42 302.46 232.86 305.38 218.26 329.5C218.11 329.796 217.865 330.032 217.563 330.17C217.261 330.309 216.922 330.34 216.6 330.26H216.54ZM231.6 324.26C230.8 327.3 229.32 331.82 227.78 329.02C231.66 323.86 231.4 313.72 232.7 312.22C233.84 312.58 234.96 311.44 231.66 324.24L231.6 324.26Z" fill="#FFE451"/>
<path d="M180.78 96.52C180.914 96.9436 180.957 97.3909 180.905 97.8322C180.853 98.2736 180.709 98.6989 180.48 99.08C179.44 98.86 179.7 97.66 178.62 97.08L180.78 96.52Z" fill="white"/>
<path d="M179.34 100.74C179.74 101.82 180.54 102.86 180 104.1C178.5 107.66 179.84 110.84 177.84 112.1C174.54 114.26 175.96 115.72 173.48 116.1C169.02 116.84 168.66 118.98 166.12 118.1C164.848 117.607 163.476 117.429 162.12 117.58C160.82 118 160.82 117.3 158.28 116.18C158.14 116.18 155.64 115.26 155.72 114.44C155.72 113.22 155.1 112.88 153.96 111.26C154.4 109.92 154.9 109.26 153.96 108.02C151.96 105.46 154.88 104.22 154.76 102.02C154.76 100.44 156.46 100.66 157.16 100.4C157.99 99.9774 158.638 99.2662 158.98 98.3999C160.02 98.2399 161.62 98.7199 162.8 97.0199C163.98 95.3199 164.94 97.7999 167.08 96.5599C168.86 95.5599 169.08 97.5599 171.5 96.7999C172.84 96.3799 173.06 96.7999 176.68 97.3599C177.88 98.3599 178 99.9999 179.34 100.74ZM178 105.68C178.52 103.68 179.18 102.66 177.88 101.88C176.58 101.1 176.5 99.2799 174.3 99.3599C171.48 99.4799 170.3 97.6799 169.14 98.2599C166.58 99.4999 164.74 97.8599 163.58 99.5599C162.16 101.56 161.34 98.9399 158.76 101.56C152.76 107.56 157.16 106.34 156.06 109.32C155.26 111.46 157.2 112.12 157.92 113.32C159.48 116.04 161.36 114.72 162.42 115.32C164.12 116.28 165.94 115.72 167.68 115.76C168.14 115.76 168.6 115.28 169.06 115C170.08 114.38 168.7 114.72 173.7 113.78C174.46 112.96 174.64 111.78 175.7 111.48C178.84 110.32 178 105.84 178 105.68Z" fill="white"/>
<path d="M177.1 103.68C175.26 108.58 177.52 105 175.78 109.68C174.68 110.06 173.54 110.46 173.14 111.82C173.02 112.22 171.26 112.78 170.8 112.78C167.36 112.78 167.46 115.64 164.16 114.06C161.62 112.82 159.96 114.44 159.38 112.18C159.04 110.9 157.26 111.08 157.86 109.24C158.047 108.815 158.122 108.349 158.077 107.886C158.031 107.424 157.867 106.981 157.6 106.6C157.28 106.14 157.6 104.12 160.62 102.32C162.16 101.4 162.38 103.1 164.82 100.94C166.1 99.8002 166.82 100.94 168.82 100.26C170.82 99.5802 171.66 101.52 173.96 101.1C174.9 100.94 175.14 101.48 177.1 103.68ZM167.26 108C169.26 108 169.88 103.6 167.26 103.62C164.64 103.64 164.14 108 167.26 108Z" fill="white"/>
<path d="M175.7 52.3198C176.296 53.9818 176.706 55.7058 176.92 57.4598C166.92 63.8198 137.86 72.9598 124.5 70.6798C123.52 64.5398 123.14 64.2398 124.5 64.4598C131.24 65.6398 151.04 63.9998 175.7 52.3198Z" fill="white"/>
<path d="M175.24 267.38C143.66 267.38 147.36 273.86 147.24 259.68C149.56 260.28 170.1 259.58 174.46 259.12C175.101 261.824 175.364 264.604 175.24 267.38Z" fill="white"/>
<path d="M168.22 164.82C170.66 166.82 171.7 165.06 167.38 168.52C156.18 177.48 151.58 184.52 145.66 193.2C142.08 198.48 147.66 202.14 131.86 186.7C127.28 182.26 128.4 180.34 123.86 174.58C117.86 166.98 115.76 165.16 115.34 161.3C114.36 152.78 104.14 146 114 133.46C119.04 127.06 116.88 130.74 127.02 122.08C131.48 125.64 131.74 127.24 135.84 134.08C136.854 136.069 137.473 138.236 137.66 140.46C137.66 140.6 137.66 140.7 137.26 141.18C137.095 141.372 137.005 141.617 137.005 141.87C137.005 142.123 137.095 142.368 137.26 142.56C140.539 145.68 144.234 148.332 148.24 150.44C154 154.7 166 162.98 168.22 164.82ZM130.22 161.66C132.04 180.92 135.74 185.14 134.9 180.28C131.46 160.1 132.5 162.88 131.8 156C131.64 154.48 129.68 155.74 130.24 161.66H130.22ZM128 147.34C128.38 145.88 127.38 145.58 127.04 146.44C125.52 150.1 122.26 166.12 124.72 168.44C126.52 167.5 125.46 157.26 128 147.34Z" fill="white"/>
<path d="M173.04 48.3202C168.86 41.0202 160.92 38.8802 153.58 39.5202C155.623 40.2708 157.497 41.4191 159.093 42.8987C160.69 44.3783 161.977 46.1599 162.88 48.1402C163.62 49.8802 164.2 51.0602 164.44 51.8602C164.88 53.3402 163.42 53.9802 162.66 52.0402C160.92 47.6402 157.74 40.7002 149.38 40.4402C146.8 40.5402 147.38 40.7202 148.56 51.5002C148.72 53.2402 149.14 55.3002 148.36 56.4202C148.302 56.4845 148.231 56.5359 148.152 56.5711C148.072 56.6063 147.987 56.6245 147.9 56.6245C147.813 56.6245 147.728 56.6063 147.648 56.5711C147.569 56.5359 147.498 56.4845 147.44 56.4202C146.92 55.8802 146.88 54.6402 146.7 52.2002C146.24 46.2002 145.94 43.4002 145.82 42.6002C145.7 41.8002 145.82 41.4202 145.24 41.3802C144.66 41.3402 143.76 42.2202 143.24 42.7402C138.36 47.6002 135.8 51.6802 136.6 58.6202C136.8 60.3802 135.34 60.1002 135.02 58.6202C133.26 50.5002 139.32 44.6202 141.46 42.2002C134.12 44.3602 123.76 50.3002 124.02 61.0602V61.2602C124.02 61.9002 124.02 62.7802 124.94 62.9202C130.64 63.6802 138.62 62.5202 148.94 59.9602C156.12 58.1602 169.46 53.6602 172.94 51.4402C173.7 50.9402 174 50.0002 173.04 48.3202Z" fill="#FFE451"/>
<path d="M164.26 353.3C166.82 357.8 162.88 356.32 162.36 361.82C162.14 364.14 161.38 366.62 159.02 366.7C149.62 367.06 123.52 364.7 110.18 360.8C104.18 359.08 100.18 357 100.18 354.56C100.18 349.78 102.5 350.16 101.92 347.1C100.76 340.88 103.92 338.48 107.78 339.1C107.18 343.56 107.78 343.32 106.1 340.64C103.14 342.86 107.7 347 110.92 347.18C114.15 347.566 117.316 348.366 120.34 349.56C124.98 351.34 150.52 354.68 164.26 353.3Z" fill="#FFE451"/>
<path d="M147.46 93.5999C147.541 93.9096 147.54 94.2347 147.458 94.544C147.376 94.8533 147.216 95.1362 146.993 95.3655C146.769 95.5947 146.491 95.7625 146.184 95.8526C145.877 95.9427 145.552 95.9521 145.24 95.8799C141.74 95.3999 144.24 93.3599 141.1 91.8799C139.623 90.5453 137.69 89.8293 135.7 89.8799C134.267 90.0003 132.889 90.4895 131.7 91.2999C130.28 89.5599 131.94 89.1199 130.66 86.8199C130.293 86.1906 130.004 85.519 129.8 84.8199C129.24 82.6199 132.42 83.6599 140.32 83.0999C143.68 82.8599 145.6 82.0799 146.02 83.2999C146.44 84.5199 145.58 86.2399 145.66 86.9199C145.8 88.0199 147.18 88.0199 147.24 88.9199C147.3 89.8199 146.74 90.3399 146.72 91.4799C146.922 92.1999 147.17 92.9099 147.46 93.5999Z" fill="white"/>
<path d="M146 271.38L142.26 271.78C141.328 267.57 140.859 263.272 140.86 258.96C148 258 144.74 256.42 146 271.38Z" fill="#FFE451"/>
<path d="M133.3 119.6C141.76 127.96 144.62 144.26 144.5 145.84C142.823 145.004 141.301 143.888 140 142.54C139.34 141.98 140.24 137.62 136.14 130.94C130.78 122.06 133.84 125.7 126.14 118.94C126.078 118.896 126.028 118.837 125.993 118.769C125.958 118.701 125.94 118.626 125.94 118.55C125.94 118.474 125.958 118.399 125.993 118.331C126.028 118.263 126.078 118.205 126.14 118.16C127.099 117.485 128.189 117.022 129.34 116.8C130.96 116.66 131.62 118 133.3 119.6Z" fill="white"/>
<path d="M137.82 194.84C140.54 197.84 141.1 198.26 140.96 199.02C140.251 203.359 138.746 207.529 136.52 211.32C134.74 214.2 133.66 218.32 126.68 220.52C124.5 221.2 122.16 222.06 120.94 222.32C120.14 222.48 120 221.22 119.28 218.32C120.562 217.92 121.82 217.44 123.04 216.88C132.26 212.66 133.96 206.1 136.3 200.08C136.9 198.823 137.266 197.468 137.38 196.08C137.486 195.654 137.634 195.238 137.82 194.84Z" fill="white"/>
<path d="M139.24 261.74C139.4 263.86 139.54 266.08 139.72 268.5C135.084 268.518 130.451 268.284 125.84 267.8C125.72 254.78 119.24 262.96 139.24 261.74Z" fill="white"/>
<path d="M135.18 107.86C139.48 110.72 139.64 105.68 138.96 114.76C138.96 116.1 138.08 115.6 134.56 116.96C131.82 118.04 133.5 112.74 125.14 116.54C124.819 116.657 124.533 116.855 124.31 117.114C124.087 117.373 123.934 117.685 123.866 118.02C123.798 118.355 123.816 118.702 123.92 119.028C124.024 119.353 124.21 119.647 124.46 119.88C124.76 120.2 125.1 120.46 125.5 120.84C123.977 122.716 122.111 124.284 120 125.46C118.028 126.665 116.202 128.094 114.56 129.72C107 114.24 91.5 123.6 99.68 119.2C99.68 119.2 120.32 108.14 128.96 105.68C134.7 104 131.08 105.14 135.18 107.86Z" fill="white"/>
<path d="M121.02 385C125.96 385.52 130.42 389.14 135.38 389.72L137.72 389.92C141.614 383.48 144.742 376.607 147.04 369.44C129.92 371.02 129.3 368.48 111.98 367.68C110.34 376.16 111.6 374.68 103.98 385.26C108.88 386.44 113.56 384.28 121.02 385Z" fill="white"/>
<path d="M125.82 181.08C129.46 190.48 138 190.74 135.22 197.94C132.16 205.94 131.22 210.08 122.48 215.74C120.72 208.94 120.64 197.08 119.54 193.74C118 189.1 116 180 115.52 178.7C112 169.2 112.28 151.86 113.62 161.4C114.74 168.96 123.54 175.2 125.82 181.08Z" fill="white"/>
<path d="M121.62 224C123.04 223.48 122.72 223.26 123.24 229.88C113.46 234.2 119.72 233.44 106.46 177.24C108.08 177 110.16 176.74 112.84 176.46C116.896 188.225 119.305 200.495 120 212.92C120.16 215.68 121.36 216.3 118.92 216.48C116.48 216.66 117.7 220.48 118.6 222.76C118.8 223.28 119.4 223.64 119.86 224.02C120.122 224.192 120.429 224.283 120.743 224.279C121.057 224.275 121.362 224.178 121.62 224Z" fill="white"/>
<path d="M105.3 177.46C106.42 185.64 115.64 231.58 115.3 231.62C108.52 232.66 109.66 239.42 104.96 215C103.6 207.96 100.08 190.42 97.1799 179.3C99.8367 178.484 102.551 177.869 105.3 177.46Z" fill="white"/>
<path d="M112 172.12C112.24 174.38 112.98 174.6 110.94 174.8C99.7801 175.9 87.8001 180.7 86.6801 174.8C85.1601 166.8 83.0201 161.12 82.8401 147.52C82.634 142.534 83.3111 137.551 84.8401 132.8C85.6859 130.024 87.3476 127.566 89.609 125.747C91.8704 123.928 94.627 122.832 97.5201 122.6C105.8 121.82 109.52 123.12 113.36 131.44C110.635 134.354 108.929 138.074 108.5 142.04V143.92C108.228 146.504 108.599 149.115 109.58 151.52C111.4 156.22 110.4 158 112 172.12ZM101 171.78C109.7 170.6 109.58 171.36 107.56 159.78C106.42 153.1 108.32 143.34 103.06 143.28C85.4601 144.72 85.2801 144.9 85.9001 149.54C85.9521 151.216 86.2001 152.88 86.6401 154.5C87.2161 155.842 87.4781 157.3 87.4001 158.76C90.6601 173.32 86.6601 173.72 100.96 171.78H101Z" fill="white"/>
<path d="M105.72 158.92C106.98 167.06 108.24 168.92 104.8 169.28C103.08 169.46 103.8 171.62 101.58 155.12C106.28 155.12 105 154.34 105.72 158.92Z" fill="white"/>
<path d="M104.7 146.2C105.323 148.136 105.594 150.168 105.5 152.2C105.5 153.1 104.56 153.14 103.3 153.2C101.3 153.2 96.54 153.76 91.14 154.54C87.4 155.08 87.74 154.54 87.3 148.54C87.3 147.46 87.3 146.76 89 146.26C92.851 145.529 96.7462 145.055 100.66 144.84C103.24 144.76 104.1 144.32 104.7 146.2ZM96.7 151.62C97.0076 151.609 97.2982 151.477 97.5082 151.252C97.7181 151.027 97.8303 150.728 97.82 150.42C97.8368 150.248 97.8087 150.075 97.7384 149.917C97.6682 149.759 97.5582 149.622 97.4192 149.519C97.2801 149.416 97.1169 149.351 96.9453 149.331C96.7737 149.31 96.5996 149.334 96.44 149.4C96.1871 149.485 95.9719 149.656 95.8319 149.883C95.692 150.11 95.6362 150.38 95.6743 150.644C95.7124 150.908 95.8419 151.15 96.0403 151.329C96.2387 151.507 96.4934 151.61 96.76 151.62H96.7Z" fill="white"/>
<path d="M107.06 233.14C102.16 232.08 99.06 231.94 97.2 221.3C94.6 206.16 91.2 196.24 89 179.46C91.44 179.78 93.8 179.02 96.34 179.46C95.88 182.2 97.62 186.48 107.06 233.14Z" fill="white"/>
<path d="M99.8399 155.14C100.52 160.02 101.18 164.8 101.84 169.74C94.5999 170.4 97.6799 172.78 94.3599 156.66C94.1399 155.48 93.7599 155.76 99.8399 155.14Z" fill="white"/>
<path d="M95 170.52C90.34 171.46 91.86 171.92 88.7 156.52L93.16 156.26C92.72 157.56 92.68 156.54 95 170.52Z" fill="white"/>
<path d="M241.48 78.2798L242.22 80.4798L246 78.7998L245.72 77.7998L241.48 78.2798Z" fill="#FFE451"/>
<path d="M369.38 76.92C359.92 82.92 357.24 104.5 364.16 115.36C372.16 128.12 383.5 112.12 383.9 95.64C384.3 80.12 375.86 72.84 369.38 76.92ZM372.5 92.52C369.38 93.96 367.46 90.52 367.48 87.46C368.26 81.46 372.3 81.08 373.6 83.06C376.2 87.04 374.2 91.74 372.5 92.52ZM377.82 100.74C376.04 103.94 371.54 99.42 374.68 96.14C376.32 94.44 379.64 97.5 377.82 100.74Z" fill="black"/>
<path d="M231.66 324.24C234.96 311.44 233.84 312.58 232.76 312.24C231.46 313.74 231.72 323.88 227.84 329.04C229.38 331.8 230.86 327.28 231.66 324.24Z" fill="black"/>
<path d="M218.32 329.5C232.92 305.38 228.48 302.46 227.46 305.5C219.76 328 215.2 328.1 216.6 330.26C216.93 330.355 217.284 330.331 217.598 330.192C217.912 330.053 218.168 329.808 218.32 329.5Z" fill="black"/>
<path d="M198.44 55.8199C203.18 57.2599 202.06 57.2799 205.68 58.3799C206.057 58.5141 206.461 58.5586 206.858 58.5099C207.255 58.4613 207.636 58.3208 207.97 58.0996C208.304 57.8784 208.581 57.5825 208.781 57.2355C208.98 56.8884 209.097 56.4996 209.12 56.0999C208.68 52.2799 197.76 53.2799 196.88 53.5599C196.42 53.6999 196 55.0999 198.44 55.8199ZM207.58 56.1999C207.22 57.7599 205.58 56.8399 202.28 55.8599C200.947 55.5613 199.652 55.1118 198.42 54.5199C198.7 53.8799 208 54.3799 207.58 56.1999Z" fill="black"/>
<path d="M199.44 103.66C201.28 103.66 202.68 100.92 200.44 99.8802C198.48 99.1162 196.56 98.2422 194.7 97.2602C193.54 96.6402 193.42 98.1002 193.64 98.4002C196.94 102.76 197.62 103.68 199.44 103.66ZM200.08 101.66C199.52 103.46 197.64 101.92 195.78 99.2202C198.5 100.54 200.4 100.7 200 101.68L200.08 101.66Z" fill="black"/>
<path d="M185.32 34.9798C196.26 26.0198 200.54 26.5598 199.82 28.9798C199.38 30.4798 197.74 31.5198 195.08 32.7398C191.575 33.93 188.22 35.5205 185.08 37.4798C184.991 37.527 184.891 37.551 184.79 37.5495C184.689 37.548 184.591 37.5211 184.503 37.4712C184.415 37.4214 184.341 37.3502 184.288 37.2643C184.235 37.1784 184.205 37.0806 184.2 36.9798C184.212 36.5809 184.32 36.1908 184.515 35.8426C184.71 35.4945 184.986 35.1985 185.32 34.9798Z" fill="black"/>
<path d="M197.14 240.84C194.96 240.64 189.78 242.62 175.14 241.38C161.68 240.24 151.98 234.42 148.84 233.62C144.187 232.196 139.738 230.18 135.6 227.62C135 227.34 135.36 227.04 134.46 228.36C135.08 230.84 145.64 234.64 148.1 235.34C153.72 236.92 155.56 240.34 171.76 242.76C180.232 243.854 188.808 243.854 197.28 242.76C198.54 242.26 198.64 240.96 197.14 240.84Z" fill="black"/>
<path d="M179.88 266C181.738 266.076 183.598 265.928 185.42 265.56C193.02 264.54 193.42 264.94 193.42 263.26C193.42 259.26 193.08 258.6 191.42 258.62C190.68 258.62 182.26 259.38 179.96 259.74C177.66 260.1 177.84 260.2 178.58 264.86C178.68 265.74 179.18 266 179.88 266ZM180.06 261.14C182.06 260.66 184.74 260.76 191.42 259.98C191.489 259.979 191.558 259.997 191.618 260.033C191.678 260.068 191.727 260.119 191.76 260.18C192.04 261.052 192.16 261.966 192.12 262.88C192.12 262.98 192.12 263.4 191.92 263.4C178.56 264.96 180.06 265.4 179.6 262.62C179.46 261.84 178.82 261.44 180 261.14H180.06Z" fill="black"/>
<path d="M188.78 270C188.384 279.684 186.243 289.216 182.46 298.14C182.417 298.247 182.397 298.362 182.401 298.478C182.405 298.593 182.434 298.706 182.485 298.81C182.536 298.914 182.608 299.006 182.697 299.08C182.786 299.154 182.889 299.208 183 299.24C183.166 299.283 183.341 299.271 183.5 299.206C183.658 299.141 183.792 299.027 183.88 298.88C188.109 290.013 190.335 280.324 190.4 270.5C190.46 268.46 188.88 268.24 188.78 270Z" fill="black"/>
<path d="M183.5 231.48C183.717 231.415 183.903 231.273 184.024 231.082C184.144 230.891 184.192 230.662 184.158 230.438C184.124 230.215 184.011 230.011 183.838 229.864C183.666 229.717 183.446 229.638 183.22 229.64C166.28 230 150.22 224.38 147.58 225.4C143.1 227.14 177.36 232.6 183.5 231.48Z" fill="black"/>
<path d="M180.62 270C179.72 272.94 182.32 282.24 176.62 299.6C176.4 300.28 176.62 300.66 177.16 300.66C177.438 300.63 177.699 300.513 177.907 300.327C178.116 300.14 178.26 299.893 178.32 299.62C180.51 294.226 181.755 288.496 182 282.68C182.249 278.457 182.249 274.223 182 270C182 269.817 181.927 269.642 181.797 269.513C181.668 269.383 181.493 269.311 181.31 269.31C181.219 269.31 181.13 269.327 181.046 269.362C180.962 269.397 180.886 269.447 180.822 269.512C180.758 269.576 180.707 269.652 180.672 269.736C180.638 269.82 180.62 269.909 180.62 270Z" fill="black"/>
<path d="M178.58 81.6002C178.58 79.7602 176.26 79.8602 176.28 81.7202C176.269 81.8839 176.292 82.0482 176.349 82.2021C176.406 82.3561 176.495 82.4961 176.61 82.6131C176.725 82.7301 176.864 82.8214 177.017 82.8808C177.17 82.9403 177.334 82.9666 177.498 82.9581C177.662 82.9495 177.822 82.9063 177.968 82.8312C178.114 82.7562 178.242 82.651 178.344 82.5227C178.447 82.3943 178.521 82.2457 178.561 82.0867C178.602 81.9277 178.608 81.7619 178.58 81.6002Z" fill="black"/>
<path d="M178 101.88C176.94 101.26 176.62 99.28 174.42 99.36C171.6 99.48 170.42 97.68 169.26 98.26C166.7 99.5 164.86 97.86 163.7 99.56C162.28 101.56 161.46 98.94 158.88 101.56C152.88 107.56 157.28 106.34 156.18 109.32C155.38 111.46 157.32 112.12 158.04 113.32C159.6 116.04 161.48 114.72 162.54 115.32C164.24 116.28 166.06 115.72 167.8 115.76C168.26 115.76 168.72 115.28 169.18 115C170.2 114.38 168.82 114.72 173.82 113.78C174.58 112.96 174.76 111.78 175.82 111.48C178.88 110.26 178.08 105.78 178.12 105.62C178.6 103.64 179.26 102.66 178 101.88ZM175.82 109.68C174.72 110.06 173.58 110.46 173.18 111.82C173.06 112.22 171.3 112.78 170.84 112.78C167.4 112.78 167.5 115.64 164.2 114.06C161.66 112.82 160 114.44 159.42 112.18C159.08 110.9 157.3 111.08 157.9 109.24C158.088 108.815 158.162 108.348 158.117 107.886C158.071 107.423 157.907 106.98 157.64 106.6C157.32 106.14 157.64 104.12 160.66 102.32C162.2 101.4 162.42 103.1 164.86 100.94C166.14 99.8 166.86 100.94 168.86 100.26C170.86 99.58 171.7 101.52 174 101.1C174.9 100.94 175.14 101.48 177.1 103.68C175.26 108.58 177.52 105 175.78 109.68H175.82Z" fill="black"/>
<path d="M176.4 126.14C176.222 126.272 176.084 126.449 175.999 126.654C175.914 126.858 175.887 127.081 175.92 127.3C175.92 132.24 175.92 132.62 176.72 132.58C177.52 132.54 177.58 131.8 177.58 131.08C177.58 127.08 177.58 126.98 177.4 126.38C177.364 126.285 177.306 126.2 177.23 126.133C177.154 126.065 177.063 126.018 176.964 125.994C176.865 125.97 176.762 125.971 176.664 125.997C176.565 126.022 176.475 126.072 176.4 126.14Z" fill="black"/>
<path d="M176.2 137.72C175.16 139.04 175.26 140.98 174.56 144.16C174 146.72 171.24 152 168 150.46C158 145.74 158.68 145.96 149.8 138.82C149.22 138.36 146.76 138.52 151.92 142.82C155.075 145.278 158.419 147.485 161.92 149.42C167.76 152.38 169.66 153.96 172.42 151.28C176.14 147.7 176.28 144.1 177.24 138.96C177.4 138.12 177.24 137.88 177.02 137.64C176.968 137.578 176.901 137.529 176.826 137.499C176.751 137.468 176.67 137.456 176.589 137.464C176.508 137.472 176.431 137.5 176.363 137.544C176.295 137.589 176.239 137.649 176.2 137.72Z" fill="black"/>
<path d="M164.66 82C166.84 78 169.5 81.62 169.88 79.26C170.04 78.3 168.56 78.2 167.54 78.1C164.32 77.8 162.68 81.34 163.54 82.28C163.84 82.7 164.24 82.7 164.66 82Z" fill="black"/>
<path d="M167.14 84.2001C167.14 85.8801 169.42 85.9801 169.34 84.2001C169.34 84.0556 169.311 83.9126 169.256 83.7791C169.201 83.6457 169.12 83.5244 169.018 83.4223C168.916 83.3201 168.794 83.2391 168.661 83.1838C168.527 83.1286 168.384 83.1001 168.24 83.1001C168.095 83.1001 167.952 83.1286 167.819 83.1838C167.685 83.2391 167.564 83.3201 167.462 83.4223C167.36 83.5244 167.279 83.6457 167.224 83.7791C167.168 83.9126 167.14 84.0556 167.14 84.2001Z" fill="black"/>
<path d="M167.28 103.64C164.76 103.64 164.14 108.02 167.28 108.02C169.34 108 169.88 103.62 167.28 103.64Z" fill="black"/>
<path d="M164.68 10.2401C161.12 13.0801 158.26 20.3801 157.36 24.4201C157.02 25.8801 157.24 27.0001 157.66 27.3201C158.08 27.6401 158.72 27.0201 159.66 25.4201C163.08 18.5001 164.78 16.5401 166.76 12.0001C166.884 11.7196 166.914 11.4064 166.845 11.1075C166.776 10.8086 166.613 10.54 166.379 10.3419C166.144 10.1437 165.852 10.0267 165.546 10.0084C165.24 9.99006 164.936 10.0714 164.68 10.2401ZM165.34 11.9601C164.32 14.4801 160.4 21.1801 158.4 24.9801C158.4 25.0065 158.389 25.0317 158.37 25.0501C158.351 25.0684 158.326 25.0787 158.3 25.0787C158.274 25.0787 158.249 25.0684 158.23 25.0501C158.211 25.0317 158.2 25.0065 158.2 24.9801C159.354 20.0869 161.674 15.5448 164.96 11.7401C165 11.7074 165.05 11.6885 165.102 11.6863C165.153 11.6841 165.205 11.6988 165.247 11.728C165.29 11.7573 165.322 11.7996 165.339 11.8486C165.356 11.8977 165.356 11.9508 165.34 12.0001V11.9601Z" fill="black"/>
<path d="M145.56 117.32C147.28 114.88 146.94 107.88 145.18 111.04C142.78 115.32 142.74 115.36 142.68 116.32C142.62 117.28 144.28 119.18 145.56 117.32ZM145.56 112.5H145.74C146 114.16 144.7 117.3 144.12 116.62C143.54 115.94 144.98 113.44 145.48 112.5H145.56Z" fill="black"/>
<path d="M136 95.7002C136.94 96.0802 138.58 97.9002 137.68 99.3602C135.94 102.1 136.86 103.68 138.52 103.96C139.78 104.16 140.06 103.96 140.52 102.52C138.24 101.64 138.3 102.06 139.52 99.9602C140.74 97.8602 138.68 94.4602 136.02 93.7202C132.7 92.8002 130.54 97.7203 133.48 97.4803C134.18 96.0003 134.42 95.0402 136 95.7002Z" fill="black"/>
<path d="M131.8 156C131.64 154.48 129.68 155.74 130.24 161.66C132.06 180.92 135.76 185.14 134.92 180.28C131.46 160.1 132.5 162.88 131.8 156Z" fill="black"/>
<path d="M116.74 14.6598C113.76 12.6598 112.96 15.3198 114.2 16.8198C116.259 18.9478 118.443 20.9513 120.74 22.8198C126.14 27.2398 127.08 29.4798 128.36 30.2598C128.497 30.3442 128.657 30.383 128.818 30.3706C128.978 30.3581 129.13 30.2951 129.253 30.1906C129.375 30.0861 129.461 29.9455 129.498 29.789C129.535 29.6325 129.522 29.4683 129.46 29.3198C126.69 23.3299 122.28 18.2471 116.74 14.6598ZM126.94 27.2998C122.54 21.9998 114 16.4198 115.46 15.6198C116.58 14.9998 124.78 22.5598 127.46 27.3198C127.74 27.7798 127.78 28.3198 126.94 27.2998Z" fill="black"/>
<path d="M127.02 146.44C125.5 150.12 122.24 166.12 124.7 168.44C126.52 167.4 125.46 157.16 127.98 147.24C128.36 145.88 127.36 145.58 127.02 146.44Z" fill="black"/>
<path d="M118.12 318C117.795 318.432 117.587 318.94 117.513 319.476C117.44 320.011 117.504 320.556 117.7 321.06C120.32 335.06 120.26 335.7 121.86 335.44C122.68 334.56 122.44 334.32 121.86 332.44C118 316.9 120 319.34 118.12 318Z" fill="black"/>
<path d="M110 247.28C108.401 244.723 105.916 242.843 103.02 242C99.78 241.42 98.2 244.62 99.02 248.18C100.6 256.18 112.26 265.14 111.02 258.36C110.22 254.22 105.02 244.6 102.66 246.66C101.74 247.44 106.66 248.94 109.14 256.66C109.38 257.44 109.78 259.24 109.14 259C104.36 257.24 98.48 247.38 101.02 244.34C103.02 241.96 109.02 246.68 111.64 254.22C112.54 256.76 114.1 262.62 111.64 263.52C106.7 265.32 100.38 258.58 98.24 253.1C95.54 246.18 97.9 245.1 96.78 243.76C95.02 243.58 95.08 247.9 95.48 249.54C100.88 270.68 124.76 271.48 110 247.28Z" fill="black"/>
<path d="M109 44.7401C103 41.9401 97 44.2401 97 46.0801C97 47.5801 99.68 47.4401 101 47.3601C103.314 47.2187 105.611 46.8638 107.86 46.3001C109.62 45.8201 109.82 45.1201 109 44.7401ZM101 46.3001C100.2 46.3001 98.78 46.3001 98.64 45.9401C98.5 45.5801 98.84 45.1001 101.12 44.6201C103.136 44.3664 105.182 44.5506 107.12 45.1601C105.142 45.6801 103.13 46.0621 101.1 46.3001H101Z" fill="black"/>
<path d="M104.3 93.64C105.12 92.98 106.14 92 107.92 90.54C110.48 88.4 108.8 88 107.92 88.26C100.72 90.6 99.6999 91.5 99.1999 92.7C98.4199 94.78 100.64 96.5 104.3 93.64ZM101.52 92.16C103.74 90.4 111.52 87.26 104.6 91.88C103.544 92.7795 102.278 93.3986 100.92 93.68C100.46 93.3 100.84 92.7 101.52 92.16Z" fill="black"/>
<path d="M86.6001 154.42C87.1781 155.762 87.4381 157.22 87.3601 158.68C90.6601 173.32 86.6601 173.72 100.96 171.78C109.66 170.6 109.54 171.36 107.52 159.78C106.38 153.1 108.28 143.34 103.02 143.28C85.4201 144.72 85.2401 144.9 85.8601 149.54C85.9181 151.19 86.1661 152.828 86.6001 154.42ZM88.7001 156.54L93.1601 156.28C92.7201 157.56 92.6801 156.54 95.0001 170.52C90.3401 171.46 91.8601 172 88.7001 156.54ZM94.3801 156.66C94.1401 155.48 93.7601 155.76 99.8401 155.14C100.52 160.02 101.18 164.8 101.84 169.74C94.6201 170.4 97.7001 172.78 94.3801 156.66ZM104.8 169.28C103.08 169.46 103.8 171.62 101.58 155.12C106.28 155.12 105 154.34 105.72 158.92C106.98 167.06 108.24 168.94 104.8 169.28ZM89.0001 146.28C92.851 145.549 96.7463 145.075 100.66 144.86C103.24 144.76 104.12 144.3 104.66 146.2C105.293 148.134 105.564 150.168 105.46 152.2C105.46 153.1 104.52 153.14 103.26 153.2C101.26 153.2 96.5001 153.76 91.1001 154.54C87.3601 155.08 87.7001 154.54 87.2601 148.54C87.2201 147.48 87.2601 146.78 89.0001 146.28Z" fill="black"/>
<path d="M101.42 72.7801C101.42 72.2401 100.8 72.1001 100.24 72.1001C87.64 72.2001 83.56 75.4201 84.24 77.5201C84.6 78.6401 87.08 79.0201 91.16 77.1401C99.8 73.2401 101.54 74.0001 101.42 72.7801ZM97.42 73.6601C95.62 74.0801 89.22 76.4001 88.12 76.7401C86.62 77.2001 83.88 77.2401 87.1 75.5001C91.52 73.1601 101.56 72.7201 97.46 73.6601H97.42Z" fill="black"/>
<path d="M96.76 151.62C97.0675 151.609 97.3581 151.477 97.5681 151.252C97.7781 151.027 97.8902 150.728 97.88 150.42C97.8967 150.248 97.8686 150.075 97.7983 149.917C97.7281 149.759 97.6181 149.622 97.4791 149.519C97.3401 149.416 97.1768 149.351 97.0052 149.331C96.8336 149.31 96.6595 149.334 96.5 149.4C96.2496 149.482 96.0353 149.648 95.8933 149.869C95.7513 150.091 95.6905 150.355 95.7211 150.617C95.7517 150.878 95.872 151.121 96.0613 151.304C96.2507 151.487 96.4976 151.599 96.76 151.62Z" fill="black"/>
<path d="M51.42 297.02C51.28 296.54 51.26 296.54 51.42 297.02Z" fill="black"/>
<path d="M372.68 69.6802C364.68 69.3202 366.68 69.5202 340.68 70.6802C321.46 71.5402 316.68 71.3402 315.28 73.2002C314.14 74.7202 314.92 73.4602 273.5 74.5802C269.24 74.6802 269.32 76.5802 268.44 76.5802C223.94 76.5802 221.58 76.5802 221.26 77.7002C218.3 77.5202 207.4 76.8002 191.6 76.2002C186.9 76.0202 182.22 74.6602 183.1 81.3202C183.52 84.4202 182.46 83.3202 206.94 87.6402C229.36 91.5002 220.06 88.0602 218.66 98.3602C217.56 105.4 215.22 110.52 214.66 114.36C214.42 115.86 212.66 115.96 212.66 116.92C212.66 117.88 211.68 119.16 212.44 120.36C212.6 120.64 212.44 120.98 209.04 128.36C209.04 128.36 199.44 118.12 196.22 116.6C187.78 112.6 189.74 115.54 187.94 112.6C187.3 111.52 186.66 111.58 182.4 112.14C181.12 112.3 181.52 113.7 179.86 113.3C180.92 110.1 182.84 99.3002 182.18 95.9202C186.9 92.2202 185.5 87.3002 181.74 86.1602C180.42 81.4002 180.52 76.7202 178.78 72.1602C192.66 64.1602 194.06 62.3802 178.78 57.6602C177.32 50.5802 177.06 50.1802 175.9 50.4402C175.56 50.4402 175.62 49.8802 175.4 49.4802C175.18 49.0802 174.94 48.5602 174.62 47.9002C170.18 38.6002 159.42 36.3202 149.4 38.3602C148.54 38.5202 148 38.6602 147.68 37.9402C147.462 37.3994 147.039 36.9672 146.503 36.7384C145.966 36.5097 145.361 36.5031 144.82 36.7202C144.347 36.7969 143.917 37.041 143.609 37.4081C143.3 37.7752 143.134 38.2409 143.14 38.7202C143.217 38.9463 143.216 39.1917 143.136 39.4168C143.056 39.6418 142.902 39.8333 142.7 39.9602C138.98 41.9602 121.78 45.2802 122.26 61.2202V61.4202C122.26 64.6802 121.64 63.2202 121.68 64.5802C121.92 74.5802 125.3 69.1002 118.06 76.2202C116.06 78.2202 116.66 80.0402 118.06 80.8202C120.46 82.5202 124.3 82.6602 128.06 83.4202C127.88 86.1602 129.66 87.7602 129.5 88.7402C129.308 90.0823 129.576 91.4499 130.26 92.6202C126 100.62 133.64 102.62 130.46 103.44C115.54 107.28 90.4601 121.96 87.1201 125.62C79.5201 133.9 81.5201 146.8 81.1201 152.6C80.6801 151.28 80.4801 149.72 78.7601 149.5C77.0903 149.285 75.3934 149.456 73.8001 150C70.9201 151 68.5601 152.6 69.4401 154.9C70.0801 157.016 70.9361 159.06 72.0001 161C72.2001 161.18 72.5001 161 72.7801 161.4C73.6081 163.232 74.3161 165.116 74.9001 167.04C75.2401 167.706 75.3721 168.46 75.2801 169.2C74.6601 172.08 71.2801 178 72.2401 182.12C73.8801 188.54 80.5401 208.32 85.1001 212.12C87.8601 214.42 90.9601 212.12 93.3601 211.4C95.0001 220.76 95.3601 221.82 96.2801 225.74C98.8001 235.28 102 230.24 97.0801 234.5C81.3201 248.18 102.86 279.74 118.9 265.26C120.2 264.1 121.42 262.86 122.9 261.46C123.26 263.62 124.24 265.46 123.78 267.46C121.06 269.08 118.48 269.94 119.4 273.1C119.749 273.962 119.887 274.895 119.8 275.82C119.4 277.44 115.94 292.08 115.8 294.42C113.862 294.89 111.968 295.526 110.14 296.32C109.52 290.32 105.82 285.18 103.46 280.32C100.38 273.96 85.7201 262.32 82.5401 261.02C80.8401 260.36 66.0201 252.3 59.3401 251.28C55.6001 250.72 52.9801 251.04 51.0801 250.58C40.8801 248.18 44.1401 248.88 40.8401 248.58C40.515 248.512 40.1768 248.551 39.8757 248.692C39.5747 248.832 39.327 249.065 39.1696 249.358C39.0121 249.65 38.9534 249.985 39.0022 250.314C39.0509 250.642 39.2045 250.946 39.4401 251.18C41.3397 253.487 43.7315 255.339 46.4401 256.6C53.5001 259.8 64.2001 271.92 69.4601 277.42C78.6401 287.02 81.7201 299.56 84.3001 315.08C85.3601 321.46 83.9601 317.08 81.8601 327.82C81.1201 331.58 82.0201 335.72 80.9801 338.78C80.9801 338.9 80.9801 339.08 80.8601 339.26C79.2801 338.66 77.6601 338.32 75.3401 337.48C73.9456 328.617 71.6951 319.909 68.6201 311.48C68.4401 310.98 58.6201 288.24 53.7401 283.12C50.2001 279.36 55.7401 283.56 37.8401 265.92C35.8401 263.92 34.0001 265.24 34.3001 266.92C35.5401 274.08 47.3601 304.92 48.5801 312.16C49.5201 317.42 50.0601 321.56 50.4601 325.38C47.3921 324.814 44.2549 324.726 41.1601 325.12C38.7022 325.204 36.2434 324.982 33.8401 324.46C30.8001 323.9 27.2401 322.3 20.6601 319.42C18.5151 318.447 16.4996 317.211 14.6601 315.74C11.4401 313.74 10.2001 315.5 10.9801 316.86C18.0601 329.04 21.4401 331.24 25.6801 334.22C27.5001 335.48 32.3001 339.3 32.8201 339.72C38.8201 344.4 37.1601 343.88 42.2801 346.12C46.1124 347.179 49.8624 348.516 53.5001 350.12C53.6801 351.14 53.8601 352.12 54.0601 353.32C55.6001 361.7 67.3401 377.04 72.5401 379.54C74.0561 380.166 75.5201 380.908 76.9201 381.76C78.1281 382 79.2721 382.49 80.2801 383.2C82.2801 383.7 84.1201 383.6 85.9801 384C89.9801 384.12 93.4001 383.54 97.4801 383.76C103.48 384.1 103.48 385.22 104.16 385.38C111.8 374.8 110.56 376.26 112.16 367.8C129.48 368.6 130.16 371.14 147.22 369.56C144.862 376.721 141.674 383.581 137.72 390H140.12C149.2 375.66 148 368.26 150 368.12C152.9 367.96 158.48 369.42 161.34 368.02C162.156 367.42 162.834 366.653 163.331 365.77C163.827 364.887 164.13 363.909 164.22 362.9C166.36 364.9 166.22 367.9 168.22 370.26C170.68 373.32 173.22 368.42 173.06 360.88C172.9 353.98 174.06 353.42 173.42 348.88C172.58 342.68 172.2 342.88 173.12 341.88C176.68 337.64 179.68 338.56 185.46 331.74C186.02 333.86 189.46 341.74 190.2 348.14C188.2 349.2 185.88 352.94 187.28 355.84C188.22 357.84 190.64 358.1 189.74 360.42C188.84 362.74 191.1 364.98 192.92 367.76C194.32 369.76 199.08 368.44 204.24 366.54C204.42 373.2 206.78 377.26 209.08 374.4C209.77 373.502 210.304 372.494 210.66 371.42C211.98 367.68 212.82 367.22 213.82 366.38C215.82 373.52 213.54 377.66 211.56 383.54C212.222 383.632 212.892 383.672 213.56 383.66C214.679 380.97 215.556 378.186 216.18 375.34C219.04 361.1 202.82 371.06 248.18 350.22H248.3C252.7 364.74 254.16 370.66 247.58 381.78C246.774 383.278 246.374 384.96 246.42 386.66H248.28C248.338 385.69 248.506 384.732 248.78 383.8C250.17 384.996 251.701 386.017 253.34 386.84C255.112 387.632 256.936 388.302 258.8 388.84C272.3 389.62 273.84 388.2 280.06 387.86C284.06 387.62 287.66 388.2 291.56 388.1C292.04 388 292.5 387.94 292.96 387.88C298.64 387.2 299.3 386.38 304.96 383.64C310.18 381.12 321.92 365.78 323.44 357.4C326.9 338.68 325.86 332.76 328.84 316.18C330.06 309 341.88 278.18 343.12 270.96C343.4 269.28 341.62 267.94 339.56 269.94C321.56 287.6 327.2 283.38 323.66 287.16C318.86 292.26 308.96 315 308.8 315.52C299.86 341 303.64 345.12 296.42 362.68C295.32 355.94 298.18 347.98 296.42 342.8C295.38 339.72 296.3 335.58 295.56 331.84C295.16 329.122 294.372 326.475 293.22 323.98C292.844 322.963 292.41 321.968 291.92 321C292.648 318.014 293.202 314.99 293.58 311.94C294.032 307.22 294.084 302.47 293.74 297.74C293.62 290.7 285.24 273.9 282.88 271.44C281.62 270.14 271.56 256.58 265.92 252.84C262.78 250.84 260.26 249.94 258.72 248.72C250.48 242.26 253.16 244.26 250.32 242.54C250.055 242.338 249.731 242.227 249.397 242.224C249.063 242.221 248.737 242.327 248.468 242.524C248.199 242.723 248.002 243.004 247.907 243.324C247.812 243.644 247.823 243.987 247.94 244.3C248.71 247.171 250.073 249.848 251.94 252.16C257 258.04 261.6 273.54 264.06 280.74C266.102 286.935 266.784 293.498 266.06 299.98C263.978 299.276 261.854 298.702 259.7 298.26C252.7 297.86 251.7 297.84 249.84 298.26C242.4 300.12 243.7 299.48 236.54 304.44C236.04 301.72 235.12 296.44 228.76 278.2C228.36 277.06 227.74 276.04 226.04 271.08C225.852 269.412 225.852 267.728 226.04 266.06C225.78 261.5 222.72 261.68 222.22 260.06C221.396 257.06 220.782 254.006 220.38 250.92C222.8 245.94 220.82 243.3 219.42 239.14C217.56 233.6 219.3 236.12 217.8 231.88C213 218.14 216.06 209.3 211.98 194.88C211.2 192.14 211.5 191.72 213.22 186.4C213.7 184.9 213.9 185.76 216.58 188.2C219.26 190.64 220.16 187.76 222.94 184.02C225.6 184.52 229.3 190.64 237.84 191.9C246.86 193.24 258.08 176.92 289.84 128.4C295.34 120 296.4 118.4 298.26 118.22C298.632 118.18 299.008 118.18 299.38 118.22C310.48 118.76 310.28 117.74 311.5 117.46C312.56 117.967 313.735 118.187 314.907 118.099C316.078 118.012 317.207 117.619 318.18 116.96C319.564 117.398 321.033 117.497 322.463 117.25C323.893 117.003 325.243 116.417 326.4 115.54C327.12 114.94 363.38 124.06 367.72 124.86C391.26 129.34 399.6 70.8802 372.68 69.6802ZM220 87.8402C188.8 82.5202 186.32 83.3202 185.18 81.8402C184.961 81.36 184.847 80.8382 184.847 80.3102C184.847 79.7822 184.961 79.2604 185.18 78.7802C185.282 78.43 185.504 78.1273 185.808 77.9258C186.112 77.7244 186.478 77.6374 186.84 77.6802C211.4 78.9202 218.58 79.3002 219.8 80.0402C221.02 80.7802 219.24 83.0002 220 87.8402ZM269.58 79.2602C270.98 76.5402 270.26 76.4002 309.7 76.4002C303.26 88.6802 304.6 95.9402 305.28 105.54C304.42 105.4 269.4 99.0602 268.88 98.3802C264.96 93.1002 266.5 85.0802 269.54 79.2602H269.58ZM266.74 99.4402C267.8 101.08 268.74 101 281.76 103.44C278.96 115.44 287.22 103.92 261.52 130.44C234.38 158.4 238.16 160.3 232 155C233.08 149.82 233.78 152.12 225.12 143.9C225.739 141.144 226.651 138.462 227.84 135.9C230.94 127.34 229.58 128.2 231 126.22C234.36 121.52 229.96 120.34 235.14 116.22C238.412 113.455 241.086 110.052 243 106.22C244.22 103.5 246.16 104.06 249 99.5002C249.5 98.6015 250.222 97.8463 251.098 97.307C251.973 96.7676 252.973 96.4623 254 96.4202C265.64 98.2202 265.88 98.1802 266.7 99.4402H266.74ZM250.2 78.9202H265.82C263.264 84.1348 262.498 90.0464 263.64 95.7402C254.16 94.1402 256.1 95.2402 257.44 91.7402C258.16 89.7402 257.2 87.9602 255.44 88.6402C253.972 89.3442 252.462 89.9602 250.92 90.4802C246.16 92.0202 249.28 92.6602 244.92 92.6602C245.628 91.5362 246.67 90.6602 247.9 90.1602C254.52 87.3202 255.56 80.4202 251.52 81.4202C248.42 82.1002 250.18 82.7002 250.16 78.9202H250.2ZM243.8 79.1202C242.58 79.8402 242.88 79.9402 242.38 78.8602C243.88 78.7602 243.66 78.6802 243.76 79.1202H243.8ZM225.92 78.5602C237.92 78.5602 236.98 78.3002 237.18 78.9002C225.18 85.7602 228.56 84.2602 224.14 88.9002C221.78 86.2202 223.4 78.5402 225.88 78.5602H225.92ZM220.48 98.7202C221.056 95.427 222.618 92.3863 224.96 90.0002C228.385 86.5928 232.294 83.7085 236.56 81.4402C241.22 78.5802 240.32 78.5602 240.8 80.6602C239.505 81.0317 238.323 81.7189 237.36 82.6602C232.62 87.6402 231.36 86.4402 230.28 89.4202C229.2 92.4002 225.46 93.2802 228.28 94.6602C233.66 89.0602 231.06 90.1802 233.8 88.1802C242.72 81.7402 233.14 86.0402 248.06 79.4602C249.34 80.2002 247.3 82.3602 245.94 83.2002C240.72 86.4202 242.74 84.4802 240.54 86.5002C240.06 86.9402 231.22 94.5002 233.28 96.0602C234.14 96.6402 235 95.2402 235.42 94.3002C236.82 91.3202 239.86 90.3002 241.56 88.0802C242.6 86.6402 242.8 86.9002 251.72 83.3402C251.742 83.787 251.67 84.2334 251.508 84.6504C251.346 85.0674 251.098 85.4455 250.78 85.7602C248.34 88.9202 246.46 87.4802 243.38 91.2802C241.872 92.9942 240.532 94.8494 239.38 96.8202C238.4 98.0802 240.52 100.58 242.3 99.1402C251.14 92.0202 246.3 94.1802 255.78 90.7402C255.78 93.9602 252.2 94.1002 249.58 96.4602C247.58 98.1602 246.88 100.28 243.58 102.76C242.52 103.52 241.08 106.5 238.8 109.9C235.28 115.12 233.02 114.36 231.42 118.32C230.46 120.58 231.02 120.32 228.28 119.42C227.32 116.52 226.92 113.64 222.5 112.88C221.538 112.747 220.558 112.816 219.625 113.085C218.691 113.354 217.824 113.815 217.08 114.44C216.66 111.72 219.4 106.26 220.44 98.7202H220.48ZM241.68 97.1202C241.65 96.744 241.711 96.3662 241.857 96.0182C242.003 95.6703 242.231 95.3624 242.52 95.1202C242.8 94.8202 243.48 94.8402 243.96 94.7202C244.14 95.2402 244.46 94.7802 241.64 97.1202H241.68ZM219.98 115.12C224.76 112.96 228.56 121.12 223.04 124.08C217.52 127.04 213.62 117.88 220 115.04L219.98 115.12ZM208.38 130.28C198.38 149.04 200.58 147.1 199.76 146.88C197.117 136.415 193.892 126.106 190.1 116C196.78 117 203.3 124.86 208.34 130.2L208.38 130.28ZM186.88 113.54C187.955 115.403 188.813 117.383 189.44 119.44C192.88 129.12 195.06 135.86 196.4 140.64C199.54 151.84 198 152.2 197.14 154C192.46 141.38 198.4 154 183.14 114C184.343 113.595 185.615 113.438 186.88 113.54ZM181.66 114.98C184.793 121.532 187.427 128.312 189.54 135.26C197.18 160.88 196.78 154.22 192.5 161.02C184 174.52 186.62 174.72 182.32 171.88C171.88 165.02 147 147.48 146.64 147.24C145.88 137.56 141.98 126.24 135.1 118.98C135.975 118.238 137.093 117.846 138.24 117.88C138.84 121.02 138.42 122.36 142.24 125C144.231 126.258 145.978 127.863 147.4 129.74C148.92 133.04 153.14 134.66 155.9 136.94C159.74 140.12 160.48 142.54 166.34 144.16C171.88 145.68 171.94 124.32 171.16 118.76C173.66 117.8 176.02 118.28 177.16 114.98H181.66ZM106.46 177.26C108.08 177.02 110.16 176.76 112.84 176.48C116.894 188.239 119.304 200.502 120 212.92C120.16 215.68 121.36 216.3 118.92 216.48C116.48 216.66 117.7 220.48 118.6 222.76C118.8 223.28 119.4 223.64 119.86 224.02C120.32 224.4 120.98 224.24 121.56 224.02C122.98 223.5 122.66 223.26 123.18 229.9C113.46 234.22 119.72 233.46 106.46 177.26ZM115.36 231.62C108.58 232.66 109.72 239.42 105.02 215C103.66 207.96 100.14 190.42 97.2401 179.3C99.8577 178.49 102.532 177.875 105.24 177.46C106.42 185.64 115.64 231.58 115.36 231.62ZM125.82 181.08C129.46 190.48 138 190.74 135.22 197.94C132.16 205.94 131.22 210.08 122.48 215.74C120.72 208.94 120.64 197.08 119.54 193.74C118 189.1 116 180 115.52 178.7C112.06 169.26 112.24 151.86 113.62 161.4C114.7 168.86 123.56 175.26 125.82 181.08ZM120.94 222.32C120.14 222.48 120 221.22 119.28 218.32C120.562 217.92 121.82 217.44 123.04 216.88C132.26 212.66 133.96 206.1 136.3 200.08C136.901 198.824 137.267 197.468 137.38 196.08C137.481 195.613 137.628 195.158 137.82 194.72C140.54 197.72 141.1 198.14 140.96 198.9C140.251 203.239 138.746 207.409 136.52 211.2C134.74 214.08 133.66 218.2 126.68 220.4C124.5 221.2 122.16 222 120.94 222.32ZM131.86 186.7C127.28 182.26 128.4 180.34 123.86 174.58C117.86 166.98 115.76 165.16 115.34 161.3C114.36 152.78 104.14 146 114 133.46C119.04 127.06 116.88 130.74 127.02 122.08C131.48 125.64 131.74 127.24 135.84 134.08C136.854 136.069 137.472 138.236 137.66 140.46C137.66 140.6 137.66 140.7 137.26 141.18C137.095 141.372 137.005 141.617 137.005 141.87C137.005 142.123 137.095 142.368 137.26 142.56C140.539 145.68 144.234 148.332 148.24 150.44C153.88 154.72 165.92 163 168.08 164.84C170.54 166.84 171.56 165.08 167.24 168.54C156.04 177.5 151.44 184.54 145.52 193.22C142 198.46 147.72 202.12 131.86 186.7ZM126.3 118.16C130.6 115.56 130.7 117.04 133.3 119.6C141.76 127.96 144.62 144.26 144.5 145.84C142.823 145.004 141.301 143.888 140 142.54C139.34 141.98 140.24 137.62 136.14 130.94C130.78 122.06 133.84 125.7 126.14 118.94C126.058 118.855 126.009 118.743 126.004 118.625C125.999 118.506 126.037 118.39 126.112 118.298C126.162 118.237 126.227 118.19 126.3 118.16ZM180 104.16C178.5 107.72 179.84 110.88 177.84 112.16C174.54 114.32 175.96 115.78 173.48 116.16C169.02 116.9 168.66 119.04 166.12 118.16C164.848 117.668 163.476 117.489 162.12 117.64C160.82 118.06 160.82 117.36 158.28 116.24C158.14 116.24 155.64 115.32 155.72 114.5C155.72 113.28 155.1 112.94 153.96 111.32C154.4 109.98 154.9 109.32 153.96 108.08C151.96 105.52 154.88 104.28 154.76 102.08C154.76 100.5 156.46 100.72 157.16 100.46C157.99 100.038 158.638 99.3265 158.98 98.4602C160.02 98.3002 161.62 98.7802 162.8 97.0802C163.98 95.3802 164.94 97.8602 167.08 96.6202C168.86 95.6202 169.08 97.6202 171.5 96.8602C172.82 96.4202 173.06 96.8602 176.68 97.4202C177.86 98.2802 178 99.9202 179.32 100.66C179.74 101.82 180.54 102.86 180 104.1V104.16ZM180.48 99.1402C179.44 98.9202 179.7 97.7202 178.62 97.1402L180.78 96.5002C180.917 96.9268 180.961 97.3777 180.91 97.8227C180.858 98.2678 180.711 98.6965 180.48 99.0802V99.1402ZM141.44 42.2402C139.3 44.5602 133.24 50.5402 135 58.6602C135.32 60.1802 136.78 60.4602 136.58 58.6602C135.78 51.7202 138.36 47.6402 143.22 42.7802C143.76 42.2602 144.76 41.3802 145.22 41.4202C145.68 41.4602 145.7 42.0002 145.8 42.6402C145.9 43.2802 146.22 46.1602 146.68 52.2402C146.86 54.6802 146.9 55.9202 147.42 56.4602C147.478 56.5246 147.549 56.576 147.628 56.6112C147.708 56.6464 147.793 56.6645 147.88 56.6645C147.967 56.6645 148.053 56.6464 148.132 56.6112C148.211 56.576 148.282 56.5246 148.34 56.4602C149.12 55.3402 148.7 53.2802 148.54 51.5402C147.46 40.7602 146.78 40.5802 149.36 40.4802C157.72 40.7402 160.9 47.6802 162.64 52.0802C163.14 53.3402 163.68 53.3202 163.86 53.2802C165.2 52.9602 164.38 51.7402 162.86 48.1802C161.957 46.1999 160.67 44.4184 159.073 42.9387C157.477 41.4591 155.603 40.3108 153.56 39.5602C160.9 38.9202 168.84 41.0602 173.02 48.3602C174.04 50.1002 173.68 50.9802 172.82 51.5202C170.146 52.8897 167.387 54.0855 164.56 55.1002C154.56 58.9002 135.38 64.4202 124.9 63.0002C124 62.8202 124 62.0002 124 61.3002V61.1002C123.74 50.3402 134.1 44.4002 141.44 42.2402ZM124.5 64.4602C131.24 65.6402 151.04 63.9202 175.7 52.3202C176.296 53.9822 176.706 55.7062 176.92 57.4602C166.76 63.9202 137.72 72.9402 124.5 70.6802C123.52 64.5402 123.14 64.2402 124.5 64.4602ZM126.74 81.2002C113.84 79.8802 119.4 77.2002 124 72.8602C135 74.1202 152.14 69.8202 162 66.3602C171.86 62.9002 175.56 60.0002 178 59.3402C179.66 58.9002 187.7 61.9802 187.66 63.3402C187.66 66.2802 173.42 73.0402 154.84 78.3402C145.738 81.058 136.203 82.0284 126.74 81.2002ZM140.36 83.1002C143.72 82.8602 145.64 82.0802 146.06 83.3002C146.48 84.5202 145.62 86.2402 145.7 86.9202C145.84 88.0202 147.22 88.0202 147.28 88.9202C147.34 89.8202 146.78 90.3402 146.76 91.4802C146.946 92.1622 147.18 92.8302 147.46 93.4802C147.535 93.7892 147.53 94.1121 147.446 94.4186C147.362 94.7252 147.201 95.0055 146.98 95.2332C146.758 95.4609 146.482 95.6287 146.178 95.7209C145.874 95.8131 145.551 95.8266 145.24 95.7602C141.74 95.2802 144.24 93.2402 141.1 91.7602C139.623 90.4257 137.69 89.7096 135.7 89.7602C134.267 89.8807 132.889 90.3699 131.7 91.1802C130.28 89.4402 131.98 88.9802 130.66 86.7002C128 82.0002 131.08 83.7602 140.36 83.1002ZM133.58 92.4602C133.989 92.1063 134.475 91.8533 135 91.7213C135.524 91.5893 136.072 91.5821 136.6 91.7002C142.94 93.4602 141.44 96.4802 142.6 96.9002C146.1 98.1602 148.6 97.0202 149.1 95.3602C149.5 94.2802 148.74 93.0402 148.36 91.6402C147.98 90.2402 149.82 88.4202 148.36 87.4002C146.9 86.3802 148.36 85.7402 147.4 82.2602C172.22 75.5202 167.4 76.2602 177.52 72.5402C178.18 75.5802 176.78 72.3402 174.12 75.7202C173.78 76.1602 173.5 77.0202 174.3 77.3802C175.1 77.7402 175.58 76.4002 176.5 75.9402C177.42 75.4802 178.5 75.9402 178.64 77.2402C180.16 86.1202 180.64 85.4802 179.94 86.0202C178.26 85.7802 177.32 86.1602 175.94 84.3402C174.22 81.9402 172.8 87.1002 178.72 87.8202H180.86C181.223 87.8382 181.578 87.9275 181.906 88.083C182.234 88.2385 182.528 88.4572 182.772 88.7266C183.015 88.996 183.203 89.3108 183.325 89.6529C183.446 89.995 183.499 90.3577 183.48 90.7202C183.34 93.9402 177.7 96.7202 173.8 94.7202C173.42 94.5402 171.04 95.6002 169.46 94.9202C169 94.7249 168.499 94.6447 168 94.6865C167.502 94.7283 167.021 94.8909 166.6 95.1602C165.68 95.7402 162.6 93.8002 160.94 96.6802C160.04 96.8202 158.54 96.3002 157.2 98.2002C156.22 99.6202 152.74 98.6402 153 102.1C153 103.18 152.3 103.8 151.62 106.86C151.38 108 153.1 108.86 152.3 110.86C151.5 112.86 153.64 113.02 153.92 115.08C154.2 117.14 155.92 117.26 156.94 117.76C163.44 120.84 161.22 118.54 164.6 119.94C165 123.74 165.02 124.84 165.54 125.38C167.14 127.08 166.88 125.08 166.86 124.72C166.51 123.252 166.329 121.749 166.32 120.24C170.56 119.66 170.74 117.06 168.94 137.38C168.02 147.7 161.86 138.72 153.28 132.86C146.98 128.56 150.22 127.94 143.08 123.38C138.78 120.64 140.36 119.78 141.08 108.48C142.08 107.16 143.3 106.04 142.34 105.32C141.76 104.88 141.24 105.32 140.82 105.8C138.94 108.34 135.46 106.32 134.52 104.42C133 101.48 127.44 95.7602 133.58 92.4602ZM99.5801 119.2C99.5801 119.2 120.22 108.14 128.86 105.68C134.64 104.02 131.02 105.14 135.12 107.86C139.22 110.58 139.58 105.68 138.9 114.76C138.9 116.1 138.02 115.6 134.5 116.96C131.74 118.04 133.48 112.72 125.08 116.54C124.759 116.657 124.473 116.855 124.25 117.114C124.027 117.373 123.874 117.685 123.806 118.02C123.738 118.355 123.757 118.702 123.861 119.028C123.965 119.353 124.15 119.647 124.4 119.88C124.7 120.2 125.04 120.46 125.44 120.84C123.935 122.71 122.089 124.278 120 125.46C118.028 126.665 116.202 128.094 114.56 129.72C109 118.34 99.1401 120.4 97.5801 120.52C96.9601 120.56 97.4801 120.36 99.6401 119.2H99.5801ZM84.6601 132.9C85.5059 130.124 87.1676 127.666 89.429 125.847C91.6905 124.028 94.447 122.932 97.3401 122.7C105.62 121.92 109.34 123.22 113.18 131.54C110.455 134.454 108.749 138.174 108.32 142.14V144.02C108.048 146.604 108.419 149.215 109.4 151.62C111.4 156.22 110.36 158.08 111.92 172.12C112.16 174.38 112.9 174.6 110.86 174.8C99.7001 175.9 87.7201 180.7 86.6001 174.8C85.6201 169.72 84.1201 164.36 83.4201 158.46C82.7401 150.72 82.0001 140.3 84.7201 132.9H84.6601ZM88.2201 186.32C87.0801 186.06 86.2201 185.84 85.2201 185.64C87.7401 178 86.7401 177.84 88.2801 186.32H88.2201ZM74.7001 151.2C76.1401 150.7 78.3401 150.44 78.5601 150.86C78.7801 151.28 76.3401 152.16 75.0601 152.52C73.7801 152.88 71.5601 153.8 71.0601 153.3C70.5601 152.8 73.5801 151.56 74.7001 151.2ZM73.8601 159.74C73.5796 159.713 73.3107 159.614 73.0795 159.453C72.8483 159.292 72.6625 159.074 72.5401 158.82C69.7601 152.32 70.8001 156.54 79.1401 152.56C79.2462 152.513 79.3668 152.509 79.4754 152.551C79.5841 152.592 79.6721 152.674 79.7201 152.78C80.2521 154.254 80.6461 155.774 80.9001 157.32C78.8213 158.76 76.3849 159.598 73.8601 159.74ZM76.3801 170.68C77.3001 168.2 76.3801 166.88 74.3801 161.14C76.8393 160.861 79.2114 160.063 81.3401 158.8C82.0401 161.24 82.9201 165.32 83.3401 168.2C82.0265 168.963 80.5159 169.318 79.0001 169.22C78.8148 169.224 78.6359 169.288 78.4912 169.404C78.3465 169.52 78.2442 169.68 78.2001 169.86C78.0401 170.66 78.4401 170.88 79.1401 170.92C80.6368 171.001 82.1227 170.625 83.4001 169.84C84.3201 171.04 84.4001 175.34 85.8001 177.56C86.2801 178.32 85.8001 179.02 83.9601 185.02C80.4601 183.98 77.0801 183.02 73.7801 181.72C73.5001 177.08 74.4201 176.24 76.3801 170.68ZM74.9801 186C74.4601 183 70.5201 182.6 88.5601 188.24C88.8201 189.48 89.0401 190.64 89.3001 191.9C84.7278 190.706 80.2756 189.093 76.0001 187.08C75.7413 187.023 75.5057 186.89 75.3237 186.697C75.1418 186.505 75.0221 186.262 74.9801 186ZM80.0001 199.54C76.0001 189.96 75.1201 188.26 76.1801 188.78C77.2401 189.3 80.3801 190.78 82.1801 191.48C80.1801 200.46 80.5201 199.46 80.0001 199.54ZM83.4201 192.72C83.6401 191.82 83.4201 191.98 86.6801 192.72C84.4401 201.04 85.4201 197.6 82.9001 205.88C80.7001 201.38 80.8401 203.56 83.4401 192.72H83.4201ZM88.1201 211.44C87.2201 211.44 85.9601 211.66 84.2401 208.66C83.6801 207.7 84.4401 206.04 88.1201 193.36C91.2601 193.82 88.7801 195.74 92.9401 209.14C93.1401 209.76 90.2601 211.26 88.1401 211.44H88.1201ZM97.1801 221.3C94.5801 206.16 91.1801 196.24 88.9801 179.46C91.4201 179.78 93.7801 179.02 96.3201 179.46C95.8601 182.1 97.6001 186.38 107.04 233.04C102.16 232 99.0201 232 97.2001 221.3H97.1801ZM117.7 262.68C117.858 260.82 117.661 258.947 117.12 257.16C117.092 257.06 117.025 256.976 116.935 256.924C116.845 256.872 116.739 256.857 116.638 256.882C116.571 256.898 116.51 256.932 116.46 256.98C116.08 257.34 116.14 257.6 116.2 258.12V258.32C116.568 260.204 116.5 262.147 116 264C114.8 268.32 104 271.2 96.0001 256.3C94.7429 254.028 93.9029 251.549 93.5201 248.98C92.5201 241.1 97.7801 236.5 101.9 238.12C112.5 242.34 111.9 250.12 113.68 249.5C116.8 248.52 107.3 234.36 98.3201 235.9L101.16 233.7C103.304 234.35 105.498 234.818 107.72 235.1C110.82 234.88 114.6 239.1 115.9 241.7C117 243.86 117.24 243.46 118.38 242.92C117.067 239.57 114.826 236.663 111.92 234.54C118.36 233.04 115.74 233.56 116.42 234.18C119.82 237.24 119.34 236.88 120.42 236.38C120.54 235 119.2 234.56 118.64 233.64C125.26 231.52 124.64 230.02 120.38 244.06C119.8 245.314 119.499 246.679 119.499 248.06C119.499 249.442 119.8 250.807 120.38 252.06C121.7 254.64 119.18 255.28 122.22 258.56C121.24 261.2 119.44 262.84 117.72 262.68H117.7ZM116 296.38C116.324 298.332 116.518 300.302 116.58 302.28C115.365 302.238 114.148 302.285 112.94 302.42C112.819 302.454 112.709 302.517 112.62 302.605C112.53 302.692 112.465 302.801 112.429 302.921C112.393 303.041 112.388 303.168 112.414 303.29C112.441 303.412 112.498 303.526 112.58 303.62C113.08 304.08 112.22 303.96 116.58 304.06C115.987 308.075 114.995 312.022 113.62 315.84C104.8 310.78 94.9801 313 91.0201 316.06C87.0601 319.12 85.9001 320.46 86.7001 318.72C90.9401 309.34 102.96 299.38 116 296.38ZM100 345.56C100.201 346.34 100.238 347.152 100.111 347.947C99.9837 348.742 99.694 349.502 99.2601 350.18C98.3513 351.853 98.0408 353.787 98.3801 355.66C100.76 359.26 100.38 358.86 102.68 359.94C103.68 360.4 104.52 360.76 105.26 361.04L104.98 361.28C100.82 364.68 102.04 364.7 100.52 366.44C95.3601 357.36 95.1401 357.68 92.2201 345.78C90.8001 339.92 89.2601 335.6 90.7801 329.78C92.1201 324.68 96.7801 319.42 98.5001 318.88C99.0907 325.822 100.065 332.726 101.42 339.56C100.789 340.412 100.338 341.383 100.094 342.414C99.8497 343.446 99.8178 344.516 100 345.56ZM88.6601 351.34C88.4177 350.018 88.2574 348.682 88.1801 347.34C90.8401 350.66 90.2801 351.08 92.5001 353.72C93.995 358.97 96.4573 363.894 99.7601 368.24C97.6001 374.24 97.4201 374.62 97.4201 378C94.5201 374.88 92.7801 368 88.8001 363.62C88.3551 361.963 88.2935 360.225 88.6201 358.54C89.0777 356.16 89.0573 353.713 88.5601 351.34H88.6601ZM88.2001 344.46C88.3021 343.1 88.5721 341.756 89.0001 340.46C89.5001 341.88 90.0001 344.46 90.7001 347.5C89.9348 346.404 89.0639 345.386 88.1001 344.46H88.2001ZM100.2 317.74C102.94 316.64 106.48 314.32 110.82 316.32C110.82 318.94 110.68 324.16 110.62 330.1C110.073 332.236 109.405 334.34 108.62 336.4C107.9 338.4 107.2 335.76 103.08 338.14C101.6 332.52 101.02 326.36 100 317.74H100.2ZM62.5401 267.28C51.9201 255.84 45.3001 254.64 41.2601 250.38C46.2401 250.78 50.5201 252.88 54.1201 252.68C65.5401 252.08 94.1201 267.88 101 279.7C103.38 283.8 108 292 108.46 296.7C104.888 298.572 101.447 300.683 98.1601 303.02C95.8801 300.9 100.42 282.54 72.9601 265.24C65.9401 260.82 65.3001 260.4 64.4601 260.18C63.6201 259.96 62.6801 261.04 63.9201 261.78C92.6201 279.08 92.2201 285.5 96.4401 303.5C96.7201 304.76 94.1201 305.6 86.1201 315.02C80.9201 282.7 74.5601 280.24 62.5401 267.28ZM80.5401 340.72C79.9201 345.8 81.9601 352.6 80.9801 358.46C78.3716 352.208 76.5704 345.648 75.6201 338.94C77.2701 339.41 78.8801 340.004 80.4401 340.72H80.5401ZM35.8201 340.4C26.6001 331.34 18.0001 328.56 13.2201 316.92C37.2201 331.72 42.3601 324.92 50.5401 327.06C50.9001 330.8 51.1801 334.32 51.6601 338.44C45.8001 334.74 42.1601 330.8 40.3201 334.02C40.5601 334.16 40.7801 334.38 41.0201 334.4C45.0201 334.68 47.0201 338.08 51.9401 340.86C52.2401 343.18 52.5801 345.6 53.0201 348.28C46.9401 345.6 40.6201 345.28 35.7201 340.4H35.8201ZM81.2601 381.4C74.8601 378.44 71.8801 377.26 69.8001 375.12C63.6201 368.76 62.0201 364.22 60.1401 362.66C57.1601 360.16 54.9601 349.22 54.5201 346.66C52.7401 336.66 53.9801 320.34 46.2801 297.66C36.5001 268.8 36.0601 269.54 36.2801 266.52C45.4401 275.62 51.9001 281.86 54.5801 286.84C80.0801 334.22 69.5801 336.42 79.5201 359.34C82.2751 364.274 83.6111 369.874 83.3801 375.52C63.1201 358.5 67.1801 356.32 63.0001 332C60.8401 319.36 54.3201 298.42 52.5201 297.06C49.3601 294.7 60.3201 317.38 63.5401 347.8C65.8201 371.4 84.4801 376 84.2601 378.34C84.3061 379.6 84.6801 380.826 85.3401 381.9C83.9276 382.136 82.4771 381.963 81.1601 381.4H81.2601ZM86.5001 379.26C86.3995 378.867 86.3392 378.465 86.3201 378.06C86.3201 376.82 84.7401 374.06 84.7801 370.32C84.8201 366.58 83.4201 364.7 83.0801 359.86C83.2801 356.89 83.2801 353.91 83.0801 350.94C81.3201 342.12 84.1001 336.94 83.4001 333.76C83.2601 333.14 84.2601 324.38 88.3801 320.54C90.214 318.561 92.4533 317 94.9453 315.964C97.4373 314.929 100.123 314.443 102.82 314.54C93.1801 318.24 88.4401 326.34 88.3801 333.3C88.161 336.123 87.6036 338.91 86.7201 341.6C85.3001 348.7 87.7001 352.04 87.0601 355.92C85.9401 362.8 87.7601 366.2 87.7001 368.42C87.4072 372.205 88.0031 376.006 89.4401 379.52C88.4217 379.51 87.4055 379.423 86.4001 379.26H86.5001ZM87.7601 382.08C87.5601 381.72 87.3601 381.36 87.1801 380.98L90.1601 381.1C90.5401 382 90.2601 382 87.6601 382L87.7601 382.08ZM89.3201 367.54C91.2048 371.496 93.3357 375.331 95.7001 379.02C94.3302 379.316 92.9393 379.503 91.5401 379.58C88.4601 371.16 89.7601 373.36 89.2201 367.54H89.3201ZM97.3201 381.8L92.2001 381.7C92.2001 381.5 92.0601 381.32 92.0001 381.12C94.1601 381.12 95.8801 381.12 97.3201 380.94V381.8ZM103.5 382.6L99.5001 381.94C98.9529 377.214 99.823 372.431 102 368.2C104 363.76 104.58 364.2 107.3 361.72C109.3 362.18 110.02 361.84 111.12 362.8C108.26 377.44 109.02 375.36 103.5 382.6ZM162.36 361.82C162.14 364.14 161.38 366.62 159.02 366.7C149.68 367.06 123.56 364.7 110.18 360.8C104.18 359.08 100.18 357 100.18 354.56C100.18 349.78 102.5 350.16 101.92 347.1C100.76 340.88 103.92 338.48 107.78 339.1C107.18 343.56 107.78 343.32 106.1 340.64C103.14 342.86 107.7 347 110.92 347.18C114.15 347.566 117.316 348.366 120.34 349.56C125.02 351.24 150.56 354.58 164.34 353.2C166.82 357.8 162.88 356.32 162.36 361.82ZM169.42 369.3C167.2 363.94 167.42 363.82 164.54 360.54C165 359.32 166.54 357.84 167.04 356.02C168.28 355.38 166.54 354.38 165.52 348.52L171.1 344C172.1 356.62 171.54 349.02 171.1 358.46C170.98 362 171.88 365.6 169.42 369.3ZM168.1 344.14C167.2 345.024 166.208 345.808 165.14 346.48C168.66 335.78 169.14 332.6 169.48 329.98C174.455 328.914 179.241 327.107 183.68 324.62C183.9 325.74 184.26 327.34 184.84 329.66C180.18 334.72 174.32 338 168.1 344.14ZM169.72 328.14C170.5 322.64 174.1 312.46 176.72 305.16C183.84 322.86 182.9 320.02 183.36 322.98C178.956 325.019 174.395 326.698 169.72 328V328.14ZM207.72 373.46C206.314 371.197 205.702 368.53 205.98 365.88C207.58 365.28 209.18 364.66 210.7 364.12C212.7 363.38 212.7 362.98 213.02 364.22C209.7 368 210 367.8 207.72 373.4V373.46ZM234.96 352.84C231.48 354.12 225.68 355.54 224.8 355.92C194.5 368.82 195.32 368.92 191.78 363.24C191.516 362.891 191.342 362.482 191.272 362.05C191.203 361.618 191.24 361.175 191.38 360.76C191.84 355.06 186.78 356.2 189.04 352.1C189.98 350.4 189.4 350.42 193.34 351.68C197.28 352.94 220.06 342.34 227.72 340.62C229.302 340.232 230.847 339.711 232.34 339.06C237.72 336.84 236.78 338.06 240.46 336.76C248.3 334.02 248.74 334.2 248.46 332.56C248 332.56 246.14 332.42 246.78 332.18C251.02 330.48 254.34 333.64 253.78 334.98C253.523 335.848 253.479 336.765 253.653 337.653C253.827 338.541 254.214 339.374 254.78 340.08C255.416 341.696 255.918 343.362 256.28 345.06C256.5 345.68 256.12 346.5 255.98 347.28C248 347.68 242.84 349.86 234.96 352.78V352.84ZM255.56 337.56C254.38 335.78 256.94 334.4 254.24 331.86C253.652 331.306 252.976 330.853 252.24 330.52L254.72 328.04C256.302 326.782 257.959 325.62 259.68 324.56C265.04 321.16 264.44 321.24 264.54 322.46C264.78 324.88 265.38 353.44 263.68 354.86C261.712 352.559 259.544 350.437 257.2 348.52C259.04 345.16 257.5 340.4 255.56 337.5V337.56ZM249.4 382L249.66 381.56C252.262 377.604 253.652 372.975 253.66 368.24C254.09 368.54 254.538 368.814 255 369.06C264.26 373.94 261 374.68 269 386.92C265.582 387.795 261.999 387.803 258.577 386.944C255.154 386.085 252 384.386 249.4 382ZM277.58 386C272 386.88 272.08 387.1 271.28 386.44C267.16 383.06 265.54 371.96 258.36 368.74C256.628 367.964 255.018 366.94 253.58 365.7C253.358 362.627 252.822 359.584 251.98 356.62C250.56 351.54 250.14 352.62 253.52 351.42C254.488 351.102 255.376 350.576 256.12 349.88C257.432 350.822 258.627 351.916 259.68 353.14C264.96 359.14 262.66 358.36 266.94 362.96C272.34 368.76 272.52 366.56 275.1 372.26C277.278 376.491 278.142 381.275 277.58 386ZM266.52 320.36C270.86 318.36 274.4 320.68 277.14 321.78C275.34 337.02 276.12 330.5 275.74 333.4C273.24 353.62 268.88 351.7 272.02 353.12C277.24 345.86 278.02 328.48 278.74 323C280.5 323.54 285.12 328.8 286.46 333.9C287.98 339.64 286.46 343.9 285.02 349.9C282.1 361.8 281.94 361.4 276.72 370.56C275.2 368.84 276.42 368.82 272.26 365.4C270.36 363.84 264.98 358.88 265.46 356.54C267.58 346 266.36 326.48 266.52 320.42V320.36ZM279.82 386C279.82 378.62 280.24 380.2 277.48 372.48C285.16 362.9 286.66 349.28 288.22 344.66C289.259 348.198 289.383 351.942 288.58 355.54C288.094 357.936 288.094 360.405 288.58 362.8C288.714 363.78 288.768 364.77 288.74 365.76C286.24 380.06 289.8 372.38 284.9 385.9L279.82 386ZM322.72 291.12C325.4 286.12 331.86 279.9 341.02 270.78C341.18 273.82 340.82 272.78 331.02 301.94C323.3 324.62 324.56 340.76 322.78 350.94C322.34 353.4 320.12 364.36 317.16 366.84C315.28 368.4 313.68 372.96 307.5 379.3C305.5 381.46 302.44 382.62 296.04 385.6C294.715 386.158 293.257 386.325 291.84 386.08C292.518 385.021 292.898 383.798 292.94 382.54C292.72 380.18 311.38 375.52 313.82 352.06C317.14 321.22 328 298.96 324.84 301.34C323.02 302.7 316.52 323.64 314.36 336.26C310.16 360.62 314.22 362.78 293.98 379.78C293.74 374.68 294.836 369.606 297.16 365.06C308.82 340.16 296.78 339.2 322.72 291.04V291.12ZM293.88 337.94C293.16 341.08 295.98 345.94 294.2 355.14C294 358.104 294 361.076 294.2 364.04C293.86 368.88 292.46 370.44 292.5 374.52C292.54 378.6 290.98 380.94 290.96 382.24C290.802 383.668 290.308 385.039 289.52 386.24C283.4 386.08 290.04 386.64 289.52 372.64C289.52 370.46 291.26 366.96 290.16 360.14C289.52 356.14 291.92 353.56 290.5 345.8C289.615 343.11 289.057 340.324 288.84 337.5C288.84 330.56 284.04 322.46 274.4 318.74C277.096 318.648 279.781 319.135 282.272 320.171C284.764 321.206 287.003 322.764 288.84 324.74C293.02 328.48 294 337.24 293.88 337.86V337.94ZM261.88 268.84C257.06 253.98 251.56 250.12 249.68 244.54C254.04 247.02 257.04 250.7 260.38 252.04C271.02 256.3 290.38 282.68 291.54 296.3C292.4 305.62 292.48 310.74 290.44 318.94C288.534 316.36 286.406 313.95 284.08 311.74C282.948 310.728 281.873 309.653 280.86 308.52C282.5 301.68 284.6 288.16 270.56 268.98C265.66 262.28 265.22 261.66 264.56 261.14C263.9 260.62 262.56 261.28 263.46 262.42C280.86 285.24 281.46 292.84 279.46 306.22C279.42 306.607 279.234 306.965 278.94 307.22C276.22 305.54 269.94 301.86 267.82 300.74C269.4 286.74 265.86 280.78 262 268.76L261.88 268.84ZM237.88 305.62C254.04 290.84 282.94 306.42 290.56 322.9C291.36 324.64 290.42 323.52 286.24 320.26C282.06 317 270.76 314.6 261.44 321.46C258.64 323.151 255.967 325.043 253.44 327.12C252.259 327.953 251.161 328.898 250.16 329.94C248.823 329.886 247.485 329.953 246.16 330.14C244.74 326.8 243.18 322.14 241.64 317.84C247.48 315.3 248.16 308.46 258.08 308.28C258.08 308.28 264.08 308.28 264.08 308.16C265.16 307.86 265 306.56 264.08 306.54C255.12 306.3 250.6 306.54 244.74 313.3C243.728 314.502 242.474 315.476 241.06 316.16C239.905 312.863 238.569 309.631 237.06 306.48C237.2 306.14 237.52 305.84 237.86 305.54L237.88 305.62ZM220.58 261.62C227.2 266.48 221.92 266.04 225.3 274.82C228.81 283.54 231.704 292.495 233.96 301.62C235.96 311.4 236.5 307.9 244.94 333.02C234.04 337.44 241.12 333.68 213.74 343.4C198.4 348.84 199.04 350.2 192.46 349.72C188.24 330.4 187.94 336.44 186.22 326.88C184.72 318.58 183.64 317.5 179.52 306.88C178.72 304.88 180.16 304.88 182.16 303.92C192.74 299.08 198.84 302.74 199.7 301.34C201.56 298.3 187.92 299.34 184.24 300.44C174.62 303.28 177.44 297.56 172.02 314.16C170.84 317.78 169.7 320.36 168.56 324C167.42 327.64 168.56 329.56 165.54 337.78C162.9 344.74 164.58 344.12 161.12 351.78C157.68 351.64 154.92 352.46 151.44 351.64C150.24 351.34 125.44 349.8 120.26 347.5C105.92 341 106.72 356.18 114.76 317.5C115.2 315.32 115.14 317.26 117.26 309.74C118.92 303.74 115.64 298.38 129.26 331.6C129.68 332.62 130.2 333.86 131.26 333.3C133.04 332.3 123.42 314.36 119.64 301.94C117.3 294.22 116.58 298.62 121.5 276.22C122.2 272.98 119.06 270.7 125 269.4C126.64 269.04 123 269.6 133.9 270.1C141.52 270.42 139.64 270.26 140.36 272.1C141.08 273.94 142 273.36 145.6 273.22C147.6 273.22 147.6 272.24 147.74 270.3C167.925 269.998 188.063 268.254 208 265.08C208.3 266.04 208.32 266.76 209.26 266.78C214.64 266.92 215.26 265.74 215.52 264.34H214.04C209.68 265.46 209.52 265.98 209.6 262.94C209.594 259.508 208.914 256.111 207.6 252.94C210.96 252.12 212.66 251.24 212.78 253.34C212.9 256.62 214.18 260 213.84 263.56C213.858 263.824 213.904 264.086 213.98 264.34H215.46C215.46 263.88 215.6 263.44 215.7 263C218.94 262 217.7 262.38 220.56 261.54L220.58 261.62ZM139.26 261.82C139.42 263.94 139.56 266.16 139.74 268.58C135.104 268.598 130.471 268.364 125.86 267.88C125.72 254.78 119.24 262.96 139.24 261.74L139.26 261.82ZM146 271.38L142.26 271.78C141.328 267.571 140.859 263.272 140.86 258.96C148 258 144.72 256.42 146 271.38ZM147.26 259.68C149.58 260.28 170.12 259.58 174.48 259.12C175.118 261.825 175.373 264.605 175.24 267.38C143.68 267.38 147.36 273.86 147.26 259.68ZM176.3 259.02C177.5 258.7 193.96 256.8 194.3 256.72C194.52 258.1 195.5 265.28 195.5 265.34C195.1 265.44 178.12 267.34 177.74 267.2C176.6 266.96 176.92 265.5 176.3 259.02ZM196.12 256.66C206.56 255.26 206.54 254.02 206.92 256.02C208.52 264.42 210.2 263.02 199.54 264.62C196.5 265.08 197.5 266 196.12 256.66ZM215.7 261.1C215.26 258.58 214.88 256.24 214.46 253.84L218.98 252.42C219.32 254.78 219.66 257.18 220.04 259.88L215.7 261.1ZM212.84 212.1C214.2 232.24 216.48 230.6 216.52 235.84C216.52 239.68 219.86 242.38 219.5 247.66C219.26 250.94 217.38 251.26 214.2 251.88C213.8 250.3 213.08 249.74 211.66 250.16C210.438 250.522 209.186 250.776 207.92 250.92C205.48 251.26 206.92 253.08 204.6 253.34C195.26 255.2 188.22 255.78 183.06 256.48C181.44 256.7 150.06 258.24 148.78 257.94C146.78 257.5 147.6 256.08 144.48 256.54C139.02 257.36 139.14 257.32 139 259.2C139 259.64 138.76 259.9 138.08 259.88C130.08 259.68 128.08 259.88 125.54 258.26C119.54 254.56 124.56 254.7 122.06 250.82C120.46 248.32 121.6 246.7 124.94 235.52C126 231.98 124.42 227.86 124.8 223.18C129.22 221.48 131.86 220.7 133.8 218.54C137.141 214.643 139.634 210.093 141.12 205.18C142.2 201.84 142.62 199.56 143 199.86C143.649 200.358 144.431 200.651 145.247 200.701C146.063 200.751 146.876 200.556 147.58 200.14C162.2 193.68 151.88 190.78 174.14 202.14C190.38 210.5 203.84 213.18 210.14 196.14C210.82 194.5 212.82 212 212.84 212.1ZM206.5 200.3C202.18 208.3 192 207.84 185.86 205.26C172.94 199.84 151.44 188.58 151.38 188.54C154.153 183.767 157.748 179.521 162 176C172.32 166.64 171.18 166.84 175.2 169.4C183.96 175 185.06 177.16 187.46 173C196.24 157.88 199.46 155.54 202.82 144.7C203.74 142.2 206.64 137.5 208.82 133.06C214.22 121.82 214.34 119.76 214.82 121.98C215.058 122.962 215.527 123.872 216.187 124.637C216.847 125.401 217.679 125.997 218.615 126.377C219.551 126.756 220.564 126.907 221.57 126.817C222.576 126.727 223.546 126.399 224.4 125.86C225.7 124.94 226.64 125.7 228.74 126.72C228.04 129.68 228.74 128.38 224.74 138.94C224.4 139.66 211.42 191.24 206.5 200.3ZM214.14 183.8C214.594 182.214 215.034 180.734 215.46 179.36C225.6 145.36 218.3 168.38 224.78 146.2L230 150.92C212.64 190.72 220 188.56 214.14 183.8ZM308.88 116.52C292.44 116.3 296.56 116.02 288.54 127.48C268 156.76 258 174 248.68 183.3C245.5 186.46 243.64 188.78 240.9 189.42C235.88 190.64 229.92 187.82 222.26 181.04C219.1 178.22 223.1 173.44 229.9 155.6C231.9 157.34 235.26 160.68 237.26 158.94C245.26 152 258.58 135.46 266.24 128.22C289.6 106.22 280.14 111.9 283.52 103.76L289.84 104.82C290.96 109.14 289.84 104.82 293.34 105.44C301.08 106.88 298.74 106.56 307.76 108.12C307.868 108.572 307.871 109.043 307.771 109.497C307.67 109.951 307.468 110.376 307.18 110.74C300.96 109.3 292.86 106.36 288.9 111.46C287.86 112.8 288.74 113.16 289.16 113C291.16 112.32 290.84 110.46 295.96 110.48C303.56 110.48 308.86 115.88 309.74 108.36C309.824 106.143 310.291 103.958 311.12 101.9C311.94 100.2 312.64 101.08 312.74 101.62C313.44 105.72 312.5 116.56 308.88 116.52ZM312.7 115.66C313.12 114.3 313.44 111.92 315.22 111.92C319.36 111.92 321.22 101.14 324.9 100.14C324.973 100.122 325.05 100.124 325.122 100.145C325.194 100.167 325.259 100.207 325.31 100.262C325.362 100.317 325.397 100.385 325.413 100.459C325.429 100.532 325.424 100.609 325.4 100.68C323.34 107.2 319.44 118.52 312.7 115.66ZM320.7 115.46C324.42 110.02 323.02 114.3 329.68 105.18C330.704 103.726 332.228 102.701 333.96 102.3C334.039 102.288 334.12 102.299 334.193 102.333C334.266 102.367 334.327 102.422 334.368 102.49C334.409 102.559 334.428 102.639 334.423 102.72C334.418 102.8 334.389 102.877 334.34 102.94C326.18 113.5 325.72 115.84 320.6 115.46H320.7ZM351.9 119.02C349.34 118.38 339.28 115.94 336.66 115.02C328.66 112.26 324.78 117.26 336.06 103.62C336.259 103.382 336.396 103.099 336.459 102.795C336.521 102.492 336.508 102.177 336.42 101.88C336.16 101.18 335.86 100.44 334.18 100.58C329.1 100.96 326.88 106.68 325.42 107.64C325.951 105.122 326.653 102.643 327.52 100.22C328.1 99.0202 326.44 98.0002 325.52 98.0802C319.12 98.6402 318.7 111.9 314.24 109.48C314.442 106.7 314.496 103.908 314.4 101.12C314.398 100.873 314.342 100.629 314.236 100.405C314.13 100.181 313.976 99.9835 313.786 99.8254C313.595 99.6673 313.373 99.5527 313.133 99.4897C312.894 99.4266 312.644 99.4165 312.4 99.4602C311.538 99.6724 310.75 100.115 310.12 100.74C309.08 98.7402 308.34 85.1002 316.48 75.2202C318.3 73.0202 353.82 72.8202 366.04 71.6402C357.08 79.6402 352.56 89.6402 353.78 103.28C355.32 121.48 367.66 122.94 351.8 119.02H351.9ZM357.3 108.48C352.46 87.1202 366.18 68.4802 376.9 72.0402C381.84 73.7002 387.48 80.6002 387.68 93.2002C388 123.5 363.12 134.62 357.2 108.48H357.3Z" fill="black"/>
</svg>
