<?xml version="1.0" encoding="utf-8"?>
<!-- Generator: Adobe Illustrator 27.1.1, SVG Export Plug-In . SVG Version: 6.00 Build 0)  -->
<svg version="1.1" id="Слой_1" xmlns="http://www.w3.org/2000/svg" xmlns:xlink="http://www.w3.org/1999/xlink" x="0px" y="0px"
	 viewBox="0 0 400 400" style="enable-background:new 0 0 400 400;" xml:space="preserve">
<style type="text/css">
	.st0{fill:#FFE451;}
	.st1{fill:#FFFFFF;}
</style>
<path class="st0" d="M332.8,107.9H72.1v87h260.7V107.9z"/>
<path class="st1" d="M206.9,234.8l-2.7-0.4V78.7h2.7V234.8z"/>
<path class="st1" d="M135.9,189.9l-2.9-0.1l-0.1-110.9l2.5,0L135.9,189.9z"/>
<path class="st1" d="M321.6,139c0.2-1.2,3-2.6,2.1,3.9c-0.1,0.7-0.5,0.8-1.2,0.8c-0.8,0-0.9-0.3-0.9-1
	C321.4,141.5,321.4,140.2,321.6,139z"/>
<path class="st1" d="M310.9,137.9c1.1,0.1,1,5.4,0.1,5.5c-0.9,0.1-1.6,0.3-1.7-0.5C309.3,140.6,308.8,137.7,310.9,137.9z"/>
<path class="st1" d="M298.8,141.3c-0.3,2.3,0,2.4-1.8,2.4c-0.7,0-0.6-1.9-0.6-3.3c0-1.2,0.1-2.4,1.3-2.4
	C298.8,137.9,298.7,140.3,298.8,141.3z"/>
<path class="st1" d="M286.3,138.4c0.7,1.3,0.2,3.5,0.1,4.5c0,0.1,0,0.3-0.1,0.4c-0.1,0.1-0.2,0.2-0.4,0.2c-0.9,0.1-1.7,0.2-1.6-0.8
	c0-1.9-0.5-5.9,1.8-4.7C286.2,138.1,286.2,138.3,286.3,138.4z"/>
<path class="st1" d="M275.1,139.1c0.1,4.2,0,4.3-0.4,4.4c-0.8,0.1-1.6,0.2-1.6-0.6c-0.1-2.9-0.4-5,1.5-5
	C274.7,137.9,275.1,137.9,275.1,139.1z"/>
<path class="st1" d="M262.9,138.2c0.7,1.3,0.3,3.2,0.1,4.5c0,0.1,0,0.3-0.1,0.4c-0.1,0.1-0.2,0.2-0.4,0.2c-1,0.2-1.6,0.2-1.6-0.8
	c0-1.6-0.5-5.8,1.8-4.6C262.8,137.9,262.8,138.1,262.9,138.2z"/>
<path class="st1" d="M249.9,138.3c0.4,1.4,0.5,2.9,0.2,4.4c-0.1,0.8-0.5,0.8-1.3,0.9c-0.2,0-0.6,0-0.7-0.5c-0.4-1.6-0.3-3.3,0.2-4.9
	c0.1-0.1,0.2-0.2,0.4-0.3c0.1-0.1,0.3-0.1,0.5-0.1c0.2,0,0.3,0.1,0.5,0.2S249.8,138.2,249.9,138.3z"/>
<path class="st1" d="M237.6,137.8c0.7,0.4,0.8,5.3-0.1,5.5s-1.6,0.3-1.7-0.6C235.8,140.7,235.4,136.6,237.6,137.8z"/>
<path class="st1" d="M192.3,136.9c1.6-0.2,0.8,4.6,0.8,5c0,0.2-0.1,0.3-0.2,0.4c-0.1,0.1-0.2,0.2-0.4,0.2c-1,0.2-1.6,0.2-1.6-0.9
	c0-2.2-0.2-3.2,0.4-4.4C191.5,136.9,191.9,137,192.3,136.9z"/>
<path class="st1" d="M180.3,136.8c1.2,0,1.2,5.4,0.1,5.6c-0.7,0.1-1.6,0.2-1.6-0.6C178.7,137.9,178.7,136.8,180.3,136.8z"/>
<path class="st1" d="M162.2,130.7c0.3,0.9,0.5,1.9,0.4,2.9c-0.3,2.4,0,2.5-1.8,2.5c-0.9,0-0.6-4.2-0.4-4.7
	C160.8,129.9,162.1,130.5,162.2,130.7z"/>
<path class="st1" d="M124.9,133.6c0.2,0.1,0,0.4,0,0.7c0,0.3-1.4,4.9-1.9,6.6c-0.3,0.9-0.5,1.1-1,1.2c-1.7,0.2-3.3,0.2-5-0.2
	c-0.2-0.1,0-0.4,0-0.5c1.7-4.5,2.1-6.6,2.6-7.5c0.4-0.8,0-0.6,4.2-0.6C124.2,133.4,124.6,133.5,124.9,133.6z"/>
<path class="st1" d="M116.2,133.1c0.8,0.1,0.4,0.5-0.7,3.3c-0.9,2.7-1.5,3.9-1.7,4.5c-0.2,0.6-0.3,0.5-0.4,0.5
	c-4.6-0.5-4.5-0.3-4.3-1c0.8-2,1.8-3.8,2.9-5.7C113.2,132.8,112.5,132.7,116.2,133.1z"/>
<path class="st1" d="M110.4,132.1c0.5,0.5-0.7,1.1-2.6,4.7c-1.8,3.5-1.6,3.8-2.3,3.5c-0.9-0.3-1.6-0.9-2.1-1.7
	c-0.1-0.2,0-0.4,0.2-0.7c0.8-0.7,3.4-5,5.6-6.3C109.5,131.5,109.9,131.6,110.4,132.1z"/>
<path class="st0" d="M188.5,222.4c1.1,0.7,1.3,0,1.2,0.6c-0.2,0.8-0.6,1.6-1.2,2.1c-0.6,0.6-1.4,0.9-2.2,1c-0.4-0.1-0.8-0.1-1.2-0.2
	c-2.3,0.6-4.1-3.8-2.9-3.9c0.3-0.1,0.6,0,0.9,0.1c0.3,0.1,0.6,0.3,0.8,0.5c0.4,0.4,0.9,0.6,1.4,0.7c0.5,0.1,1.1-0.1,1.6-0.4
	C187.1,222.8,187.3,221.7,188.5,222.4z"/>
<path class="st0" d="M185.2,218c4.4,0.2,5,4.3,4.1,4c-1.1-0.4-1.8-1.2-2.7,0c-0.6,0.7-0.7,0.8-1.6,0.4c-0.3-0.1-0.7-0.3-0.9-0.5
	c-1.2-1.3-2.8,0-2-1.3C182.9,219.4,184,218.5,185.2,218z"/>
<path class="st1" d="M335.5,298c1.9,9.8,1.5,9.5,0.9,11.9c-0.6,3.1-0.7,4-2.1,5.6c-3.9,4.5-4.8,3.2-5.9,2.9c-1.7-0.5-2.1-0.3-2-0.9
	c0.1-1-0.2-3-0.1-3.7c0-1.1,3.4,3.4,5.3,0.7c5.1-7.3,2.7-6.7,2.4-13.7c-0.1-3.3-2.6-8.5-2.9-12.3c-0.2-2.5-0.1-4.6-1.4-7.1
	c-3.2-6.3-1.9-9.7-3.4-10.6c-0.8-0.5,0.1-0.2,0.6-2.1c0.1-0.7,0.1-1.3,0.4-1c1.6,1.5,1.8,3.4,2.4,5.7c0.3,2,1,4,1.9,5.8
	C332.3,281.6,332.4,281.8,335.5,298z"/>
<path class="st0" d="M332.4,196.3c0,0.4,2.7,0.5-25.6,0.5c-3.2,0-6-0.7-8.8-0.3c-0.8,0.1-5.3-0.2-6.1-0.2c-2.3-0.2-3.6,0.7-7.4,0.5
	c-5.6-0.3-5.7,0.4-5.7-0.8c-0.1-20.6-0.4-18.9,0.3-18.8c1.6,0,7.3,0.1,8.7,0c0.7,0,0.2,0.1,0.6,4.7c0.4,5.5,1.8,5.5,4.5,5.8
	c0.4,0,38.8,0.2,39.4,0.2C332.3,192.6,332.4,195.7,332.4,196.3z"/>
<path class="st0" d="M332.4,198.3c0,61.7,0.3,57-0.4,57c0,0-5.2-0.1-5.4-0.2c4.2-1.5,5.7-10.7,4.3-14.1c-2.2-5-3.4-4.3-7.7-4.9
	c-2.7-0.4-12.1,0.9-20.1-0.5c-2.7-0.5-11.3-0.5-23.7-1.3c-0.8,0-0.3,2.2-0.6-36.7c0-0.4,5.7,0,5.8,0c2.8,0.3,5.5-0.6,7.6-0.5
	C332.1,199.1,332.4,196,332.4,198.3z"/>
<path class="st0" d="M332.3,79.6c0.1,0,0.1,15.5,0.1,35.2c-0.4,0-47.2-0.3-53.7-0.5c-0.6,0-0.3-0.6-0.3-1v-10.8
	c0-0.6,0.9-0.5,2.4-0.5c0.8-0.1,1.6-0.1,2.4-0.1c1.5,0.5,2.4,0,4.9,0.5c3.9,0.7,4.1-0.6,20.3-0.3c12.7,0.2,16.1,1.5,18.1-1.8
	c1.2-2-2.3-3.1-4.7-3.4c-5.5-0.9-4.5-0.7-7.3-3.2c-4.4-4-11.7,0.8-11.1-1.2c0.4-1.5-1-3.7-2.7-4.7c-1.2-0.8-0.9-0.1-2.8-1.2
	c-5.3-2.9-6.5-2.6-11-1.2c-3.3,1-4.1,4.7-4.6,5.5c-0.2,0.3-0.5,0.5-0.9,0.6c-0.3,0.1-0.7,0.1-1.1,0.1c-0.4-0.1-0.7-0.2-1-0.5
	c-0.3-0.2-0.5-0.5-0.6-0.9c-0.5-1.1-0.8-0.6-0.8-1.5v-8.8c0-0.5,0-0.7,0.5-0.8C283.4,79,330.4,79.3,332.3,79.6z"/>
<path class="st1" d="M330.2,241.9c0.8,3.5,0.2,7.2-1.6,10.3c-1.5,2.4-3.6,2.4-4.7,3.3c-1,0.7-2.1,0-2.6-0.8c-2-3.1-2.8-6.8-2.2-10.5
	c0.3-2,1.2-3.8,2.5-5.3c0.3-0.4,0.2-0.6,0.1-0.7c-1.2-1-5.8,6.4-2.8,13.6c0.4,1.1,0.8,2.2,1.4,3.3c0,0.1,0,0.2-0.1,0.2
	c-8.4-1.9-40.3-4.3-40.9-4.4c-1.5-0.4-3.1,0.3-6.3,0.1c-0.7,0-2.2,0.7-3.7-2.2c-0.8-1-1.2-2.3-1.1-3.7c0.1-1,9.4,0.8,10.8,0.2
	c-0.9-1.3,0-0.1-6.9-1.2c-2.8-0.4-3.8,0.2-3.9-0.1c-0.4-1.8-0.6-1.1,0-2.8c0.2-0.6,0.2-0.7,0.9-0.6c1.5,0.3,3,0,4.4,0.2
	c5.1,0.5,1.5,0.4,6.4,0.9c1.2,0.1,12.6,1.1,12.3-0.2c-0.3-0.9-4.1-0.1-9.3-0.4c-5.5-0.3-6.8-1.4-14.1-1.2c-0.7,0-0.3-1.6,0.2-2.2
	c3.6-4.4,1.2-2.9,21.4-1.9c18.9,1,15.8,1.8,28,1.1l4.6,0.1c1.3,0,2.7,0.2,4,0.7c0.8,0.4,1.5,1,2,1.7
	C329.7,240.2,330,241.1,330.2,241.9z M329.4,245.3c0.7-4.2-3-8-5-5.4c-0.9,1.1-2.5,9.2-0.5,10.2c2,1,3.2-4.1,2.5-7.3
	c0-0.1-0.1-0.2-0.2-0.2c-0.1-0.1-0.2-0.1-0.3-0.1c-0.1,0-0.2,0.1-0.3,0.2c-0.1,0.1-0.1,0.2-0.1,0.3c0.2,1.8,0.1,3.6-0.3,5.3
	c-0.6,1.6-2.2,2-1.4-3.8c0.3-2.3,0.5-4.1,2-4.7c1-0.3,2.3,1.8,2.5,2.6c0.5,2.4,0.2,4.9-0.8,7.1c-1.8,3.6-3.2,4.4-4,4.2
	c-0.2-0.1-0.4-0.2-0.6-0.3c-0.2-0.1-0.3-0.3-0.4-0.5c-2.6-4.5-1.5-10.9,0.1-12.1c0,0,0.2-0.2,0.1-0.5s-0.3-0.1-0.4,0
	c-3.5,1.8-2.4,16.4,2.1,14.1C327.6,252.7,328.7,250.3,329.4,245.3z M289.8,246.8c20.8,1.4,29.5,3.1,26.9,1.5l-32.3-2.9
	C279.8,245.8,285.2,246.5,289.8,246.8L289.8,246.8z M303.6,242.6c7.4,0.4,12.9,1.7,12.6,0.3c-0.2-0.8-1.4,0-5.2-0.6
	c-0.9-0.1-13.5-1.5-14.7-0.4C295.7,242.6,296.4,242.2,303.6,242.6L303.6,242.6z"/>
<path class="st1" d="M326.2,262c0,11.1-1.6,8.1-6.2,8.3c-1.3,0.2-2.5,0.3-3.8,0.1c-0.6-0.2-1.9,1.3,2.6,1c1.6-0.2,3.2-0.2,4.7,0.1
	c1.7,0.1,2.5-0.3,2.5,0.8c0,0-0.6,40.7-0.6,41.7c0.1,7.9-0.6,4.8-11.6,6.7c-2.1,0.3-4.8,0.7-4.9-1.5c-0.1-5,0-10,0.5-15
	c0.7-4.8,0-5.7,0.3-10.3c0.1-3.6,0.4-7.2,0.9-10.8c0.3-1.8,0.5-2.7,0.5-3.5c0.6-17.8,1.1-9.3,2.6-17.4c0.2-2.1,0.9-4.2,2-6
	c0.5-1,2.7-0.1,6.6,0.5c1.6,0.2,1.9-0.6,2.4-0.5C326.2,256.5,326.3,260.7,326.2,262z M324.7,284.5c0.2-6.2-1.7-5.3-6.6-5.2
	c-1.1-0.2-2.2-0.1-3.4,0.1c-2,0.6-2.8,6.2-2.2,7.9c0.2,0.5-0.3-2.1-0.8,14.2c-0.1,3.6,8,2.5,8,2.5c1.6,0,3.7-0.3,3.7-1.9
	c0-1.6,0.8-9.9,0.5-11.1c-0.1-0.6-0.2-1.2-0.1-1.8c0-0.5,0.1-1,0.4-1.2C324.5,287.9,324.3,288,324.7,284.5z"/>
<path class="st1" d="M325.2,98.7c1.4,1,0.2,2.4-1.4,2.9c-1.7,0.3-3.4,0.4-5,0.2c-1.6-0.2-3.6-0.1-5.3-0.2
	c-18.3-0.9-22.1,0.9-25.6,0.1c-1.8-0.4-2.8,0.1-4.4-0.3c-0.7-0.2-0.7-0.4-5-0.2c-0.4,0-0.3-0.1-0.3-3.2c0-4.7-0.2-6.8,0-7.3
	c1.7,2.5,4.4,2.1,5,0.6c1.3-2.6,0-0.7,1.6-3.3c1.5-2.1,6.9-3.6,9-2.6c2.1,1,3.6,1.8,4.7,2.3c2.8,1.3,3,1.3,3.8,3.1s-0.7,2.5,1.5,3
	c0.9,0.1,1.9-0.7,4.7-1.1c3.9-0.6,5.1,1.1,7.4,3.4C317.8,97.9,323.3,97.3,325.2,98.7z"/>
<path class="st1" d="M322.8,280.3c1,0.2,1.1,3.2,1,4.2c-0.3,3.2-0.1,3-0.9,3.1c-8.2,0.8-6.3,0.5-6.3-1.6c0-6-0.6-6.3,0.4-6
	C318.6,280.5,319.7,279.8,322.8,280.3z"/>
<path class="st1" d="M322.5,288.5c0.5-0.1,0.6,0.3,0.6,0.6c0.1,3.9-0.1,7.8-0.5,11.6c-0.2,2,0.9,2-3.6,2.3c-5.1,0.3-3.1,0.8-3.1-3.4
	c0.9-13.8-0.1-10.2,1.8-10.7C319.4,288.9,321,288.7,322.5,288.5z"/>
<path class="st1" d="M315.7,282.4c0,4.5,0.4,2.5-0.1,5.1c-0.1,0.4-0.3,0.4-1.5,0.4c-0.5-0.4-0.8-0.9-0.9-1.6c0-1.9,0.3-3.8,1.1-5.5
	c0.1-0.2,0.2-0.3,0.3-0.4c0.1-0.1,0.3-0.2,0.4-0.2C315.9,280,315.6,282.4,315.7,282.4z"/>
<path class="st1" d="M313.4,288.6c1.3,0.9,2.5-1,2.2,1.6c-0.3,8.1-0.4,12.2-1.2,12.8c-0.3,0-0.6-0.2-0.8-0.3
	c-0.2-0.2-0.5-0.4-0.6-0.6c-0.2-0.2-0.3-0.5-0.3-0.8c-0.1-0.3,0-0.6,0-0.9C312.9,299.7,312.8,288.2,313.4,288.6z"/>
<path class="st1" d="M279.6,251.9c5.3,0.7,36.3,2.8,35.5,4c-2.9,4.4-1.6,5.8-2.9,9.1c-1.8,4.4-1.2,3.2-1.5,8.1
	c-0.3,2.3-0.4,4.6-0.4,6.9c0.1,3.2,0,1-17.9-0.3c-1,0,1.1-2.8-1.1-3.6c-2.6-0.9-5.3-1.2-8-1c-2.5-0.4-1.5,3.2-2,3.2
	c-7.1-0.6-9.2-1.3-11.4-0.8c-2.6,0.6-5.8-1.5-4.6-3.2s1.5-1.8,3.5-11.5c0.6-2.9,2.3-2.9,2.5-7c0-0.6,0.1-1.3,0.3-1.9
	c0.2-0.6,0.5-1.1,1-1.6c0.3-0.4,1.1-0.2,2.1-0.2C276.4,251.8,278,251.8,279.6,251.9z"/>
<path class="st1" d="M308.9,282.5c0.8,0,1.1-0.1,1,0.7c-0.8,5.3-1.2,10.7-1,16.1c0,0-1.3,17.6-0.7,20.6c0.2,1.1,2.5,1-15.3,0
	c0,0-6-1-6.6-1.1c-11.7-0.6-0.9,0.2-12.7-1.5c-4-0.6-10.4-0.2-10-3.2c0.5-3.9,0.7-7.8,0.6-11.7c0.5-3.4,0.8-6.9,0.9-10.3
	c0-2.2,0.2-14.7,2.3-14.1c1.2,0.3,1.6,0.3,5,0.1c1.4,0.1,2.8,0.3,4.2,0.6c3.6,0.4,2.6,0,4.9,0.4c-0.1,1.4-0.3,2.8-0.7,4.2
	c-0.2,1.1,1.5,2.2,2.1,2.3c0.2,0,0.3,0.1,0.2,0.3c-0.1,0.8-0.3,1.6-0.5,2.4c-2.1,4.2,0.9,3.6,3.9,4.1c2.2,0,2.3-3.9,2.8-6
	c0.2-1,1.3,0.2,1.7-1.5c1.5-5.6,0-4.6,4.8-4.2C298.5,281.2,306.1,282.4,308.9,282.5z"/>
<path class="st1" d="M290.5,276.8c1.1,0.2,1,0.6,1,1c-0.3,2.4-0.8,4.8-1.5,7.1c-0.1,0.3-0.3,0.2-2.1,0.4l-0.7-0.1l0.1-0.8
	c2.6,0.2,2.1-0.5,2.9-5.6c0.2-1.8-2.4-1.7-5.3-2h-0.2V276C286.7,275.9,288.6,276.2,290.5,276.8z"/>
<path class="st1" d="M287.2,278.1c2.7,0.3,2.3-0.3,1.5,4.7c-0.2,1.5-1.1,0.2-3.4,0.5c-2.4-0.3-1.8,0.2-1.5-2.9
	C284.3,277.3,283.5,277.6,287.2,278.1z"/>
<path class="st1" d="M284.4,285.8c4.1,0.4,4.1,0.4,3.9,0.8c-0.3,1.1-0.8,5.2-2,4.9c-2.4-0.6-4,0.1-3.6-1.5c0.5-1.1,0.9-2.3,1-3.5
	C283.7,285.8,284,285.7,284.4,285.8z"/>
<path class="st1" d="M287.3,284.4l-0.1,0.8c-4.8-0.5-6,0.1-5.5-3.1c1-5.8,0.2-6.2,2.9-6.2v0.9c-1.5,0-1,1.8-1.9,5.9
	c0,0.9,0.3,1.2,1.2,1.3C285.4,284.2,286.5,284.4,287.3,284.4z"/>
<path class="st0" d="M275.3,214.8c0,20.5,0.2,18.9-0.5,19c-2.9,0.3-3.4,0.3-4,0.7c-3.9,3.1-2.8,4.8-3.5,6.5c-0.8,2,0,2.4,0,4
	c-0.1,3.5,2.2,6.6,4.1,6.9c0.6,0.1-0.7,0.4-0.9,3c0,0.5,0.4,0.3-11.3,0.3c-0.6,0-1,0.1-0.9-0.3c0,0,0.5-18.5,1.8-34.6
	c1.9-24,1.1-23.1,1.8-23.3c0.8-0.2,11.8,0,12.6,0c0.5,0,0.5,0.1,0.5,0.3C275.4,200,275.1,214.8,275.3,214.8z"/>
<path class="st0" d="M275,177.1c0.3,0,0.2,0.3,0.2,0.4c0,12.7,0,17-0.1,18.4c-0.1,0.8-0.1,0.6-0.8,0.6h-8.1c-5.4,0-4.5,0-4.5-0.8
	c0.1-1,0-2-0.2-2.9c-0.7-1.7-2.9-1.8-7.4-1.8c-0.9,0,0.5-0.3-1.6-5c-1.6-3.6-6.5-6.6-10.3-8.3c0.1-0.3,0.2-0.7,0.2-1.1
	C246,177,270.9,177.1,275,177.1z"/>
<path class="st0" d="M275.1,103.3c0,13.2,1,10.9-2.5,11c0,0-56.6,0.8-65,0.2c-0.6,0-0.5-0.4-0.5-1c0-18.5-0.2-17.1,0.3-17.1
	c7.1-0.2,4.5,0.6,7.5,0c2.4-0.4,5.4,0.9,7.9,0.2c1.5-0.4,1.9,0.2,3.4-0.2s1.6,0.5,3.5,0.2c1.6-0.3,0.8,0.3,3.2-0.1
	c1.2-0.2,1.7,0.3,3.2,0c3.1-0.5,4.4,0.6,5-2c0.3-1.3-3.2-2.1-4.1-2.2c-4.5-0.5-2.7-0.4-3.2-2.4c-1.8-7.9-6.2-6.4-7.7-6.4
	c-0.4,0-2.5-0.2-3.4,1.3c-2.4,4.4-3.9,0.2-7.9,0.1c-4.5-0.1-5.6,0-6.6,0.6c-2.2,1.2-1.5,2.2-1.7-6.2c0-0.2,67.9-0.3,68-0.1
	c0.4,2.9,0.1,6.5,0.2,9.3c0,1.4-0.9,0.3-2,2.9c-0.1,0.2-0.2,0.4-0.4,0.6c-0.2,0.2-0.4,0.3-0.6,0.4c-0.4,0.1-0.7-0.2-1.5-0.6
	c-0.4-0.2-0.8-0.3-1.2-0.3c-0.4,0-0.8,0-1.2,0.2c-1.5,0.6-2.4,0.4-3.5,1.6c-0.7,0.8-2.5,3.3-2,4.2c0.9,1.9,2.4,3.9,4.4,3.4
	c4.1-0.9,5.4,1.8,7.1,1.7C275.1,102.4,275.1,102.8,275.1,103.3z"/>
<path class="st1" d="M274.9,90.2c0.4-0.5,0.1,11.1,0.1,11.1c0,1-2,0.1-2.9-0.4c-0.7-0.5-1.5-0.8-2.3-1s-1.7-0.1-2.5,0
	c-1.7,0.6-3.2-1.1-3.8-2.8c-0.2-0.5,1.5-2.9,1.7-3.3c0.5-0.6,0.7-0.9,3.9-1.8c1.4-0.4,2.9,1.6,3.8,0.8S273.8,90.9,274.9,90.2z"/>
<path class="st0" d="M254.6,273.6c0,0.7,0,1.3-0.1,2c0,4.7,1.3,2.6-4,6.8c-0.9,0.7-1.7,1.5-2.5,2.4c-1.2,0.6-2.2,2-2.2,1.5
	c0-0.9,0.2-4.1,0.2-4.7C246.1,281.6,254,273.8,254.6,273.6z"/>
<path class="st0" d="M253.3,237.8c0.6,1.7-0.2,2.7-0.6,4.1c-1.6,5.7-1.2,4.8-5.1,7.8c-2.5,1.9-1.9,3.9-4.8,5.7
	c-1.3,0.5-2.7,0.9-4,1.1c-2.1,0.5-2.1,1.9-5.2,1.9c-3.9-0.6-3.4-0.4-5.1-1.7c-0.1,0-0.1-0.1-0.1-0.1c0-0.1,0.3-0.3,1.6-1
	c0.8-0.4,1.7,1.2,3.7,0.9c2-0.3,1.8-1.1,4.7-1.8c3.1-0.8,4.6-3.5,5.7-4.9c0.7-0.8,4.6-3.7,5.4-7c0.4-1.4,0.6-2.9,0.7-4.4
	c0-2.1-0.7-4.1-1.9-5.8c-2.4-3.1-4.4-2.5-2.9-3.7c0.7-0.6,0.6-0.9,1.2-0.5C251.6,231.4,251.7,233,253.3,237.8z"/>
<path class="st0" d="M248.1,285.8c7.8-6.3,5.8-10.8,2.7,24.1c-0.3,3.5-0.6,4.1-1.5,4.6c-1.9,1-10.3,4-11.3,4.3
	c-3.6,1.1-3.5-0.4-3.8-2.2c-0.1-0.6,0.1-0.1,4.1-1.3c7.6-2.4,5.4,0.3,6.4-12.2c1.1-13.6,0.6-15.2,1-15.5
	C246.6,287.1,247.4,286.5,248.1,285.8z"/>
<path class="st0" d="M252.5,246c0.1-0.2,0.2,0,0.2,0c-0.7,3.9-1.7,4.8-3.6,8.4c-4.8,8.7-14.7,6.8-19.5,6.5c-3.5-0.2-5.3,0.1-7.4-1.6
	c-0.4-0.4-0.4-0.2,4.6-2.3c0.2-0.1,0.4-0.1,0.5-0.2c0.7,0.9,1.6,1.5,2.7,1.9c2.1,0.5,4.9,1.1,6.9-0.2c3.6-2.4,6.8-0.5,9.4-5.6
	C248,249.4,250.2,250.2,252.5,246z"/>
<path class="st1" d="M251.8,186.9c2.6,7-0.4,23.4-0.7,26.6c0,0.6-0.2-0.1-2.8-0.8c-7.2-1.9-4.6-4.4-13.5-2.6c-0.3,0-0.3,0-0.4-0.2
	c0-1.7,3.2-16.6,3.2-17.6c0-0.5-0.6-0.2-0.7,0.1c-0.4,1.2-4.2,18.6-3.5,19.6c1.1,1.6,1.5-0.9,0,5.5c-1,4.4-0.2,2.5-6.8,4.7
	c-1.6,0.5-8.8,2.2-9,2.2c-1.5,0.3-0.2,2.9-4.6-20.1c-0.7-3.7-2.3-3.4-6-3.3c-3.8,0-3.9,0.5-3.6-0.4c0.5-1.3,0.8-2.6,1-4
	c0-4,0.5-5.3-0.1-5.3c-0.9,0-0.8,4.9-0.8,5.2c-0.3,1.4-0.6,2.8-1.1,4.2c-0.2,0.6,0.2,0.3-8.7,0.7c-1.7,0-0.8-0.3,0-1.6
	c1.7-2.9,3.1-13.7,7.6-16.7c1.9-1.3,2.6-1.6,3.6-2.4c0.6-0.5,0.4,1.7,0.3,2.2c-0.1,1-0.5,1-0.8,1.6c-0.7,1.3,1.5,1.4,2.3,0.6
	l0.9-0.9c0.6,0.2,1.3,0.2,1.9-0.1c1.3-0.5,2.3-1.4,3-2.6c0.5,0.1,1.1,0,1.6-0.3c0.4,0.8,0.8,1.5,1.2,2.4c1.1,3.3,8.3,5.5,12.2,1.6
	c1.2-0.4,2.3-1.1,3.1-2.1c0.9-0.9,1.5-2,1.9-3.2c0.5-1.5,0.2-1.5,1.1-0.2c2.1,2.8,7.5,3.5,7.3,2.2c-0.2-0.3-0.5-0.5-0.7-0.8
	c-0.9-0.9-1.6-2-2.2-3.1c-0.1-0.4-0.2-0.8,0.2-0.7C242.9,178.7,250.1,182.2,251.8,186.9z"/>
<path class="st0" d="M249,238.4c-0.1,1.6-0.4,3.2-0.9,4.7c-1.3,2.5-1.3,2.6-4.4,5.4c-1.5,1.4-2.2,3.8-5.1,5
	c-5.4,2.2-5.1,2.6-7.4,1.5c-1-0.5,0.7,1,7.7-8.5c0.8-1.2,1.3-2.6,1.5-4.1c0-0.4-0.7-0.7-0.8-0.2c-0.9,2.9-0.8,2.8-1.7,4
	c-5,6.7-7.5,9.7-22.8,13.5c-0.8,0.2-3.3-2.1-3.8-2.6c-1.8-2.1-2.5-2.9-3.7-2.9c-0.3,0-0.6,0-0.9,0.1c-0.3,0-0.7,0.1-1,0.2
	c-1.1,0.4-2.2,0.8-3.4,1.1c-1.8,0.6-1.5,0.8-2,0.6c0,0-3.4-1.7-4.9-2.6c3.3-2,17.2-12.7,22.9-16c1.3-0.8,10.2-8.9,19.9-8.1
	c2.7,0,6-0.3,9.3,4C248.3,234.9,248.9,236.6,249,238.4z"/>
<path class="st0" d="M247.9,213.5c0.3,0.1,0.7,0.2,1,0.4c-1.1,3.4-2.3,15.9-5.9,15c-3.4-0.6-6.8-0.6-10.2,0.1
	c-17.2,3.4-12.5,15.2-15.8-2.9c-0.1-0.7-0.7-0.5,4.9-1.8c0.9-0.2,1.8-0.3,2.6-0.6c1.3-0.4,2.6-0.8,4-1.2c5.3-1.5,5.1-0.7,6-4.8
	c1.9-8.7,0.5-6.7,5.2-7.3C242.2,210.1,242.4,212.2,247.9,213.5z"/>
<path class="st0" d="M219,281.5c1.9,0.2,26.4-0.5,26.3,0.3c-0.7,3.1,0.3,4.9-0.8,5.1c0,0-2.2,0-22.8-0.2c-10.7,0-16.2,0.4-17.3,0.3
	c-3.2-0.2-136.2-0.6-138.3-0.9c-0.4,0-0.5-0.2-0.4-0.6c0.1-6.3-2.5-5.1,14-5.2c2.8,0,10.2,0.5,12.7,0.6c1.5,0,28.2-0.4,31.9,0.2
	c2.4,0.4,2.6-0.1,6.8-0.2c0,0,26.3,0.7,26.5-0.1c0.2-0.4,0.5-0.7,0.8-0.9c0.5-0.4,0.8-1,1.5-1.3c0.1,0,0-0.4,0.3-0.3
	c0.3,0.1,0.3,0.4,0.2,0.6c0,0.4,0.1,0.9,0.3,1.2c0.4,1.2,1,0.6,13.4,1c5-0.3,9.9-0.4,14.9-0.2C205.2,282.1,211.9,280.7,219,281.5z"
	/>
<path class="st0" d="M240.8,175.6c0.3,0.2,0.5,0.5,0.6,0.9c0.1,0.3,0.1,0.7,0,1c-0.6-0.3-3.6-1.4-4.1-0.9c-0.1,0.3-0.1,0.5,0,0.8
	c0.3,1.6,1,3,2.1,4.1c-3.9-0.2-5.2-2-6.5-5.4c-0.2-0.5-0.5-0.3-0.6,0c-1.3-1.1-2.2-2.5-2.6-4.1c-0.1-0.3-0.2-0.7-0.2-1.1
	c0.8-0.7,1.4-1.6,1.7-2.6c0.7-2.3,0.9-4.8,0.6-7.3c0-0.3-0.4-0.5-0.5,0c-0.1,0.5,0,1.7-0.1,3.5c0,1.8-0.5,3.5-1.5,5
	c-0.1,0.2-0.5,0.8-0.7,0.2c-0.8-3.1-1.3-6.4-1.5-9.6c0-0.4,0-0.4,0.3-0.4c1.2,0.1,1.7-0.6,2-1.8c0.3-0.7,0.3-1.5,0-2.2
	c-0.3-0.7-0.8-1.3-1.5-1.6c-2.4-1-3.6-0.8-5.1-3s-1.5-4.5-2.7-6.7c-0.9-1.3-2.1-2.3-3.5-3c-1.4-0.7-2.9-1.1-4.5-1.1c0,0-0.1,0-0.1,0
	c0,0-0.1,0-0.1,0.1c0,0-0.1,0.1-0.1,0.1c0,0,0,0.1,0,0.1c0,0.4,0.6,0.3,1.9,0.6c-0.7,1-3.2,0.5-4.4,0.6c-1.2,0-2.2,0.5-3.1,1.3
	c-1,0.7-2.1,1.6-3.1,0.9c-0.6-0.4-1.1-1-1.4-1.6c-0.3-0.7-0.4-1.4-0.3-2.1c0-0.9,0.2-1.8,0.6-2.6c0.4-0.8,1-1.5,1.7-2.1
	c0.3-0.3,0.6-0.5,1-0.6c0.4-0.1,0.8-0.1,1.1,0c-1.2,1-2.1,2.3-2.6,3.7c0,0.2,0,0.4,0.1,0.5c0.5,0.1,0.4-0.2,1.3-1.6
	c0.8-1.3,1.9-2.4,3.2-3.2c1.3-0.9,2.7-1.4,4.2-1.7c0.8-0.1,1.6,0,2.2,0.4c-2,0.6-3.8,1.6-5.4,3c-3.1,2.4-2.4,3.7-1.8,3.1
	c0.6-0.6,0.8-1.1,1.2-1.5c1.8-1.8,4-3.2,6.4-3.9c2.9-0.8,4.5,0.1,5-0.1c0.7-0.1,1.5-0.1,2.2,0.1c1.3,0.5,2.5,1.3,3.5,2.4
	c4.5,3.6,4.8,9,7.8,13.6c1.3,1.9,3.1,3.4,5.2,4.3c0.3,0.4-1.2,1.3-3.2,0.8c-0.2,0-0.7-0.3-0.8,0c0,0.1,0,0.2,0,0.2
	c0,0.1,0.1,0.1,0.2,0.2c0.7,0.3,1.3,0.8,1.9,1.3c2.6,2.8,3.2,3.5,3.9,6c2.5,9.1-0.8,9.5-0.7,11.9c-0.1,0.2-0.1,0.4,0,0.6
	C240.5,175.3,240.6,175.5,240.8,175.6z M236.6,168.3c1.3-4.2-1.5-8.8-2.9-11c-0.4-0.5-0.9-0.2-0.6,0.4c2,3.2,3.8,7.4,2.9,10.5
	C235.8,168.9,236.4,168.7,236.6,168.3L236.6,168.3z M235.8,171.4c0.3-1-0.4-1-0.5-0.5c-0.6,2.1-0.7,1.6-0.8,2.3
	C234.5,173.4,235,174.2,235.8,171.4L235.8,171.4z M232,151.6c0.2,0,0.3-0.1,0.3-0.2c-0.2-0.8-2.6-0.4-5.6-6.7
	c-1-2.2-3.1-5.6-5.5-7.1c-1.9-1.2-4.4-0.7-3.8-0.1c0.4,0.2,1,0.1,1.5,0.2c1.3,0.2,2.4,0.8,3.2,1.7c2.9,3,5,8.9,7.9,11.2
	C230.6,151.1,231.3,151.4,232,151.6L232,151.6z"/>
<path class="st1" d="M234.3,92.7c0.4,0.1,6.3,0.7,6.1,1.8c0,0.2-0.1,0.4-0.3,0.6c-0.2,0.2-0.4,0.3-0.6,0.4c-3,0.3-8.4,0-10.1,0.3
	c-0.7,0.1-2-0.5-3-0.2c-1.5,0.3-2.3-0.1-3.5,0.1c-2.8,0.6-5.6-0.7-8.5-0.1c-2,0.4-1.5-0.3-5.8-0.2c-1.6,0.1-1.6,0.2-1.6-0.2
	c0-6.3-0.5-7.3,0.4-8c0.7-0.6,1.5-1,2.3-1.3c0.9-0.3,1.8-0.3,2.6-0.2c2.5,0.1,3.8-0.3,5.6,0.9c0.6,0.5,1.3,0.8,2,0.9
	c0.7,0.1,1.5,0,2.2-0.3c1.3-0.2,1-2.9,3.7-2.8c2.5,0.1,4-0.8,5.6,1.6C234.4,90.1,232.3,92.4,234.3,92.7z"/>
<path class="st0" d="M232.8,305.9c0.5,15.1,1.5,13.5,0.9,13.5c-1.2,0-7.8,0-8.8-0.6c-1.2-0.8-2.2-28.8-2.3-30.3c0-0.9,0-0.9,0.9-0.9
	c9.1,0,9.1-0.2,9.1,0.3C232.5,295.8,232.7,301.6,232.8,305.9z"/>
<path class="st0" d="M232.2,177.3c0,0.4,0,0.8-0.2,1.2c-0.3,0.7-0.4,1.5-0.8,2.1c-0.8,1.8-0.9,1.2-2.2,2.6c-0.8,0.8-1.3,0.5-2.5,1.5
	c-2.7,2.1-5.5,2.4-9.3,0c-1.1-0.7-1-1.5-1.9-3.1c-0.5-1-0.9-1.3,0-1.7c1.3-0.7,1.2-0.2,1.3,0.3c0,0.9-0.1,1.1,0.3,1.2
	c1.2,0.2,0-4.8-0.3-6.5c-0.1-0.8,1.5,0.9,4.4-0.8c2-1.2,3.6-4.6,4.1-6.2c0.3-1,0-1.5-0.2-1.3c-0.4,0.2-1,3.1-2.9,4.8
	c-2.9,2.6-5.2,1.5-8.3-0.2c-4.1-2.1-9-4.2-9.3-10.4c-0.3-6.8-3.2-7.7-2.5-12.5c0-1.1,0.5-2.1,1.3-2.9c0.1-0.1,0.3-0.3,0.4-0.4
	c1.7,0.6,3.7-1.5,4.8-2c0.8-0.4,1.2-0.2,3-0.2c0.6,0.1,1.3,0.1,1.9-0.1c0.6-0.2,1.2-0.5,1.6-1c3.8,1.2,4.8,3.2,5.7,6.3
	c2.5,8.7,7.7,5.4,8.2,8.3c0.2,1.2-0.3,2.9-1.6,2.6c-0.4-0.1-0.7-0.1-0.8,0.3c-0.4,1,1.2,13.1,3.6,16
	C230.7,175.9,231.4,176.7,232.2,177.3z M220.6,161.8c0.8,0.5,0.7-0.7,0-1c-0.7-0.3-1.5-0.5-1.5-0.2c0,0.1,0,0.1,0,0.2
	c0,0.1,0,0.1,0,0.2c0,0.1,0.1,0.1,0.1,0.1c0,0,0.1,0.1,0.1,0.1c0.2,0.1,0.4,0.2,0.1,0.4c-1,1.1-2.3,1.9-3.7,2.4
	c-2.9,1.2-4.6,0.6-1,3.4c2.4,1.8,2.9,1.9,3.6,1.3c1.8-1.5,1.6-5.8,2-6.8C220.4,161.7,220.5,161.7,220.6,161.8L220.6,161.8z
	 M217.2,148.9c0.3,0,0.4-0.2,0.4-0.4c-0.1-1.3-4.4-1.7-4.5,1.8c0,0.5,0.5,1.1,0.8,0.2c0.5-1.5,0.8-1.8,2-1.8
	C216.3,148.7,216.8,148.8,217.2,148.9L217.2,148.9z M217.3,155.6c0.1-1.1-1.2-1.8-1.2-0.6C216.1,156.2,217.2,156.5,217.3,155.6
	L217.3,155.6z M215.4,159.8c-0.5-0.1-0.6,0.6-1.3,1.2c-0.8,0.6-1.8,0.2-1.6-0.4s0.5-0.7,0.7-1.3c0.2-0.5,0.1-0.8-0.5-2.5
	c0-0.1-0.1-0.2-0.2-0.3c-0.1-0.1-0.2-0.1-0.4-0.1c-0.4,0-0.3,0,0.3,1.9c0.3,0.9-0.1,1-0.5,1.8c-0.1,0.2-0.2,0.3-0.2,0.5
	c0,0.2,0,0.4,0.1,0.6c0.1,0.2,0.2,0.4,0.3,0.5c0.1,0.1,0.3,0.2,0.5,0.3C214.9,163,216.1,159.9,215.4,159.8L215.4,159.8z M209,158.8
	c0.4-0.3,0.1-1.8-0.6-1.5c-0.3,0.1-0.4,0.8,0,1.3c0,0.1,0.1,0.1,0.1,0.2c0.1,0,0.1,0.1,0.2,0.1c0.1,0,0.1,0,0.2,0
	C208.9,158.9,209,158.9,209,158.8L209,158.8z M207.1,152.4c2.8-0.5-1.4-2-2.7,0.7c-0.3,0.7,0,1.7,0.4,1.2c0.2-0.5,0.5-0.9,1-1.3
	C206.1,152.7,206.6,152.5,207.1,152.4L207.1,152.4z"/>
<path class="st1" d="M219.4,264.8c1.6,0.5,3.1,1.5,4,2.9c1,1.4,1.4,3.1,1.2,4.8c-0.4,2.4-3.3,2-5.7,1.5c-0.2-0.1-0.5-0.2-0.7-0.3
	c-0.1,0-0.4-0.1-0.4-0.4c0-2.7,1.4-3.9,2.2-5.2c0.2-0.3,0.4-0.5,0.3-0.8c-0.1-0.2-0.7,0.2-1.2,0.8c-1.2,1.3-1.9,2.9-1.9,4.7
	c0,0.8-0.1,0.5-0.8,0.2c-1.5-0.5-1.6-0.4-1.7-1c0-1.5,0.7-3,1.7-4.1c0.2-0.2,0.3-0.4,0.4-0.7s0-0.5-0.1-0.7
	c-0.1-0.2-0.3-0.4-0.5-0.6c-0.2-0.1-0.5-0.2-0.7-0.2c-0.4,0-0.7,0.3-0.8-0.2c-0.3-1-1.2-0.3-1.5-0.8c-0.3-0.5-0.8,0-1.3-0.5
	c-1.5-1.3-3.5,1.3-3.8,2.9s-0.3,1.7-0.6,1.5c-1.2-0.7-0.9-1.1-6.2,0.4c-1.9,0.6-0.7,0-1-1.2c-1.6-5.4-2.7-8.3,1.6-8.1
	c1.8-0.3,4.8,1.8,5.2,0.9c0.4-0.9-4-4.5-4-4.5C207.2,254.2,206.4,260.3,219.4,264.8z"/>
<path class="st0" d="M219.2,162.5c0.4-0.4,0.4-0.2,0.3,0.2c0,0.4-0.5,4-1.4,4.9c-0.6,0.6-1,0.5-3.1-1c-1-0.7-1.5-1.1-1.5-1.3
	c0-0.2,0.7-0.3,1.1-0.4C216.5,164.5,218,163.7,219.2,162.5z"/>
<path class="st1" d="M217.7,235.3c0.1,0.7,0.5,1.1-0.7,1.8c-6.2,3.8-0.1,2.1-14.5,2.9c-8.7,0.4-23.1,1.5-23.4,1.5
	c-1.1,0-1.5-1.1-4.6-3.4c-1.1-0.8-3.3-2-5.1-3.2c-3.9-2.6-5.5-2.1-5.8-3.1c-0.4-1.7-0.5-1.8-0.3-1.9c5-3.9,4.8-1.3,2.2-6
	c-0.1-0.2-0.2-0.3-0.4-0.4s-0.4-0.1-0.6-0.1c-1.2,0.1-2.7,1.9-2.8,1.4c0,0-3.1-14.3-3.2-14.4c-1.3-6.8-1.7-5.9,6.2-6.5
	c1.2,0,2.3,0,3.5-0.2c2.8-0.5,38.5-1.9,39.4-1.9c2.2,0,3.6,0.3,4,1.5C212.5,205,216.7,230.3,217.7,235.3z M210.4,229.9
	c0.4-0.7,0.1-0.8-2.3-3.9c-0.2-0.3-0.6-0.3-0.6,0l-0.8-0.1c0.2-0.8,0.2-1.6,0.2-2.4c0-4.7-1.5-2.1-4.2,1.7l-0.6-0.2
	c0.4-0.1,0.4-0.9-0.2-0.7c-1.1,0.4-2.2,0.7-3.4,0.9c-0.7,0-1.8,4.9-1.9,5.4c-0.2,1.1,1.5,2.9,3.4,5.6c1,1.5,1.9,0.1,4.5,0.2
	c0.6,0,1.9-0.4,2.7-0.4C207.9,235.8,209.1,232.2,210.4,229.9L210.4,229.9z M206.2,214.7c3.2-1.6,3.3-1.5,3-2.2
	c-1.9-5-2.3-4.6-2.8-6.4c-0.5-1.8-2-0.2-4.9,1c-4.6,1.9-2.9,1.6-5.5,2.8c-1.1,0.4-2.1,0.9-3.1,1.5c-0.2,0.2-0.3,0.8-0.1,0.9
	c1.4,1.2,2.8,7.2,4,7.1c1.2-0.8,2.5-1.4,3.9-1.9C202.5,216.6,204.4,215.7,206.2,214.7L206.2,214.7z M192.7,220
	c0.1-0.1,0.2-0.6-0.3-0.5c-0.8,0.1-1,1.3-1.9,1.9c-0.3-1.2-0.9-2.2-1.9-3c-0.7-0.5-1.4-0.8-2.2-0.9c-2.3-0.6-4.6,1.7-5.1,3.7
	c-0.1,0.5-0.9,0.8-1.6,1.5c-2.1,1.9-1.1,3.5-0.8,2.7c0.1-0.6,0.3-1.1,0.6-1.6c0.3-0.5,0.7-0.9,1.2-1.1c0.5-0.4,0,0.4,1.1,2.5
	c1.1,2,2.5,1.7,4.4,1.8c0,0.2,1.2,0,2.7-1.3c1.5-1.3,1.3-3.1,1.6-3.3C191.6,221.8,191.8,220.6,192.7,220z M182.5,238.7
	c0.2-0.6,2.3-6,1.9-6.4c-0.7-0.6-1.6-1-2.6-1.2c-4.7-1-4.8-2.9-5.8,1.6c-0.8,3.6-1.2,3.9-0.2,4.3c0.9,0.4,6,2.3,6,2.3
	c0.2,0,0.3,0,0.4-0.1C182.3,239,182.4,238.8,182.5,238.7L182.5,238.7z M173.7,212.2c0.2-0.9,0.1-1.9-0.3-2.7c-0.4-0.9-1-1.6-1.7-2.1
	c-1.5-1.3-2.4-1-4-1.5c-1.1-0.2-2.2,0-3.1,0.5c-3.1,1-4.1,7.4-1.8,8.9c0.9,1,2,1.8,3.2,2.3c1,0.4,1.8,0.4,4.1-0.4
	C172.3,216.2,173.1,214.3,173.7,212.2L173.7,212.2z"/>
<path class="st0" d="M216.2,177.2c0.1,0.6-1.1,0.4-1.9,2c-0.2,0.3-0.3,0.6-0.3,1c-0.3,0.3-0.6,0.5-1,0.6c0.7-1.3,0.7-2.6,0.4-2.7
	c-0.8-0.3-0.3,1.2-1.7,3.3c-0.8,1.1-2,1.8-3.3,2.1c0.3-0.3,0.5-0.7,0.7-1.2c0.3-0.7,1.3-3.6,0.3-3.6s0.6,3-3.5,5.8c0,0-0.1,0-0.1,0
	c-0.1,0-0.1,0-0.1,0c-0.3-0.2,1-0.4,0.6-4.1c-0.1-0.7-0.4-1.4-0.7-2.1c-0.1-0.2-0.3-0.6-0.6-0.4c-0.6,0.3,0,0.7,0.1,1.7
	c-1.2-0.1-2.3-0.4-3.4-1c-1-0.6-2-1.3-2.7-2.2c-1.2-1.9-1.6-4.2-1.3-6.5c0.4-4.4,5.4-5.4,3.4-10.8c-0.4-1-1.5-2.3-2.1-4.1
	c-1.6-4.1-0.7-9,3.2-11.2c0.2,0.3,0.5,0.6,0.8,0.8c-0.6,0.5-1,1-1.3,1.7c-0.3,0.6-0.5,1.4-0.5,2.1c-0.3,3.8,1.4,5.4,2,8.7
	c1.2,5.7-1.3,10.2,11.8,15.6C215.6,173.1,215.4,173.3,216.2,177.2z M212.5,175.1c0.2-0.1,0.1-0.3,0-0.5s-0.3-0.4-0.4-0.7
	c-0.4-0.9-0.3-1-0.6-1s-0.4,1.3,0.4,2.1C212.3,175.4,212.4,175.2,212.5,175.1z M209.3,176c0.1,0,0.1-0.2,0.2-0.3
	c-0.4-2.2-3.2-4.4-3.5-5.4c-0.1-0.5-0.7-0.5-0.7,0.2c0,1.2,2.4,3,3.1,4.9C208.6,175.8,208.9,176.2,209.3,176z M202,170.9
	c-0.1-0.8,0-1.6,0.2-2.3c0.2-0.7,0.6-1.4,1.1-2c0.3-0.4,0.1-0.7-0.2-0.6c-0.4,0.1-0.6,0.4-0.8,0.7c-0.5,0.8-0.9,1.6-1,2.5
	c-0.2,0.9-0.1,1.8,0.1,2.7c0.3,1.3,1.1,2.5,2.1,3.4c0,0,0.1,0.1,0.1,0.1c0,0,0.1,0,0.1,0s0.1,0,0.1,0c0,0,0.1,0,0.1-0.1
	C204.2,174.5,202.3,173.8,202,170.9L202,170.9z"/>
<path class="st1" d="M211.9,240.6c0,0.1-0.1,0.1-0.2,0.2c-0.1,0.1-0.7,0.6-1.1,0.8c-1,0.7,0.6,0-22.8,1.5c-4.3,0.2-5.6,0.6-6.4,0.6
	c-0.7,0-0.8-0.4-2-1.3c-0.2-0.1,0-0.2,1.1-0.3C181.8,241.8,210.8,239.9,211.9,240.6z"/>
<path class="st0" d="M209.2,228.6c1,1,0.5,1-0.7,3.4c-2.2,4.7-0.2,2.5-7.3,4c-0.1,0-0.3,0-0.4,0c-0.1-0.1-0.2-0.2-0.3-0.3
	c-2.7-3.5-3.6-4.4-3.3-5.4c1.5-6.2,1.5-4.4,4.8-5.5l0.6,0.2l-0.2,0.2c-0.6,0.8-1,1.7-1.3,2.7c-0.2,0.2,0-0.4-1.8,0.7
	c-0.1,0-2,4.4,0.7,3c0.9-0.4,0.8-0.8,1.5-0.3c1.8,1.1,2.3,0.3,2.7,1c0.8,1.7,1.2,2.7,2.5-1.5c0.3-1.1-1.2-0.9-0.7-2.7
	c0.2-0.8,0.4-1.6,0.6-2.4l0.8,0.1C207.4,226.3,207.8,227.2,209.2,228.6z"/>
<path class="st0" d="M207.7,210.3c1.3,3.3,1.7,1.9-4.9,5.3c-0.6,0.4-1.3,0.7-1.9,0.9c-3.4,1.1-4.2,2.5-4.4,1.7
	c-0.8-2.2-1.8-4.3-2.9-6.3c-0.4-0.3-0.3-0.2,2.8-1.6c0.9-0.4,1.6-0.9,3.1-1.8c0,0,5.6-2.6,6.2-2.7c0,0.1,0.2,0.2,0.2,0.3
	C206.3,207.6,207,209,207.7,210.3z M207,211c0-0.1,0.1-0.1,0.1-0.2c0-0.1,0-0.1-0.1-0.2c0-0.1-0.1-0.1-0.2-0.1c-0.1,0-0.1,0-0.2,0
	c-0.1,0-0.6,0.5-0.9,0.4c-1.1-0.4-1.3,0.8-1.8,0.4c-0.5-0.4-1.2-0.6-1.3,0.3c-0.4,2.8-1.3-0.9-2.6,0.7c-0.3,0.3-0.1,1.3-0.3,1.4
	c-1.3,0.5-0.6,0.2-2.5-0.3c-0.3-0.1-0.6-0.2-0.7-0.5c-0.1-0.3,0.2-0.5,0.4-0.7c0.6-0.7,1,0.5,1.1,0c0.2-0.7-0.5-1.1-1.1-0.8
	c-1.3,0.6-1.5,2-0.3,2.5c1.1,0.5,1.3,0.1,0.8,1.5c-0.3,0.9,2.2,1.5,2.1-0.4c-0.1-0.8,1.1-0.4,1-1.7c0-0.3,0-0.6,0.1-0.6
	c0.8,0.2,0,0.4,1.8,0.7c0.6,0.1,0.7-0.7,0.7-1.3c0.1-0.6,0.8,0.7,1.5,0C205.6,211,205.8,212.1,207,211z"/>
<path class="st0" d="M182.4,244.5c0.9-0.4,23.7-1.9,25.9-1.5c0,0-12.1,9.1-13.4,9.7c-0.6,0.2,0,0.5-7.3-4.6
	C187.4,248,182.8,245,182.4,244.5z"/>
<path class="st1" d="M205,222.8c1.2-1.7,1.2-0.8,1.2,0.4c0,1.9-0.3,3.8-0.9,5.5c0,0.3-0.2,0.3-2.2,0c-0.5-0.1-1-0.6-1.2-0.2
	s1.7,1.1,2.3,1.1c0.7,0,1,0,0,1.3c-0.5,0.8-0.8,0.6-2.6-0.4c-0.5-0.3-0.2-0.6-0.1-1.4c0.1-0.8-0.5-0.7-0.6-0.2
	c-0.2,1.1-0.2,1.6-0.8,1.8c-0.7,0.3-1,0.6-0.9,0.2c0.3-1.2,0.2-1.7,0.7-2C202.6,227.9,200.5,229.3,205,222.8z"/>
<path class="st1" d="M205.5,230c0.6,0.5,0.8,0.6,0.7,0.8c-0.8,2.1-0.8,2.1-0.9,2C204.5,231.3,204.5,232,205.5,230z"/>
<path class="st0" d="M204.9,258.9c1.9,1.6-1.1-0.3-4.1,0c-4.8,0.6-2.1,4.6-3.3,4.4c-8.8-1.1-17.5-3-25.9-5.6
	c-3.4-1-12.2-4.1-14.8-6.5c-1.6-1.2-3.2-2.5-4.7-3.9c0.8,0,2.3,0.3,2.3-0.4c0-0.8-4.2-0.3-6.6-2.6c-3-2.9-2-4.4-2.6-7.7
	c-0.5-3.3,3.2-8.8,9.2-10.4c8.1-2.1,6.8-0.7,7.5,2c1,4.1,1.5,3.4-2.3,2.7c-0.4-0.1-0.8-0.1-1.1-0.1c-0.6,0.4-0.3,0.7,0,0.8
	c15,3,20.6,13.6,37.9,23.2C203.6,259.2,199.7,254.6,204.9,258.9z"/>
<path class="st0" d="M203.8,90.3c0,0.2-0.1,0.3-0.3,0.3c-8.1-1.3-6.3,1.7-7.8,2.1c-1.2,0.1-2.3,0.3-3.4,0.6
	c-1.4,0.8-1.2,1.5-0.7,1.9c0.8,0.8,4.9,1,5.2,0.7c0.7,0.1,1.5-0.1,2.1-0.3c0.4-0.1,0.4-0.1,2.8,0.3c2,0.4,1.9,0.3,1.9,0.7
	c-0.2,18.7,0.6,17.9-0.4,17.8c-21.6-0.6-43.7-0.3-67.1,5c-0.6,0.1-0.4,4-0.6-38.2c0-2.1-0.5-2.2,0.3-2.2c0.2,0,67.4,0,67.6,0.1
	S203.8,89.2,203.8,90.3z"/>
<path class="st1" d="M203.9,95.2c-0.1,0.4-0.5,0.1-1.8-0.1c-2.1-0.4-2.4-0.5-3.4-0.2c-2.1,0.6-4.3,0.6-6.4-0.1
	c-0.4-0.3-0.1-0.7,0.6-0.9c0.8-0.2,1.6-0.2,2.4-0.2c3.7-0.5,0.5-4,8.4-2.2C203.9,91.6,203.9,95,203.9,95.2z"/>
<path class="st0" d="M198,176.7c0.7,1,1.5,1.8,2.5,2.4c1,0.6,2.1,1,3.3,1.2c-2,1-6,3.9-6.9,7c-1.3,4.3-0.6,2.1-4.4,2.7
	c-2.3,0.1-4.6,0.4-6.8,1c-1.1,0.3-2,1-2.6,2c-0.3,0.3,0-0.2-1.5-1.3l-0.4-0.3c-2.4-1.6-9.2-1.5-15.4-1.6c-3.2,0-14.5,0.5-15.8,0
	c0.4-0.3,0.6-0.5,0.3-0.9c-2.4-3.3-2.6-0.4,0.7-9.2c1-2.5,0.8-2.6,1.6-2.6C153.2,177.1,197.3,176.7,198,176.7z"/>
<path class="st0" d="M254.3,192c-1.4,0,0.6-0.7-1.8,17.8c-0.7,5.4-0.6,5.7-1.9,6c-1.2,0.3-1.5,0-1.7,0.8c-0.5,3.3-1.3,6.6-2.3,9.8
	c-0.3,0.9-0.3,0.7,0.4,1c2.1,1.1,5.5,3.9,6.1,6.7c0.3,1.6,1,2.9,1.2,4.2s-0.1,0.8-0.7,6.8c-0.7,5.7-3.5,10.8-8,14.4
	c-3.9,2.9-8.7,3.4-15.5,2.5c-4.4-0.6-6.4,0.1-8.8-2.3c-0.6-0.6-0.8-0.4-4.4,0.5c-3.3,0.9,8.6,1.2,10.2,8.8c0.2,0.9,0.2,1.8-0.1,2.7
	c-0.3,0.9-0.7,1.7-1.4,2.3c-4.6,3-10.7-1.2-11.6-0.7c-0.9,0.5-1-0.6-1.8-0.4c-0.8,0.2-1.2-0.7-1.3-0.7c-1.1-0.3-1.5-0.7-1.8-0.7
	c-1.8,0.2-0.9-1.8-2.4-2.3c-0.2-0.2-0.5-0.3-0.8-0.3c-0.3,0-0.6,0-0.8,0.1c-1.6,0.5-1.5,0.1-3.2,0.7c-0.6,0.2-1.2,0.4-1.8,0.5
	c-0.3,0-0.5-0.1-0.8-0.2c-0.2-0.1-0.4-0.3-0.6-0.6c-4.4-6.4,0.7-4.9-5.5-5.8c-6.7-1.4-13.5-2-20.4-1.9c-2.5,0-2-1.6-7.7,5.5
	c-2.5,3.1-2.8,3.3-2.5,3.3c12.7-1.3,15.7,0.5,37.5,0.2c5.7,0,6.9-0.7,6.9,0.2c0,2-37.7-0.7-44.8,0.6c-1.3,0.1-0.9,2.2-0.9,7.3
	c0,0.9,0.4,1.1,1.6,1.2c0.7,0,16.4-0.1,20-0.2c3.4-0.2,6.8-0.1,10.2,0.3c1.3,0.2,18.6,0.2,19,0.3c1.2,0.2,2.7-0.4,4-0.2
	c3.1,0.5,6.2,0.7,9.3,0.5c6.4-0.3,12.7-0.3,19.1,0c1.1,0,0.9-0.4,1.3-3.9c0.2-1.2,0.1-2.3-0.1-3.5c0-0.5,0.6-1.1,0.9,0.4
	c0.5,2.9-0.7,7.3,0.1,6.1c0.9-1,1.9-1.9,2.9-2.8c7-7.6,7.4-3.5,7.8-19.3C259.5,187.2,265.8,192.3,254.3,192z M257.6,217
	c-0.2,1.2-1.5,0.9-0.9,1.8c1.2,1.9-0.3,7.1-0.1,14.5c0,1.9-1,1.3-0.6,2c0.7,1.8,0.8,3.7,0.4,5.6c-0.4,2.9-0.4,7.3-0.5,9
	c-0.2,2.6-0.9,2.1-0.8,2.7c0.2,3.7,0.1,7.4-0.4,11.1c-0.4,2.1-2,2.8-3.2,4.1c-4,4.4-3.7,4.2-11.3,4.2c0-0.3-9,0-11.6-0.4
	c-1.2-0.2-0.6-0.8,0-0.8c20.6,0.8,18.2,0.4,22.3-3.8c2.3-2.3,2.9-2.2,3.1-5.6c0,0,0.4-6.9,0.2-8.5c-2.2-0.3-2.1-0.2-2.1-0.5
	c0-0.1,0-0.1,0-0.2c0.1-0.4,0.6-0.3,1.4-0.3c1.9,0,1.1-1.3,1.9-10.5c0.5-2,0.4-4.1-0.3-6c-0.1-0.3-0.3-0.3-0.4-0.4
	c-0.8,0-0.7-0.7-0.4-0.7c2.7-0.8,0.5,1.8,1.9-11.8c0.2-2,0.3-4-1.7-4h-4.7c-0.4-0.3-0.3-0.7,0-0.7c0.9-0.1,2.8,0,4.7,0
	c3.1,0,2-0.5,3-10.3c0.3-3.4,0.3-6.9,0.2-10.3c-0.1-1.8-0.3-1.8-0.8-1.9c-1.2-0.3-1.9,0-1.9-0.2c-0.1-0.9,2.4-1.2,3.2,0.2
	C259.5,197.1,257.9,214.4,257.6,217z"/>
<path class="st0" d="M198.9,214.9c0,0.6-0.8,0.6-0.8,0.2c0-0.4,0.3-0.5,0.5-0.5C198.8,214.7,198.8,214.8,198.9,214.9z"/>
<path class="st0" d="M195.5,190.8c0,0.1,0,0.2,0,0.2c0,0.2-1.1,3.5-1.2,3.8c-0.4,1.5-2,6.5-3.5,6.6c-2.8,0.1-7.8,0.4-8.5,0.4
	c-0.7,0-0.6,0.1-0.4-0.9c0.4-2.4,1-4.8,1.7-7.2c0.2-0.5,0.6-1,1-1.4c0.4-0.4,0.9-0.6,1.5-0.8c2.6-0.7,5.2-1,7.8-1
	C194.5,190.6,195,190.7,195.5,190.8z"/>
<path class="st1" d="M177.6,230.6c5.9,1.9,6.4,1.5,6,2.6c-1.9,5.5-1.7,5.3-2.1,5.1c-3-1.3-5.8-1.8-5.6-2.3
	C176.6,233.9,176.8,230.5,177.6,230.6z"/>
<path class="st0" d="M182.4,193.5c0.2,0.3,0.3-0.1-1.6,7.9c-0.2,0.7-0.2,0.4-1.2,0.6c-0.4,0.1-0.5,0-0.5-0.4
	c0.1-0.4,0.8-4.1,0.9-4.4c0.4-1.3,0.7-2.7,0.9-4c0.1-1.1,0-1.1,0.6-0.6C182,192.9,182.2,193.2,182.4,193.5z"/>
<path class="st0" d="M179.4,261c0.5,0.1,0.4,0.1,0.2,0.3c-3.1-0.3-6.3-0.4-9.4-0.4c-0.4,0-0.4-0.1-0.4-0.2c0-0.6,0.1-1.3,0.4-1.8
	C170.7,258.2,171.2,259.2,179.4,261z"/>
<path class="st0" d="M173.1,211.3c0,1.4-0.5,2.7-1.4,3.7c-0.9,1-2.2,1.7-3.6,1.8c-2.5,0.4-3.4-0.7-5.3-2.3c-1.3-1.1-0.6-4,0.1-5.7
	C164.4,205.3,172.3,205.8,173.1,211.3z M167.7,215.7c4.8-1.2,4.6-4.2,4.1-4.2c-0.7,0-0.1,1.4-1.6,2.2c-0.4,0.4-0.9,0.8-1.5,1
	c-0.6,0.2-1.2,0.2-1.7,0.1c-0.6-0.1-1.1-0.3-1.6-0.7c-0.5-0.5-1.2-0.9-1.1-1.8c0-0.5-1.1,0.1-0.4,1.1c0.4,0.6,1,1.2,1.7,1.6
	C166.2,215.5,166.9,215.7,167.7,215.7z M169.7,210.3c0-0.6-0.2-1.2-0.5-1.7c-0.3-0.5-0.8,0-0.7,0.5c0.3,1.5,0.4,2.1,0.8,2.1
	C169.5,211.1,169.6,210.6,169.7,210.3z M165.8,211.6c0.5,0,0.3-0.9,0.2-1.8c-0.2-1.1-0.9-1.1-1,0
	C165.3,211.2,165.3,211.6,165.8,211.6L165.8,211.6z"/>
<path class="st0" d="M166.7,257.4c2.9,0.8,2.9,0.7,2.7,1c-0.5,0.8-0.7,1.7-0.7,2.7c-0.1,1.1,0.9-0.2-1.7,2.8c-1.8,2-1.9,2.6-1.7,1
	c-0.3-4.4,0-3.4,0.7-5.9C166.4,257.6,166.3,257.3,166.7,257.4z"/>
<path class="st1" d="M165.3,224.8c1.7,3.4,2,0.9-1.3,3.6c-0.3,0.2-1,0.9-1.1,0.6c-0.8-2.9-1-3.4-0.7-3.6
	C164.5,223.6,164.6,223.5,165.3,224.8z"/>
<path class="st0" d="M163.7,267.8c-1.3,1.5-3.1,3.4-3.2,5.3c-0.1,2.6,0.2,3-0.2,3.1c-0.4,0.1,0.3,0.2,0,0.4c-1,0.8-1.8,1.7-2.6,2.7
	c-0.6,0.7-0.4-0.8-0.4-3.5c-0.3-1.2-0.3-2.5-0.2-3.7c0-0.9-0.1-1,0-1.2s6.8-8.1,7.3-8.4c0,0.1,0,0.2,0,0.2
	C164.4,266.9,164.6,266.8,163.7,267.8z"/>
<path class="st0" d="M158.2,190.6c-1.3,0.2-2.6,0.3-3.9,0.3c-0.7-0.1-1.5-0.1-2.2,0c-0.4,0.1-0.8,0.1-1.2,0
	c-2.4-0.7-3.2,0.3-11.3-0.6c-1.1-0.1-11.6,0.2-13.3,0.1c-12-0.9-9.8,0.1-13.1-0.1c-1.2-0.1-2.4,0-3.6,0.4c-0.7,0.4-3.2-0.2-4.4,1.8
	c-1,1.7-0.7-0.5-2.7,11.4c-1.7,10.2-2.4,10,2.7,9.7c3.6-0.2,16.2,0.1,16.3,0.1c0.8,0,0.9,0.2,1,0.6c0.1,0.6-4.4,0.1-4.4,0.1
	c-4.1,0.3-8.1,0.3-12.2,0c-0.5,0-1.1,0.1-1.6,0.2c-3-0.1-3.4-1.1-4.4,3.3c-0.8,3.7-0.5,3.9-0.9,6.1c-0.8,3.1-1.2,6.3-1.2,9.6
	c0,1,0.8,2.9,1.6,2.5c2.6-0.5,5.3-0.7,7.9-0.6c1.1,0.3,2.2,0.3,3.3-0.1c4.4,0,3.2,0.2,4.5,0.2c1.8-0.2,3.5-0.2,5.3,0
	c0.4,0,0.6,0.8-0.1,0.8c-1.1-0.1-2.2-0.1-3.3-0.1c-2.9,0.4-3.9-0.5-7.1,0c-2.4,0.4-1.7-0.4-6.7,0.2c-0.8-0.1-1.6,0-2.4,0.1
	c-0.5-0.1-1-0.1-1.5,0c-0.2,0-0.4,0.2-0.6,0.3c-0.3,0.3-1.6,0-2,2.1c-1.2,6.7-2.7,12.1-2.7,20c0,1.5,0.4,1.7-0.1,1.9
	c-0.8,0.3-2,0.6-3.8,1.1c-1.5,0.5-3,0.8-4.5,0.9c-1.4,0.4-2.9,0.7-4.4,0.9c-0.4,0-1.2,0.4-2.1,0.5c-3.2,0.4-6.4,1-9.5,1.9
	c-2.3,0.9-3.3,0.2-5,1.1c-0.6,0.3-0.6,0.6-0.7,2.6c0,0.7,0.9,0.2,2.4,0.1c34.6-1-0.2,1.5,88.5,0c0.7,0,1,0.4,1.4-0.1
	c7.3-9,8.3-8.7,5.2-8.4l-41.5,0.3c-26.4-1.6-21.5,0.4-24.5-0.2c-0.5-0.1-0.8-0.3-0.7-0.4c0.4-0.6,5.8-1.3,25.9-0.2
	c2.4,0.1,9.2-0.5,22.3-0.5c24.4,0,21,1.3,22.3-3.3c0.2-0.6,0.5-0.4-4.9-2.7c-5.5-2.3-10.5-7.9-11.1-8c-1.4-0.5-2.6-1.4-3.5-2.5
	c-2.9-3.6-0.9-7.4-2.2-7.4c-2.3,0-17.4-0.2-19.7-0.1c-0.7,0-0.3-0.8,0.2-0.8c5.1,0.1,2.5-0.4,9.3-0.1c9.9,0.4,2.7-0.2,9.8,0
	c1.2,0,0.1-0.4,1.3-2.8c1.5-2.7,3.7-4.9,6.4-6.4c2.7-1.5,5.7-2.2,8.8-2.1c0.6,0,0.8-0.2,0.6-0.8c-0.7-2.3-1.3-8.3-2.1-8.4
	c-7-0.7-9.9-0.3-16.6-0.5c-8.1-0.1-6.1-0.6-7-0.4c-1.3,0.2-2.6,0.2-3.9,0c-2.2-0.2-4.3,0.9-4.6-0.3c-0.3-1.2,31.4,0,31.9,0.1
	c0.5,0.1,0.3-0.1-1-6.1c-1.1-5,0.1-5.3,8.2-5.4c1.1,0,2.7-0.4,3.9-0.4c5.7-0.4,7.8-0.2,8.8-0.4c0.2,0,1-4.6,2-8.7
	C180.8,190.9,178.4,190.5,158.2,190.6z"/>
<path class="st0" d="M154.1,280.2c-7.5,0-55.9-0.3-60.6-0.2c-3.4,0.1-7.6-0.6-10.6-0.6c-7.9,0-12.2,0.2-14.7,0.3c-4,0.2-3,0.4-4.6,0
	c-0.5-0.1-0.4-0.3-0.6-4.5c0-2.9-0.2-3.7,1.2-3.8c1.3-0.2,2.6-0.3,3.9-0.2c1,0.1,2.8-0.2,3.1-0.2c3.7,0.3,7.4,0.3,11,0.1
	c0,0,55.1,0.3,56.6,0.4c0,0,16.4-0.3,16.7-0.3c1,0,0.7,0.3,0.7,2.5C156.5,281.3,157.1,280.2,154.1,280.2z"/>
<path class="st0" d="M143.4,186.2c0.4,0.9-1.5,0.3-1.7,2.9c0,0.4-0.2,0.4-0.5,0.4c-0.5,0-1.1-0.1-1.6-0.2c-2.1-0.5-3.2,0.3-3.2-0.3
	v-11.2c0-0.8,0.1-0.9,0.4-0.9c1.8,0.1,3.5,0.1,5.3,0c0.3,0,0.2-0.3,0.7,2.7c0,0.1,0,0.3,0,0.4C143.5,184.6,142.9,185,143.4,186.2z"
	/>
<path class="st0" d="M132.8,188.9c0,2-14.5-1.6-26.7,1.7c-1.1,0.3-0.9,0.9-1.5,1.5c-0.8,0.7-0.8,1.4-1.3,3.1
	c-2.5,0.1-34.4-0.2-36.5,0.1c-0.5,0-0.3-115.3-0.3-115.3c0-1.1-7.1-0.9,65.3-0.8c0.4,0,0.6-0.3,0.7,0.3c0.3,1.7,0.1,9,0.1,40
	c0,0.2,0.1,0.4-0.1,0.6c-3,1.2-14.2,2-25.3,12.4c-2.6,2.4-3.9,5.2-5.1,5.7c-8.8,3.7-16,7.1-21.6,11.4c-2.8,2.1-3.5,3.5-2.9,6.7
	c2.4,12.2,33.1,19.3,45.6,20.3c10,0.9,9.6,0.1,9.6,1.2C132.7,189.3,132.7,182,132.8,188.9z M130,102.7c0.2-0.1,0.3-0.2,0.4-0.3
	c0.1-0.1,0.2-0.3,0.2-0.5c0-0.2,0-0.4-0.1-0.5c-0.1-0.2-0.2-0.3-0.3-0.4c-3-2.5-3.5-2.5-3.6-3.4c-0.2-2.9-4.2-3.9-6.3-2.4
	s-1.5,2.5-2.4,2.4c-2.6-0.1-2.6,0.2-2.8-0.5c-0.6-2.5-3.9-3.5-6-3.2c-2.9,0.3-2.1,2.3-3.1,2.5c-4.8,1-3,3.5-5.7,3.6
	c-1,0-2,0.3-2.8,1c-1.4,1,1.9,3.1,2.8,2.6c0.9-0.5,4.6,0.8,8.9-0.5c2.9-0.9,0.2,0.5,10.3,0.1c1.3,0.1,2.6,0,3.9-0.1
	c1.2-0.4,2.5-0.4,3.8-0.1C128.1,103,129,102.9,130,102.7z"/>
<path class="st1" d="M125.8,97.9c0,1.6,5,3.9,3.7,4c-3.4,0.2-4.5,0-7.3,0.4c-3.5,0.4-7.1,0.3-10.6-0.3c-1-0.2-5,0.8-6.7,0.9
	c-1.5,0-3.5-0.7-4.9-0.1c-0.7,0-1.3-0.3-1.8-0.8c-0.5-0.6,0.9-1.2,1.7-1.1c0.6,0,1.1-0.1,1.6-0.3c0.5-0.3,0.9-0.6,1.3-1.1
	c0.4-0.6,0.9-1.2,1.5-1.5c0.6-0.4,1.3-0.6,2-0.7c1.7-0.5,0.2-2.4,3.5-2.5c6.6,1.3,3.3,3.4,5.5,3.8c0.9,0.1,1.8,0.1,2.7,0
	c1.2,0.1,0.7-0.2,2-1.9C121.7,94.5,125.8,95.1,125.8,97.9z"/>
<path class="st0" d="M103,196c0.1,0.1,0,0.9-0.2,2.1c-0.8,4.4-3,14.1-2.1,15.6c0.6,0.9-1-0.7-2,7.5c-0.7,5.3-2.7,11-0.9,14.9
	c0.2,0.4,0.5,0.4-0.1,0.6c-1.4,0.6-1.5,1.3-3,10c-0.8,4.7-0.8,5.2-1.2,8.2c-0.1,0.8,0.6,0.6-7.3,0.6c-21.8,0-19.9,0.4-19.9-0.3
	v-58.5c0-0.6,0-0.6,0.6-0.6C76.5,196.1,102.5,195.7,103,196z"/>
<path class="st0" d="M91.7,287.8c7.8,0.2,6.9-0.6,6.7,2.5c-0.2,2.3-2.1,21.3-2.7,23.5c-0.4,1.5-7.8,3.8-11.2,4.9
	c-4.7,1.7-4.5,0.2-4.8-1.8c0-0.2,0-0.4,0.3-0.4c2-0.4,4-1,6-1.6c4.9-1.2,3.3,0.1,4.2-14.8c0.2-2.7,0.5-4,0.7-9.3
	c0.1-2.6-0.3-3,0.5-3.1C91.4,287.8,91.7,287.7,91.7,287.8z"/>
<path class="st0" d="M79.4,319.5c0.3,0.5,0,0.3-3.8,0.2c-5.8-0.1-5.3,1.3-6-12.2c-1.5-26-2-20,3.7-20.3c1.5-0.2,3-0.1,4.4,0.2
	C78.2,287.5,77.6,316.4,79.4,319.5z"/>
<path class="st1" d="M278.2,234.8l-2.8-0.4V78.7h2.8V234.8z"/>
<path d="M333.9,284.9c-0.9-5.8-2.5-7.6-3-9.7c-0.4-2.3-1-4.6-2-6.7c-0.8-1.5-2-2-2-2.7c0.2-2.1,0.2-4.2,0-6.3
	c-0.3-3-0.9-3.1-0.4-3.1c1.1,0,6.7,0.4,6.7-1c-0.8-183.5,0.6-176.4-1.1-176.6c-4.7-0.8-265.9-0.8-266.3,0
	c-0.4,3.3-0.2,170.6-0.3,177c0,1.3,28.1-0.2,28,0.8c-0.1,2.6-0.3,2.9,0.1,3.7c0.1,0.2-0.9,0.9-1.6,0.7c-0.3-0.1-1.6,0.4-9.3,2
	c-0.9,0.1-1.7,0.2-2.6,0.4c-1.5,0.5-3.1,0.7-4.8,0.8c-1,0.3-2.1,0.6-3.1,0.8c-1.6,0-3.3,1.1-4.7,1.2c-1.8,0-3.9,0.5-4,2.3
	c0,1.8,0,2.1-0.4,2.2c-2,0.6-0.6,4.9-0.9,8.4c-0.3,2.6,3.1,0.4,2.5,3.8c-0.1,1-0.1,1.9,0,2.9c0,1,1.5,1.5,2.3,1.5
	c0.5,0,0.8,0,0.7,0.9c-0.1,1.3,1,25.3,1.3,27.4c0.5,3,0.2,5,3.1,5.1c8.1,0.3,8.3,0.7,15.1-1.8c8.1-3,8.8-3.2,9-4.4
	c3.3-21.6,2-26.2,3.8-26.3c13.3-0.5,17.2,0.2,34.4,0s71.6,0.8,86.8-0.3c0.8,0,0.1-1.3,1.5,22c0.4,7.3,0.7,10.3,2.5,10.4
	c9.9,0.5,10.5,1,24.3-4.7c1.2-0.5,1.8-1.5,2.1-5.1c0-0.2,2-17.9,2.2-21.7c0-0.2,0-0.5-0.1-0.7c0.4-2.4,0.6-4.8,0.6-7.2
	c0-0.2,0.1-0.4,0.6-0.7c0.8-0.4,0.5-1.2,0.6-7.1c0-1.6,2.4-0.8,2.6-9.5c0.2-7.1,0.2-7.1,0.3-7.3c0.1-0.2,3.7-0.1,7-0.1
	c1.7-0.1,3.4,0,5.1,0.3c-0.2,1.1-0.6,2.1-1.1,3c-2.1,2.7-2.2,11.2-4.7,14.2c-0.9,1-0.2,2.7,1.2,3.8c0.6,0.5-0.4,0.9-0.8,3.3
	c-0.6,3.2-0.7,2.8-0.8,10.3c-0.2,9.3-0.9,6.2-1,13.9c-0.1,9.7-0.9,9.4-0.6,10c1.4,3.1,5.7,2.9,8.2,3.1c3.2,0.2,6.4,0.7,9.6,1.6
	c4.2,0.1,8.3,0.5,12.4,1.2c5.6,0.3,12.5,1,14.3,0.6c1.1-0.1,2.2,0,3.3,0.2c3.3,0.3,5.1-0.8,7.6-0.6c0.7,0,2.1-0.2,2.9-0.1
	c1.1,0.1,4-0.4,4.8-1.7c1-1.7,3.6,2.4,6.9-0.8c2.9-2.9,3.9-3.5,4.7-8C338.5,303.6,337.6,308.5,333.9,284.9z M323.9,255.5
	c-1,0.7-2.1,0-2.6-0.8c-2-3.1-2.8-6.8-2.2-10.5c0.3-2,1.2-3.8,2.5-5.3c0.3-0.4,0.2-0.6,0.1-0.7c-1.2-1-5.8,6.4-2.8,13.6
	c0.4,1.1,0.8,2.2,1.4,3.3c0,0.1,0,0.2-0.1,0.2c-8.4-1.9-40.3-4.3-40.9-4.4c-1.5-0.4-3.1,0.3-6.3,0.1c-0.7,0-2.2,0.7-3.7-2.2
	c-0.8-1-1.2-2.3-1.1-3.7c0.1-1,9.4,0.8,10.8,0.2c-0.9-1.3,0-0.1-6.9-1.2c-2.8-0.4-3.8,0.2-3.9-0.1c-0.4-1.8-0.6-1.1,0-2.8
	c0.2-0.6,0.2-0.7,0.9-0.6c1.5,0.3,3,0,4.4,0.2c5.1,0.5,1.5,0.4,6.4,0.9c1.2,0.1,12.6,1.1,12.3-0.2c-0.3-0.9-4.1-0.1-9.3-0.4
	c-5.5-0.3-6.8-1.4-14.1-1.2c-0.7,0-0.3-1.6,0.2-2.2c3.6-4.4,1.2-2.9,21.4-1.9c18.9,1,15.8,1.8,28,1.1l4.6,0.1c1.3,0,2.7,0.2,4,0.7
	c0.8,0.4,1.5,1,2,1.7c0.5,0.7,0.9,1.6,1,2.4c0.8,3.5,0.2,7.2-1.6,10.3C327.1,254.7,325.1,254.7,323.9,255.5z M332,255.4
	c0,0-5.2-0.1-5.4-0.2c4.2-1.5,5.7-10.7,4.3-14.1c-2.2-5-3.4-4.3-7.7-4.9c-2.7-0.4-12.1,0.9-20.1-0.5c-2.7-0.5-11.3-0.5-23.7-1.3
	c-0.8,0-0.3,2.2-0.6-36.7c0-0.4,5.7,0,5.8,0c2.8,0.3,5.5-0.6,7.6-0.5c39.9,2,40.2-1.1,40.2,1.2C332.4,260,332.7,255.4,332,255.4
	L332,255.4z M306.8,196.8c-3.2,0-6-0.7-8.8-0.3c-0.8,0.1-5.3-0.2-6.1-0.2c-2.3-0.2-3.6,0.7-7.4,0.5c-5.6-0.3-5.7,0.4-5.7-0.8
	c-0.1-20.6-0.4-18.9,0.3-18.8c1.6,0,7.3,0.1,8.7,0c0.7,0,0.2,0.1,0.6,4.7c0.2,2.9,0.7,4.5,1.9,5.2c1.2,0.7,3.3,0.5,14.4,0.6
	l27.6,0.1c0,4.7,0,7.8,0.1,8.5C332.4,196.7,335.1,196.8,306.8,196.8z M303.9,93.9c0.9,0.2,1.9-0.7,4.7-1.1c3.9-0.6,5.1,1.1,7.4,3.4
	c1.8,1.7,7.3,1.2,9.2,2.5c1.4,1,0.2,2.4-1.4,2.9c-1.7,0.3-3.4,0.4-5,0.2c-1.6-0.2-3.6-0.1-5.3-0.2c-18.3-0.9-22.1,0.9-25.6,0.1
	c-1.8-0.4-2.8,0.1-4.4-0.3c-0.7-0.2-0.7-0.4-5-0.2c-0.4,0-0.3-0.1-0.3-3.2c0-4.7-0.2-6.8,0-7.3c1.7,2.5,4.4,2.1,5,0.6
	c1.3-2.6,0-0.7,1.6-3.3c1.5-2.1,6.9-3.6,9-2.6s3.6,1.8,4.7,2.3c2.8,1.3,3,1.3,3.8,3.1C303.3,92.6,301.7,93.5,303.9,93.9L303.9,93.9z
	 M332.3,187c-2.6-0.1-32.8-0.4-33.6-0.4c-0.8,0-0.9,0-0.8-0.7c1-5.1,1.3-10.3,0.9-15.5c-0.1-4.5-1.8-6.5-1.2-6.3
	c0.6,0.2,9.9,0.3,18.3,0.4c4.3,0.3,8.7,0.2,13.1-0.1c0.7-0.1,0.8-0.8,0-0.7c-5.2,0.1-9.8-0.1-13.8-0.2c-11-0.2-18.3-0.7-21.9-0.3
	c-3.8,0.6-4.1,2.2-5,11.8c-0.1,1.3,0.1,1.6-0.9,1.6c-0.6,0-6.5-0.1-8.4-0.1c-0.7,0-0.4,0.5-0.5-7.6c0-0.5-0.1-0.9,0.2-0.9
	c0.3,0,8.8,0.2,9.1,0.1s0.3-0.3,0.2-0.5c0-0.1-0.1-0.2-0.2-0.3c-0.1-0.1-0.2-0.1-0.3-0.1c-2.1,0.1-8.1-0.1-8.4-0.1
	c-0.3,0-0.7,0-0.7-0.4c0-4-0.3-50.8-0.3-51.1c0-0.3,37.5,0.3,54,0.4C332.3,140.7,332.3,171.7,332.3,187z M294.1,183.6
	c1.2-5.1,1.6-14.3-0.9-19.1c-0.1-0.2-0.2-0.3,3.4-0.4c0.2,0,0.3,0,0.4,0.3c1,3.6,1.4,7.3,1.2,11c0,3.2-1,10.4-1,10.4
	c-0.3,1.3-1,0.9-4.7,1.1C291.7,187,293.4,186.4,294.1,183.6L294.1,183.6z M290.8,186.5c-0.7-0.3-1.3-1.7-1.5-3.9
	c-0.4-4.4-0.3-8.8,0.5-13.2c0.1-1,0.3-1.9,0.6-2.9c0.3-0.8,0.8-1.7,1.6-1.6c0.2,0,0.8,0.1,1.5,3.1c0.8,5,0.8,10.2-0.2,15.2
	C292.8,185.2,291.5,186.8,290.8,186.5L290.8,186.5z M278.7,79.2c5.6-0.4,51.9,0.1,53.6,0.3c0.1,0,0.1,15.5,0.1,35.2
	c-0.4,0-47.1-0.3-53.7-0.5c-0.6,0-0.3-0.6-0.3-1v-10.8c0-0.6,0.9-0.5,2.4-0.5c0.8-0.1,1.6-0.1,2.4-0.1c1.5,0.5,2.4,0,4.9,0.5
	c3.9,0.7,4.1-0.6,20.3-0.3c12.7,0.2,16.1,1.5,18.1-1.8c1.2-2-2.3-3.1-4.7-3.4c-5.5-0.9-4.5-0.7-7.3-3.2c-4.4-4-11.7,0.8-11.1-1.2
	c0.4-1.5-1-3.7-2.7-4.7c-1.2-0.8-0.9-0.1-2.8-1.2c-5.3-2.9-6.5-2.6-11-1.2c-3.3,1-4.1,4.7-4.6,5.5c-0.2,0.3-0.5,0.5-0.9,0.6
	c-0.3,0.1-0.7,0.1-1.1,0.1c-0.4-0.1-0.7-0.2-1-0.5s-0.5-0.5-0.6-0.9c-0.5-1.1-0.8-0.6-0.8-1.5V80C278.2,79.5,278.2,79.3,278.7,79.2
	L278.7,79.2z M275.9,79.1h1.3c0.2,0,0.2,0.1,0.2,0.3c-0.1,12.2,1,152.2,0.7,154.7c-0.6,0-1.2-0.1-1.8-0.3c0-0.2-0.2-32.1-0.2-66.8
	c0-14.9,0.2-30.2,0.1-43.9c-0.1-24.6-0.5-43.5-0.5-43.7C275.7,79.3,275.7,79.1,275.9,79.1L275.9,79.1z M261.4,192.9
	c-0.7-1.7-2.9-1.8-7.4-1.8c-0.9,0,0.5-0.3-1.6-5c-1.6-3.6-6.5-6.6-10.3-8.3c0.1-0.3,0.2-0.7,0.2-1.1c3.7,0.2,28.6,0.4,32.7,0.3
	c0.3,0,0.2,0.3,0.2,0.4c0,12.7,0,17-0.1,18.4c-0.1,0.8-0.1,0.6-0.8,0.6c-2.3,0.1-11.6,0-12.3-0.1s-0.3-0.3-0.3-0.7
	C261.7,194.7,261.7,193.8,261.4,192.9L261.4,192.9z M242.8,228.8c-3.4-0.6-6.8-0.6-10.2,0.1c-17.2,3.4-12.5,15.2-15.8-2.9
	c-0.1-0.7-0.7-0.5,4.9-1.8c0.9-0.2,1.8-0.3,2.6-0.6c1.3-0.4,2.6-0.8,4-1.2c5.3-1.5,5.1-0.7,6-4.8c0.8-3.6,1-5.4,1.3-6.3
	c0.4-1.2,1.1-0.7,3.9-1s2.9,1.7,8.3,3.1c0.3,0.1,0.7,0.2,1,0.4C247.7,217.2,246.4,229.7,242.8,228.8L242.8,228.8z M253.2,237.7
	c0.6,1.7-0.2,2.7-0.6,4.1c-1.6,5.7-1.2,4.8-5.1,7.8c-2.5,1.9-1.9,3.9-4.8,5.7c-1.3,0.5-2.7,0.9-4,1.1c-2.1,0.5-2.1,1.9-5.2,1.9
	c-3.9-0.6-3.4-0.4-5.1-1.7c-0.4-0.2-0.1-0.3,1.5-1.1c0.8-0.4,1.7,1.2,3.7,0.9c2-0.3,1.8-1.1,4.7-1.8c3.1-0.8,4.6-3.5,5.7-4.9
	c0.7-0.8,4.6-3.7,5.4-7c0.4-1.4,0.6-2.9,0.7-4.4c0-2.1-0.7-4.1-1.9-5.8c-2.4-3.1-4.4-2.5-2.9-3.7c0.7-0.6,0.6-0.9,1.2-0.5
	C251.8,231.5,251.8,233.3,253.2,237.7L253.2,237.7z M220.3,267.3c-0.2-0.3-0.7,0.2-1.2,0.8c-1.2,1.3-1.9,2.9-1.9,4.7
	c0,0.8-0.1,0.5-0.8,0.2c-1.5-0.5-1.6-0.4-1.7-1c0-1.5,0.7-3,1.7-4.1c0.2-0.2,0.3-0.4,0.4-0.7c0.1-0.2,0-0.5-0.1-0.7
	c-0.1-0.2-0.3-0.4-0.5-0.6c-0.2-0.1-0.5-0.2-0.7-0.2c-0.4,0-0.7,0.3-0.8-0.2c-0.3-1-1.2-0.3-1.5-0.8c-0.3-0.5-0.8,0-1.3-0.5
	c-1.5-1.3-3.5,1.3-3.8,2.9c-0.3,1.6-0.3,1.7-0.6,1.5c-1.2-0.7-0.9-1.1-6.2,0.4c-1.9,0.6-0.7,0-1-1.2c-1.6-5.4-2.7-8.3,1.6-8.1
	c1.8-0.3,4.8,1.8,5.2,0.9c0.4-0.9-4-4.5-4-4.5c4.4-2,3.5,4.1,16.5,8.6c1.6,0.5,3.1,1.5,4,2.9c1,1.4,1.4,3.1,1.2,4.8
	c-0.4,2.5-3.3,2-5.7,1.5c-0.2-0.1-0.5-0.2-0.7-0.3c-0.1,0-0.4-0.1-0.4-0.4c0-2.7,1.4-3.8,2.2-5.2
	C220.3,267.7,220.5,267.5,220.3,267.3z M213.7,272.6c-1.1,0.1-0.5-2.7-0.2-3.7c0.5-1.6,1.5-2.9,2.3-2.1c0.8,0.8-1.1,0.9-1.8,4
	C213.8,271.6,214.1,272.6,213.7,272.6z M211,266.3c0.3-0.5,0.8-0.8,1.3-1.1c0.2,0,0.5,0,0.7,0.1c-0.8,0.8-1.3,1.8-1.7,2.9
	c-0.6,1.9-0.3,3.4-0.9,2.9c-0.2-0.1-0.5-0.2-0.5-0.7C209.8,269,210.2,267.6,211,266.3L211,266.3z M209.1,270.6c0,0.4-0.5,0-0.6-0.3
	c-0.5-1.7,0.6-5.1,2.3-5.6c0.1,0,0.2-0.1,0.3,0c0.1,0,0.2,0.1,0.2,0.2c0.1,0.1,0.1,0.2,0,0.3s-0.1,0.2-0.2,0.2
	C209.9,266.2,209.4,268,209.1,270.6L209.1,270.6z M211.7,268.9c0.3-1,0.7-2,1.3-2.8c0.4-0.5,0.7-0.3,1,0c0,0.1,0.1,0.1,0.1,0.2
	c0,0.1,0,0.1-0.1,0.2c-2.1,2.1-1.1,6-2,5.6C211.4,271.8,211.3,270.3,211.7,268.9L211.7,268.9z M197.6,263.4
	c-8.8-1.1-17.5-3-25.9-5.6c-3.4-1-12.2-4.1-14.8-6.5c-1.6-1.2-3.2-2.5-4.7-3.9c0.8,0,2.3,0.3,2.3-0.4c0-0.8-4.2-0.3-6.6-2.6
	c-3-2.9-2-4.3-2.6-7.7s3.2-8.8,9.2-10.4c8.1-2.1,6.8-0.7,7.5,2c1,4.1,1.5,3.4-2.3,2.7c-0.4-0.1-0.8-0.1-1.1-0.1
	c-0.6,0.4-0.3,0.7,0,0.8c15,3,20.6,13.6,37.9,23.2c7.3,4,3.4-0.6,8.6,3.8c1.9,1.6-1.1-0.3-4.1,0C196,259.5,198.8,263.6,197.6,263.4
	L197.6,263.4z M179.7,261.2c-3.1-0.3-6.3-0.4-9.4-0.4c-0.4,0-0.4-0.1-0.4-0.2c0-0.6,0.1-1.3,0.4-1.8c0.1-0.1,0.2-0.1,0.3-0.1
	c0.1,0,0.2,0,0.3,0c2.8,1,5.7,1.7,8.6,2.3C179.9,261,179.9,261.1,179.7,261.2z M167,263.9c-1.8,2-1.9,2.6-1.7,1
	c-0.2-3.8,0-3.6,0.4-5c0.7-1.9,0.5-2.6,1-2.5c2.9,0.8,2.9,0.7,2.7,1c-0.5,0.8-0.7,1.7-0.7,2.7C168.6,262.2,169.6,261,167,263.9z
	 M163.7,267.8c-1.3,1.5-3.1,3.4-3.2,5.3c-0.1,2.6,0.2,3-0.2,3.1c-0.4,0.1,0.3,0.2,0,0.4c-1,0.8-1.8,1.7-2.6,2.7
	c-0.6,0.7-0.4-0.8-0.4-3.5c-0.3-1.2-0.3-2.5-0.2-3.7c0-0.9-0.1-1,0-1.2s6.8-8.1,7.3-8.4c0,0.1,0,0.2,0,0.2
	C164.4,266.9,164.6,266.8,163.7,267.8z M150.4,188.8c-2.4-3.3-2.6-0.4,0.7-9.2c1-2.5,0.8-2.6,1.6-2.6c0.5,0,44.6-0.4,45.3-0.4
	c0.7,1,1.5,1.8,2.5,2.4c1,0.6,2.1,1,3.3,1.2c-2,1-6,3.9-6.9,7c-1.3,4.3-0.6,2.1-4.4,2.7c-2.3,0.1-4.6,0.4-6.8,1c-1.1,0.3-2,1-2.6,2
	c-0.3,0.3,0-0.2-1.5-1.3l-0.4-0.3c-2.4-1.6-9.2-1.5-15.4-1.6c-3.2,0-14.5,0.5-15.8,0C150.4,189.3,150.7,189.2,150.4,188.8z
	 M135.9,121c-0.1-1.5,22.5-4.1,24.2-4.4c7.3-1.1,24-1.5,27.6-1.3c5,0.1,14.8,0.2,15.8,0.3c0.6,0.1,0.3-1.1,0.4,18.9
	c0,0.2,0,0.4,0,0.6c-1.2,1-2,2.3-2.4,3.8c-0.4,1.4-0.3,3,0.2,4.4c-1.3,0.6-2.4,1.6-3.1,2.9c-0.8,1.4-1.2,2.9-1.3,4.5
	c-0.3,6.6,3.6,7.1,3.3,11.4c-0.1,2-4.1,5.1-3.8,9c-0.1,1.7,0.2,3.4,0.8,5c-6.6,0-57.5,0.6-59.1,0.4c-1.6-0.2-2.2,0.3-2-1.7
	C136.2,170.1,136.2,125.8,135.9,121L135.9,121z M203.8,95.3c-0.1,0.3-0.5,0-1.8-0.2c-2.1-0.4-2.4-0.5-3.4-0.2
	c-2.1,0.6-4.3,0.6-6.4-0.1c-0.4-0.3-0.1-0.7,0.6-0.9c0.8-0.2,1.6-0.2,2.4-0.2c3.7-0.5,0.5-4,8.4-2.2C203.8,92.8,203.9,94,203.8,95.3
	L203.8,95.3z M203.9,139.4c0.5,0.1,0.4-0.2,1.3-1.6c0.8-1.3,1.9-2.4,3.2-3.2c1.3-0.9,2.7-1.4,4.2-1.7c0.8-0.1,1.6,0,2.2,0.4
	c-2,0.6-3.8,1.7-5.4,3c-3.1,2.4-2.4,3.7-1.8,3.1c0.6-0.6,0.8-1.1,1.2-1.5c1.8-1.8,4-3.2,6.4-3.9c2.9-0.8,4.5,0.1,5-0.1
	c0.7-0.1,1.5-0.1,2.2,0.1c1.3,0.5,2.5,1.3,3.5,2.4c6.1,4.9,4.8,13.9,12.3,17.4c0.3,0.1,0.5,0.2,0.8,0.4c0.3,0.4-1.2,1.3-3.2,0.8
	c-0.2,0-0.7-0.3-0.8,0c0,0.1,0,0.2,0,0.2c0,0.1,0.1,0.1,0.2,0.2c0.7,0.3,1.3,0.8,1.9,1.3c2.6,2.8,3.2,3.5,3.9,6
	c2.5,9.1-0.8,9.5-0.7,11.9c-0.1,0.2-0.1,0.4,0,0.6c0.1,0.2,0.2,0.4,0.4,0.5c0.3,0.2,0.5,0.5,0.6,0.9c0.1,0.3,0.1,0.7,0,1
	c-0.6-0.3-3.6-1.4-4.1-0.9c-0.1,0.3-0.1,0.5,0,0.8c0.3,1.6,1,3,2.1,4.1c-3.9-0.2-5.2-2-6.5-5.4c-0.2-0.5-0.5-0.3-0.6,0
	c-1.3-1.1-2.2-2.5-2.6-4.1c-0.1-0.3-0.2-0.7-0.2-1.1c0.8-0.7,1.4-1.6,1.7-2.6c0.7-2.3,0.9-4.8,0.6-7.3c0-0.3-0.4-0.5-0.5,0
	c-0.1,0.5,0,1.7-0.1,3.5c0,1.8-0.5,3.5-1.5,5c-0.1,0.2-0.5,0.8-0.7,0.2c-0.8-3.1-1.2-6.4-1.5-9.6c0-0.4,0-0.4,0.3-0.4
	c1.2,0.1,1.7-0.6,2-1.8c0.3-0.7,0.3-1.5,0-2.2c-0.3-0.7-0.8-1.3-1.5-1.6c-2.4-1-3.6-0.8-5.1-3c-1.5-2.2-1.5-4.5-2.7-6.7
	c-0.9-1.3-2.1-2.3-3.5-3c-1.4-0.7-2.9-1.1-4.5-1.1c-0.1,0-0.2,0-0.2,0.1c-0.1,0-0.1,0.1-0.1,0.2c0,0.5,0.6,0.4,1.9,0.7
	c-0.7,1-3.2,0.5-4.4,0.6c-1.2,0-2.2,0.5-3.1,1.3c-1,0.7-2.1,1.6-3.1,0.9c-0.6-0.4-1.1-1-1.4-1.6c-0.3-0.7-0.4-1.4-0.3-2.1
	c0-0.9,0.2-1.8,0.6-2.6c0.4-0.8,1-1.5,1.7-2.1c0.3-0.3,0.6-0.5,1-0.6c0.4-0.1,0.8-0.1,1.1,0c-1.2,1-2.1,2.3-2.6,3.7
	C203.8,139.1,203.8,139.3,203.9,139.4L203.9,139.4z M213.3,178.1c-0.8-0.3-0.3,1.2-1.7,3.3c-0.8,1.1-2,1.8-3.3,2.1
	c0.3-0.3,0.5-0.7,0.7-1.2c0.3-0.7,1.3-3.6,0.3-3.6s0.6,3-3.5,5.8c0,0-0.1,0-0.1,0c-0.1,0-0.1,0-0.1,0c-0.3-0.2,1-0.4,0.6-4.1
	c-0.1-0.7-0.4-1.4-0.7-2.1c-0.1-0.2-0.3-0.6-0.6-0.4c-0.6,0.3,0,0.7,0.1,1.7c-1.2-0.1-2.3-0.4-3.4-1c-1-0.6-2-1.3-2.7-2.2
	c-1.2-1.9-1.6-4.2-1.3-6.5c0.4-4.4,5.4-5.4,3.4-10.8c-0.4-1-1.5-2.3-2.1-4.1c-1.6-4.2-0.7-9,3.2-11.2c0.2,0.3,0.5,0.6,0.8,0.8
	c-0.6,0.5-1,1-1.3,1.7c-0.3,0.6-0.5,1.4-0.5,2.1c-0.3,3.8,1.4,5.4,2,8.7c1.2,5.5-1.4,10.2,11.8,15.6c0.7,0.3,0.4,0.4,1.3,4.4
	c0.1,0.6-1.1,0.4-1.9,2c-0.2,0.3-0.3,0.6-0.3,1c-0.3,0.3-0.6,0.5-1,0.6C213.6,179.5,213.6,178.3,213.3,178.1L213.3,178.1z
	 M215.3,179.8c1.3-0.7,1.2-0.2,1.3,0.3c0,0.9-0.1,1.1,0.3,1.2c1.2,0.2,0-4.6-0.3-6.5c-0.1-0.8,1.5,0.9,4.4-0.8
	c2-1.2,3.6-4.6,4.1-6.2c0.3-1,0-1.5-0.2-1.3c-0.4,0.2-1,3.1-2.9,4.8c-2.9,2.6-5.2,1.5-8.3-0.2c-4.1-2.1-9-4.2-9.3-10.4
	c-0.3-6.8-3.2-7.7-2.5-12.5c0.1-0.7,0.2-1.4,0.6-2c0.3-0.5,0.7-1,1.2-1.3c1.7,0.6,3.7-1.5,4.8-2c0.8-0.4,1.2-0.2,3-0.2
	c0.6,0.1,1.3,0.1,1.9-0.1c0.6-0.2,1.2-0.5,1.6-1c3.8,1.2,4.8,3.2,5.7,6.3c2.5,8.7,7.7,5.4,8.2,8.3c0.2,1.2-0.3,2.9-1.6,2.6
	c-0.4-0.1-0.7-0.1-0.8,0.3c-0.4,1,1.2,13.1,3.6,16c0.6,0.8,1.3,1.5,2.1,2.2c0,0.4,0,0.8-0.2,1.2c-0.3,0.7-0.4,1.5-0.8,2.1
	c-0.8,1.8-0.9,1.2-2.2,2.6c-0.8,0.8-1.3,0.5-2.5,1.5c-2.7,2.1-5.5,2.4-9.3,0c-1.1-0.7-1-1.5-1.9-3.1
	C214.8,180.6,214.5,180.2,215.3,179.8L215.3,179.8z M143.4,179.9c-0.4-2.5-0.5-2.9,0-2.9c1.1,0,6.2,0.1,6.9,0c1.2-0.1,1,0,0.1,2.2
	c-1.3,3.3-2.4,5.2-2.3,7.2c-1.2-0.5-2.5-0.6-3.7-0.2c-0.7,0.3-0.6-2.1-0.5-2.3C143.9,182.6,143.6,181.2,143.4,179.9z M136.3,177.8
	c0-0.9,0.1-0.9,0.4-0.9c1.8,0.1,3.5,0.1,5.3,0c0.4,0,0.2-0.2,0.8,3c0.7,4.6,0.1,5,0.6,6.2c0.4,0.9-1.5,0.3-1.7,2.9
	c0,0.4-0.2,0.4-0.5,0.4c-0.5,0-1.1-0.1-1.6-0.2c-2.1-0.5-3.2,0.3-3.2-0.3C136.3,186.5,136.3,178.6,136.3,177.8z M145.5,186.9
	c0.6,0,1.2,0,1.8,0.1c0.5,0.2,1,0.5,1.3,0.9c0.4,0.4,0.7,0.8,0.9,1.3c0.2,0.7-0.5,0.2-2.8,0.5c-1.4,0-2.7,0-4.1-0.2
	C141.9,189.5,142.8,187,145.5,186.9z M195.6,191c0,0.2-1.1,3.5-1.2,3.8c-0.4,1.5-2,6.5-3.5,6.6c-2.8,0.1-7.8,0.4-8.5,0.4
	c-0.7,0-0.6,0.1-0.4-0.9c0.4-2.4,1-4.8,1.7-7.2c0.2-0.5,0.6-1,1-1.4c0.4-0.4,0.9-0.6,1.5-0.8c2.6-0.7,5.2-1,7.8-1
	c0.5-0.1,1.1-0.1,1.6,0C195.7,190.8,195.7,190.9,195.6,191z M181.1,192.9c0-0.7,0-0.7,0.6-0.3c0.3,0.3,0.5,0.6,0.8,0.9
	c0.3,0.3,0.3,0-1.6,7.9c-0.2,0.7-0.2,0.4-1.2,0.6c-0.4,0.1-0.5,0-0.5-0.4c0.1-0.4,0.8-4.1,0.9-4.4
	C180.7,195.8,181,194.4,181.1,192.9z M207.8,201.7c2.2,0,3.6,0.3,4,1.5c0.7,1.9,5,27.2,5.9,32.2c0.1,0.7,0.5,1.1-0.7,1.8
	c-6.2,3.8-0.1,2.1-14.5,2.9c-8.7,0.4-23.1,1.5-23.4,1.5c-1.1,0-1.5-1.1-4.6-3.4c-1.1-0.8-3.3-2-5.1-3.2c-3.9-2.6-5.5-2.1-5.8-3.1
	c-0.4-1.7-0.5-1.8-0.3-1.9c5-3.9,4.8-1.3,2.2-6c-0.1-0.2-0.2-0.3-0.4-0.5c-0.2-0.1-0.4-0.1-0.6-0.1c-1.2,0.1-2.7,1.9-2.8,1.4
	c0,0-3.1-14.3-3.2-14.4c-1.3-6.8-1.7-5.9,6.2-6.5c1.2,0,2.3,0,3.5-0.2C171.2,203.1,207.1,201.7,207.8,201.7L207.8,201.7z M187.8,243
	c-4.5,0.3-5.8,0.6-6.5,0.6c-0.7-0.1-0.7-0.4-1.9-1.3c-0.2-0.1,0-0.2,1.1-0.3c1.1-0.1,30.2-2,31.2-1.4c0,0.1-0.1,0.1-0.2,0.2
	c-0.1,0.1-0.7,0.6-1.1,0.8C209.7,242.2,211.3,241.6,187.8,243z M208.3,243c0,0-12.1,9.1-13.4,9.7c-0.6,0.2,0,0.5-7.3-4.6
	c-0.1-0.1-4.8-3.2-5.2-3.7C183.3,244,206.1,242.6,208.3,243L208.3,243z M162.3,225.4c2.3-1.8,2.4-1.9,3.1-0.6c1.8,3.4,2,0.9-1.3,3.6
	c-0.3,0.2-1,0.9-1.1,0.6C162.1,226.1,161.9,225.6,162.3,225.4z M225.2,272.6c1.3-7.2-6.8-8.9-11.4-11c-3.9-1.8-6-5-7.5-6.1
	c-0.4-0.3-0.2-0.3,1.1-0.5c1.7-0.3,2.7,3.7,8.1,6.1c1.4,0.7,2.9,1.3,4.4,1.8c1.9,0.8,3.7,2,5.1,3.5c0.8,0.9,1.3,1.9,1.4,3
	c0.2,1.1,0,2.3-0.5,3.3c-0.1,0.2-0.3,0.6-0.4,0.5S225.2,273,225.2,272.6z M215.1,259.7c-0.8,0.2-3.3-2.1-3.8-2.6
	c-1.8-2.1-2.5-2.9-3.7-2.9c-0.3,0-0.6,0-0.9,0.1c-0.3,0-0.7,0.1-1,0.2c-1.1,0.4-2.2,0.8-3.4,1.1c-1.8,0.6-1.5,0.8-2,0.6
	c0,0-3.4-1.7-4.9-2.6c3.2-2,17.2-12.7,22.9-16c1.7-1,10.2-8.9,19.9-8.1c2.7,0,6-0.3,9.3,4c1,1.5,1.5,3.2,1.6,5
	c-0.1,1.6-0.4,3.2-0.9,4.7c-1.3,2.5-1.3,2.6-4.4,5.4c-1.5,1.4-2.2,3.8-5.1,5c-5.4,2.2-5.1,2.6-7.4,1.5c-1-0.5,0.7,1,7.7-8.5
	c0.8-1.2,1.3-2.6,1.5-4.1c0-0.4-0.7-0.7-0.8-0.2c-0.9,2.9-0.8,2.8-1.7,4C232.8,253,230.3,255.9,215.1,259.7L215.1,259.7z
	 M226.4,257.1c0.3-0.1,0.6-0.3,0.9-0.3c0.7,0.9,1.6,1.5,2.7,1.9c2.1,0.5,4.9,1.1,6.9-0.2c3.6-2.4,6.8-0.5,9.4-5.6
	c1.8-3.5,4-2.6,6.2-6.8c0.1-0.2,0.2,0,0.2,0c-0.7,3.9-1.7,4.8-3.6,8.4c-4.8,8.7-14.7,6.8-19.5,6.5c-3.5-0.2-5.3,0.1-7.4-1.6
	C221.7,259,221.7,259.1,226.4,257.1L226.4,257.1z M248.3,212.6c-7.2-1.9-4.6-4.4-13.5-2.6c-0.3,0-0.3,0-0.4-0.2
	c0-1.7,3.2-16.6,3.2-17.6c0-0.5-0.6-0.2-0.7,0.1c-0.4,1.2-4.2,18.6-3.5,19.6c1.1,1.6,1.5-0.9,0,5.5c-1,4.4-0.2,2.5-6.8,4.7
	c-1.6,0.5-8.8,2.2-9,2.2c-1.5,0.3-0.2,2.9-4.6-20.1c-0.7-3.7-2.3-3.4-6-3.3c-3.8,0-3.9,0.5-3.6-0.4c0.5-1.3,0.8-2.6,1-4
	c0-4,0.5-5.3-0.1-5.3c-0.9,0-0.8,4.9-0.8,5.2c-0.3,1.4-0.6,2.8-1.1,4.2c-0.2,0.6,0.2,0.3-8.7,0.7c-1.7,0-0.8-0.3,0-1.6
	c1.7-2.9,3.1-13.7,7.6-16.7c1.9-1.3,2.6-1.6,3.6-2.4c0.6-0.5,0.4,1.7,0.3,2.2c-0.1,1-0.5,1-0.8,1.6c-0.7,1.3,1.5,1.4,2.3,0.6
	l0.9-0.9c0.6,0.2,1.3,0.2,1.9-0.1c1.3-0.5,2.3-1.4,3-2.6c0.5,0.1,1.1,0,1.6-0.3c0.4,0.8,0.8,1.5,1.2,2.4c1.1,3.3,8.3,5.5,12.2,1.6
	c1.2-0.4,2.3-1.1,3.1-2.1c0.9-0.9,1.5-2,1.9-3.2c0.5-1.5,0.2-1.5,1.1-0.2c2.1,2.8,7.5,3.5,7.3,2.2c-0.2-0.3-0.5-0.5-0.7-0.8
	c-0.9-0.9-1.6-2-2.2-3.1c-0.1-0.4-0.2-0.8,0.2-0.7c4.7,1.5,11.9,5,13.7,9.6c2.6,7-0.4,23.4-0.7,26.6
	C251,214.1,250.9,213.3,248.3,212.6L248.3,212.6z M274,137c-1.9,0-1.9,1.9-1.8,4.6c0,0.2-0.2,0.4,0,0.7c0.2,0.2,0,0.4,0,0.7
	c0,0.3,0.1,0.5,0.2,0.8c0.1,0.2,0.3,0.4,0.5,0.6c0.2,0.2,0.5,0.3,0.7,0.3c0.3,0,0.5,0,0.8-0.1c0.3-0.1,0.6-0.3,0.6,0v22.5
	c-1,0.4-16.2-0.1-18,0c-7.5,0.2-12.4,0-12.6,0c-0.5,0.1-0.3,0.8,0.2,0.7c0.2,0,21.3,0.2,29.3,0.2c1,0,1.2,0.1,1.2,1v6.9
	c0,0.8,1.6,0.7-15.7,0.5h-17.4c-0.1-0.4-0.3-0.9-0.7-1.2c-0.9-0.8,0.9-2.3,1.5-5.1c0.2-2.5,0-5-0.8-7.4c-0.7-2.9-2.1-4-4.2-6.5
	c-0.7-0.8,1.3,0,2.2-1.8c0.5-1.1-0.7-0.3-3-2.3c-5.2-4.5-4.5-10.8-9.1-15.3c-1.1-1.1-2.3-2.1-3.6-2.9c-0.6-0.4-1.4-0.7-2.1-0.8
	c-0.7-0.1-1.5-0.1-2.2,0.1c-1.2-0.4-2.6-0.5-3.8-0.2c-0.4-0.3-0.8-0.6-1.3-0.8c-0.5-0.2-1-0.2-1.5-0.1c-1.7-0.3-4.7,1.3-6.1,2.3
	c-0.1-0.5-0.2-18.3-0.2-18.4c0-0.7-0.1-0.5,2.5-0.4c7.7,0.3,63.8-0.4,64.9-0.3c0.4,0,0.7-0.3,0.7,0.8c0,1.7,0.2,7.6,0.1,20.9
	C275.3,137.4,275,137,274,137z M274.7,143.5c-0.8,0.1-1.6,0.2-1.6-0.6c-0.1-2.9-0.4-5,1.5-5c0.3,0,0.6,0.1,0.7,1.2
	C275.2,143.3,275.1,143.5,274.7,143.5L274.7,143.5z M274.9,79.2c0.4,2.9,0.1,6.5,0.2,9.3c0,1.4-0.9,0.3-2,2.9
	c-0.1,0.2-0.2,0.4-0.4,0.6c-0.2,0.2-0.4,0.3-0.6,0.4c-0.4,0.1-0.7-0.2-1.5-0.6c-0.4-0.2-0.8-0.3-1.2-0.3c-0.4,0-0.8,0-1.2,0.2
	c-1.5,0.6-2.4,0.4-3.5,1.6c-0.7,0.8-2.5,3.3-2,4.2c0.9,1.9,2.4,3.9,4.4,3.4c4.1-0.9,5.4,1.8,7.1,1.7c1.1-0.1,1,0.3,1,0.8
	c0,13.2,1,10.9-2.5,11c0,0-56.6,0.8-65,0.2c-0.6,0-0.5-0.4-0.5-1c0-18.5-0.2-17.1,0.3-17.1c7.1-0.2,4.5,0.6,7.5,0
	c2.4-0.4,5.4,0.9,7.9,0.2c1.5-0.4,1.9,0.2,3.4-0.2s1.6,0.5,3.5,0.2c1.6-0.3,0.8,0.3,3.2-0.1c1.2-0.2,1.7,0.3,3.2,0
	c3.1-0.5,4.4,0.6,5-2c0.3-1.3-3.2-2.1-4.1-2.2c-4.5-0.5-2.7-0.4-3.2-2.4c-1.8-7.9-6.2-6.4-7.7-6.4c-0.4,0-2.5-0.2-3.4,1.3
	c-2.4,4.4-3.9,0.2-7.9,0.1c-4.5-0.1-5.6,0-6.6,0.6c-2.2,1.2-1.5,2.2-1.7-6.2C206.9,79.1,274.8,79,274.9,79.2L274.9,79.2z
	 M275.1,101.3c0,1-2,0.1-2.9-0.4c-0.7-0.5-1.5-0.8-2.3-1c-0.8-0.2-1.7-0.1-2.5,0c-1.7,0.6-3.2-1.1-3.8-2.8c-0.2-0.5,1.5-2.9,1.7-3.3
	c0.5-0.6,0.7-0.9,3.9-1.8c1.4-0.4,2.9,1.6,3.8,0.8c0.9-0.8,1-2,2.2-2.7C275.3,89.8,275.1,101.3,275.1,101.3L275.1,101.3z
	 M207.4,87.2c0.7-0.6,1.5-1,2.3-1.3c0.9-0.3,1.8-0.3,2.6-0.2c2.5,0.1,3.8-0.3,5.6,0.9c0.6,0.5,1.3,0.8,2,0.9c0.7,0.1,1.5,0,2.2-0.3
	c1.3-0.2,1-2.9,3.7-2.8c2.5,0.1,4-0.8,5.6,1.6c2.9,4.2,0.7,6.4,2.8,6.8c0.4,0.1,6.3,0.7,6.1,1.8c0,0.2-0.1,0.4-0.3,0.6
	c-0.2,0.2-0.4,0.3-0.6,0.4c-3,0.3-8.4,0-10.1,0.3c-0.7,0.1-2-0.5-3-0.2c-1.5,0.3-2.3-0.1-3.5,0.1c-2.8,0.6-5.6-0.7-8.5-0.1
	c-2,0.4-1.5-0.3-5.8-0.2c-1.6,0.1-1.6,0.2-1.6-0.2C207.1,89,206.5,88,207.4,87.2L207.4,87.2z M204.5,79.2c0.6-0.1,1.2-0.1,1.8,0
	c0,0,0.3,53.2,0.4,55.3c-0.3-0.1-0.6-0.1-0.9-0.1c-0.3,0-0.6,0.2-0.9,0.3c-0.1,0-0.1-0.8-0.1-0.9c0-22.9-0.4-53.7-0.4-54.1
	S204.2,79.2,204.5,79.2L204.5,79.2z M136.4,79.2h67.2c0.1,0,0.2,9.9,0.3,11.1c0,0.2-0.1,0.3-0.3,0.3c-8.1-1.3-6.3,1.7-7.8,2.1
	c-1.2,0.1-2.3,0.3-3.4,0.6c-1.4,0.8-1.2,1.5-0.7,1.9c0.8,0.8,4.9,1,5.2,0.7c0.7,0.1,1.4,0,2.1-0.3c0.4-0.1,0.4-0.1,2.8,0.3
	c2,0.4,1.9,0.3,1.9,0.7c-0.2,18.7,0.6,17.9-0.4,17.8c-21.6-0.6-43.7-0.3-67.1,5c-0.6,0.1-0.4,4-0.6-38.2
	C135.7,79.2,135.6,79.2,136.4,79.2L136.4,79.2z M134.8,79.2c0.5,0,0.2,0.5,0.2,1.3c0,8.6,0.8,99.2,0.8,102.4c0,9-0.4,6.6-2,6.5
	c-0.2,0-0.6-110.5-0.6-109.9C133.3,79.1,133.1,79.1,134.8,79.2L134.8,79.2z M106.9,140.3c0.4-0.9,0.9-1.8,1.4-2.7
	c2.7-5.3,3.5-5,2.6-5.8c-0.5-0.5-0.9-0.4,0-1c4.6-3.8,10-6.5,15.8-8c6.2-1.7,5.8-1.9,5.8-0.8c0.1,58,0.3,54.5-0.1,54.4
	c-19.7-0.6-37.1-6.3-44.1-10.4c-7.3-4.1-9.3-7.4-9.8-9.3c-0.7-2.5-0.2-3.6,0.7-4.6c4.1-4.6,23.2-13.5,23.6-12.9
	C103.8,140.6,106.2,142,106.9,140.3z M103.7,137.9c0.8-0.7,3.4-5,5.6-6.3c0.2-0.1,0.6,0,1.1,0.5s-0.7,1.1-2.6,4.7
	c-1.8,3.5-1.6,3.8-2.3,3.5c-0.9-0.3-1.6-0.9-2.1-1.7C103.3,138.3,103.4,138.1,103.7,137.9z M132.3,79.2c0,0,0.2,39.6,0.2,40.9
	c-3,1.2-14.2,2-25.3,12.4c-2.6,2.4-3.9,5.2-5.1,5.7c-8.8,3.7-16,7.1-21.6,11.4c-2.8,2.1-3.5,3.5-2.9,6.7
	c2.4,12.2,33.1,19.3,45.6,20.3c10,0.9,9.6,0.1,9.6,1.2c-0.1,11.6,0,4.4,0,11.2c0,2-14.5-1.6-26.7,1.7c-1.1,0.3-0.9,0.9-1.5,1.5
	c-0.8,0.7-0.8,1.4-1.3,3.1c-2.5,0.1-34.4-0.2-36.5,0.1c-0.4,0-0.2-115.7-0.2-115.7L132.3,79.2z M93.7,254.8
	c-0.1,0.8,0.6,0.6-7.3,0.6c-21.8,0-19.9,0.4-19.9-0.3v-58.5c0-0.6,0-0.6,0.6-0.6c9.4,0.2,35.4-0.2,35.9,0.1c0.1,0.1,0,0.9-0.2,2.1
	c-0.8,4.4-3,14.1-2.1,15.6c0.6,0.9-1-0.7-2,7.5c-0.7,5.3-2.7,11-0.9,14.9c0.2,0.4,0.5,0.4-0.1,0.6c-1.4,0.6-1.5,1.3-3,10
	C94,251.3,94,251.8,93.7,254.8z M65.1,267.6c1.7-0.9,2.7-0.2,5-1.1c3.1-0.9,6.3-1.5,9.5-1.9c0.8-0.2,1.7-0.5,2.1-0.5
	c1.5-0.2,2.9-0.5,4.4-0.9c1.5-0.1,3-0.4,4.5-0.9c1.9-0.6,3.1-0.8,3.8-1.1c0.5-0.2,0.1-0.6,0.1-1.9c0.1-7.9,1.5-13.3,2.7-20
	c0.4-2.1,1.8-1.9,2-2.1c0.2-0.2,0.4-0.3,0.6-0.3c0.5-0.1,1-0.1,1.5,0c0.8-0.1,1.6-0.2,2.4-0.1c5-0.6,4.4,0.2,6.7-0.2
	c3.2-0.6,4.3,0.3,7.1,0c1.1,0,2.2,0,3.3,0.1c0.7,0,0.5-0.8,0.1-0.8c-1.8-0.2-3.5-0.2-5.3,0c-1.3,0-0.1-0.2-4.5-0.2
	c-1.1,0.3-2.2,0.4-3.3,0.1c-2.7-0.1-5.3,0.1-7.9,0.6c-0.8,0.5-1.5-1.5-1.6-2.5c0-3.2,0.4-6.4,1.2-9.6c0.4-2.2,0.1-2.4,0.9-6.1
	c0.9-4.4,1.4-3.5,4.4-3.3c0.5-0.1,1-0.2,1.6-0.2c4.1,0.3,8.1,0.3,12.2,0c0,0,4.4,0.5,4.4-0.1c0-0.3-0.2-0.6-1-0.6
	c0,0-11.6-0.3-15.8-0.1c-5.7,0.2-5.1,1-3.3-9.7c2-11.9,1.7-9.6,2.7-11.4c1-1.7,3.6-1.4,4.4-1.8c1.1-0.4,2.4-0.6,3.6-0.4
	c3.3,0.3,1-0.8,13.1,0.1c1.7,0.1,12.2-0.2,13.3-0.1c8.2,0.8,8.9-0.2,11.3,0.6c0.4,0.1,0.8,0.1,1.2,0c0.7-0.1,1.5-0.1,2.2,0
	c1.3,0,2.6-0.1,3.9-0.3c20.3-0.1,22.6,0.2,22,2.8c-1,4-1.8,8.6-2,8.7c-1,0.1-3.1,0-8.8,0.4c-1.2,0-2.8,0.4-3.9,0.4
	c-8.1,0.1-9.3,0.3-8.2,5.4c1.3,6,1.5,6.2,1,6.1c-0.5-0.1-32.3-1.2-31.9-0.1c0.3,1.1,2.5,0.1,4.6,0.3c1.3,0.2,2.6,0.2,3.9,0
	c0.9-0.2-1,0.2,7,0.4c6.7,0.1,9.5-0.2,16.6,0.5c0.8,0.1,1.5,6.1,2.1,8.4c0.2,0.6,0,0.9-0.7,0.8c-3.1-0.1-6.1,0.6-8.8,2.1
	c-2.7,1.5-4.9,3.7-6.4,6.4c-1.2,2.4-0.1,2.9-1.3,2.8c-7.1-0.3,0.1,0.3-9.8,0c-6.7-0.3-4.1,0.2-9.3,0.1c-0.6,0-0.9,0.8-0.2,0.8
	c2.3-0.1,17.4,0,19.7,0.1c1.3,0-0.7,3.8,2.2,7.4c0.9,1.2,2.1,2.1,3.5,2.5c0.6,0.1,5.9,5.8,11.1,8c5.3,2.2,5.1,2.1,4.9,2.7
	c-1.3,4.6,2.1,3.3-22.3,3.3c-13.1,0-19.9,0.6-22.3,0.5c-20.1-1.1-25.5-0.4-25.9,0.2c-0.1,0.2,0.2,0.3,0.7,0.4
	c2.9,0.6-2-1.5,24.5,0.2l41.5-0.3c3.1-0.2,2.1-0.6-5.2,8.4c-0.4,0.5-0.7,0.1-1.4,0.1c-88.7,1.5-53.9-1-88.5,0
	c-1.6,0-2.5,0.5-2.4-0.1C64.5,268.2,64.4,267.9,65.1,267.6z M63.6,279.7c-0.5-0.1-0.4-0.3-0.6-4.5c0-2.9-0.2-3.7,1.2-3.8
	c1.3-0.2,2.6-0.3,3.9-0.2c1,0.1,2.8-0.2,3.1-0.2c3.7,0.3,7.4,0.3,11,0.1c0,0,55.1,0.3,56.6,0.4c0,0,16.4-0.3,16.7-0.3
	c1,0,0.7,0.3,0.7,2.5c0.2,7.6,0.8,6.4-2.2,6.4c-7.5,0-55.9-0.3-60.6-0.2c-3.4,0.1-7.6-0.6-10.6-0.6c-7.9,0-12.2,0.2-14.7,0.3
	C64.3,279.8,65.2,280.1,63.6,279.7z M75.6,319.7c-5.8-0.1-5.3,1.3-6-12.2c-1.5-26-2-20,3.7-20.3c1.5-0.2,3-0.1,4.4,0.2
	c0.5,0-0.2,28.9,1.7,32.1C79.7,320,79.4,319.8,75.6,319.7L75.6,319.7z M78.7,287.6c-0.1-0.4,10.8,0.2,10.9,0.2s0.4,0,0.4,0.3
	c0.1,3.1-0.1,6.2-0.4,9.2c-1.2,18.4,1.5,15.4-6.3,17.5l-3.3,0.9C78.7,316,78.8,287.7,78.7,287.6L78.7,287.6z M98.4,290.3
	c-0.2,2.3-2.1,21.3-2.7,23.5c-0.4,1.5-7.8,3.8-11.2,4.9c-4.7,1.7-4.5,0.2-4.8-1.8c0-0.2,0-0.4,0.3-0.4c2-0.4,4-1,6-1.6
	c4.9-1.2,3.3,0.1,4.2-14.8c0.2-2.7,0.5-4,0.7-9.3c0.1-2.6-0.3-3,0.5-3.1h0.4C99.5,288,98.7,287.2,98.4,290.3z M221.7,286.8
	c-10.7,0-16.2,0.4-17.3,0.3c-3.4-0.2-136.2-0.6-138.3-0.9c-0.4,0-0.5-0.2-0.4-0.6c0.1-6.3-2.5-5.1,14-5.2c2.8,0,10.2,0.5,12.7,0.6
	c1.5,0,28.2-0.4,31.9,0.2c2.4,0.4,2.6-0.1,6.8-0.2c0,0,26.3,0.7,26.5-0.1c0.2-0.4,0.5-0.7,0.8-0.9c0.5-0.4,0.8-1,1.5-1.3
	c0.1,0,0-0.4,0.3-0.3c0.3,0.1,0.3,0.4,0.2,0.6c0,0.4,0.1,0.9,0.3,1.2c0.4,1.2,1,0.6,13.4,1c5-0.3,9.9-0.4,14.9-0.2
	c16.3,1.3,22.3-0.2,29.9,0.7c1.9,0.2,26.4-0.5,26.3,0.3c-0.7,3.1,0.3,4.9-0.8,5.1L221.7,286.8z M233.4,288.1
	c-0.2-0.6,0.9-0.3,4.8-0.2c1.7-0.1,3.5,0,5.2,0.1c0.4,0,0.8,0,1.2,0c0.1,1.4-0.9,21.4-1.1,23.9c-0.1,1.6-0.7,1.2-8.8,3.6
	c-0.5,0.1-0.8-4.3-1-9.5C233.4,298,233.4,288.1,233.4,288.1z M233.7,319.5c-1.2,0-7.8,0-8.8-0.6c-1.2-0.8-2.2-28.8-2.3-30.3
	c0-0.9,0-0.9,0.9-0.9c9.1,0,9.1-0.2,9.1,0.3c0,7.7,0.1,13.5,0.3,18C233.4,321.1,234.3,319.5,233.7,319.5z M250.8,310
	c-0.3,3.5-0.6,4.1-1.5,4.6c-1.9,1-10.3,4-11.3,4.3c-3.6,1.1-3.5-0.4-3.8-2.2c-0.1-0.6,0.1-0.1,4.1-1.3c7.6-2.4,5.4,0.3,6.4-12.2
	c1.1-13.6,0.6-15.2,1-15.5c0.9-0.5,1.7-1.1,2.4-1.7C255.9,279.5,253.9,275.1,250.8,310z M250.5,282.4c-0.9,0.7-1.7,1.5-2.5,2.4
	c-1.2,0.6-2.2,2-2.2,1.5c0-0.9,0.2-4.1,0.2-4.7c0,0,7.9-7.8,8.5-8c0,0.7,0,1.3-0.1,2c0.1,1.2,0.1,2.3,0,3.5
	C254.3,279.7,253.4,280.2,250.5,282.4L250.5,282.4z M257.4,256.3c-0.5,17.4-0.7,12.9-7.8,20.7c-1,0.9-2,1.8-2.9,2.8
	c-0.8,1.1,0.4-3.2-0.1-6.1c-0.3-1.5-1-0.8-0.9-0.4c0.3,1.1,0.3,2.3,0.1,3.5c-0.3,3.6-0.2,3.9-1.3,3.9c-6.4-0.3-12.7-0.3-19.1,0
	c-3.1,0.1-6.2,0-9.3-0.5c-1.3-0.1-2.8,0.4-4,0.2c-0.4,0-17.7-0.1-19-0.3c-3.4-0.4-6.8-0.6-10.2-0.3c-3.6,0-19.2,0.2-20,0.2
	c-1.3,0-1.6-0.3-1.6-1.2c0-5-0.5-7,0.9-7.3c7.1-1.3,44.8,1.5,44.8-0.6c0-0.8-1.2-0.2-6.9-0.2c-21.8,0.3-24.8-1.5-37.5-0.2
	c-0.3,0,0-0.2,2.5-3.3c5.8-7.2,5.2-5.5,7.7-5.5c6.8-0.2,13.7,0.5,20.4,1.9c6.3,0.9,1.2-0.6,5.5,5.8c0.1,0.2,0.3,0.4,0.6,0.6
	c0.2,0.1,0.5,0.2,0.8,0.2c0.6-0.1,1.2-0.2,1.8-0.4c1.8-0.6,1.6-0.2,3.2-0.7c0.3-0.1,0.6-0.1,0.8-0.1c0.3,0,0.5,0.2,0.8,0.3
	c1.5,0.5,0.6,2.4,2.4,2.3c0.4,0,0.7,0.4,1.8,0.7c0.1,0,0.6,0.9,1.3,0.7c0.8-0.2,0.9,0.9,1.8,0.4c0.8-0.5,7,3.7,11.6,0.7
	c0.7-0.6,1.1-1.4,1.4-2.3c0.3-0.9,0.3-1.8,0-2.7c-1.5-7.6-13.3-7.9-10.2-8.8c3.5-0.9,3.7-1.1,4.4-0.5c2.4,2.4,4.4,1.7,8.8,2.3
	c10.9,1.5,16.7-0.8,21.6-10.2c1.1-2.1,1.7-4.3,1.9-6.7c0.7-6,0.9-5.6,0.7-6.8s-0.9-2.6-1.2-4.2c-0.6-2.9-3.9-5.7-6.1-6.7
	c-1.5-0.7-0.2,1,1.7-9.8c0.4-2,0.1-1.5,1.8-1.9c1.2-0.3,1.2-0.7,1.9-6c2.4-18.5,0.4-17.9,1.8-17.8
	C265.9,192.3,259.3,187.6,257.4,256.3L257.4,256.3z M259.3,255.4c-0.6,0-1,0.1-0.9-0.3c0,0,0.5-18.5,1.8-34.6
	c1.9-24,1.1-23.1,1.8-23.3c0.8-0.2,11.8,0,12.6,0c0.5,0,0.5,0.1,0.5,0.3c0.3,2.4,0,17.2,0.2,17.2c0,20.6,0.2,18.9-0.5,19
	c-2.9,0.3-3.4,0.3-4,0.7c-3.9,3.1-2.8,4.8-3.5,6.5c-0.8,2,0,2.4,0,4c-0.1,3.5,2.2,6.6,4.1,6.9c0.6,0.1-0.7,0.4-0.9,3
	C270.6,255.5,271.1,255.4,259.3,255.4L259.3,255.4z M265.4,274.2c1.3-1.9,1.5-1.8,3.5-11.5c0.6-2.9,2.3-2.9,2.5-7
	c-0.1-1.3,0.4-2.5,1.2-3.5c0.3-0.4,1.1-0.2,2.1-0.2c1.6-0.2,3.2-0.2,4.8-0.1c5.3,0.7,36.3,2.8,35.5,4c-2.9,4.4-1.6,5.8-2.9,9.1
	c-1.8,4.4-1.2,3.2-1.5,8.1c-0.2,3.1-0.5,4.1-0.4,6.9c0.1,3.2,0,1-17.9-0.3c-1,0,1.1-2.8-1.1-3.6c-2.6-0.9-5.3-1.2-8-1
	c-2.5-0.4-1.5,3.2-2,3.2c-7.1-0.6-9.2-1.3-11.4-0.8C267.3,278,264.2,275.9,265.4,274.2L265.4,274.2z M288.5,286.5
	c-0.5,1.7-1,5.3-2.1,5c-2.4-0.6-4,0.1-3.6-1.5c0.5-1.1,0.9-2.3,1-3.5c0-0.8,0.2-0.9,0.7-0.9C288.2,286.2,288.5,286.2,288.5,286.5z
	 M288,285.3c-1.8-0.1-3.7-0.3-5.5-0.6c-0.8-0.3-1-1-0.7-2.6c0.4-2.7,0.5-4.3,0.7-5.1c0.2-0.8,0.7-1,2.1-1c2-0.1,4,0.2,5.9,0.9
	c1.1,0.2,1,0.6,1,1c-0.3,2.4-0.8,4.8-1.5,7.1C289.9,285.1,289.7,285.1,288,285.3L288,285.3z M308.3,319.9c0.2,1.1,2.5,1-15.3,0
	c0,0-6-1-6.6-1.1c-11.7-0.6-0.9,0.2-12.7-1.5c-4-0.6-10.4-0.2-10-3.2c0.5-3.9,0.7-7.8,0.6-11.7c0.5-3.4,0.8-6.9,0.9-10.3
	c0-2.2,0.2-14.7,2.3-14.1c1.2,0.3,1.6,0.3,5,0.1c1.4,0.1,2.8,0.3,4.2,0.6c3.6,0.4,2.6,0,4.9,0.4c-0.1,1.4-0.3,2.8-0.7,4.2
	c-0.2,1.1,1.5,2.2,2.1,2.3c0.2,0,0.3,0.1,0.2,0.3c-0.1,0.8-0.3,1.6-0.5,2.4c-2.1,4.2,0.9,3.6,3.9,4.1c2.1,0,2.3-3.8,2.8-6
	c0.2-1,1.3,0.2,1.7-1.5c1.5-5.6,0-4.6,4.8-4.2c2.8,0.3,10.4,1.5,13.2,1.6c0.8,0,1.1-0.1,1,0.7c-0.8,5.3-1.2,10.7-1,16.1
	C309,299.2,307.6,316.9,308.3,319.9L308.3,319.9z M314,320.6c-2.1,0.3-4.8,0.7-4.9-1.5c-0.1-5,0-10,0.5-15c0.7-4.8,0-5.7,0.3-10.3
	c0.1-3.6,0.4-7.2,0.9-10.8c0.3-1.8,0.5-2.7,0.5-3.5c0.6-17.9,1.1-9.3,2.6-17.4c0.2-2.1,0.9-4.2,2-6c0.5-1,2.7-0.1,6.6,0.5
	c1.6,0.2,1.9-0.6,2.4-0.5c1.3,0.2,1.5,4.4,1.3,5.8c0,11.1-1.6,8.1-6.2,8.3c-1.3,0.2-2.5,0.3-3.8,0.1c-0.6-0.2-1.9,1.3,2.6,1
	c1.6-0.2,3.2-0.2,4.7,0.1c1.7,0.1,2.5-0.3,2.5,0.8c0,0-0.6,40.7-0.6,41.7C325.5,321.9,324.9,318.8,314,320.6L314,320.6z
	 M326.3,310.5c2.1-41.8-1.5-37.9,2.6-28.7c1.9,4.3,0.2,6.4,3.5,15.7c0.9,2.6,0.4,4.8,1.2,7.7c0.4,1.2,0.4,2.5,0.2,3.7
	s-0.8,2.4-1.6,3.3c-1,1.5-1.5,2.6-2.7,1.9c-1.3-0.7-3.2-1.6-3-3C326.2,311.1,326.2,310.5,326.3,310.5L326.3,310.5z M336.5,309.9
	c-0.6,3.1-0.7,4-2.1,5.6c-3.9,4.5-4.8,3.2-5.9,2.9c-1.7-0.5-2.1-0.3-2-0.9c0.1-1-0.2-3-0.1-3.7c0-1.1,3.4,3.4,5.3,0.7
	c5.1-7.3,2.7-6.7,2.4-13.7c-0.1-3.3-2.6-8.5-2.9-12.3c-0.2-2.5-0.1-4.6-1.4-7.1c-3.2-6.3-1.9-9.7-3.4-10.6c-0.8-0.5,0.1-0.2,0.6-2.1
	c0.1-0.7,0.1-1.3,0.4-1c1.6,1.5,1.8,3.4,2.4,5.7c0.3,2,1,4,1.9,5.8c1.1,3,1,3,4,18.4C337.4,307.8,336.9,307.6,336.5,309.9
	L336.5,309.9z"/>
<path d="M324.4,239.9c-0.9,1.1-2.5,9.2-0.5,10.2c2,1,3.2-4.1,2.5-7.3c0-0.1-0.1-0.2-0.2-0.2c-0.1-0.1-0.2-0.1-0.3-0.1
	c-0.1,0-0.2,0.1-0.3,0.2c-0.1,0.1-0.1,0.2-0.1,0.3c0.2,1.8,0.1,3.6-0.3,5.3c-0.6,1.6-2.2,2-1.4-3.8c0.3-2.3,0.5-4.1,2-4.7
	c1-0.3,2.3,1.8,2.5,2.6c0.5,2.4,0.2,4.9-0.8,7.1c-1.8,3.6-3.2,4.4-4,4.2c-0.2-0.1-0.4-0.2-0.6-0.3c-0.2-0.1-0.3-0.3-0.4-0.5
	c-2.6-4.5-1.5-10.9,0.1-12.1c0,0,0.2-0.2,0.1-0.5s-0.3-0.1-0.4,0c-3.5,1.8-2.4,16.4,2.1,14.1c3.1-1.6,4.2-3.9,4.9-8.9
	C330.1,241.1,326.5,237.3,324.4,239.9z"/>
<path d="M318.2,279.3c-1.1-0.2-2.2-0.1-3.4,0.1c-2,0.6-2.8,6.2-2.2,7.9c0.2,0.5-0.3-2.1-0.8,14.2c-0.1,3.6,8,2.5,8,2.5
	c1.6,0,3.7-0.3,3.7-1.9c0-1.6,0.8-9.9,0.5-11.1c-0.1-0.6-0.2-1.2-0.1-1.8c0.1-1.6,0.2,0.6,0.9-4.7
	C324.9,278.4,323.1,279.2,318.2,279.3z M317,280c1.6,0.5,2.8-0.2,5.8,0.3c1,0.2,1.1,3.3,1,4.2c-0.3,3.2-0.1,3-0.9,3.1
	c-8.2,0.8-6.3,0.5-6.3-1.6C316.5,280.1,316,279.7,317,280z M314.3,280.8c0.1-0.2,0.2-0.3,0.3-0.4c0.1-0.1,0.3-0.2,0.4-0.2
	c0.9-0.3,0.6,2.1,0.6,2.1c0,4.5,0.4,2.5-0.1,5.1c-0.1,0.4-0.3,0.4-1.5,0.4c-0.5-0.4-0.8-0.9-0.9-1.6
	C313.1,284.4,313.5,282.6,314.3,280.8z M314.4,303c-0.3,0-0.6-0.2-0.8-0.3c-0.2-0.2-0.5-0.4-0.6-0.6c-0.2-0.2-0.3-0.5-0.3-0.8
	c-0.1-0.3,0-0.6,0-0.9c0.2-0.7,0.1-12.1,0.7-11.7c1.3,0.9,2.5-1,2.2,1.6C315.3,298.8,315.2,302.4,314.4,303z M322.6,300.9
	c-0.2,2,0.9,2-3.6,2.3c-5.1,0.3-3.1,0.8-3.1-3.4c0.9-13.8-0.1-10.2,1.8-10.7c0.9-0.2,2.7,0,4.8-0.4c0.5-0.1,0.6,0.3,0.6,0.6
	C323.2,293.1,323.1,297,322.6,300.9L322.6,300.9z"/>
<path d="M323.4,137.3c-1.5-0.4-2.5,0.1-2.6,1.5c-0.3,3.5-0.7,6.6,2.6,5.6c1.3-0.4,1.2-2.7,1.2-4.1S324.7,137.7,323.4,137.3z
	 M323.6,142.9c-0.1,0.7-0.5,0.8-1.2,0.8c-0.8,0-0.9-0.3-0.9-1c-0.1-1.2-0.1-2.5,0-3.7C321.7,137.8,324.6,136.5,323.6,142.9z"/>
<path d="M316.7,248.3l-32.3-2.9c-4.7,0.3,0.7,1,5.4,1.4C310.6,248.2,319.4,249.9,316.7,248.3z"/>
<path d="M303.6,242.7c7.4,0.4,12.9,1.7,12.6,0.3c-0.2-0.8-1.4,0-5.2-0.6c-0.9-0.1-13.5-1.5-14.7-0.4
	C295.7,242.6,296.4,242.2,303.6,242.7z"/>
<path d="M311.3,137.1c-1.5-0.4-2.5,0-2.6,1.6c-0.3,3.6-0.7,6.6,2.7,5.6c1.2-0.3,1.2-3,1.1-4C312.5,139.1,312.6,137.5,311.3,137.1z
	 M311.1,143.5c-0.7,0.1-1.6,0.3-1.7-0.5c0-2.3-0.6-5.2,1.5-5C312.1,138,312,143.3,311.1,143.5z"/>
<path d="M298.4,137.3c-1.3-0.4-2.5,0-2.7,1.5c-0.3,3.5-0.7,6.7,2.7,5.6c1.2-0.4,1.2-2.8,1.2-4C299.5,139.1,299.6,137.7,298.4,137.3z
	 M296.9,143.7c-0.7,0-0.6-1.9-0.6-3.3c0-1.2,0.1-2.4,1.3-2.4c1.2-0.1,1.1,2.2,1.1,3.3C298.4,143.6,298.7,143.7,296.9,143.7z"/>
<path d="M292.2,178.1c0,0-0.7,4.9-1.1,4.5c-0.3-1.2-0.4-2.4-0.3-3.6c-0.1-3.4,0.2-6.9,0.9-10.2c0.2-0.8,0.6-1.6,0.1-1.8
	c-0.2-0.1-0.4,0.2-0.5,0.4c-0.9,2.5-1.3,5.2-1.3,7.9c0,1.3-0.2,6.5,0.3,7.9c0.3,0.6,0.6,1.2,1.1,0.6s1.2-2.4,1.4-5.6
	C292.9,177.9,292.5,177.7,292.2,178.1z"/>
<path d="M284.8,276.9c-0.1,0-0.3,0-0.4,0c-0.1,0-0.3,0.1-0.4,0.2c-0.1,0.1-0.2,0.2-0.3,0.3c-0.1,0.1-0.1,0.3-0.2,0.4
	c-0.3,0.9-0.3,2.6-0.9,5c0,0.9,0.3,1.2,1.2,1.3c6.4,0.7,5.4,1.6,6.3-5.1C290.4,277.1,287.7,277.2,284.8,276.9z M288.8,282.9
	c-0.2,1.5-1.1,0.2-3.4,0.5c-2.4-0.3-1.8,0.2-1.5-2.9c0.4-3.1-0.5-2.8,3.3-2.4C289.9,278.4,289.5,277.8,288.8,282.9L288.8,282.9z"/>
<path d="M285.4,137c-2,0-1.9,1.4-2,3.9c-0.2,1.1,0,2.1,0.5,3.1c0.8,0.8,3.7,1.5,3.5-3.8C287.4,138.3,287.4,137.1,285.4,137z
	 M286.4,142.9c0,0.1,0,0.3-0.1,0.4s-0.2,0.2-0.4,0.2c-0.9,0.1-1.7,0.2-1.6-0.8c0-1.9-0.5-5.9,1.8-4.7c0.1,0,0.1,0.2,0.1,0.3
	C287,139.7,286.5,141.9,286.4,142.9L286.4,142.9z"/>
<path d="M262.9,137c-1.5-0.4-2.6,0-2.7,1.5c-0.4,4.7-0.1,5.4,1.4,5.8c0.6,0.1,0.9-0.2,1.5-0.3c1.1-0.3,1.1-3,1.1-4
	C264,139,264.2,137.4,262.9,137z M263,142.7c0,0.1,0,0.3-0.1,0.4c-0.1,0.1-0.2,0.2-0.4,0.2c-1,0.2-1.6,0.2-1.6-0.8
	c0-1.6-0.5-5.8,1.8-4.6c0,0,0.1,0.2,0.1,0.3C263.6,139.5,263.2,141.5,263,142.7z"/>
<path d="M255.1,194.8c0,0.2,0.7-0.1,1.9,0.2c0.5,0.1,0.7,0.2,0.8,1.9c0.1,3.4,0,6.9-0.2,10.3c-1,9.7,0,10.2-3,10.3
	c-1.9,0-3.8-0.1-4.7,0c-0.1,0-0.2,0-0.2,0.1c-0.1,0.1-0.1,0.1-0.1,0.2c0,0.1,0,0.3,0.3,0.4c0.3,0.1,0.2,0,4.7,0c2,0,1.9,2.1,1.7,4
	c-1.5,13.6,0.8,11-1.9,11.8c-0.2,0-0.3,0.7,0.4,0.7c0.2,0,0.3,0,0.4,0.4c0.7,1.9,0.8,4,0.3,6c-0.8,9.3,0,10.6-1.9,10.5
	c-0.3,0-0.7,0-1,0c-0.4,0.1-0.6,0.6,0,0.7l1.7,0.3c0.2,1.6-0.2,8.5-0.2,8.5c-0.2,3.4-0.8,3.3-3.1,5.6c-4.2,4.2-1.7,4.6-22.3,3.8
	c-0.6,0-1.3,0.6,0.1,0.8c2.7,0.4,11.5,0.1,11.5,0.4c7.5,0,7.3,0.1,11.3-4.2c1.2-1.5,2.8-2,3.2-4.1c0.5-3.7,0.6-7.4,0.4-11.1
	c-0.1-0.6,0.6-0.1,0.8-2.7c0.1-1.8,0.1-6.1,0.5-9c0.4-1.9,0.2-3.8-0.4-5.6c-0.3-0.7,0.7-0.1,0.6-2c-0.2-7.5,1.2-12.6,0.1-14.5
	c-0.5-0.8,0.8-0.5,0.9-1.8c0.3-2.5,1.9-19.8,0.7-21.9C257.5,193.6,255,193.9,255.1,194.8z"/>
<path d="M249.9,137.2c-1.3-0.4-2.5,0-2.7,1.5c-0.3,3.5-0.7,6.7,2.7,5.7c1.2-0.4,1.2-2.8,1.2-4C251,139,251.2,137.5,249.9,137.2z
	 M250.1,142.7c-0.1,0.8-0.5,0.8-1.3,0.9c-0.2,0-0.6,0-0.7-0.5c-0.4-1.6-0.3-3.3,0.2-4.9c0.1-0.1,0.2-0.2,0.4-0.3
	c0.1-0.1,0.3-0.1,0.5-0.1c0.2,0,0.3,0.1,0.5,0.1c0.1,0.1,0.3,0.2,0.3,0.3C250.3,139.8,250.4,141.3,250.1,142.7z"/>
<path d="M237.8,137c-1.3-0.4-2.5,0-2.7,1.5c-0.3,3.5-0.7,6.7,2.7,5.6c1.2-0.4,1.2-2.8,1.2-4C238.9,138.8,239.1,137.4,237.8,137z
	 M237.5,143.3c-0.8,0.1-1.6,0.3-1.7-0.6c0-2-0.5-6.2,1.8-4.9C238.3,138.3,238.5,143.1,237.5,143.3z"/>
<path d="M236,168.1c-0.2,0.7,0.4,0.5,0.6,0.1c1.3-4.2-1.5-8.8-2.9-11c-0.4-0.5-0.9-0.2-0.6,0.4C235,160.9,236.8,165.1,236,168.1z"/>
<path d="M235.3,170.9c-0.6,2.1-0.7,1.6-0.8,2.3c0,0.3,0.5,1.1,1.3-1.8C236.2,170.3,235.5,170.4,235.3,170.9z"/>
<path d="M218.8,137.7c1.3,0.2,2.4,0.8,3.2,1.7c2.9,3,5,8.9,7.9,11.2c0.6,0.5,1.2,0.8,2,1c0.2,0,0.3-0.1,0.3-0.2
	c-0.2-0.8-2.6-0.4-5.6-6.7c-1-2.2-3.1-5.6-5.5-7.1c-1.9-1.2-4.4-0.7-3.8-0.1C217.9,137.7,218.5,137.6,218.8,137.7z"/>
<path d="M220.6,160.7c-0.9-0.5-1.5-0.5-1.5-0.2c0,0.1,0,0.1,0,0.2c0,0.1,0,0.1,0,0.2s0.1,0.1,0.1,0.1c0,0,0.1,0.1,0.1,0.1
	c0.2,0.1,0.4,0.2,0.1,0.4c-1,1.1-2.3,1.9-3.7,2.4c-2.9,1.2-4.6,0.6-1,3.4c2.4,1.8,2.9,1.9,3.6,1.3c1.8-1.5,1.6-5.8,2-6.8
	c0-0.1,0.2-0.1,0.3,0C221.5,162.2,221.4,161.1,220.6,160.7z M219.6,162.7c0,0.4-0.5,4-1.4,4.9c-0.6,0.6-1,0.5-3.1-1
	c-1-0.7-1.5-1.1-1.5-1.3c0-0.2,0.7-0.3,1.1-0.4c1.6-0.4,3.1-1.2,4.4-2.4C219.6,162.1,219.6,162.3,219.6,162.7z"/>
<path d="M213.8,150.5c0.5-1.4,0.8-1.8,2-1.8c0.4,0,0.9,0.1,1.3,0.2c0.3,0,0.4-0.2,0.4-0.4c-0.1-1.3-4.4-1.7-4.5,1.8
	C213,150.7,213.5,151.4,213.8,150.5z"/>
<path d="M216.1,155.1c-0.1,1,1.1,1.5,1.2,0.6C217.4,154.8,216.1,153.8,216.1,155.1z"/>
<path d="M215.5,160.6c0.1-0.4,0.1-0.8-0.1-0.8c-0.5-0.1-0.6,0.6-1.3,1.2c-0.8,0.6-1.8,0.2-1.6-0.4s0.5-0.7,0.7-1.3s0.1-0.8-0.5-2.5
	c0-0.1-0.1-0.2-0.2-0.3s-0.2-0.1-0.4-0.1c-0.4,0-0.3,0,0.3,1.9c0.3,0.9-0.1,1-0.5,1.8c-0.1,0.2-0.2,0.3-0.2,0.5c0,0.2,0,0.4,0.1,0.6
	c0.1,0.2,0.2,0.4,0.3,0.5c0.1,0.1,0.3,0.2,0.5,0.3c0.3,0.1,0.6,0.2,0.9,0.2c0.3,0,0.6-0.1,0.9-0.2c0.3-0.1,0.6-0.3,0.8-0.6
	C215.3,161.2,215.4,160.9,215.5,160.6z"/>
<path d="M212.2,174c-0.4-0.9-0.3-1-0.6-1s-0.4,1.3,0.4,2.1c0.2,0.2,0.4,0.1,0.5,0c0.1-0.1,0.1-0.3,0-0.5S212.3,174.2,212.2,174z"/>
<path d="M209.2,228.6c1,1,0.5,1-0.7,3.4c-2.2,4.7-0.2,2.5-7.3,4c-0.1,0-0.3,0-0.4,0c-0.1-0.1-0.2-0.2-0.3-0.3
	c-2.7-3.5-3.6-4.4-3.3-5.4c1.5-6.2,1.5-4.4,4.8-5.5c0.4-0.1,0.4-0.9-0.2-0.7c-1.1,0.4-2.2,0.7-3.4,0.9c-0.7,0-1.8,4.9-1.9,5.4
	c-0.2,1.1,1.5,2.9,3.4,5.6c1,1.5,1.9,0.1,4.5,0.2c0.6,0,1.9-0.4,2.7-0.4c0.8-0.1,2-3.7,3.3-6c0.4-0.7,0.1-0.8-2.3-3.9
	C207.5,225.3,206.6,226.1,209.2,228.6z"/>
<path d="M205.3,170.4c0,1.2,2.4,3,3.1,4.9c0.2,0.4,0.4,0.8,0.9,0.7c0.1,0,0.1-0.2,0.2-0.3c-0.4-2.2-3.2-4.4-3.5-5.4
	C205.9,169.8,205.3,169.8,205.3,170.4z"/>
<path d="M196.7,219.3c1.2-0.8,2.5-1.4,3.9-1.9c1.9-0.8,3.8-1.7,5.6-2.7c3.3-1.6,3.3-1.5,3-2.2c-1.9-5-2.3-4.6-2.8-6.4
	c-0.5-1.8-2-0.2-4.9,1c-4.6,1.9-2.9,1.6-5.5,2.8c-1.1,0.4-2.1,0.9-3.1,1.5c-0.2,0.2-0.3,0.8-0.1,0.9
	C194.2,213.3,195.6,219.3,196.7,219.3z M196.3,210.5c0.9-0.4,1.6-0.9,3.1-1.8c0,0,5.6-2.6,6.2-2.7c0,0.1,0.2,0.2,0.2,0.3
	c0.5,1.4,1.2,2.8,1.9,4.1c1.3,3.3,1.7,1.9-4.9,5.3c-0.6,0.4-1.3,0.7-1.9,0.9c-3.4,1.1-4.2,2.5-4.4,1.7c-0.8-2.2-1.8-4.3-2.9-6.3
	C193.1,211.7,193.2,211.8,196.3,210.5z"/>
<path d="M208.4,157.4c-0.3,0.1-0.4,0.8,0,1.3c0,0,0.1,0.1,0.1,0.1c0,0,0.1,0.1,0.1,0.1c0.1,0,0.1,0,0.2,0c0.1,0,0.1,0,0.2-0.1
	C209.5,158.5,209.2,157.1,208.4,157.4z"/>
<path d="M204.3,153c-0.3,0.7,0,1.7,0.4,1.2c0.2-0.5,0.5-0.9,1-1.3c0.4-0.3,0.9-0.6,1.4-0.7C210,151.8,205.8,150.3,204.3,153z"/>
<path d="M196.7,213.8c1.1,0.4,1.3,0.1,0.8,1.5c-0.3,0.9,2.2,1.5,2.1-0.4c-0.1-0.8,1.1-0.4,1-1.7c0-0.3,0-0.6,0.1-0.6
	c0.8,0.2,0,0.4,1.8,0.7c0.6,0.1,0.7-0.7,0.7-1.3c0.1-0.6,0.8,0.7,1.5,0c0.9-0.9,1,0.1,2.3-0.9c0-0.1,0.1-0.1,0.1-0.2
	c0-0.1,0-0.1-0.1-0.2c0-0.1-0.1-0.1-0.2-0.1c-0.1,0-0.1,0-0.2,0c-0.1,0-0.6,0.5-0.9,0.4c-1.1-0.4-1.3,0.8-1.8,0.4
	c-0.5-0.4-1.2-0.6-1.3,0.3c-0.4,2.8-1.3-0.9-2.6,0.7c-0.3,0.3-0.1,1.3-0.3,1.4c-1.3,0.5-0.6,0.2-2.5-0.3c-0.3-0.1-0.6-0.2-0.7-0.5
	c-0.1-0.3,0.2-0.5,0.4-0.7c0.6-0.7,1,0.5,1.1,0c0.2-0.7-0.5-1.1-1.1-0.8C195.7,212,195.5,213.4,196.7,213.8z M198.6,214.7
	c0.1,0,0.2,0.2,0.3,0.2c0,0.6-0.8,0.6-0.8,0.2C198.1,214.7,198.4,214.6,198.6,214.7z"/>
<path d="M206.8,223.4c0-4.7-1.5-2.1-4.4,1.9c-0.6,0.8-1,1.7-1.3,2.7c-0.2,0.2,0-0.4-1.8,0.7c-0.1,0-2,4.4,0.7,3
	c0.9-0.4,0.8-0.8,1.5-0.3c1.8,1.1,2.3,0.3,2.7,1c0.8,1.7,1.2,2.7,2.5-1.5c0.3-1.1-1.2-0.9-0.7-2.7
	C206.6,226.6,206.8,225,206.8,223.4z M206.2,230.8c-0.8,2.1-0.8,2.1-0.9,2c-0.7-1.5-0.7-0.9,0.3-2.8
	C206.1,230.5,206.3,230.5,206.2,230.8z M205.3,228.8c0,0.3-0.2,0.3-2.2,0c-0.5-0.1-1-0.6-1.2-0.2s1.7,1.1,2.3,1.1c0.7,0,1,0,0,1.3
	c-0.5,0.8-0.8,0.6-2.6-0.4c-0.5-0.3-0.2-0.6-0.1-1.4c0.1-0.8-0.5-0.7-0.6-0.2c-0.2,1.1-0.2,1.6-0.8,1.8c-0.7,0.3-1,0.6-0.9,0.2
	c0.3-1.2,0.2-1.7,0.7-2c2.6-1.1,0.5,0.3,5-6.2c1.2-1.7,1.2-0.8,1.2,0.4C206.1,225.1,205.8,227,205.3,228.8z"/>
<path d="M202,170.9c-0.1-0.8,0-1.6,0.2-2.3c0.2-0.7,0.6-1.4,1.1-2c0.3-0.4,0.1-0.7-0.2-0.6c-0.4,0.1-0.6,0.4-0.8,0.7
	c-0.5,0.8-0.9,1.6-1,2.5c-0.2,0.9-0.1,1.8,0.1,2.7c0.3,1.3,1.1,2.5,2.1,3.4c0,0,0.1,0.1,0.1,0.1c0,0,0.1,0,0.1,0s0.1,0,0.1,0
	c0,0,0.1,0,0.1-0.1c0.1-0.2,0-0.4-0.1-0.6C202.7,173.6,202.2,172.3,202,170.9z"/>
<path d="M141.4,166.7c1,0,13.7,0.1,18.5,0.1c13.5-0.1,30.9,0.4,35.4,0c0.7,0,0.8-0.2,0.7-0.4s0-0.2-0.7-0.3
	c-1.7-0.1-49.3-0.4-54.5-0.2c-0.5,0-0.6,0.2-0.6,0.4C140.3,166.5,140.5,166.7,141.4,166.7z"/>
<path d="M192.9,143.4c1.3-0.4,1.2-2.7,1.2-4.1c0-1.9,0-3.2-2.1-3.2s-1.8,1.5-1.9,3.9C190,142.4,190.2,144.2,192.9,143.4z
	 M191.3,137.3c0.2-0.5,0.6-0.4,1-0.4c1.6-0.2,0.8,4.6,0.8,5c0,0.2-0.1,0.3-0.2,0.4c-0.1,0.1-0.2,0.2-0.4,0.2c-1,0.2-1.6,0.2-1.6-0.9
	C190.9,139.4,190.7,138.5,191.3,137.3z"/>
<path d="M178.9,225.2c0.1-0.6,0.3-1.1,0.6-1.6c0.3-0.5,0.7-0.9,1.2-1.1c0.5-0.4,0,0.4,1.1,2.5c1.1,2,2.5,1.7,4.4,1.8
	c0,0.2,1.2,0,2.7-1.3c1.5-1.3,1.3-3.1,1.6-3.3c1-0.5,1.2-1.7,2.1-2.3c0.1-0.1,0.2-0.6-0.3-0.5c-0.8,0.1-1,1.3-1.9,1.9
	c-0.3-1.2-0.9-2.2-1.9-3c-0.7-0.5-1.4-0.8-2.2-0.9c-2.3-0.6-4.6,1.7-5.1,3.7c-0.1,0.5-0.9,0.8-1.6,1.5
	C177.5,224.5,178.5,226.1,178.9,225.2z M182.2,220.6c0.7-1.2,1.8-2.1,3.1-2.6c4.4,0.2,5,4.3,4.1,4c-1.1-0.4-1.8-1.2-2.7,0
	c-0.6,0.7-0.7,0.8-1.6,0.4c-0.3-0.1-0.7-0.3-0.9-0.5C183,220.7,181.4,221.9,182.2,220.6z M182.2,222.1c0.3-0.1,0.6,0,0.9,0.1
	c0.3,0.1,0.6,0.3,0.8,0.5c0.4,0.4,0.9,0.6,1.4,0.7c0.5,0.1,1.1-0.1,1.6-0.4c0.2-0.2,0.4-1.3,1.6-0.6c1.1,0.7,1.3,0,1.2,0.6
	c-0.2,0.8-0.6,1.6-1.2,2.1c-0.6,0.6-1.4,0.9-2.2,1c-0.4-0.1-0.8-0.1-1.2-0.2C182.7,226.6,180.9,222.2,182.2,222.1L182.2,222.1z"/>
<path d="M175.8,236.9c0.9,0.4,6,2.2,6,2.2c0.2,0,0.3,0,0.4-0.1c0.1-0.1,0.2-0.2,0.3-0.4c0.2-0.6,2.3-6,1.9-6.4
	c-0.7-0.6-1.6-1-2.6-1.2c-4.7-1-4.8-2.9-5.8,1.6C175.2,236.3,174.8,236.6,175.8,236.9z M177.6,230.6c5.9,1.9,6.4,1.5,6,2.6
	c-1.9,5.5-1.7,5.3-2.1,5.1c-3-1.3-5.8-1.8-5.6-2.3C176.6,233.9,176.8,230.5,177.6,230.6z"/>
<path d="M180.9,143.2c1.2-0.3,1.2-3,1.1-4c0-1.2,0.1-2.8-1.2-3.2s-2.6,0.1-2.6,1.6C177.8,141.2,177.5,144.2,180.9,143.2z
	 M180.3,136.8c1.2,0,1.2,5.4,0.1,5.6c-0.7,0.1-1.6,0.2-1.6-0.6C178.7,137.9,178.7,136.8,180.3,136.8z"/>
<path d="M164.6,206.4c-3.1,1-4.1,7.4-1.8,8.9c0.9,1,2,1.7,3.2,2.2c1,0.4,1.8,0.4,4.1-0.4c2.2-0.8,3-2.7,3.6-4.9
	c0.2-0.9,0.1-1.9-0.3-2.7c-0.4-0.9-1-1.6-1.7-2.1c-1.5-1.3-2.4-1-4-1.5C166.6,205.7,165.5,205.9,164.6,206.4z M173.1,211.3
	c0,1.4-0.5,2.7-1.4,3.7c-0.9,1-2.2,1.7-3.6,1.8c-2.5,0.4-3.4-0.7-5.3-2.3c-1.3-1.1-0.6-4,0.1-5.7
	C164.4,205.3,172.3,205.8,173.1,211.3z"/>
<path d="M165.4,214.2c-0.5-0.5-1.2-0.9-1.1-1.8c0-0.5-1.1,0.1-0.4,1.1c0.4,0.6,1,1.2,1.7,1.6c0.7,0.4,1.4,0.6,2.2,0.6
	c4.8-1.2,4.6-4.2,4.1-4.2c-0.7,0-0.1,1.4-1.6,2.2c-0.4,0.4-0.9,0.8-1.5,1c-0.6,0.2-1.2,0.2-1.7,0.1
	C166.4,214.7,165.8,214.5,165.4,214.2z"/>
<path d="M169.2,211.2c0.5-0.1,0.4-0.6,0.5-0.9c0-0.6-0.2-1.2-0.5-1.7c-0.3-0.5-0.8,0-0.7,0.5C168.7,210.6,168.8,211.3,169.2,211.2z"
	/>
<path d="M165.8,211.6c0.5,0,0.3-0.9,0.2-1.8c-0.2-1.1-0.9-1.1-1,0C165.3,211.2,165.3,211.6,165.8,211.6z"/>
<path d="M162.3,136.8c1.2-0.4,1.2-2.8,1.2-4c-0.1-1.3,0.1-2.7-1.2-3.1s-2.5,0-2.7,1.5C159.3,134.8,158.9,137.9,162.3,136.8z
	 M160.3,131.4c0.4-1.5,1.8-0.9,1.8-0.7c0.3,0.9,0.5,1.9,0.4,2.9c-0.3,2.4,0,2.5-1.8,2.5C159.9,136.2,160.2,132,160.3,131.4z"/>
<path d="M81.5,156.9c-1.1-0.9-1.5-1.3-1.7-0.8c0.5,1.6,7.8,6.4,16.9,8c11,1.6,22.2,2.4,33.4,2.4c0.8,0,1-0.7,0.3-0.7
	c-3.2-0.4-17-0.2-27.7-1.5C89.4,162.6,83.5,158.3,81.5,156.9z"/>
<path d="M100.2,103.5c0.9-0.5,4.6,0.8,8.9-0.5c2.9-0.9,0.2,0.4,10.3,0c1.3,0.1,2.6,0.1,3.9,0c1.2-0.4,2.5-0.4,3.8-0.1
	c0.9,0,1.9-0.1,2.8-0.2c0.2-0.1,0.3-0.2,0.4-0.3c0.1-0.1,0.2-0.3,0.2-0.5c0-0.2,0-0.4-0.1-0.5c-0.1-0.2-0.2-0.3-0.3-0.4
	c-3-2.5-3.5-2.5-3.6-3.4c-0.2-2.9-4.2-3.9-6.3-2.4c-2.1,1.5-1.5,2.5-2.4,2.4c-2.6-0.1-2.6,0.2-2.8-0.5c-0.6-2.5-3.9-3.5-6-3.2
	c-2.9,0.3-2.1,2.3-3.1,2.5c-4.8,1-3,3.5-5.7,3.6c-1,0-2,0.3-2.8,1C96.1,101.9,99.4,104,100.2,103.5z M99.9,100.8
	c0.6,0,1.1-0.1,1.6-0.3c0.5-0.3,0.9-0.6,1.3-1.1c0.4-0.6,0.9-1.2,1.5-1.5c0.6-0.4,1.3-0.6,2-0.7c1.7-0.5,0.2-2.4,3.5-2.5
	c6.6,1.3,3.3,3.4,5.5,3.8c0.9,0.1,1.8,0.1,2.7,0c1.2,0.1,0.7-0.2,2-1.9c1.6-1.9,5.8-1.3,5.8,1.5c0,1.6,5,3.9,3.7,4
	c-3.4,0.2-4.5,0-7.3,0.4c-3.5,0.4-7.1,0.3-10.6-0.3c-1-0.2-5,0.8-6.7,0.9c-1.5,0-3.5-0.7-4.9-0.1c-0.7,0-1.3-0.3-1.8-0.8
	C97.7,101.4,99.1,100.8,99.9,100.8z"/>
<path d="M117.4,143c1.7,0.2,3.3,0.3,5,0.1c1.2-0.2,1.1-0.8,1.8-3.5c1-3.5,2-6.1,1.3-6.6c-0.3-0.2-0.7-0.3-1.1-0.2
	c-5.3,0-4.9-0.2-5.6,1.3c-0.4,1.1-1.1,3-2.5,6.9C115.7,142.6,116,142.8,117.4,143z M117.1,141.4c2.4-6.2,2.3-7.9,3.2-8h3.6
	c0.4,0,0.7,0,1,0.2c0.2,0.1,0,0.4,0,0.7c0,0.3-1.4,4.9-1.9,6.6c-0.3,0.9-0.5,1.1-1,1.2c-1.7,0.2-3.3,0.2-5-0.2
	C116.8,141.9,117,141.6,117.1,141.4z"/>
<path d="M109.1,141.7c0.5,0,3.5,0.5,4.5,0.7c0.4,0,0.6-0.2,0.8-0.7c2.7-7.4,3.5-8.8,2.5-9.2c-1.1-0.2-2.2-0.3-3.4-0.3
	c-0.9,0-1.1,0.3-1.6,1.1c-1.3,2.1-2.5,4.3-3.5,6.5c-0.2,0.6-0.5,0.9-0.4,1.2C108.2,141.5,108.6,141.7,109.1,141.7z M109.2,140.4
	c0.8-2,1.8-3.8,2.9-5.7c1.1-2,0.4-2,4.1-1.6c0.5,0,0.6,0.2,0.1,1.3c-0.8,2-1.7,4.7-2.4,6.5c-0.2,0.5-0.3,0.5-0.4,0.5
	C108.8,140.8,108.9,141,109.2,140.4z"/>
</svg>
