<?xml version="1.0" encoding="utf-8"?>
<!-- Generator: Adobe Illustrator 27.1.1, SVG Export Plug-In . SVG Version: 6.00 Build 0)  -->
<svg version="1.1" id="_Слой_2" xmlns="http://www.w3.org/2000/svg" xmlns:xlink="http://www.w3.org/1999/xlink" x="0px"
	 y="0px" viewBox="0 0 138.4 111.8" style="enable-background:new 0 0 138.4 111.8;" xml:space="preserve">
<style type="text/css">
	.st0{fill:none;}
	.st1{fill:#1D1D1B;}
	.st2{fill:#FFE451;}
</style>
<polygon class="st0" points="-385.4,-37.7 -383.3,-37.7 -383.3,-37.7 "/>
<g>
	<path class="st1" d="M135.4,20.5c-1.9-8.4-11.2-16.5-19.5-17.6C100.4,1,84.8,0,69.3,0S38.2,1,22.7,2.9C14.2,4,4.9,12.1,3,20.5
		c-4,19.1-4,38.2,0,57.4c1.9,8.4,11.2,16.5,19.5,17.6c3.3,0.4,6.6,0.8,9.8,1.1v10.2c0,3,2.4,5,5,5c1.1,0,2.2-0.4,3.2-1.2l14.8-12.5
		c4.6,0.2,9.2,0.3,13.8,0.3c15.5,0,31.1-0.9,46.6-2.9c8.4-1.1,17.7-9.2,19.5-17.6C139.4,58.7,139.4,39.6,135.4,20.5z"/>
	<path class="st2" d="M39.2,90.3L33,89.7c-3.5-0.3-6.7-0.7-9.7-1.1c-5.7-0.8-12.5-6.9-13.7-12.3c-3.8-18-3.8-36.3,0-54.4
		c1.2-5.4,8-11.5,13.7-12.2C38.4,7.8,53.8,6.9,69,6.9s30.6,0.9,45.8,2.8c5.7,0.8,12.5,6.9,13.7,12.3c3.8,18,3.8,36.3,0,54.4
		c-1.2,5.4-8,11.5-13.7,12.2c-14.9,1.9-30.3,2.9-45.5,2.9c-4.5,0-9.1-0.1-13.6-0.2L53,91.2l-13.8,11.7
		C39.2,102.9,39.2,90.3,39.2,90.3z"/>
	<g>
		<path class="st1" d="M44.4,59.4L44.4,59.4c-1.6,0-2.9-1.3-2.9-2.9V41.7c0-1.6,1.3-2.9,2.9-2.9l0,0c1.6,0,2.9,1.3,2.9,2.9v14.8
			C47.2,58.1,46,59.4,44.4,59.4z"/>
		<path class="st1" d="M69.2,56.5L69.2,56.5c-1.6,0-2.9-1.3-2.9-2.9v-8.9c0-1.6,1.3-2.9,2.9-2.9l0,0c1.6,0,2.9,1.3,2.9,2.9v8.9
			C72.1,55.2,70.8,56.5,69.2,56.5z"/>
		<path class="st1" d="M94,59.4L94,59.4c-1.6,0-2.9-1.3-2.9-2.9V41.7c0-1.6,1.3-2.9,2.9-2.9l0,0c1.6,0,2.9,1.3,2.9,2.9v14.8
			C96.9,58.1,95.6,59.4,94,59.4z"/>
		<path class="st1" d="M56.8,70.6L56.8,70.6c-1.6,0-2.9-1.3-2.9-2.9V30.5c0-1.6,1.3-2.9,2.9-2.9l0,0c1.6,0,2.9,1.3,2.9,2.9v37.3
			C59.7,69.4,58.4,70.6,56.8,70.6z"/>
		<path class="st1" d="M81.6,70.6L81.6,70.6c-1.6,0-2.9-1.3-2.9-2.9V30.5c0-1.6,1.3-2.9,2.9-2.9l0,0c1.6,0,2.9,1.3,2.9,2.9v37.3
			C84.5,69.4,83.2,70.6,81.6,70.6z"/>
	</g>
</g>
</svg>
