<?xml version="1.0" encoding="utf-8"?>
<!-- Generator: Adobe Illustrator 27.1.1, SVG Export Plug-In . SVG Version: 6.00 Build 0)  -->
<svg version="1.1" id="_Слой_2" xmlns="http://www.w3.org/2000/svg" xmlns:xlink="http://www.w3.org/1999/xlink" x="0px"
	 y="0px" viewBox="0 0 397.3 91.4" style="enable-background:new 0 0 397.3 91.4;" xml:space="preserve">
<style type="text/css">
	.st0{fill:none;}
	.st1{fill:#FFFFFF;}
</style>
<polygon class="st0" points="-552.3,-41.7 -550.2,-41.7 -550.2,-41.7 "/>
<g>
	<path class="st1" d="M225.4,72.8l-0.7-0.5l-0.5,0.7c-0.8,1-2,1.9-3.4,2.6c-1.5,0.7-2.9,1-4.2,1c-1.4,0-2.5-0.3-3.3-1.1
		c-0.7-0.7-1.1-2.1-1.1-4.1v-33h6.2c1.6,0,3.4-1.1,4.1-2.5s1.4-3.5,1.4-6.5v-0.8H223h-11V14.1c0-4.5-5.9-4.8-8.9-4.8
		c-1.2,0-2.5,0.1-3.9,0.4l-0.1,2.8c-0.2,5.6-2.7,11.5-7.3,14.5c-1.7,1.1-4.4,1.5-6.2,1.5h-0.1h-24.2l-0.3,0.3
		c-0.9,1-1.6,2.1-2.1,3.4c-0.5,1.3-0.7,2.7-0.7,4V37h0.8c1.4,0,2.8,0.4,4.3,1.3c0.9,0.5,2,1.3,2,2.2c0,0.3-0.2,1.1-1.9,2.8l-11,11.4
		V6.4c0-2.1-0.5-3.7-1.4-4.7c-2.1-2.2-6.9-1.9-14.6,0.2c-4.2,1.1-7.8,2.5-10.5,3.9L125.5,6v5.9h0.8c3.4,0,4.8,0.7,5.4,1.2
		c0.9,0.8,1.3,2,1.3,3.6V78c0,1.9-0.4,3.3-1.2,4.1c-0.8,0.8-2.2,1.2-4.2,1.2h-0.8h-1c-2,0-3.4-0.4-4.2-1.1c-0.8-0.7-1.2-2.2-1.2-4.3
		v-71c0-2.1-0.5-3.6-1.4-4.6c-2.1-2.1-7.2-1.7-14.7,0.2c-4.2,1.1-7.7,2.4-10.5,3.9l-0.4,0.2v5.9h0.8c3.4,0,4.9,0.7,5.5,1.2
		c0.9,0.8,1.3,2,1.3,3.6v60.1c0,2-0.2,3.7-1.2,4.2c-0.8,0.4-1.4,0.2-1.9,0.2c-3.1-0.5-4.5-2.5-4.5-5.7v-30c0-6.1-2-10.9-6.1-14.1
		c-4-3.2-9.9-4.8-17.5-4.8c-5.6,0-10.3,0.7-14.2,2.2s-6.8,3.5-8.7,5.9c-1.9,2.5-2.9,5.2-2.9,8c0,2.9,1,5.2,2.9,7.1
		c1.9,1.8,4.4,2.7,7.5,2.7c2.8,0,5.2-0.8,7.1-2.5c1.9-1.7,2.9-3.9,2.9-6.5c0-1.5-0.4-2.9-1.2-4.1c-0.5-0.8-1.2-1.5-2.1-2
		c1.2-0.6,2.6-0.8,4.3-0.8c2.3,0,4.2,0.6,5.6,1.8c1.3,1.1,2,3.1,2,5.9v13.7c-1.4-0.5-3-1-4.8-1.3c-2.4-0.5-4.8-0.7-7.1-0.7
		c-6.7,0-11.8,1.6-15.3,4.6c-3.5,3.1-5.3,7.3-5.3,12.6c0,1.6-1.7,3.1-9.6,3.1c-1.4,0-2.5-0.3-3.3-1.1c-0.6-0.5-0.9-1.9-0.9-3.9V40.8
		h10.7l0.2-0.4c0.8-1.3,1.3-2.8,1.6-4.6c0.2-1.7,0.3-3.6,0.3-5.9v-0.8h-13v-11c0-2.1-0.7-4-2.2-5.7c-2.1-2.4-5.6-3.1-10.6-2.3
		l-0.6,0.1L13,10.8c-0.4,3.2-1.2,6.5-2.5,9.8s-2.8,6-4.6,8.1c-1.7,2.1-3.5,3.2-5.2,3.5L0,32.4v8.5h7.1v30.3c0,7.2,1.7,12.5,5.1,15.7
		c3.3,3.2,7.8,4.8,13.3,4.8c3.5,0,6.5-0.6,9-1.7s4.5-2.6,5.8-4.3c1-1.4,1.6-2.8,1.9-4.2c0.9,2,2.2,3.8,4,5.3
		c3.6,3.3,8.5,4.9,14.3,4.9c3.3,0,6.2-0.5,8.8-1.6c2.2-0.9,4.2-2,5.8-3.3c2.3,3.3,6,4.9,11,4.9c2.4,0,4.9-0.2,7.3-0.8
		c1.5-0.4,3.6-1.3,4.5-1.9c0,0.1,1.9,2.2,4.3,2.2h27.9h1.4h24.1l0.2-0.2c2-1.8,3-4,3-6.6v-0.8H158c-2.1,0-3.6-0.4-4.3-1.2
		c-0.8-0.8-1.2-2.2-1.2-4.1v-16c1.3,0.7,2.4,1.8,3.3,3.2c1.2,1.9,2.7,4.7,4.3,8.4c1.7,3.8,3.2,6.9,4.7,9.3s3.6,4.5,6.2,6.3
		c2.7,1.7,7.3,3,11.2,2.6c9.5-0.8,9.1-9.4,9.1-9.4c-1.3-0.3-3.8-1.7-4.9-3.1l0,0c-1.2-1.5-3.1-4.6-5.5-9.1c-0.1-0.1-0.4-0.8-3-5.3
		c-1.6-3-3.5-5.2-5.5-6.7c-1.6-1.2-3.6-2.1-5.8-2.6l16-15.8c1-0.9,2-1.6,2.9-2.1s2.2-0.7,3.8-0.7h3.4v33.6c0,7.2,1.7,12.5,5.1,15.7
		c3.3,3.2,7.8,4.8,13.3,4.8c3.5,0,6.5-0.6,9-1.7s4.5-2.6,5.8-4.3c1.3-1.8,2-3.7,2-5.6c0-1.1-0.2-2.2-0.5-3.5
		C226.9,74.6,226.3,73.5,225.4,72.8z M73.1,79.2c-0.6,0.4-1.3,0.7-2.2,1c-1,0.3-2,0.5-3.1,0.5c-2.1,0-3.6-0.6-4.8-1.7
		c-1.2-1.2-1.8-2.6-1.8-4.4c0-2.3,0.6-3.9,1.8-5.1s2.7-1.7,4.6-1.7c1,0,2,0.2,3.1,0.5c0.9,0.3,1.7,0.6,2.4,1V79.2z"/>
	<path class="st1" d="M395.6,59c1.1-2,1.7-4.8,1.7-8.3c0-7.3-2.1-13.1-6.4-17.2c-4.2-4.1-9.9-6.2-17-6.2c-5.6,0-10.6,1.4-15,4
		c-4.4,2.7-7.9,6.5-10.4,11.5c-1.5,2.9-2.5,6.2-3.1,9.7c-0.4-4.4-1.5-8.2-3.1-11.5c-2.3-4.5-5.3-7.9-9-10.1s-7.9-3.3-12.3-3.3
		c-4.8,0-8.6,1.1-11.5,3.3l0.3-8.8V6c0-2.1-0.4-3.6-1.4-4.6c-0.9-1-2.4-1.4-4.5-1.4c-2.6,0-5.9,0.7-10,2s-7.5,2.9-10,4.6l-0.4,0.3
		v0.4v3.6v0.8h0.8c5.4,0,6.1,2.7,6.1,4.7v62.4c-0.3,0.2-1.1,0.5-2.7,0.5l-0.8-0.1c-1.5-0.1-2.6-0.7-3.4-1.7c-0.8-1.1-1.2-2.4-1.2-4
		V34.6c0-2.9-0.6-4.7-1.8-5.6c-1.1-0.8-3.3-1.2-6.6-1.2c-3.9,0-7.5,0.4-10.8,1.3c-3.4,0.9-5.6,1.9-6.9,2.9l-0.3,0.3v0.4v5v0.8h0.8
		c5.5,0,5.5,2,5.5,2.7v33.3c-1,1.2-2.1,2.2-3.4,3s-2.7,1.3-4,1.3c-1.5,0-2.6-0.5-3.2-1.4c-0.7-1-1-2.6-1-4.8v-38
		c0-1.9-0.2-3.4-0.6-4.3c-0.5-1.1-1.4-1.8-2.6-2.1c-1.1-0.3-2.7-0.4-4.9-0.4c-3.7,0-7.2,0.4-10.5,1.4c-6.3,1.9-7.1,8.5-7.1,8.5v0.8
		h0.8c1.7,0,2.9,0.2,3.7,0.7c0.4,0.2,1,0.7,1,2v31.1c0,5.7,1.6,10.3,4.6,13.7c3.1,3.4,7.4,5.1,13,5.1c6.4,0,11.5-2.3,15.2-6.7
		c0.7,1.9,1.9,3.4,3.4,4.5c1.9,1.5,4.3,2.2,7.1,2.2c2.6,0,5.3-0.4,7.9-1.2c0.5-0.1,0.9-0.3,1.3-0.5l0,0c0,0,0.2-0.1,0.5-0.2
		c0.1,0,0.1-0.1,0.2-0.1c1.4-0.6,4.6-2,7-3.8l0,0c0.3,1.3,2.4,2.9,3.7,3.4c2.3,0.8,4.1,1.1,7.5,1.6c4.5,0.7,8.7,1.1,12.4,1.1
		c5.8,0,11.2-1.3,16-3.9s8.7-6.6,11.5-11.7c1.8-3.2,3-6.8,3.6-10.8c0.5,4.3,1.5,8.2,3.2,11.6c2.3,4.7,5.7,8.4,10,10.9
		s9.4,3.7,15.1,3.7c4.1,0,7.8-0.7,11.1-2s5.9-2.9,7.8-4.8c2-2,3-3.7,3-5.3c0-1-0.2-2.2-0.7-3.5s-1.1-2.3-1.8-3l-0.5-0.5l-0.6,0.4
		c-3.9,2.9-8.2,4.4-12.7,4.4c-8.2,0-12.5-4.8-13.1-14.7h23.5C392.2,62.3,394.4,61.2,395.6,59z M321.5,77c-1.9,3.1-4.3,4.6-7.3,4.6
		c-1.8,0-3.4-0.5-4.6-1.7V39.7c1-0.6,2.1-0.9,3.5-0.9c3.4,0,6.1,1.7,8.1,5.3c2.1,3.7,3.2,9.5,3.2,17.1
		C324.4,68.5,323.4,73.8,321.5,77z M377.8,51.3c-0.1,0.2-0.3,0.7-1.6,0.7h-10.6c0.2-5.5,1-9.4,2.5-11.8c1.4-2.4,3.1-3.5,5.2-3.5
		c1.5,0,2.7,0.7,3.6,2.2c1,1.6,1.5,4.6,1.5,8.8C378.3,49.4,378.1,50.6,377.8,51.3z"/>
</g>
</svg>
