<svg xmlns="http://www.w3.org/2000/svg" xmlns:xlink="http://www.w3.org/1999/xlink">
  <defs>
    <symbol viewBox="0 0 18 18" id="CALL">
      <path fillRule="evenodd" clipRule="evenodd" d="M4.99312 1.50041C5.83087 1.51166 6.42787 2.13941 7.18312 2.93366C7.36987 3.12941 7.57162 3.34316 7.79737 3.56816C8.89162 4.66316 8.58037 5.55641 8.32912 6.27341C8.05612 7.05566 7.81987 7.73066 9.23437 9.14516C10.6489 10.5597 11.3231 10.3234 12.1046 10.0482C12.8224 9.79766 13.7134 9.48416 14.8099 10.5792C15.0326 10.8019 15.2426 11.0014 15.4376 11.1867C16.2349 11.9457 16.8649 12.5449 16.8755 13.3849C16.8836 14.1004 16.4486 14.8309 15.3746 15.9049L14.8991 15.5824L15.3019 15.9747C15.0641 16.2184 14.4319 16.8679 13.1936 16.8754H13.1711C11.3021 16.8754 8.86537 15.3874 5.92837 12.4512C2.97937 9.50291 1.48912 7.05866 1.50031 5.18591C1.50712 3.94841 2.15587 3.31466 2.39962 3.07691L2.42043 3.05418L2.47087 3.00341C3.54712 1.92716 4.28662 1.48466 4.99312 1.50041ZM4.97887 2.62541H4.97287C4.63607 2.62541 4.12459 2.96291 3.41124 3.65583L3.26799 3.7965L3.26962 3.79616C3.26962 3.79616 3.25738 3.8102 3.23652 3.83147L3.18637 3.88166C3.00487 4.05791 2.62912 4.42466 2.62533 5.19191C2.61937 6.26516 3.32512 8.25791 6.72337 11.6554C10.1051 15.0364 12.0949 15.7504 13.1711 15.7504H13.1869C13.9541 15.7459 14.3201 15.3702 14.4964 15.1894C14.5496 15.1347 14.5931 15.0934 14.6239 15.0687C15.3716 14.3164 15.7541 13.7577 15.7504 13.3984C15.7459 13.0324 15.2906 12.6004 14.6614 12.0012C14.4611 11.8114 14.2436 11.6037 14.0141 11.3742C13.4186 10.7809 13.1254 10.8822 12.4766 11.1102C11.5804 11.4244 10.3526 11.8549 8.43937 9.94016C6.52537 8.02691 6.95437 6.79916 7.26712 5.90216C7.49362 5.25416 7.59712 4.95941 7.00237 4.36391C6.76987 4.13141 6.56062 3.91091 6.36787 3.70841C5.77237 3.08291 5.34262 2.63066 4.97887 2.62541ZM11.4349 4.16853C12.9957 4.47153 14.2009 5.67603 14.5047 7.23753C14.5639 7.54353 14.3652 7.83828 14.0607 7.89753C14.0239 7.90428 13.9879 7.90803 13.9519 7.90803C13.6879 7.90803 13.4532 7.72203 13.4007 7.45353C13.1847 6.34353 12.3289 5.48778 11.2204 5.27253C10.9152 5.21328 10.7164 4.91853 10.7757 4.61328C10.8349 4.30803 11.1349 4.10853 11.4349 4.16853ZM11.39 1.50468C14.4485 1.84443 16.8238 4.21668 17.1665 7.27443C17.201 7.58343 16.979 7.86168 16.6708 7.89618C16.6498 7.89843 16.628 7.89993 16.607 7.89993C16.3243 7.89993 16.0813 7.68768 16.049 7.40043C15.7648 4.86843 13.7983 2.90343 11.2655 2.62218C10.9573 2.58768 10.7345 2.31018 10.769 2.00118C10.8028 1.69293 11.078 1.46568 11.39 1.50468Z"/>
    </symbol>
    <symbol viewBox="0 0 18 18" id="MESSAGE">
      <path fillRule="evenodd" clipRule="evenodd" d="M12.4941 1.5C14.9916 1.5 16.8749 3.53775 16.8749 6.24V11.391C16.8749 12.774 16.3859 14.0235 15.4971 14.91C14.6999 15.7042 13.6656 16.125 12.5061 16.125H5.11638C3.95913 16.125 2.92563 15.705 2.12763 14.91C1.23888 14.0235 0.749878 12.774 0.749878 11.391V6.24C0.749878 3.53775 2.63313 1.5 5.13063 1.5H12.4941ZM12.4941 2.625H5.13063C3.24438 2.625 1.87488 4.14525 1.87488 6.24V11.391C1.87488 12.4732 2.24688 13.44 2.92188 14.1127C3.50388 14.694 4.26363 15 5.11863 15H12.4941C12.4956 14.9985 12.5016 15 12.5061 15C13.3619 15 14.1209 14.694 14.7029 14.1127C15.3786 13.44 15.7499 12.4732 15.7499 11.391V6.24C15.7499 4.14525 14.3804 2.625 12.4941 2.625ZM13.6761 6.0966C13.8719 6.33735 13.8351 6.69135 13.5944 6.88785L10.2614 9.59685C9.83988 9.93135 9.33588 10.0986 8.83263 10.0986C8.33088 10.0986 7.83063 9.93285 7.41213 9.60135L4.04838 6.88935C3.80613 6.69435 3.76863 6.3396 3.96288 6.0981C4.15863 5.85735 4.51263 5.8191 4.75413 6.01335L8.11488 8.72235C8.53713 9.05685 9.13188 9.05685 9.55713 8.71935L12.8841 6.01485C13.1256 5.8176 13.4796 5.8551 13.6761 6.0966Z"/>
    </symbol>
    <symbol viewBox="0 0 18 18" id="TWITTER">
      <path d="M18 3.63431C17.3748 3.91108 16.7033 4.09804 15.9972 4.18255C16.7175 3.7517 17.27 3.06807 17.5305 2.25421C16.8567 2.65367 16.1102 2.94389 15.3159 3.09946C14.6795 2.42337 13.7736 2 12.7704 2C10.8448 2 9.28295 3.56026 9.28295 5.48561C9.28301 5.75246 9.31321 6.01842 9.37277 6.27848C6.47307 6.13262 3.90432 4.74505 2.1838 2.6373C1.88433 3.1534 1.71209 3.75177 1.71209 4.38907C1.71209 5.59777 2.3283 6.66517 3.26336 7.28976C2.70951 7.27217 2.16796 7.12264 1.6836 6.85369V6.89859C1.6836 8.58678 2.88528 9.99527 4.4815 10.3154C4.18197 10.3961 3.87311 10.4368 3.56283 10.4366C3.34251 10.4368 3.12267 10.4162 2.90623 10.3752C3.3502 11.759 4.63797 12.7673 6.16456 12.7942C4.97035 13.7292 3.46627 14.2864 1.83259 14.2864C1.55107 14.2864 1.27329 14.2699 1 14.2377C2.54386 15.2274 4.37665 15.8033 6.34571 15.8033C12.762 15.8033 16.2697 10.4941 16.2697 5.88955C16.2697 5.73996 16.2659 5.58887 16.2592 5.43928C16.9406 4.94709 17.532 4.33452 17.9984 3.63662L18 3.63438V3.63431Z"/>
    </symbol>
    <symbol viewBox="0 0 18 18" id="INSTAGRAM">
      <path d="M9 2.44136C11.1364 2.44136 11.3896 2.44949 12.2328 2.48824C13.0128 2.52387 13.4366 2.65388 13.7185 2.76389C14.0916 2.9089 14.3585 3.08266 14.6386 3.36268C14.9186 3.64271 15.0917 3.90898 15.2367 4.28276C15.3461 4.56465 15.4768 4.98844 15.5124 5.7685C15.5511 6.61231 15.5593 6.86546 15.5593 9.00125C15.5593 11.137 15.5511 11.3908 15.5124 12.234C15.4768 13.0141 15.3467 13.4378 15.2367 13.7197C15.0917 14.0929 14.918 14.3598 14.6386 14.6398C14.3585 14.9198 14.0923 15.093 13.7185 15.238C13.4366 15.3474 13.0128 15.478 12.2328 15.5136C11.3889 15.5524 11.1364 15.5605 9 15.5605C6.86358 15.5605 6.61044 15.5524 5.76725 15.5136C4.98719 15.478 4.5634 15.348 4.28151 15.238C3.90835 15.093 3.64146 14.9192 3.36143 14.6398C3.08141 14.3598 2.90827 14.0935 2.76326 13.7197C2.65388 13.4378 2.52324 13.0141 2.48762 12.234C2.44886 11.3902 2.44074 11.137 2.44074 9.00125C2.44074 6.86546 2.44886 6.61169 2.48762 5.7685C2.52324 4.98844 2.65325 4.56465 2.76326 4.28276C2.90827 3.9096 3.08204 3.64271 3.36143 3.36268C3.64146 3.08266 3.90773 2.90952 4.28151 2.76389C4.5634 2.6545 4.98719 2.52387 5.76725 2.48824C6.61106 2.44949 6.86421 2.44136 9 2.44136ZM9 1C6.82733 1 6.55481 1.00938 5.70162 1.04813C4.8503 1.08688 4.26838 1.22252 3.75959 1.42003C3.2333 1.62442 2.78701 1.8982 2.3426 2.3426C1.89757 2.78764 1.62442 3.2333 1.42003 3.75959C1.22252 4.26838 1.08688 4.8503 1.04813 5.70162C1.00938 6.55481 1 6.82733 1 9C1 11.1727 1.00938 11.4452 1.04813 12.2984C1.08688 13.1497 1.22252 13.7316 1.42003 14.2404C1.62442 14.7667 1.8982 15.213 2.3426 15.6574C2.78764 16.1024 3.2333 16.3756 3.75959 16.58C4.26838 16.7775 4.8503 16.9131 5.70162 16.9519C6.55481 16.9906 6.82733 17 9 17C11.1727 17 11.4452 16.9906 12.2984 16.9519C13.1497 16.9131 13.7316 16.7775 14.2404 16.58C14.7667 16.3756 15.213 16.1018 15.6574 15.6574C16.1024 15.2124 16.3756 14.7667 16.58 14.2404C16.7775 13.7316 16.9131 13.1497 16.9519 12.2984C16.9906 11.4452 17 11.1727 17 9C17 6.82733 16.9906 6.55481 16.9519 5.70162C16.9131 4.8503 16.7775 4.26838 16.58 3.75959C16.3756 3.2333 16.1018 2.78701 15.6574 2.3426C15.2124 1.89757 14.7667 1.62442 14.2404 1.42003C13.7316 1.22252 13.1497 1.08688 12.2984 1.04813C11.4452 1.00938 11.1727 1 9 1ZM9 4.89218C6.73107 4.89218 4.89155 6.7317 4.89155 9.00063C4.89155 11.2696 6.73107 13.1091 9 13.1091C11.2689 13.1091 13.1084 11.2696 13.1084 9.00063C13.1084 6.7317 11.2689 4.89218 9 4.89218ZM9 11.6677C7.52738 11.6677 6.33292 10.4739 6.33292 9.00063C6.33292 7.52739 7.52676 6.33354 9 6.33354C10.4732 6.33354 11.6671 7.52739 11.6671 9.00063C11.6671 10.4739 10.4732 11.6677 9 11.6677ZM14.231 4.73029C14.231 5.26033 13.801 5.69037 13.271 5.69037C12.7409 5.69037 12.3109 5.26033 12.3109 4.73029C12.3109 4.20025 12.7409 3.77022 13.271 3.77022C13.801 3.77022 14.231 4.20025 14.231 4.73029Z"/>
    </symbol>
    <symbol viewBox="0 0 18 18" id="INFO_SQUARE_SM">
      <path d="M12.472 1H5.536C2.824 1 1 2.904 1 5.736V12.272C1 15.096 2.824 17 5.536 17H12.472C15.184 17 17 15.096 17 12.272V5.736C17 2.904 15.184 1 12.472 1ZM10.192 12.768C10.192 13.424 9.648 13.96 8.984 13.96C8.32 13.96 7.792 13.424 7.792 12.768V8.912C7.792 8.248 8.328 7.704 8.984 7.704C9.64 7.704 10.192 8.248 10.192 8.912V12.768ZM8.984 6.432C8.328 6.432 7.8 5.896 7.8 5.24C7.8 4.584 8.344 4.032 9.008 4.032C9.672 4.032 10.2 4.576 10.2 5.24C10.2 5.904 9.656 6.432 8.984 6.432Z"/>
    </symbol>
    <symbol viewBox="0 0 18 18" id="DANGER_SQUARE_SM">
      <path d="M5.528 17L12.464 17C15.176 17 17 15.096 17 12.264L17 5.728C17 2.904 15.176 1 12.464 0.999999L5.528 0.999999C2.816 0.999999 1 2.904 1 5.728L1 12.264C1 15.096 2.816 17 5.528 17ZM7.808 5.232C7.808 4.576 8.352 4.04 9.016 4.04C9.68 4.04 10.208 4.576 10.208 5.232L10.208 9.088C10.208 9.752 9.672 10.296 9.016 10.296C8.36 10.296 7.808 9.752 7.808 9.088L7.808 5.232ZM9.016 11.568C9.672 11.568 10.2 12.104 10.2 12.76C10.2 13.416 9.656 13.968 8.992 13.968C8.328 13.968 7.8 13.424 7.8 12.76C7.8 12.096 8.344 11.568 9.016 11.568Z"/>
    </symbol>
    <symbol viewBox="0 0 18 18" id="WARNING_SQUARE_SM">
      <path d="M17.3501 13.2301L11.0101 2.25006C10.0501 0.580059 7.64005 0.580059 6.68005 2.25006L0.340052 13.2301C-0.619948 14.9001 0.580052 16.9801 2.51005 16.9801H15.1901C17.1101 16.9801 18.3201 14.9001 17.3601 13.2301H17.3501ZM8.83005 14.8501C8.17005 14.8501 7.64005 14.3101 7.64005 13.6401C7.64005 12.9701 8.18005 12.4501 8.86005 12.4501C9.54005 12.4501 10.0401 12.9901 10.0401 13.6401C10.0401 14.2901 9.50005 14.8501 8.83005 14.8501ZM10.0501 9.97006C10.0501 10.6301 9.51005 11.1801 8.86005 11.1801C8.21005 11.1801 7.65005 10.6401 7.65005 9.97006V6.11006C7.65005 5.45006 8.19005 4.92006 8.86005 4.92006C9.53005 4.92006 10.0501 5.46006 10.0501 6.11006V9.97006Z"/>
    </symbol>
    <symbol viewBox="0 0 18 18" id="SUCCESS_SQUARE_SM">
      <path d="M12.46 1H5.52C2.82 1 1 2.9 1 5.73V12.27C1 15.1 2.82 17.01 5.53 17.01H12.47C15.18 17.01 17.01 15.11 17.01 12.27V5.73C17.01 2.91 15.19 1 12.47 1L12.46 1ZM13.62 7.84L8.72 12.74C8.72 12.74 8.7 12.79 8.68 12.81C8.22 13.27 7.44 13.28 6.97 12.81L4.37 10.21C3.91 9.75 3.91 8.98 4.38 8.51C4.85 8.04 5.6 8.05 6.07 8.51L7.82 10.26L11.93 6.15C12.39 5.69 13.16 5.69 13.63 6.16C14.1 6.63 14.09 7.38 13.63 7.85L13.62 7.84Z" />
    </symbol>
    <symbol viewBox="0 0 18 18" id="CALL_SOLID">
      <path fill-rule="evenodd" clip-rule="evenodd" d="M10.767 1.50595C10.5997 1.48196 10.4316 1.53143 10.2979 1.63786C10.1605 1.74578 10.0746 1.90168 10.0559 2.07631C10.0163 2.42931 10.271 2.74859 10.6236 2.78832C13.0548 3.05963 14.9445 4.95358 15.2179 7.3924C15.2545 7.71918 15.5286 7.96576 15.8558 7.96576C15.8804 7.96576 15.9043 7.96426 15.929 7.96126C16.1 7.94253 16.2524 7.85784 16.36 7.72293C16.4668 7.58802 16.5153 7.42014 16.4959 7.2485C16.1553 4.20559 13.8002 1.84397 10.767 1.50595ZM10.8137 4.11732C10.4567 4.05136 10.1288 4.27921 10.0608 4.62772C9.99283 4.97623 10.2214 5.3165 10.5687 5.3847C11.6144 5.58856 12.4218 6.398 12.6265 7.44728C12.6847 7.74932 12.9507 7.96967 13.2569 7.96967C13.298 7.96967 13.3391 7.96593 13.3809 7.95843C13.7282 7.88873 13.9568 7.54921 13.8888 7.19995C13.5833 5.63278 12.377 4.42236 10.8137 4.11732ZM11.7283 10.7657C10.8864 11.0607 9.93794 11.393 8.27381 9.72929C6.60978 8.06573 6.94125 7.11678 7.23546 6.27448C7.47023 5.60237 7.68128 4.99817 6.83587 4.153C6.60711 3.92431 6.40125 3.70763 6.2116 3.50803C4.87876 2.10522 4.34737 1.54593 2.30548 3.58796C2.29021 3.60695 2.26396 3.63259 2.23005 3.66571C1.74365 4.14076 -0.320854 6.15714 5.76345 12.2397C11.846 18.3206 13.8611 16.2562 14.3365 15.7692C14.3697 15.7352 14.3954 15.7088 14.4144 15.6935C16.4552 13.6533 15.8941 13.1196 14.4862 11.7804C14.2889 11.5928 14.075 11.3893 13.8492 11.1636C13.0039 10.3189 12.4 10.5304 11.7283 10.7657Z"/>
    </symbol>
    <symbol viewBox="0 0 18 18" id="MESSAGE_SOLID">
      <path fill-rule="evenodd" clip-rule="evenodd" d="M12.7725 2.24951C14.1795 2.24951 15.4575 3.03101 16.107 4.25501C16.2525 4.52876 16.1835 4.87001 15.9412 5.06351L10.3725 9.51776C9.98247 9.83276 9.50997 9.98951 9.03747 9.98951H9.02997H9.02247C8.54997 9.98951 8.07747 9.83276 7.68747 9.51776L2.11872 5.06351C1.87647 4.87001 1.80747 4.52876 1.95297 4.25501C2.60247 3.03101 3.88047 2.24951 5.28747 2.24951H12.7725ZM12.7274 15.7499C14.8199 15.7424 16.4999 14.0474 16.4999 11.9549C16.4999 11.9549 16.4999 8.68188 16.4924 7.02513C16.4916 6.71238 16.1301 6.53688 15.8841 6.73263C14.8375 7.56406 13.3534 8.75152 12.2808 9.60976C11.4996 10.2349 10.9366 10.6853 10.9199 10.6964C10.3874 11.1314 9.71238 11.3721 9.02238 11.3721C8.33238 11.3721 7.65738 11.1314 7.12488 10.7046C7.08513 10.6709 3.89838 8.09313 2.11638 6.67938C1.87113 6.48438 1.51113 6.65988 1.51038 6.97338C1.50438 8.64288 1.49988 11.9624 1.49988 11.9624V11.9699C1.49988 14.0624 3.20238 15.7499 5.28738 15.7499H12.7199H12.7274Z"/>
    </symbol>
    <symbol viewBox="0 0 18 18" id="ARROW_RIGHT">
      <path d="M3 8.79405C3 8.50928 3.21162 8.27393 3.48617 8.23669L3.5625 8.23155L13.4505 8.232L9.87826 4.67435C9.65812 4.45516 9.65735 4.099 9.87655 3.87886C10.0758 3.67873 10.3883 3.6599 10.6088 3.82282L10.672 3.87715L15.2095 8.39515C15.2386 8.42404 15.2638 8.45531 15.2852 8.48833C15.2912 8.49827 15.2973 8.50844 15.3032 8.51881C15.3085 8.52771 15.3134 8.53694 15.318 8.54627C15.3243 8.55986 15.3305 8.57389 15.3361 8.58821C15.3407 8.59925 15.3445 8.60998 15.348 8.62081C15.3522 8.63423 15.3562 8.64853 15.3597 8.66305C15.3622 8.67318 15.3643 8.68294 15.3661 8.69274C15.3686 8.70731 15.3707 8.72239 15.3722 8.73765C15.3735 8.74929 15.3743 8.76082 15.3747 8.77236C15.3749 8.77936 15.375 8.78669 15.375 8.79405L15.3747 8.81584C15.3743 8.82688 15.3735 8.83791 15.3725 8.84891L15.375 8.79405C15.375 8.82955 15.3717 8.86428 15.3654 8.89795C15.364 8.90599 15.3622 8.91425 15.3603 8.92247C15.3563 8.9394 15.3517 8.95571 15.3464 8.97169C15.3438 8.97964 15.3407 8.98812 15.3375 8.99654C15.3309 9.01347 15.3238 9.02961 15.3159 9.04532C15.3122 9.05271 15.3082 9.06045 15.3039 9.06811C15.2968 9.0806 15.2896 9.09247 15.2819 9.10405C15.2765 9.11224 15.2706 9.12076 15.2643 9.12915L15.2594 9.13563C15.2443 9.15543 15.2278 9.1742 15.2102 9.1918L15.2096 9.19232L10.6721 13.7111C10.4519 13.9303 10.0958 13.9295 9.87658 13.7094C9.67729 13.5093 9.65979 13.1968 9.82363 12.9769L9.87823 12.9139L13.449 9.357L3.5625 9.35655C3.25184 9.35655 3 9.10471 3 8.79405Z"/>
    </symbol>
    <symbol viewBox="0 0 18 18" id="CHECK">
      <path fill-rule="evenodd" clip-rule="evenodd" d="M13.6762 6.56712L7.69659 12.5467C7.2707 12.9726 6.8448 12.9726 6.52112 12.5467L4.28092 10.298C3.95724 9.97428 3.85503 9.44617 4.28092 9.12249C4.70681 8.69659 5.13271 8.69659 5.45639 9.12249L7.05775 10.7239L12.5092 5.28092C12.8329 4.95724 13.361 4.85503 13.6847 5.28092C14.1106 5.81755 14.1106 6.24344 13.6847 6.5586L13.6762 6.56712Z"/>
    </symbol>
    <symbol viewBox="0 0 18 18" id="SUN">
      <path d="M9 4.7794C6.67415 4.7794 4.77756 6.66911 4.77756 9.0039C4.77756 11.3387 6.66634 13.2284 9 13.2284C11.3337 13.2284 13.2224 11.3387 13.2224 9.0039C13.2224 6.66911 11.3337 4.7794 9 4.7794ZM9 12.0493C7.32195 12.0493 5.94829 10.6828 5.94829 8.9961C5.94829 7.30942 7.31415 5.9429 9 5.9429C10.6859 5.9429 12.0517 7.30942 12.0517 8.9961C12.0517 10.6828 10.6859 12.0493 9 12.0493ZM8.41463 3.20986V1.58565C8.41463 1.2655 8.68 1 9 1C9.32 1 9.58537 1.2655 9.58537 1.58565V3.20986C9.58537 3.53001 9.32 3.79551 9 3.79551C8.68 3.79551 8.41463 3.53001 8.41463 3.20986ZM9.58537 14.7901V16.4143C9.58537 16.7345 9.32 17 9 17C8.68 17 8.41463 16.7345 8.41463 16.4143V14.7901C8.41463 14.47 8.68 14.2045 9 14.2045C9.32 14.2045 9.58537 14.47 9.58537 14.7901ZM3.34146 4.17033C3.11512 3.94387 3.11512 3.56906 3.34146 3.34261C3.5678 3.11615 3.94244 3.11615 4.16878 3.34261L5.3161 4.49048C5.54244 4.71693 5.54244 5.09175 5.3161 5.3182C5.19902 5.43533 5.05073 5.49 4.90244 5.49C4.75415 5.49 4.60585 5.43533 4.48878 5.3182L3.34146 4.17033ZM14.6585 13.8297C14.8849 14.0561 14.8849 14.4309 14.6585 14.6574C14.5415 14.7745 14.3932 14.8292 14.2449 14.8292C14.0966 14.8292 13.9483 14.7745 13.8312 14.6574L12.6839 13.5095C12.4576 13.2831 12.4576 12.9082 12.6839 12.6818C12.9102 12.4553 13.2849 12.4553 13.5112 12.6818L14.6585 13.8297ZM3.20878 9.58956H1.58537C1.26537 9.58956 1 9.32406 1 9.0039C1 8.68375 1.26537 8.41825 1.58537 8.41825H3.20878C3.52878 8.41825 3.79415 8.68375 3.79415 9.0039C3.79415 9.32406 3.52878 9.58956 3.20878 9.58956ZM17 9.0039C17 9.32406 16.7346 9.58956 16.4146 9.58956H14.7912C14.4712 9.58956 14.2059 9.32406 14.2059 9.0039C14.2059 8.68375 14.4712 8.41825 14.7912 8.41825H16.4146C16.7346 8.41825 17 8.68375 17 9.0039ZM5.3239 12.6818C5.55024 12.9082 5.55024 13.2831 5.3239 13.5095L4.17659 14.6574C4.05951 14.7745 3.91122 14.8292 3.76293 14.8292C3.61463 14.8292 3.46634 14.7745 3.34927 14.6574C3.12293 14.4309 3.12293 14.0561 3.34927 13.8297L4.49659 12.6818C4.72293 12.4553 5.09756 12.4553 5.3239 12.6818ZM12.6839 5.32601C12.4576 5.09956 12.4576 4.72474 12.6839 4.49829L13.8312 3.35041C14.0576 3.12396 14.4322 3.12396 14.6585 3.35041C14.8849 3.57687 14.8849 3.95168 14.6585 4.17814L13.5112 5.32601C13.3941 5.44314 13.2459 5.4978 13.0976 5.4978C12.9493 5.4978 12.801 5.44314 12.6839 5.32601Z"/>
    </symbol>
    <symbol viewBox="0 0 18 18" id="MOON">
      <path d="M14.9551 12.027C14.8773 11.8417 14.7061 11.7027 14.4961 11.6718C12.1152 11.332 10.3256 9.27027 10.3256 6.88417C10.3256 5.83398 10.6602 4.83012 11.2982 3.98842C11.4227 3.82625 11.4461 3.61004 11.3682 3.41699C11.2904 3.23166 11.1193 3.09266 10.917 3.06178C10.6291 3.02317 10.3334 3 10.0455 3C6.71544 3 4 5.68726 4 9C4 12.3127 6.70766 15 10.0455 15C11.9674 15 13.7336 14.1197 14.8851 12.5907C15.0096 12.4286 15.0329 12.2124 14.9551 12.0193V12.027ZM10.0455 13.8417C7.35345 13.8417 5.16709 11.6718 5.16709 9C5.16709 6.32818 7.22896 4.28958 9.81212 4.16602C9.38419 5 9.15855 5.92664 9.15855 6.88417C9.15855 9.49421 10.8936 11.7876 13.3212 12.583C12.4342 13.3938 11.2749 13.8417 10.0378 13.8417H10.0455Z"/>
    </symbol>
    <symbol viewBox="0 0 18 18" id="DOCUMENT">
      <path d="M11.3625 11.5875C11.3625 11.895 11.1075 12.15 10.8 12.15H6.75C6.4425 12.15 6.1875 11.895 6.1875 11.5875C6.1875 11.28 6.4425 11.025 6.75 11.025H10.8C11.1075 11.025 11.3625 11.28 11.3625 11.5875ZM6.75 9.1425H9.27C9.5775 9.1425 9.8325 8.8875 9.8325 8.58C9.8325 8.2725 9.5775 8.0175 9.27 8.0175H6.75C6.4425 8.0175 6.1875 8.2725 6.1875 8.58C6.1875 8.8875 6.4425 9.1425 6.75 9.1425ZM15.9675 9.0075C15.9675 14.535 14.175 16.5 9.105 16.5C4.035 16.5 2.25 14.535 2.25 9C2.25 3.465 4.0425 1.5 9.105 1.5C9.5625 1.5 10.0275 1.53 10.4925 1.5675C10.5075 1.5675 10.515 1.5675 10.53 1.5675C10.56 1.5675 10.59 1.5825 10.62 1.5825C10.755 1.5975 10.8825 1.605 11.0175 1.62C11.1375 1.635 11.25 1.6875 11.3325 1.77L15.585 5.82C15.675 5.9025 15.735 6.015 15.75 6.135C15.7725 6.2475 15.7725 6.3675 15.795 6.48C15.81 6.5325 15.825 6.585 15.825 6.645C15.825 6.66 15.825 6.675 15.8175 6.69C15.915 7.4625 15.9825 8.235 15.9675 9.015V9.0075ZM11.085 3.09V4.1175C11.085 5.1975 11.9625 6.075 13.0425 6.075H14.22L11.0775 3.0825L11.085 3.09ZM14.8425 9C14.85 8.4 14.8125 7.8 14.745 7.2075H13.0425C11.34 7.2075 9.96 5.8275 9.96 4.125V2.655C9.705 2.64 9.45 2.6325 9.195 2.6325H9.105C4.7175 2.625 3.375 4.1175 3.375 9C3.375 13.8825 4.7175 15.375 9.105 15.375C13.4925 15.375 14.8425 13.8825 14.8425 9Z"/>
    </symbol>
    <symbol viewBox="0 0 18 18" id="GLOBE">
      <path d="M16.976 16.6756H9.94934V15.0935C11.8753 14.9171 13.5777 13.9459 14.733 12.5069C14.7638 12.4755 14.7916 12.4404 14.8158 12.4023C15.7415 11.204 16.2938 9.69684 16.2938 8.06151C16.2938 6.42617 15.7418 4.91997 14.8168 3.72203C14.7923 3.68329 14.7638 3.64753 14.7327 3.61541C13.452 2.0208 11.4996 1 9.31554 1C9.30998 1 9.30475 1 9.29918 1C9.29788 1 9.29657 1 9.29493 1C9.29264 1 9.29035 1 9.28806 1.00033C7.11478 1.00894 5.17282 2.02775 3.89739 3.61607C3.86663 3.64753 3.83882 3.68262 3.8146 3.7207C2.88894 4.91898 2.33663 6.42617 2.33663 8.06151C2.33663 9.69684 2.88993 11.2064 3.81657 12.405C3.8398 12.4411 3.8663 12.4745 3.89542 12.5046C5.0426 13.9347 6.72998 14.9035 8.63987 15.0899V16.6756H1.65441C1.29285 16.6756 1 16.9719 1 17.3378C1 17.7037 1.29285 18 1.65441 18H16.976C17.3376 18 17.6304 17.7037 17.6304 17.3378C17.6304 16.9719 17.3376 16.6756 16.976 16.6756ZM3.68372 8.72339H5.5635C5.5995 9.48262 5.69766 10.2167 5.85243 10.9017C5.4143 10.9991 4.99646 11.115 4.60382 11.2487C4.11399 10.5097 3.78974 9.64983 3.68372 8.72339ZM4.60382 4.87361C4.99646 5.00738 5.4143 5.12327 5.85243 5.22061C5.69766 5.90567 5.5995 6.63974 5.5635 7.39896H3.68372C3.78941 6.47253 4.11399 5.61264 4.60382 4.87361ZM14.947 7.39896H13.0673C13.0313 6.63974 12.9331 5.90567 12.7783 5.22061C13.2165 5.12327 13.6343 5.00738 14.0269 4.87361C14.5168 5.61264 14.841 6.47253 14.947 7.39896ZM14.0269 11.2487C13.6343 11.115 13.2165 10.9991 12.7783 10.9017C12.9331 10.2167 13.0313 9.48262 13.0673 8.72339H14.947C14.8414 9.64983 14.5168 10.5097 14.0269 11.2487ZM9.94934 8.72339H11.7568C11.7211 9.40977 11.6299 10.0687 11.4875 10.6772C10.9885 10.6127 10.4732 10.5703 9.94934 10.5514V8.72339ZM9.94934 7.39896V5.57093C10.4732 5.55205 10.9882 5.50967 11.4875 5.4451C11.6299 6.05368 11.7211 6.71258 11.7568 7.39896H9.94934ZM9.94934 4.24584V2.54759C10.2998 2.79228 10.6388 3.23066 10.9296 3.82864C10.982 3.93625 11.0321 4.04717 11.0795 4.1614C10.7111 4.20279 10.3331 4.23094 9.94934 4.24584ZM8.64052 4.24418C8.27046 4.22895 7.90628 4.20114 7.55094 4.1614C7.59871 4.04717 7.64877 3.93592 7.7008 3.82864C7.98023 3.25384 8.30449 2.82671 8.6402 2.57739V4.24451L8.64052 4.24418ZM8.64052 5.56927V7.39863H6.87395C6.90962 6.71225 7.00091 6.05335 7.14324 5.44477C7.62947 5.50768 8.13074 5.54973 8.64052 5.56927ZM8.64052 8.72306V10.5524C8.13074 10.572 7.62947 10.614 7.14324 10.6769C7.00091 10.0683 6.90962 9.40944 6.87395 8.72306H8.64052ZM8.64052 11.8778V13.545C8.30481 13.2953 7.98056 12.8682 7.70112 12.2937C7.64877 12.1861 7.59871 12.0752 7.55126 11.9609C7.90661 11.9212 8.27078 11.8934 8.64085 11.8782L8.64052 11.8778ZM9.94934 11.8762C10.3335 11.8911 10.7114 11.9196 11.0795 11.9606C11.0317 12.0748 10.9817 12.1861 10.9296 12.2934C10.6388 12.8914 10.2998 13.3297 9.94934 13.5744V11.8762ZM12.104 12.8784C12.2126 12.6553 12.3124 12.4199 12.404 12.1739C12.6383 12.2238 12.866 12.2798 13.0862 12.3414C12.7502 12.6447 12.3785 12.9086 11.978 13.1248C12.0209 13.0447 12.0631 12.9629 12.1043 12.8784H12.104ZM12.404 3.94784C12.3127 3.70183 12.2126 3.46641 12.104 3.24325C12.0627 3.15881 12.0209 3.0767 11.9777 2.9969C12.3782 3.21345 12.7499 3.47701 13.0859 3.7803C12.8657 3.84189 12.638 3.89784 12.4037 3.94784H12.404ZM6.52712 3.24325C6.41849 3.46641 6.31869 3.70183 6.22707 3.94784C5.9928 3.89784 5.76506 3.84189 5.54485 3.7803C5.88089 3.47701 6.25259 3.21312 6.65309 2.9969C6.61023 3.07703 6.56802 3.15881 6.52679 3.24325H6.52712ZM6.22707 12.1739C6.31836 12.4199 6.41849 12.6553 6.52712 12.8784C6.56835 12.9629 6.61023 13.045 6.65342 13.1248C6.25292 12.9082 5.88122 12.6447 5.54518 12.3414C5.76539 12.2798 5.99312 12.2238 6.2274 12.1739H6.22707Z"/>
    </symbol>
    <symbol viewBox="0 0 18 18" id="HAND_GEAR">
      <path d="M16.3362 13.9354V13.3561C16.3362 12.4455 15.6105 11.7047 14.7185 11.7047H8.62179C8.22932 11.7047 7.90997 12.0307 7.90997 12.4313C7.90997 12.7731 8.1824 13.0512 8.51728 13.0512H11.8046C12.1621 13.0512 12.4517 13.3468 12.4517 13.7118C12.4517 14.0767 12.1621 14.3723 11.8046 14.3723H8.51728C8.03875 14.3723 7.6013 14.1907 7.26675 13.8918C7.25705 13.8835 7.24702 13.8759 7.23764 13.867L3.41843 10.2796C3.28675 10.1564 3.11526 10.093 2.93634 10.1003C2.75709 10.1082 2.59176 10.1865 2.47075 10.3215C2.34942 10.4563 2.28697 10.6313 2.29474 10.814C2.3025 10.9966 2.37918 11.1657 2.51152 11.2892L5.8496 14.4176C7.40588 15.876 9.42614 16.6789 11.5386 16.6789H16.9833C17.3409 16.6789 17.6304 16.9745 17.6304 17.3395C17.6304 17.7044 17.3409 18 16.9833 18H11.5386C9.10097 18 6.76978 17.0733 4.97439 15.3905L1.63631 12.2622C1.24966 11.8999 1.02415 11.4055 1.00182 10.8701C0.9795 10.3348 1.16263 9.82251 1.51757 9.42784C1.8725 9.03316 2.35686 8.80297 2.88134 8.78018C3.40581 8.75739 3.90764 8.94432 4.29428 9.30663L6.77334 11.635C7.07812 10.9002 7.79188 10.383 8.62179 10.383H14.7185C16.3243 10.383 17.6304 11.7163 17.6304 13.3554V13.9347C17.6304 14.2997 17.3409 14.5952 16.9833 14.5952C16.6258 14.5952 16.3362 14.2997 16.3362 13.9347V13.9354ZM6.53811 5.80907L7.28778 5.24595C7.27711 5.14588 7.27096 5.04416 7.27096 4.94112C7.27096 4.83807 7.27711 4.73635 7.28778 4.63628L6.53811 4.07316C6.32554 3.91364 6.26471 3.6164 6.39672 3.38323L6.86361 2.55788C6.99562 2.32471 7.27808 2.22993 7.51977 2.33792L8.37233 2.71906C8.53216 2.59884 8.70559 2.49645 8.88936 2.41389L8.99226 1.46997C9.02138 1.20246 9.243 1 9.5067 1H10.4405C10.7042 1 10.9258 1.20246 10.9549 1.46997L11.0578 2.41389C11.2419 2.49612 11.415 2.59884 11.5748 2.71906L12.4274 2.33792C12.6691 2.22993 12.9516 2.32471 13.0836 2.55788L13.5505 3.38323C13.6825 3.6164 13.6213 3.91364 13.4091 4.07316L12.6594 4.63628C12.6701 4.73635 12.6762 4.83807 12.6762 4.94112C12.6762 5.04416 12.6701 5.14588 12.6594 5.24595L13.4091 5.80907C13.6216 5.96859 13.6825 6.26583 13.5505 6.499L13.0836 7.32435C12.9516 7.55752 12.6691 7.6523 12.4274 7.54431L11.5748 7.16317C11.415 7.28339 11.2416 7.38578 11.0578 7.46834L10.9549 8.41226C10.9258 8.67977 10.7042 8.88223 10.4405 8.88223H9.5067C9.243 8.88223 9.02138 8.67977 8.99226 8.41226L8.88936 7.46834C8.70526 7.38611 8.53216 7.28339 8.37233 7.16317L7.51977 7.54431C7.27808 7.6523 6.99562 7.55752 6.86361 7.32435L6.39672 6.499C6.26471 6.26583 6.32586 5.96859 6.53811 5.80907ZM8.52796 4.94112C8.52796 5.75589 9.17506 6.41676 9.97359 6.41676C10.7721 6.41676 11.4192 5.75622 11.4192 4.94112C11.4192 4.12601 10.7721 3.46547 9.97359 3.46547C9.17506 3.46547 8.52796 4.12601 8.52796 4.94112Z"/>
    </symbol>
    <symbol viewBox="0 0 18 18" id="LAMP_GEAR">
      <path d="M16.4482 5.65068L15.7068 5.10611C15.7174 5.00934 15.7235 4.91096 15.7235 4.81131C15.7235 4.71166 15.7174 4.61329 15.7068 4.51651L16.4482 3.97195C16.6584 3.81768 16.7186 3.53023 16.588 3.30474L16.1263 2.50658C15.9958 2.28108 15.7164 2.18942 15.4774 2.29386L14.6343 2.66244C14.4762 2.54618 14.3047 2.44717 14.1229 2.36732L14.0212 1.4545C13.9924 1.19579 13.7732 1 13.5124 1H12.589C12.3282 1 12.109 1.19579 12.0802 1.4545L11.9784 2.36732C11.7964 2.44685 11.6252 2.54618 11.4671 2.66244L10.624 2.29386C10.385 2.18942 10.1056 2.28108 9.97507 2.50658L9.51333 3.30474C9.38278 3.53023 9.44326 3.81768 9.65317 3.97195L10.3946 4.51651C10.384 4.61329 10.3779 4.71166 10.3779 4.81131C10.3779 4.91096 10.384 5.00934 10.3946 5.10611L9.65317 5.65068C9.44294 5.80494 9.38278 6.0924 9.51333 6.31789L9.97507 7.11605C10.1056 7.34154 10.385 7.43321 10.624 7.32877L11.4671 6.96019C11.6252 7.07645 11.7967 7.17546 11.9784 7.25531L12.0802 8.16813C12.109 8.42684 12.3282 8.62263 12.589 8.62263H13.5124C13.7732 8.62263 13.9924 8.42684 14.0212 8.16813L14.1229 7.25531C14.305 7.17578 14.4762 7.07645 14.6343 6.96019L15.4774 7.32877C15.7164 7.43321 15.9958 7.34154 16.1263 7.11605L16.588 6.31789C16.7186 6.0924 16.6581 5.80494 16.4482 5.65068ZM13.0507 6.23836C12.2613 6.23836 11.621 5.59957 11.621 4.81131C11.621 4.02305 12.261 3.38427 13.0507 3.38427C13.8404 3.38427 14.4803 4.02305 14.4803 4.81131C14.4803 5.59957 13.8404 6.23836 13.0507 6.23836Z"/>
      <path d="M13.2021 10.025C12.8988 9.8439 12.5058 9.94259 12.3244 10.2454C11.991 10.8021 11.5564 11.2799 11.033 11.666C10.4029 12.1307 9.94056 12.7826 9.69866 13.516H6.58752C6.34177 12.7833 5.87333 12.1256 5.23529 11.6497C3.9925 10.7222 3.27959 9.30348 3.27959 7.75698C3.27959 5.0792 5.46247 2.90062 8.14516 2.90062C8.49842 2.90062 8.78512 2.61444 8.78512 2.26183C8.78512 1.90922 8.49874 1.62305 8.14516 1.62305C6.49952 1.62305 4.95499 2.25992 3.79667 3.41612C2.63804 4.57232 2 6.11403 2 7.75666C2 8.72666 2.23262 9.6925 2.67291 10.5504C3.09848 11.3799 3.71988 12.1138 4.46927 12.6728C5.11658 13.1557 5.50312 13.9142 5.50312 14.7022V16.0836C5.50312 17.1401 6.3645 17.9999 7.42298 17.9999H8.868C9.92648 17.9999 10.7879 17.1401 10.7879 16.0836V14.7022C10.7879 13.9091 11.1642 13.1582 11.7942 12.6935C12.4546 12.2064 13.0027 11.6034 13.4235 10.9011C13.6049 10.5983 13.5061 10.2061 13.2027 10.025H13.2021ZM8.86768 16.7227H7.42266C7.06973 16.7227 6.78271 16.4362 6.78271 16.0839V14.7935H9.50763V16.0839C9.50763 16.4362 9.22061 16.7227 8.86768 16.7227Z"/>
      <path d="M8.14508 4.10352C6.12666 4.10352 4.48486 5.74264 4.48486 7.75705C4.48486 8.10998 4.77124 8.39583 5.12482 8.39583C5.47839 8.39583 5.76477 8.10998 5.76477 7.75705C5.76477 6.4469 6.83253 5.38109 8.14508 5.38109C8.49866 5.38109 8.78504 5.09523 8.78504 4.7423C8.78504 4.38937 8.49866 4.10352 8.14508 4.10352Z"/>
    </symbol>
    <symbol viewBox="0 0 18 18" id="CHART">
      <path d="M17.3385 16.6761C15.1188 16.6761 14.4052 12.6521 13.7755 9.10133C13.6169 8.20603 13.4669 7.36039 13.2927 6.55479C12.8709 4.60003 12.2945 3.14141 11.5747 2.20309V2.18555H11.5611C11.4068 1.9863 11.2462 1.81055 11.079 1.65896C10.387 1.03275 9.77448 0.98476 9.50033 1.00296C9.22651 0.985091 8.61364 1.03275 7.92165 1.65896C6.96742 2.52248 6.22245 4.16976 5.70792 6.55479C5.53409 7.36072 5.3841 8.20637 5.22517 9.10166C4.66296 12.2724 4.03354 15.8202 2.3244 16.543V1.66823C2.3244 1.3025 2.02807 1.00627 1.6622 1.00627C1.29633 1.00627 1 1.3025 1 1.66823V18H17.3378C17.7037 18 18 17.7038 18 17.338C18 16.9723 17.7037 16.6761 17.3378 16.6761H17.3385ZM14.1933 15.7732C14.3721 16.1154 14.5632 16.4153 14.7691 16.6761H14.1933V15.7732ZM11.9985 6.8338C12.1673 7.61557 12.315 8.44963 12.4716 9.33235C12.5984 10.0473 12.7269 10.7708 12.8689 11.4787V16.6758H11.575V5.22061C11.7217 5.68067 11.8647 6.21421 11.9985 6.8338ZM9.50066 2.34309L9.59701 2.3239C9.65032 2.32555 9.89865 2.35335 10.2506 2.69691V16.6758H8.95666V2.5205C9.19804 2.34276 9.36226 2.32522 9.40464 2.3239L9.50099 2.34309H9.50066ZM7.00284 6.8338C7.19852 5.92659 7.4144 5.2034 7.63193 4.62684V16.6758H6.33799V10.4007C6.40322 10.0446 6.46646 9.68749 6.52937 9.33235C6.68598 8.4493 6.83398 7.61557 7.00251 6.83347L7.00284 6.8338ZM5.01359 16.6761H4.2322C4.51927 16.3123 4.77785 15.8725 5.01359 15.3482V16.6761Z"/>
    </symbol>
    <symbol viewBox="0 0 18 18" id="CHECK_CIRCLE">
      <path fill-rule="evenodd" clip-rule="evenodd" d="M9 1.5C4.875 1.5 1.5 4.875 1.5 9C1.5 13.125 4.875 16.5 9 16.5C13.125 16.5 16.5 13.125 16.5 9C16.5 4.875 13.125 1.5 9 1.5ZM9 15.375C5.475 15.375 2.625 12.525 2.625 9C2.625 5.475 5.475 2.625 9 2.625C12.525 2.625 15.375 5.475 15.375 9C15.375 12.525 12.525 15.375 9 15.375ZM12.3 7.35L8.1 11.55C7.8 11.85 7.5 11.85 7.275 11.55L5.7 9.975C5.475 9.75 5.4 9.375 5.7 9.15C6 8.85 6.3 8.85 6.525 9.15L7.65 10.275L11.475 6.45C11.7 6.225 12.075 6.15 12.3 6.45C12.6 6.825 12.6 7.125 12.3 7.35Z"/>
    </symbol>
    <symbol viewBox="0 0 18 18" id="DANGER_CIRCLE">
      <path fill-rule="evenodd" clip-rule="evenodd" d="M9 1.5C13.1355 1.5 16.5 4.8645 16.5 9C16.5 13.1355 13.1355 16.5 9 16.5C4.8645 16.5 1.5 13.1355 1.5 9C1.5 4.8645 4.8645 1.5 9 1.5ZM9 2.625C5.48475 2.625 2.625 5.48475 2.625 9C2.625 12.5152 5.48475 15.375 9 15.375C12.5152 15.375 15.375 12.5152 15.375 9C15.375 5.48475 12.5152 2.625 9 2.625ZM9.00292 11.0969C9.41767 11.0969 9.75292 11.4322 9.75292 11.8469C9.75292 12.2617 9.41767 12.5969 9.00292 12.5969C8.58817 12.5969 8.24918 12.2617 8.24918 11.8469C8.24918 11.4322 8.58143 11.0969 8.99543 11.0969H9.00292ZM8.99557 5.5905C9.30607 5.5905 9.55807 5.8425 9.55807 6.153V9.46725C9.55807 9.77775 9.30607 10.0298 8.99557 10.0298C8.68507 10.0298 8.43307 9.77775 8.43307 9.46725V6.153C8.43307 5.8425 8.68507 5.5905 8.99557 5.5905Z"/>
    </symbol>
    <symbol viewBox="0 0 18 18" id="SEARCH">
      <path d="M16.65 15.8252L12.525 11.7002C13.425 10.5752 14.025 9.1502 14.025 7.5752C14.025 4.0502 11.175 1.2002 7.65002 1.2002C4.12502 1.2002 1.27502 4.0502 1.27502 7.5752C1.27502 11.1002 4.12502 13.9502 7.65002 13.9502C9.22502 13.9502 10.65 13.4252 11.775 12.4502L15.9 16.5752C15.975 16.6502 16.125 16.7252 16.275 16.7252C16.425 16.7252 16.575 16.6502 16.65 16.5752C16.8 16.4252 16.8 16.0502 16.65 15.8252ZM2.32502 7.65019C2.32502 4.72519 4.65002 2.4002 7.57502 2.4002C10.5 2.4002 12.825 4.72519 12.825 7.65019C12.825 10.5752 10.5 12.9002 7.57502 12.9002C4.72502 12.9002 2.32502 10.5002 2.32502 7.65019Z"/>
    </symbol>
    <symbol viewBox="0 0 18 18" id="LOGIN">
      <path d="M9.735 9.65328H2.0625C1.755 9.65328 1.5 9.39828 1.5 9.09078C1.5 8.78328 1.755 8.52828 2.0625 8.52828H9.735L8.505 7.30578C8.2875 7.08828 8.2875 6.72828 8.505 6.51078C8.7225 6.29328 9.0825 6.29328 9.3 6.51078L11.4975 8.70078C11.4975 8.70078 11.55 8.77578 11.5725 8.81328C11.5875 8.83578 11.6025 8.85078 11.6175 8.88078C11.6475 8.94828 11.6625 9.02328 11.6625 9.09828C11.6625 9.17328 11.6475 9.24828 11.6175 9.31578C11.61 9.33828 11.5875 9.36078 11.5725 9.38328C11.55 9.42078 11.5275 9.46578 11.4975 9.49578L9.3 11.6858C9.1875 11.7983 9.045 11.8508 8.9025 11.8508C8.76 11.8508 8.6175 11.7983 8.505 11.6858C8.2875 11.4683 8.2875 11.1083 8.505 10.8908L9.735 9.66828V9.65328Z"/>
      <path d="M10.695 1.5C6.58499 1.5 5.17499 2.5125 4.88249 5.67C4.85249 5.9775 5.08499 6.255 5.39249 6.285C5.70749 6.315 5.97749 6.0825 6.00749 5.775C6.20999 3.585 6.71249 2.625 10.695 2.625C15.4575 2.625 15.4575 3.72 15.4575 9C15.4575 14.28 15.4575 15.375 10.695 15.375C6.71249 15.375 6.20999 14.415 6.00749 12.225C5.97749 11.9175 5.70749 11.6925 5.39249 11.715C5.08499 11.745 4.85249 12.015 4.88249 12.33C5.17499 15.4875 6.58499 16.5 10.695 16.5C16.5825 16.5 16.5825 14.1525 16.5825 9C16.5825 3.8475 16.5825 1.5 10.695 1.5Z"/>
    </symbol>
    <symbol viewBox="0 0 18 18" id="LOGOUT">
      <path d="M1.52252 9.30699C1.49252 9.23949 1.47751 9.16449 1.47751 9.08949C1.47751 9.01449 1.49252 8.93949 1.52252 8.87199C1.53002 8.84949 1.55252 8.82699 1.56752 8.80449C1.59002 8.76699 1.61252 8.72199 1.64252 8.69199L3.84002 6.50199C4.05752 6.28449 4.41752 6.28449 4.63502 6.50199C4.85252 6.71949 4.85252 7.07949 4.63502 7.29699L3.40502 8.51949H11.0775C11.385 8.51949 11.64 8.77449 11.64 9.08199C11.64 9.38949 11.385 9.64449 11.0775 9.64449H3.40502L4.63502 10.867C4.85252 11.0845 4.85252 11.4445 4.63502 11.662C4.52252 11.7745 4.38001 11.827 4.23751 11.827C4.09501 11.827 3.95252 11.7745 3.84002 11.662L1.64252 9.47199C1.64252 9.47199 1.59002 9.39699 1.56752 9.35949C1.55252 9.33699 1.53752 9.32199 1.52252 9.29199V9.30699Z"/>
      <path d="M6.06 11.715C6.375 11.685 6.645 11.9175 6.675 12.225C6.8775 14.415 7.38 15.375 11.3625 15.375C16.125 15.375 16.125 14.28 16.125 9C16.125 3.72 16.125 2.625 11.3625 2.625C7.38 2.625 6.8775 3.585 6.675 5.775C6.645 6.0825 6.375 6.315 6.06 6.285C5.7525 6.255 5.52 5.985 5.55 5.67C5.8425 2.5125 7.2525 1.5 11.3625 1.5C17.25 1.5 17.25 3.8475 17.25 9C17.25 14.1525 17.25 16.5 11.3625 16.5C7.2525 16.5 5.8425 15.4875 5.55 12.33C5.52 12.0225 5.7525 11.745 6.06 11.715Z"/>
    </symbol>
    <symbol viewBox="0 0 18 18" id="VOICE">
      <path fill-rule="evenodd" clip-rule="evenodd" d="M5.16748 7.71C5.16748 8.0175 4.91248 8.2725 4.60498 8.2725C4.29748 8.2725 4.04248 8.0175 4.04248 7.71V6.105C4.04248 3.5625 6.10498 1.5 8.64748 1.5C11.19 1.5 13.2525 3.57 13.2525 6.105V7.71C13.2525 8.0175 12.9975 8.2725 12.69 8.2725C12.3825 8.2725 12.1275 8.0175 12.1275 7.71V6.105C12.1275 4.185 10.5675 2.625 8.64748 2.625C6.72748 2.625 5.16748 4.185 5.16748 6.105V7.71ZM3.5625 9.46484H13.7325C14.04 9.46484 14.295 9.71984 14.295 10.0273C14.295 10.3348 14.04 10.5898 13.7325 10.5898H13.215C12.9525 12.6748 11.295 14.3323 9.21 14.5873V15.5923C9.21 15.8998 8.955 16.1548 8.6475 16.1548C8.34 16.1548 8.085 15.8998 8.085 15.5923V14.5873C5.9925 14.3323 4.335 12.6748 4.08 10.5898H3.5625C3.255 10.5898 3 10.3348 3 10.0273C3 9.71984 3.255 9.46484 3.5625 9.46484ZM5.2275 10.5898C5.4975 12.2398 6.9225 13.5073 8.6475 13.5073C10.3725 13.5073 11.7975 12.2398 12.0675 10.5898H5.2275ZM6.96002 7.49219C6.96002 7.79969 7.21502 8.05469 7.52252 8.05469H9.76502C10.0725 8.05469 10.3275 7.79969 10.3275 7.49219C10.3275 7.18469 10.0725 6.92969 9.76502 6.92969H7.52252C7.21502 6.92969 6.96002 7.18469 6.96002 7.49219ZM9.58502 5.41504C9.58502 5.72254 9.33002 5.97754 9.02252 5.97754H8.27252C7.96502 5.97754 7.71002 5.72254 7.71002 5.41504C7.71002 5.10754 7.96502 4.85254 8.27252 4.85254H9.02252C9.33002 4.85254 9.58502 5.10754 9.58502 5.41504Z"/>
    </symbol>
    <symbol viewBox="0 0 18 18" id="NOTIFICATION">
      <path fill-rule="evenodd" clip-rule="evenodd" d="M14.415 7.8C14.4 8.185 14.5925 8.8175 14.9925 9.6975H14.985C15.3225 10.545 15.2475 11.34 14.7825 12.015C13.635 13.695 10.56 14.1375 9.09753 14.1375C7.63503 14.1375 4.56003 13.695 3.41253 12.015C2.94753 11.34 2.87253 10.5525 3.19503 9.7275C3.60003 8.8275 3.79503 8.185 3.78003 7.8C3.77253 7.6125 3.76503 7.38 3.76503 7.065C3.76503 4.755 5.42253 1.5 9.09753 1.5C12.7725 1.5 14.43 4.755 14.43 7.065C14.43 7.24281 14.4253 7.39434 14.4211 7.52632C14.4179 7.62815 14.415 7.71834 14.415 7.8ZM9.10503 13.0125C10.89 13.0125 13.1625 12.405 13.86 11.385L13.8675 11.3775C14.1225 11.01 14.1525 10.6125 13.965 10.1325C13.32 8.715 13.275 8.58 13.305 7.755C13.3125 7.5825 13.32 7.365 13.32 7.065C13.32 5.6175 12.2925 2.625 9.11253 2.625C5.93253 2.625 4.90503 5.6175 4.90503 7.065C4.90503 7.23562 4.90988 7.37956 4.91407 7.5037C4.91724 7.59784 4.92003 7.68061 4.92003 7.755C4.95003 8.58 4.90503 8.715 4.24503 10.1625C4.06503 10.62 4.09503 11.0175 4.35003 11.385C5.04753 12.405 7.32003 13.0125 9.10503 13.0125ZM9.0975 15.8174C9.5775 15.8174 10.0425 15.5924 10.41 15.1874H10.4025C10.6125 14.9549 10.965 14.9324 11.1975 15.1424C11.43 15.3524 11.4525 15.7049 11.2425 15.9374C10.665 16.5824 9.9 16.9424 9.09 16.9424C8.2875 16.9424 7.5225 16.5824 6.945 15.9374C6.735 15.7049 6.7575 15.3524 6.99 15.1424C7.2225 14.9324 7.575 14.9549 7.785 15.1874C8.1525 15.5924 8.6175 15.8174 9.0975 15.8174Z"/>
    </symbol>
    <symbol viewBox="0 0 18 18" id="LOCK">
      <path fill-rule="evenodd" clip-rule="evenodd" d="M13.29 5.43705V6.69705C14.94 7.44705 15.615 8.90955 15.615 11.3246C15.615 15.1646 13.905 16.5896 9.3075 16.5896C4.71 16.5896 3 15.1646 3 11.3246C3 8.90955 3.675 7.44705 5.325 6.69705V5.42955C5.3625 3.24705 7.0875 1.52955 9.255 1.49955C10.3125 1.46955 11.325 1.88955 12.09 2.63205C12.8475 3.38205 13.275 4.37205 13.29 5.43705ZM9.27 2.62455C7.7175 2.64705 6.48 3.87705 6.45 5.43705V6.32205C7.245 6.14205 8.19 6.05205 9.3075 6.05205C10.425 6.05205 11.37 6.14205 12.165 6.32205V5.43705C12.1575 4.67955 11.85 3.96705 11.3025 3.43455C10.755 2.90205 10.0125 2.61705 9.27 2.62455ZM4.125 11.3246C4.125 14.5346 5.2875 15.4646 9.3075 15.4646C13.3275 15.4646 14.49 14.5346 14.49 11.3246C14.49 8.11455 13.3275 7.18455 9.3075 7.18455C5.2875 7.18455 4.125 8.11455 4.125 11.3246ZM8.745 10.6201C8.745 10.3126 9 10.0576 9.3075 10.0576C9.615 10.0576 9.87 10.3126 9.87 10.6201V12.2851C9.87 12.5926 9.615 12.8476 9.3075 12.8476C9 12.8476 8.745 12.5926 8.745 12.2851V10.6201Z"/>
    </symbol>
    <symbol viewBox="0 0 18 18" id="PROFILE">
      <path fill-rule="evenodd" clip-rule="evenodd" d="M8.69252 9.2025H8.67002C7.64252 9.2025 6.67502 8.7975 5.95502 8.07C5.22752 7.3425 4.83752 6.375 4.83752 5.3475C4.83752 3.225 6.57002 1.5 8.69252 1.5C10.815 1.5 12.5475 3.2175 12.5475 5.3475C12.5475 7.4775 10.815 9.2025 8.69252 9.2025ZM11.4225 5.355C11.4225 3.8475 10.1925 2.625 8.69252 2.625C7.18502 2.625 5.96252 3.855 5.96252 5.355C5.95502 6.0825 6.24002 6.765 6.75002 7.2825C7.26002 7.8 7.94252 8.085 8.67002 8.085L8.69252 8.6475V8.085C10.2 8.085 11.4225 6.8625 11.4225 5.355ZM3 14.3479C3 12.2479 5.6025 10.4704 8.6925 10.4704V10.4629C11.775 10.4629 14.385 12.2329 14.385 14.3254C14.385 17.0629 10.095 17.0629 8.6925 17.0629C7.29 17.0629 3 17.0629 3 14.3479ZM4.125 14.3554C4.125 15.4129 5.6625 15.9454 8.6925 15.9454V15.9529C11.7225 15.9529 13.26 15.4054 13.26 14.3404C13.26 13.0504 11.3025 11.6029 8.6925 11.6029C6.0825 11.6029 4.125 13.0579 4.125 14.3554Z"/>
    </symbol>
    <symbol viewBox="0 0 18 18" id="PLUS_CIRCLE">
      <path fill-rule="evenodd" clip-rule="evenodd" d="M12.327 0.75C15.0472 0.75 16.875 2.6595 16.875 5.50125V12.1237C16.875 14.9655 15.0472 16.875 12.327 16.875H5.298C2.57775 16.875 0.75 14.9655 0.75 12.1237V5.50125C0.75 2.6595 2.57775 0.75 5.298 0.75H12.327ZM12.327 1.875H5.298C3.219 1.875 1.875 3.29775 1.875 5.50125V12.1237C1.875 14.3272 3.219 15.75 5.298 15.75H12.327C14.4067 15.75 15.75 14.3272 15.75 12.1237V5.50125C15.75 3.29775 14.4067 1.875 12.327 1.875ZM8.8125 5.49548C9.123 5.49548 9.375 5.74748 9.375 6.05798V8.2425L11.5624 8.24265C11.8729 8.24265 12.1249 8.49465 12.1249 8.80515C12.1249 9.11565 11.8729 9.36765 11.5624 9.36765L9.375 9.3675V11.5532C9.375 11.8637 9.123 12.1157 8.8125 12.1157C8.502 12.1157 8.25 11.8637 8.25 11.5532V9.3675L6.06262 9.36765C5.75137 9.36765 5.50012 9.11565 5.50012 8.80515C5.50012 8.49465 5.75137 8.24265 6.06262 8.24265L8.25 8.2425V6.05798C8.25 5.74748 8.502 5.49548 8.8125 5.49548Z"/>
    </symbol>
    <symbol viewBox="0 0 18 18" id="KEY">
      <path d="M12.7575 8.4375H8.4825C8.2425 7.635 7.5075 7.05 6.6225 7.05C5.55 7.05 4.6725 7.9275 4.6725 9C4.6725 10.0725 5.55 10.95 6.6225 10.95C7.5 10.95 8.235 10.365 8.4825 9.5625H10.0725V10.3875C10.0725 10.695 10.3275 10.95 10.635 10.95C10.9425 10.95 11.1975 10.695 11.1975 10.3875V9.5625H12.195V10.3875C12.195 10.695 12.45 10.95 12.7575 10.95C13.065 10.95 13.32 10.695 13.32 10.3875V9C13.32 8.6925 13.065 8.4375 12.7575 8.4375ZM7.4475 9C7.4475 9.4575 7.08 9.825 6.6225 9.825C6.165 9.825 5.7975 9.4575 5.7975 9C5.7975 8.5425 6.165 8.175 6.63 8.175C6.8475 8.175 7.0575 8.265 7.215 8.415C7.3725 8.565 7.455 8.775 7.455 9H7.4475ZM9 1.5C3.465 1.5 1.5 3.465 1.5 9C1.5 14.535 3.465 16.5 9 16.5C14.535 16.5 16.5 14.535 16.5 9C16.5 3.465 14.535 1.5 9 1.5ZM9 15.375C4.1175 15.375 2.625 13.8825 2.625 9C2.625 4.1175 4.1175 2.625 9 2.625C13.8825 2.625 15.375 4.1175 15.375 9C15.375 13.8825 13.8825 15.375 9 15.375Z"/>
    </symbol>
    <symbol viewBox="0 0 18 18" id="COMPASS">
      <path fill-rule="evenodd" clip-rule="evenodd" d="M9 0C5.83983 0 3.51872 0.51719 2.01795 2.01795C0.51719 3.51872 0 5.83983 0 9C0 12.1602 0.51719 14.4813 2.01795 15.982C3.51872 17.4828 5.83983 18 9 18C12.1602 18 14.4813 17.4828 15.982 15.982C17.4828 14.4813 18 12.1602 18 9C18 5.83983 17.4828 3.51872 15.982 2.01795C14.4813 0.51719 12.1602 0 9 0ZM1.35 9C1.35 5.91417 1.87231 4.07278 2.97255 2.97255C4.07278 1.87231 5.91417 1.35 9 1.35C12.0858 1.35 13.9272 1.87231 15.0275 2.97255C16.1277 4.07278 16.65 5.91417 16.65 9C16.65 12.0858 16.1277 13.9272 15.0275 15.0275C13.9272 16.1277 12.0858 16.65 9 16.65C5.91417 16.65 4.07278 16.1277 2.97255 15.0275C1.87231 13.9272 1.35 12.0858 1.35 9ZM12.6143 6.23131C12.6891 5.9917 12.6248 5.73039 12.4473 5.5529C12.2698 5.37541 12.0085 5.31106 11.7689 5.38585L7.24186 6.79885C7.03032 6.86488 6.86466 7.03054 6.79863 7.24208L5.38563 11.7691C5.31084 12.0087 5.37519 12.27 5.55268 12.4475C5.73017 12.625 5.99148 12.6893 6.23109 12.6145L10.7581 11.2015C10.9696 11.1355 11.1353 10.9699 11.2013 10.7583L12.6143 6.23131ZM7.05795 10.9422L7.98188 7.9821L10.942 7.05817L10.0181 10.0183L7.05795 10.9422Z"/>
    </symbol>
    <symbol viewBox="0 0 18 18" id="USER_SOLID">
      <path d="M3 13.935C3 11.895 5.7675 11.385 9 11.385C12.2325 11.385 15 11.91 15 13.95C15 15.99 12.2325 16.5 9 16.5C5.7675 16.5 3 15.975 3 13.935ZM5.0325 5.475C5.025 3.2775 6.8025 1.5 9 1.5C11.19 1.5 12.9675 3.2775 12.975 5.4675C12.975 7.6575 11.1975 9.435 9.0075 9.4425C6.825 9.45 5.0475 7.6875 5.04 5.505C5.04 5.4975 5.04 5.4825 5.04 5.475H5.0325Z"/>
    </symbol>
    <symbol viewBox="0 0 18 18" id="VOICE_SOLID">
      <path d="M8.57705 17.136V15.408C4.74305 14.994 1.82705 11.763 1.80005 7.90204C1.80005 7.42504 2.19605 7.03804 2.67305 7.03804C3.15005 7.03804 3.54605 7.42504 3.54605 7.90204C3.58205 11.16 6.26405 13.779 9.52205 13.734C12.726 13.698 15.318 11.106 15.354 7.90204C15.354 7.41604 15.741 7.02904 16.2271 7.02904C16.7041 7.02904 17.1 7.41604 17.1 7.90204C17.073 11.763 14.157 14.985 10.323 15.408V17.136C10.323 17.613 9.93605 18.009 9.45005 18.009C8.96405 18.009 8.57705 17.622 8.57705 17.136ZM9.28805 11.889C7.13705 11.898 5.38205 10.17 5.37305 8.01904V3.86104C5.39105 1.71904 7.13705 -0.008965 9.28805 3.49971e-05H9.60305C11.754 -0.008965 13.509 1.71904 13.518 3.87004V8.02804C13.509 10.179 11.754 11.907 9.60305 11.898H9.28805V11.889Z"/>
    </symbol>
    <symbol viewBox="0 0 18 18" id="VOICE_OFF_SOLID">
      <path fill-rule="evenodd" clip-rule="evenodd" d="M8.57693 15.408V17.136C8.57693 17.622 8.96393 18.009 9.44993 18.009C9.93593 18.009 10.3229 17.613 10.3229 17.136V15.408C14.1569 14.985 17.0729 11.763 17.0999 7.90204C17.0999 7.41604 16.7039 7.02904 16.2269 7.02904C15.7409 7.02904 15.3539 7.41604 15.3539 7.90204C15.3179 11.106 12.7259 13.698 9.52193 13.734C8.54531 13.7475 7.62044 13.5216 6.80309 13.1109L8.17936 11.7346C8.53106 11.8367 8.90316 11.8906 9.28793 11.889V11.898H9.60293C11.7539 11.907 13.5089 10.179 13.5179 8.02804V6.39607L17.5739 2.34007C17.9645 1.94955 17.9645 1.31638 17.5739 0.925857C17.1834 0.535333 16.5502 0.535333 16.1597 0.925857L13.506 3.57956C13.3486 1.56558 11.6562 -0.00855605 9.60293 3.49971e-05H9.28793C7.13693 -0.008965 5.39093 1.71904 5.37293 3.86104V8.01904C5.37721 9.04219 5.77654 9.96964 6.42562 10.66L5.17812 11.9075C4.18199 10.864 3.5631 9.45569 3.54593 7.90204C3.54593 7.42504 3.14993 7.03804 2.67293 7.03804C2.19593 7.03804 1.79993 7.42504 1.79993 7.90204C1.8141 9.92749 2.62331 11.7796 3.94303 13.1426L1.42583 15.6597C1.0353 16.0503 1.0353 16.6834 1.42583 17.074C1.81635 17.4645 2.44952 17.4645 2.84004 17.074L5.52261 14.3914C6.43161 14.9314 7.46571 15.288 8.57693 15.408Z"/>
    </symbol>
    <symbol viewBox="0 0 18 18" id="CROWN">
      <path d="M13.4656 8.21852C13.6214 8.4524 13.7086 8.73454 13.6986 9.03772C13.6747 9.75731 13.0883 10.3538 12.3593 10.3983C11.5273 10.4491 10.8372 9.79938 10.8372 8.9907C10.8372 8.45549 11.1399 7.99021 11.5857 7.75138C11.7207 7.67898 11.764 7.50945 11.6742 7.38694L9.30516 4.15406C9.15509 3.94865 8.84491 3.94865 8.69421 4.15406L6.32577 7.38694C6.23598 7.50945 6.2793 7.67898 6.41367 7.75138C6.8733 7.99763 7.18097 8.48396 7.1615 9.0402C7.13702 9.75855 6.55118 10.3538 5.82282 10.3989C4.99085 10.4497 4.30016 9.8 4.30016 8.99132C4.30016 8.70361 4.38744 8.43631 4.53813 8.21295C4.6725 8.0131 4.61474 7.74395 4.4113 7.61278L1.68055 5.8562C1.34588 5.64088 0.917652 5.94158 1.01372 6.32334L2.86226 13.6634C2.9238 13.9078 3.16177 14.0686 3.41482 14.0352C5.05615 13.8181 6.96434 13.6937 9 13.6937C11.0357 13.6937 12.9432 13.8181 14.5852 14.0352C14.8382 14.0686 15.0762 13.9078 15.1377 13.6634L16.9863 6.32334C17.0823 5.94158 16.6541 5.6415 16.3194 5.8562L13.5887 7.61216C13.3828 7.74457 13.3306 8.01558 13.4663 8.21852H13.4656Z"/>
    </symbol>
    <symbol viewBox="0 0 18 18" id="SOUND_ON">
      <path d="M9.4275 3.29746C9.4275 3.29746 9.3825 3.26746 9.36 3.25246C8.025 2.48746 6.585 3.62746 5.535 4.45996C5.175 4.75246 4.62 5.18746 4.4325 5.20246C4.215 5.21746 4.0275 5.22496 3.87 5.23246C3.27 5.25496 2.7975 5.26996 2.235 5.72746C1.5 6.33496 1.5 7.60996 1.5 8.62996V8.80996V8.99746C1.5 10.0175 1.5 11.2925 2.2275 11.9C2.7825 12.3575 3.255 12.3725 3.855 12.395C4.02 12.395 4.2 12.41 4.4175 12.425C4.605 12.4475 5.1525 12.8825 5.5125 13.1675C6.3225 13.805 7.3575 14.63 8.4 14.63C8.715 14.63 9.03 14.555 9.345 14.375C9.3675 14.36 9.39 14.345 9.4125 14.33C10.4625 13.5125 10.515 11.96 10.515 8.80996C10.515 5.65996 10.47 4.11496 9.42 3.29746H9.4275ZM8.76 13.415C8.0775 13.76 7.05 12.9425 6.225 12.2825C5.5575 11.7575 5.0325 11.3375 4.5075 11.3C4.275 11.285 4.08 11.2775 3.9 11.27C3.3375 11.2475 3.2025 11.24 2.9475 11.03C2.6175 10.76 2.625 9.65746 2.625 8.99746V8.80996V8.62996C2.625 7.96996 2.625 6.86746 2.94 6.59746C3.195 6.38746 3.3375 6.37246 3.9 6.35746C4.08 6.35746 4.275 6.34246 4.5075 6.32746C5.0325 6.28996 5.5575 5.86996 6.225 5.33746C6.915 4.78996 7.7475 4.12996 8.4 4.12996C8.5275 4.12996 8.6475 4.15246 8.7525 4.21246C9.3225 4.70746 9.3825 6.01246 9.3825 8.81746C9.3825 11.6225 9.3225 12.9275 8.745 13.4225L8.76 13.415ZM15.345 13.7075C15.2325 13.865 15.06 13.9475 14.88 13.9475C14.7675 13.9475 14.655 13.9175 14.5575 13.85C14.3025 13.67 14.2425 13.325 14.415 13.07C16.185 10.5275 16.185 7.10746 14.415 4.57246C14.235 4.31746 14.3025 3.96496 14.5575 3.79246C14.8125 3.61246 15.165 3.67996 15.3375 3.93496C17.3775 6.85996 17.3775 10.7975 15.3375 13.7225L15.345 13.7075ZM13.4925 5.77246C14.5725 7.64746 14.5725 9.98746 13.4925 11.8625C13.3875 12.0425 13.2 12.1475 13.005 12.1475C12.9075 12.1475 12.81 12.125 12.7275 12.0725C12.4575 11.915 12.3675 11.57 12.5175 11.3075C13.395 9.77746 13.395 7.87246 12.5175 6.34246C12.36 6.07246 12.4575 5.72746 12.7275 5.57746C12.9975 5.41996 13.3425 5.51746 13.4925 5.78746V5.77246Z"/>
    </symbol>
    <symbol viewBox="0 0 18 18" id="SOUND_OFF">
      <path d="M2.25 8.90063V8.72062V8.54062C2.25 7.48312 2.25 6.16313 2.9775 5.53313C3.54 5.06063 4.0125 5.03812 4.6125 5.01562C4.7775 5.01562 4.965 5.00063 5.1825 4.98563C5.37 4.96313 5.9175 4.51312 6.2775 4.21312C7.335 3.34312 8.775 2.15813 10.125 2.95312C10.1625 2.97562 10.1925 2.99812 10.2225 3.02062C10.725 3.48562 11.04 4.11563 11.1075 4.79813C11.1375 5.10563 10.9125 5.38313 10.605 5.41313C10.29 5.45063 10.02 5.21813 9.99 4.91063C9.9525 4.52813 9.7875 4.16813 9.51 3.89813C8.835 3.56813 7.815 4.40813 6.9975 5.08313C6.33 5.63063 5.805 6.06563 5.2725 6.11063C5.04 6.12563 4.8375 6.14062 4.6575 6.14062C4.1025 6.16312 3.96 6.17812 3.7125 6.38812C3.375 6.68062 3.375 7.84312 3.3825 8.53312V8.71313V8.89313C3.3825 9.59063 3.3825 10.7456 3.72 11.0381C3.795 11.1056 3.8925 11.1506 3.99 11.1806C4.29 11.2706 4.455 11.5856 4.365 11.8781C4.29 12.1256 4.065 12.2831 3.825 12.2831C3.7725 12.2831 3.72 12.2831 3.6675 12.2606C3.42 12.1856 3.1875 12.0656 2.9925 11.8931C2.25 11.2631 2.2575 9.94312 2.2575 8.88562L2.25 8.90063ZM10.7175 9.68812C10.41 9.68812 10.1625 9.93563 10.155 10.2431C10.1325 12.2756 9.96 13.1456 9.525 13.5356C9.255 13.6781 8.8125 13.7231 7.8225 13.0106C7.575 12.8306 7.2225 12.8831 7.035 13.1381C6.855 13.3931 6.9075 13.7381 7.1625 13.9256C7.695 14.3081 8.415 14.7506 9.1725 14.7506C9.4875 14.7506 9.81 14.6756 10.125 14.4881C10.1475 14.4731 10.17 14.4581 10.1925 14.4431C11.0625 13.7306 11.2425 12.4781 11.265 10.2656C11.265 9.95813 11.0175 9.70312 10.71 9.69562L10.7175 9.68812ZM15.21 2.41313C14.9925 2.19563 14.6325 2.19563 14.415 2.41313L2.415 14.4131C2.1975 14.6306 2.1975 14.9906 2.415 15.2081C2.5275 15.3206 2.67 15.3731 2.8125 15.3731C2.955 15.3731 3.0975 15.3206 3.21 15.2081L15.21 3.20813C15.4275 2.99063 15.4275 2.63062 15.21 2.41313Z"/>
    </symbol>
    <symbol viewBox="0 0 18 18" id="CANCEL_SQUARE">
      <path d="M11.1975 10.395C11.31 10.5075 11.3625 10.65 11.3625 10.7925C11.3625 10.935 11.31 11.0775 11.1975 11.19C11.085 11.3025 10.9425 11.355 10.8 11.355C10.6575 11.355 10.515 11.3025 10.4025 11.19L9 9.7875L7.5975 11.19C7.38 11.4075 7.02001 11.4075 6.80251 11.19C6.69001 11.0775 6.6375 10.935 6.6375 10.7925C6.6375 10.65 6.69001 10.5075 6.80251 10.395L8.205 9L6.80251 7.5975C6.69001 7.485 6.6375 7.3425 6.6375 7.2C6.6375 7.0575 6.69001 6.915 6.80251 6.8025C7.02001 6.585 7.38 6.585 7.5975 6.8025L9 8.205L10.395 6.8025C10.6125 6.585 10.9725 6.585 11.19 6.8025C11.3025 6.915 11.355 7.0575 11.355 7.2C11.355 7.3425 11.3025 7.485 11.19 7.5975L9.795 9L11.1975 10.4025V10.395ZM16.5 5.9325V12.06C16.5 14.715 14.79 16.5 12.2475 16.5H5.745C3.2025 16.5 1.5 14.715 1.5 12.06V5.94C1.5 3.285 3.21 1.5 5.745 1.5H12.2475C14.79 1.5 16.5 3.285 16.5 5.94V5.9325ZM15.375 5.9325C15.375 3.9225 14.145 2.6175 12.2475 2.6175H5.745C3.8475 2.6175 2.625 3.915 2.625 5.9325V12.06C2.625 14.07 3.8475 15.375 5.745 15.375H12.2475C14.145 15.375 15.375 14.0775 15.375 12.06V5.94V5.9325Z"/>
    </symbol>
    <symbol viewBox="0 0 18 18" id="FORBIDDEN">
      <path d="M13.1944 4.74937C10.8694 2.41688 7.07437 2.41688 4.74937 4.74937C2.41688 7.07437 2.41688 10.8694 4.74937 13.1944C5.87437 14.3194 7.37437 14.9419 8.97188 14.9419C10.5694 14.9419 12.0694 14.3194 13.1944 13.1944C15.5269 10.8619 15.5269 7.07437 13.1944 4.74187V4.74937ZM5.54438 5.54438C6.48938 4.59938 7.73438 4.12688 8.97188 4.12688C10.0369 4.12688 11.1019 4.47188 11.9794 5.16938L5.16938 11.9794C3.66188 10.0744 3.78938 7.29938 5.54438 5.54438ZM12.3994 12.3994C11.4844 13.3144 10.2619 13.8169 8.97188 13.8169C7.86938 13.8169 6.81938 13.4494 5.96438 12.7744L12.7744 5.96438C14.2819 7.86938 14.1544 10.6444 12.3994 12.3994Z"/>
    </symbol>
  </defs>
</svg>