<svg xmlns="http://www.w3.org/2000/svg" xmlns:xlink="http://www.w3.org/1999/xlink">
  <defs>
    <symbol viewBox="0 0 18 18" id="CALL">
      <path fillRule="evenodd" clipRule="evenodd" d="M4.99312 1.50041C5.83087 1.51166 6.42787 2.13941 7.18312 2.93366C7.36987 3.12941 7.57162 3.34316 7.79737 3.56816C8.89162 4.66316 8.58037 5.55641 8.32912 6.27341C8.05612 7.05566 7.81987 7.73066 9.23437 9.14516C10.6489 10.5597 11.3231 10.3234 12.1046 10.0482C12.8224 9.79766 13.7134 9.48416 14.8099 10.5792C15.0326 10.8019 15.2426 11.0014 15.4376 11.1867C16.2349 11.9457 16.8649 12.5449 16.8755 13.3849C16.8836 14.1004 16.4486 14.8309 15.3746 15.9049L14.8991 15.5824L15.3019 15.9747C15.0641 16.2184 14.4319 16.8679 13.1936 16.8754H13.1711C11.3021 16.8754 8.86537 15.3874 5.92837 12.4512C2.97937 9.50291 1.48912 7.05866 1.50031 5.18591C1.50712 3.94841 2.15587 3.31466 2.39962 3.07691L2.42043 3.05418L2.47087 3.00341C3.54712 1.92716 4.28662 1.48466 4.99312 1.50041ZM4.97887 2.62541H4.97287C4.63607 2.62541 4.12459 2.96291 3.41124 3.65583L3.26799 3.7965L3.26962 3.79616C3.26962 3.79616 3.25738 3.8102 3.23652 3.83147L3.18637 3.88166C3.00487 4.05791 2.62912 4.42466 2.62533 5.19191C2.61937 6.26516 3.32512 8.25791 6.72337 11.6554C10.1051 15.0364 12.0949 15.7504 13.1711 15.7504H13.1869C13.9541 15.7459 14.3201 15.3702 14.4964 15.1894C14.5496 15.1347 14.5931 15.0934 14.6239 15.0687C15.3716 14.3164 15.7541 13.7577 15.7504 13.3984C15.7459 13.0324 15.2906 12.6004 14.6614 12.0012C14.4611 11.8114 14.2436 11.6037 14.0141 11.3742C13.4186 10.7809 13.1254 10.8822 12.4766 11.1102C11.5804 11.4244 10.3526 11.8549 8.43937 9.94016C6.52537 8.02691 6.95437 6.79916 7.26712 5.90216C7.49362 5.25416 7.59712 4.95941 7.00237 4.36391C6.76987 4.13141 6.56062 3.91091 6.36787 3.70841C5.77237 3.08291 5.34262 2.63066 4.97887 2.62541ZM11.4349 4.16853C12.9957 4.47153 14.2009 5.67603 14.5047 7.23753C14.5639 7.54353 14.3652 7.83828 14.0607 7.89753C14.0239 7.90428 13.9879 7.90803 13.9519 7.90803C13.6879 7.90803 13.4532 7.72203 13.4007 7.45353C13.1847 6.34353 12.3289 5.48778 11.2204 5.27253C10.9152 5.21328 10.7164 4.91853 10.7757 4.61328C10.8349 4.30803 11.1349 4.10853 11.4349 4.16853ZM11.39 1.50468C14.4485 1.84443 16.8238 4.21668 17.1665 7.27443C17.201 7.58343 16.979 7.86168 16.6708 7.89618C16.6498 7.89843 16.628 7.89993 16.607 7.89993C16.3243 7.89993 16.0813 7.68768 16.049 7.40043C15.7648 4.86843 13.7983 2.90343 11.2655 2.62218C10.9573 2.58768 10.7345 2.31018 10.769 2.00118C10.8028 1.69293 11.078 1.46568 11.39 1.50468Z"/>
    </symbol>
    <symbol viewBox="0 0 18 18" id="MESSAGE">
      <path fillRule="evenodd" clipRule="evenodd" d="M12.4941 1.5C14.9916 1.5 16.8749 3.53775 16.8749 6.24V11.391C16.8749 12.774 16.3859 14.0235 15.4971 14.91C14.6999 15.7042 13.6656 16.125 12.5061 16.125H5.11638C3.95913 16.125 2.92563 15.705 2.12763 14.91C1.23888 14.0235 0.749878 12.774 0.749878 11.391V6.24C0.749878 3.53775 2.63313 1.5 5.13063 1.5H12.4941ZM12.4941 2.625H5.13063C3.24438 2.625 1.87488 4.14525 1.87488 6.24V11.391C1.87488 12.4732 2.24688 13.44 2.92188 14.1127C3.50388 14.694 4.26363 15 5.11863 15H12.4941C12.4956 14.9985 12.5016 15 12.5061 15C13.3619 15 14.1209 14.694 14.7029 14.1127C15.3786 13.44 15.7499 12.4732 15.7499 11.391V6.24C15.7499 4.14525 14.3804 2.625 12.4941 2.625ZM13.6761 6.0966C13.8719 6.33735 13.8351 6.69135 13.5944 6.88785L10.2614 9.59685C9.83988 9.93135 9.33588 10.0986 8.83263 10.0986C8.33088 10.0986 7.83063 9.93285 7.41213 9.60135L4.04838 6.88935C3.80613 6.69435 3.76863 6.3396 3.96288 6.0981C4.15863 5.85735 4.51263 5.8191 4.75413 6.01335L8.11488 8.72235C8.53713 9.05685 9.13188 9.05685 9.55713 8.71935L12.8841 6.01485C13.1256 5.8176 13.4796 5.8551 13.6761 6.0966Z"/>
    </symbol>
    <symbol viewBox="0 0 18 18" id="TWITTER">
      <path d="M18 3.63431C17.3748 3.91108 16.7033 4.09804 15.9972 4.18255C16.7175 3.7517 17.27 3.06807 17.5305 2.25421C16.8567 2.65367 16.1102 2.94389 15.3159 3.09946C14.6795 2.42337 13.7736 2 12.7704 2C10.8448 2 9.28295 3.56026 9.28295 5.48561C9.28301 5.75246 9.31321 6.01842 9.37277 6.27848C6.47307 6.13262 3.90432 4.74505 2.1838 2.6373C1.88433 3.1534 1.71209 3.75177 1.71209 4.38907C1.71209 5.59777 2.3283 6.66517 3.26336 7.28976C2.70951 7.27217 2.16796 7.12264 1.6836 6.85369V6.89859C1.6836 8.58678 2.88528 9.99527 4.4815 10.3154C4.18197 10.3961 3.87311 10.4368 3.56283 10.4366C3.34251 10.4368 3.12267 10.4162 2.90623 10.3752C3.3502 11.759 4.63797 12.7673 6.16456 12.7942C4.97035 13.7292 3.46627 14.2864 1.83259 14.2864C1.55107 14.2864 1.27329 14.2699 1 14.2377C2.54386 15.2274 4.37665 15.8033 6.34571 15.8033C12.762 15.8033 16.2697 10.4941 16.2697 5.88955C16.2697 5.73996 16.2659 5.58887 16.2592 5.43928C16.9406 4.94709 17.532 4.33452 17.9984 3.63662L18 3.63438V3.63431Z"/>
    </symbol>
    <symbol viewBox="0 0 18 18" id="INSTAGRAM">
      <path d="M9 2.44136C11.1364 2.44136 11.3896 2.44949 12.2328 2.48824C13.0128 2.52387 13.4366 2.65388 13.7185 2.76389C14.0916 2.9089 14.3585 3.08266 14.6386 3.36268C14.9186 3.64271 15.0917 3.90898 15.2367 4.28276C15.3461 4.56465 15.4768 4.98844 15.5124 5.7685C15.5511 6.61231 15.5593 6.86546 15.5593 9.00125C15.5593 11.137 15.5511 11.3908 15.5124 12.234C15.4768 13.0141 15.3467 13.4378 15.2367 13.7197C15.0917 14.0929 14.918 14.3598 14.6386 14.6398C14.3585 14.9198 14.0923 15.093 13.7185 15.238C13.4366 15.3474 13.0128 15.478 12.2328 15.5136C11.3889 15.5524 11.1364 15.5605 9 15.5605C6.86358 15.5605 6.61044 15.5524 5.76725 15.5136C4.98719 15.478 4.5634 15.348 4.28151 15.238C3.90835 15.093 3.64146 14.9192 3.36143 14.6398C3.08141 14.3598 2.90827 14.0935 2.76326 13.7197C2.65388 13.4378 2.52324 13.0141 2.48762 12.234C2.44886 11.3902 2.44074 11.137 2.44074 9.00125C2.44074 6.86546 2.44886 6.61169 2.48762 5.7685C2.52324 4.98844 2.65325 4.56465 2.76326 4.28276C2.90827 3.9096 3.08204 3.64271 3.36143 3.36268C3.64146 3.08266 3.90773 2.90952 4.28151 2.76389C4.5634 2.6545 4.98719 2.52387 5.76725 2.48824C6.61106 2.44949 6.86421 2.44136 9 2.44136ZM9 1C6.82733 1 6.55481 1.00938 5.70162 1.04813C4.8503 1.08688 4.26838 1.22252 3.75959 1.42003C3.2333 1.62442 2.78701 1.8982 2.3426 2.3426C1.89757 2.78764 1.62442 3.2333 1.42003 3.75959C1.22252 4.26838 1.08688 4.8503 1.04813 5.70162C1.00938 6.55481 1 6.82733 1 9C1 11.1727 1.00938 11.4452 1.04813 12.2984C1.08688 13.1497 1.22252 13.7316 1.42003 14.2404C1.62442 14.7667 1.8982 15.213 2.3426 15.6574C2.78764 16.1024 3.2333 16.3756 3.75959 16.58C4.26838 16.7775 4.8503 16.9131 5.70162 16.9519C6.55481 16.9906 6.82733 17 9 17C11.1727 17 11.4452 16.9906 12.2984 16.9519C13.1497 16.9131 13.7316 16.7775 14.2404 16.58C14.7667 16.3756 15.213 16.1018 15.6574 15.6574C16.1024 15.2124 16.3756 14.7667 16.58 14.2404C16.7775 13.7316 16.9131 13.1497 16.9519 12.2984C16.9906 11.4452 17 11.1727 17 9C17 6.82733 16.9906 6.55481 16.9519 5.70162C16.9131 4.8503 16.7775 4.26838 16.58 3.75959C16.3756 3.2333 16.1018 2.78701 15.6574 2.3426C15.2124 1.89757 14.7667 1.62442 14.2404 1.42003C13.7316 1.22252 13.1497 1.08688 12.2984 1.04813C11.4452 1.00938 11.1727 1 9 1ZM9 4.89218C6.73107 4.89218 4.89155 6.7317 4.89155 9.00063C4.89155 11.2696 6.73107 13.1091 9 13.1091C11.2689 13.1091 13.1084 11.2696 13.1084 9.00063C13.1084 6.7317 11.2689 4.89218 9 4.89218ZM9 11.6677C7.52738 11.6677 6.33292 10.4739 6.33292 9.00063C6.33292 7.52739 7.52676 6.33354 9 6.33354C10.4732 6.33354 11.6671 7.52739 11.6671 9.00063C11.6671 10.4739 10.4732 11.6677 9 11.6677ZM14.231 4.73029C14.231 5.26033 13.801 5.69037 13.271 5.69037C12.7409 5.69037 12.3109 5.26033 12.3109 4.73029C12.3109 4.20025 12.7409 3.77022 13.271 3.77022C13.801 3.77022 14.231 4.20025 14.231 4.73029Z"/>
    </symbol>
  </defs>
</svg>