<svg xmlns="http://www.w3.org/2000/svg" xmlns:xlink="http://www.w3.org/1999/xlink">
  <defs>
    <symbol viewBox="0 0 18 18" id="CALL">
      <path fillRule="evenodd" clipRule="evenodd" d="M4.99312 1.50041C5.83087 1.51166 6.42787 2.13941 7.18312 2.93366C7.36987 3.12941 7.57162 3.34316 7.79737 3.56816C8.89162 4.66316 8.58037 5.55641 8.32912 6.27341C8.05612 7.05566 7.81987 7.73066 9.23437 9.14516C10.6489 10.5597 11.3231 10.3234 12.1046 10.0482C12.8224 9.79766 13.7134 9.48416 14.8099 10.5792C15.0326 10.8019 15.2426 11.0014 15.4376 11.1867C16.2349 11.9457 16.8649 12.5449 16.8755 13.3849C16.8836 14.1004 16.4486 14.8309 15.3746 15.9049L14.8991 15.5824L15.3019 15.9747C15.0641 16.2184 14.4319 16.8679 13.1936 16.8754H13.1711C11.3021 16.8754 8.86537 15.3874 5.92837 12.4512C2.97937 9.50291 1.48912 7.05866 1.50031 5.18591C1.50712 3.94841 2.15587 3.31466 2.39962 3.07691L2.42043 3.05418L2.47087 3.00341C3.54712 1.92716 4.28662 1.48466 4.99312 1.50041ZM4.97887 2.62541H4.97287C4.63607 2.62541 4.12459 2.96291 3.41124 3.65583L3.26799 3.7965L3.26962 3.79616C3.26962 3.79616 3.25738 3.8102 3.23652 3.83147L3.18637 3.88166C3.00487 4.05791 2.62912 4.42466 2.62533 5.19191C2.61937 6.26516 3.32512 8.25791 6.72337 11.6554C10.1051 15.0364 12.0949 15.7504 13.1711 15.7504H13.1869C13.9541 15.7459 14.3201 15.3702 14.4964 15.1894C14.5496 15.1347 14.5931 15.0934 14.6239 15.0687C15.3716 14.3164 15.7541 13.7577 15.7504 13.3984C15.7459 13.0324 15.2906 12.6004 14.6614 12.0012C14.4611 11.8114 14.2436 11.6037 14.0141 11.3742C13.4186 10.7809 13.1254 10.8822 12.4766 11.1102C11.5804 11.4244 10.3526 11.8549 8.43937 9.94016C6.52537 8.02691 6.95437 6.79916 7.26712 5.90216C7.49362 5.25416 7.59712 4.95941 7.00237 4.36391C6.76987 4.13141 6.56062 3.91091 6.36787 3.70841C5.77237 3.08291 5.34262 2.63066 4.97887 2.62541ZM11.4349 4.16853C12.9957 4.47153 14.2009 5.67603 14.5047 7.23753C14.5639 7.54353 14.3652 7.83828 14.0607 7.89753C14.0239 7.90428 13.9879 7.90803 13.9519 7.90803C13.6879 7.90803 13.4532 7.72203 13.4007 7.45353C13.1847 6.34353 12.3289 5.48778 11.2204 5.27253C10.9152 5.21328 10.7164 4.91853 10.7757 4.61328C10.8349 4.30803 11.1349 4.10853 11.4349 4.16853ZM11.39 1.50468C14.4485 1.84443 16.8238 4.21668 17.1665 7.27443C17.201 7.58343 16.979 7.86168 16.6708 7.89618C16.6498 7.89843 16.628 7.89993 16.607 7.89993C16.3243 7.89993 16.0813 7.68768 16.049 7.40043C15.7648 4.86843 13.7983 2.90343 11.2655 2.62218C10.9573 2.58768 10.7345 2.31018 10.769 2.00118C10.8028 1.69293 11.078 1.46568 11.39 1.50468Z"/>
    </symbol>
    <symbol viewBox="0 0 18 18" id="MESSAGE">
      <path fillRule="evenodd" clipRule="evenodd" d="M12.4941 1.5C14.9916 1.5 16.8749 3.53775 16.8749 6.24V11.391C16.8749 12.774 16.3859 14.0235 15.4971 14.91C14.6999 15.7042 13.6656 16.125 12.5061 16.125H5.11638C3.95913 16.125 2.92563 15.705 2.12763 14.91C1.23888 14.0235 0.749878 12.774 0.749878 11.391V6.24C0.749878 3.53775 2.63313 1.5 5.13063 1.5H12.4941ZM12.4941 2.625H5.13063C3.24438 2.625 1.87488 4.14525 1.87488 6.24V11.391C1.87488 12.4732 2.24688 13.44 2.92188 14.1127C3.50388 14.694 4.26363 15 5.11863 15H12.4941C12.4956 14.9985 12.5016 15 12.5061 15C13.3619 15 14.1209 14.694 14.7029 14.1127C15.3786 13.44 15.7499 12.4732 15.7499 11.391V6.24C15.7499 4.14525 14.3804 2.625 12.4941 2.625ZM13.6761 6.0966C13.8719 6.33735 13.8351 6.69135 13.5944 6.88785L10.2614 9.59685C9.83988 9.93135 9.33588 10.0986 8.83263 10.0986C8.33088 10.0986 7.83063 9.93285 7.41213 9.60135L4.04838 6.88935C3.80613 6.69435 3.76863 6.3396 3.96288 6.0981C4.15863 5.85735 4.51263 5.8191 4.75413 6.01335L8.11488 8.72235C8.53713 9.05685 9.13188 9.05685 9.55713 8.71935L12.8841 6.01485C13.1256 5.8176 13.4796 5.8551 13.6761 6.0966Z"/>
    </symbol>
    <symbol viewBox="0 0 18 18" id="TWITTER">
      <path d="M18 3.63431C17.3748 3.91108 16.7033 4.09804 15.9972 4.18255C16.7175 3.7517 17.27 3.06807 17.5305 2.25421C16.8567 2.65367 16.1102 2.94389 15.3159 3.09946C14.6795 2.42337 13.7736 2 12.7704 2C10.8448 2 9.28295 3.56026 9.28295 5.48561C9.28301 5.75246 9.31321 6.01842 9.37277 6.27848C6.47307 6.13262 3.90432 4.74505 2.1838 2.6373C1.88433 3.1534 1.71209 3.75177 1.71209 4.38907C1.71209 5.59777 2.3283 6.66517 3.26336 7.28976C2.70951 7.27217 2.16796 7.12264 1.6836 6.85369V6.89859C1.6836 8.58678 2.88528 9.99527 4.4815 10.3154C4.18197 10.3961 3.87311 10.4368 3.56283 10.4366C3.34251 10.4368 3.12267 10.4162 2.90623 10.3752C3.3502 11.759 4.63797 12.7673 6.16456 12.7942C4.97035 13.7292 3.46627 14.2864 1.83259 14.2864C1.55107 14.2864 1.27329 14.2699 1 14.2377C2.54386 15.2274 4.37665 15.8033 6.34571 15.8033C12.762 15.8033 16.2697 10.4941 16.2697 5.88955C16.2697 5.73996 16.2659 5.58887 16.2592 5.43928C16.9406 4.94709 17.532 4.33452 17.9984 3.63662L18 3.63438V3.63431Z"/>
    </symbol>
    <symbol viewBox="0 0 18 18" id="INSTAGRAM">
      <path d="M9 2.44136C11.1364 2.44136 11.3896 2.44949 12.2328 2.48824C13.0128 2.52387 13.4366 2.65388 13.7185 2.76389C14.0916 2.9089 14.3585 3.08266 14.6386 3.36268C14.9186 3.64271 15.0917 3.90898 15.2367 4.28276C15.3461 4.56465 15.4768 4.98844 15.5124 5.7685C15.5511 6.61231 15.5593 6.86546 15.5593 9.00125C15.5593 11.137 15.5511 11.3908 15.5124 12.234C15.4768 13.0141 15.3467 13.4378 15.2367 13.7197C15.0917 14.0929 14.918 14.3598 14.6386 14.6398C14.3585 14.9198 14.0923 15.093 13.7185 15.238C13.4366 15.3474 13.0128 15.478 12.2328 15.5136C11.3889 15.5524 11.1364 15.5605 9 15.5605C6.86358 15.5605 6.61044 15.5524 5.76725 15.5136C4.98719 15.478 4.5634 15.348 4.28151 15.238C3.90835 15.093 3.64146 14.9192 3.36143 14.6398C3.08141 14.3598 2.90827 14.0935 2.76326 13.7197C2.65388 13.4378 2.52324 13.0141 2.48762 12.234C2.44886 11.3902 2.44074 11.137 2.44074 9.00125C2.44074 6.86546 2.44886 6.61169 2.48762 5.7685C2.52324 4.98844 2.65325 4.56465 2.76326 4.28276C2.90827 3.9096 3.08204 3.64271 3.36143 3.36268C3.64146 3.08266 3.90773 2.90952 4.28151 2.76389C4.5634 2.6545 4.98719 2.52387 5.76725 2.48824C6.61106 2.44949 6.86421 2.44136 9 2.44136ZM9 1C6.82733 1 6.55481 1.00938 5.70162 1.04813C4.8503 1.08688 4.26838 1.22252 3.75959 1.42003C3.2333 1.62442 2.78701 1.8982 2.3426 2.3426C1.89757 2.78764 1.62442 3.2333 1.42003 3.75959C1.22252 4.26838 1.08688 4.8503 1.04813 5.70162C1.00938 6.55481 1 6.82733 1 9C1 11.1727 1.00938 11.4452 1.04813 12.2984C1.08688 13.1497 1.22252 13.7316 1.42003 14.2404C1.62442 14.7667 1.8982 15.213 2.3426 15.6574C2.78764 16.1024 3.2333 16.3756 3.75959 16.58C4.26838 16.7775 4.8503 16.9131 5.70162 16.9519C6.55481 16.9906 6.82733 17 9 17C11.1727 17 11.4452 16.9906 12.2984 16.9519C13.1497 16.9131 13.7316 16.7775 14.2404 16.58C14.7667 16.3756 15.213 16.1018 15.6574 15.6574C16.1024 15.2124 16.3756 14.7667 16.58 14.2404C16.7775 13.7316 16.9131 13.1497 16.9519 12.2984C16.9906 11.4452 17 11.1727 17 9C17 6.82733 16.9906 6.55481 16.9519 5.70162C16.9131 4.8503 16.7775 4.26838 16.58 3.75959C16.3756 3.2333 16.1018 2.78701 15.6574 2.3426C15.2124 1.89757 14.7667 1.62442 14.2404 1.42003C13.7316 1.22252 13.1497 1.08688 12.2984 1.04813C11.4452 1.00938 11.1727 1 9 1ZM9 4.89218C6.73107 4.89218 4.89155 6.7317 4.89155 9.00063C4.89155 11.2696 6.73107 13.1091 9 13.1091C11.2689 13.1091 13.1084 11.2696 13.1084 9.00063C13.1084 6.7317 11.2689 4.89218 9 4.89218ZM9 11.6677C7.52738 11.6677 6.33292 10.4739 6.33292 9.00063C6.33292 7.52739 7.52676 6.33354 9 6.33354C10.4732 6.33354 11.6671 7.52739 11.6671 9.00063C11.6671 10.4739 10.4732 11.6677 9 11.6677ZM14.231 4.73029C14.231 5.26033 13.801 5.69037 13.271 5.69037C12.7409 5.69037 12.3109 5.26033 12.3109 4.73029C12.3109 4.20025 12.7409 3.77022 13.271 3.77022C13.801 3.77022 14.231 4.20025 14.231 4.73029Z"/>
    </symbol>
    <symbol viewBox="0 0 18 18" id="INFO_SQUARE_SM">
      <path d="M12.472 1H5.536C2.824 1 1 2.904 1 5.736V12.272C1 15.096 2.824 17 5.536 17H12.472C15.184 17 17 15.096 17 12.272V5.736C17 2.904 15.184 1 12.472 1ZM10.192 12.768C10.192 13.424 9.648 13.96 8.984 13.96C8.32 13.96 7.792 13.424 7.792 12.768V8.912C7.792 8.248 8.328 7.704 8.984 7.704C9.64 7.704 10.192 8.248 10.192 8.912V12.768ZM8.984 6.432C8.328 6.432 7.8 5.896 7.8 5.24C7.8 4.584 8.344 4.032 9.008 4.032C9.672 4.032 10.2 4.576 10.2 5.24C10.2 5.904 9.656 6.432 8.984 6.432Z"/>
    </symbol>
    <symbol viewBox="0 0 18 18" id="DANGER_SQUARE_SM">
      <path d="M5.528 17L12.464 17C15.176 17 17 15.096 17 12.264L17 5.728C17 2.904 15.176 1 12.464 0.999999L5.528 0.999999C2.816 0.999999 1 2.904 1 5.728L1 12.264C1 15.096 2.816 17 5.528 17ZM7.808 5.232C7.808 4.576 8.352 4.04 9.016 4.04C9.68 4.04 10.208 4.576 10.208 5.232L10.208 9.088C10.208 9.752 9.672 10.296 9.016 10.296C8.36 10.296 7.808 9.752 7.808 9.088L7.808 5.232ZM9.016 11.568C9.672 11.568 10.2 12.104 10.2 12.76C10.2 13.416 9.656 13.968 8.992 13.968C8.328 13.968 7.8 13.424 7.8 12.76C7.8 12.096 8.344 11.568 9.016 11.568Z"/>
    </symbol>
    <symbol viewBox="0 0 18 18" id="WARNING_SQUARE_SM">
      <path d="M17.3501 13.2301L11.0101 2.25006C10.0501 0.580059 7.64005 0.580059 6.68005 2.25006L0.340052 13.2301C-0.619948 14.9001 0.580052 16.9801 2.51005 16.9801H15.1901C17.1101 16.9801 18.3201 14.9001 17.3601 13.2301H17.3501ZM8.83005 14.8501C8.17005 14.8501 7.64005 14.3101 7.64005 13.6401C7.64005 12.9701 8.18005 12.4501 8.86005 12.4501C9.54005 12.4501 10.0401 12.9901 10.0401 13.6401C10.0401 14.2901 9.50005 14.8501 8.83005 14.8501ZM10.0501 9.97006C10.0501 10.6301 9.51005 11.1801 8.86005 11.1801C8.21005 11.1801 7.65005 10.6401 7.65005 9.97006V6.11006C7.65005 5.45006 8.19005 4.92006 8.86005 4.92006C9.53005 4.92006 10.0501 5.46006 10.0501 6.11006V9.97006Z"/>
    </symbol>
    <symbol viewBox="0 0 18 18" id="SUCCESS_SQUARE_SM">
      <path d="M12.46 1H5.52C2.82 1 1 2.9 1 5.73V12.27C1 15.1 2.82 17.01 5.53 17.01H12.47C15.18 17.01 17.01 15.11 17.01 12.27V5.73C17.01 2.91 15.19 1 12.47 1L12.46 1ZM13.62 7.84L8.72 12.74C8.72 12.74 8.7 12.79 8.68 12.81C8.22 13.27 7.44 13.28 6.97 12.81L4.37 10.21C3.91 9.75 3.91 8.98 4.38 8.51C4.85 8.04 5.6 8.05 6.07 8.51L7.82 10.26L11.93 6.15C12.39 5.69 13.16 5.69 13.63 6.16C14.1 6.63 14.09 7.38 13.63 7.85L13.62 7.84Z" />
    </symbol>
    <symbol viewBox="0 0 18 18" id="CALL_SOLID">
      <path fill-rule="evenodd" clip-rule="evenodd" d="M10.767 1.50595C10.5997 1.48196 10.4316 1.53143 10.2979 1.63786C10.1605 1.74578 10.0746 1.90168 10.0559 2.07631C10.0163 2.42931 10.271 2.74859 10.6236 2.78832C13.0548 3.05963 14.9445 4.95358 15.2179 7.3924C15.2545 7.71918 15.5286 7.96576 15.8558 7.96576C15.8804 7.96576 15.9043 7.96426 15.929 7.96126C16.1 7.94253 16.2524 7.85784 16.36 7.72293C16.4668 7.58802 16.5153 7.42014 16.4959 7.2485C16.1553 4.20559 13.8002 1.84397 10.767 1.50595ZM10.8137 4.11732C10.4567 4.05136 10.1288 4.27921 10.0608 4.62772C9.99283 4.97623 10.2214 5.3165 10.5687 5.3847C11.6144 5.58856 12.4218 6.398 12.6265 7.44728C12.6847 7.74932 12.9507 7.96967 13.2569 7.96967C13.298 7.96967 13.3391 7.96593 13.3809 7.95843C13.7282 7.88873 13.9568 7.54921 13.8888 7.19995C13.5833 5.63278 12.377 4.42236 10.8137 4.11732ZM11.7283 10.7657C10.8864 11.0607 9.93794 11.393 8.27381 9.72929C6.60978 8.06573 6.94125 7.11678 7.23546 6.27448C7.47023 5.60237 7.68128 4.99817 6.83587 4.153C6.60711 3.92431 6.40125 3.70763 6.2116 3.50803C4.87876 2.10522 4.34737 1.54593 2.30548 3.58796C2.29021 3.60695 2.26396 3.63259 2.23005 3.66571C1.74365 4.14076 -0.320854 6.15714 5.76345 12.2397C11.846 18.3206 13.8611 16.2562 14.3365 15.7692C14.3697 15.7352 14.3954 15.7088 14.4144 15.6935C16.4552 13.6533 15.8941 13.1196 14.4862 11.7804C14.2889 11.5928 14.075 11.3893 13.8492 11.1636C13.0039 10.3189 12.4 10.5304 11.7283 10.7657Z"/>
    </symbol>
    <symbol viewBox="0 0 18 18" id="MESSAGE_SOLID">
      <path fill-rule="evenodd" clip-rule="evenodd" d="M12.7725 2.24951C14.1795 2.24951 15.4575 3.03101 16.107 4.25501C16.2525 4.52876 16.1835 4.87001 15.9412 5.06351L10.3725 9.51776C9.98247 9.83276 9.50997 9.98951 9.03747 9.98951H9.02997H9.02247C8.54997 9.98951 8.07747 9.83276 7.68747 9.51776L2.11872 5.06351C1.87647 4.87001 1.80747 4.52876 1.95297 4.25501C2.60247 3.03101 3.88047 2.24951 5.28747 2.24951H12.7725ZM12.7274 15.7499C14.8199 15.7424 16.4999 14.0474 16.4999 11.9549C16.4999 11.9549 16.4999 8.68188 16.4924 7.02513C16.4916 6.71238 16.1301 6.53688 15.8841 6.73263C14.8375 7.56406 13.3534 8.75152 12.2808 9.60976C11.4996 10.2349 10.9366 10.6853 10.9199 10.6964C10.3874 11.1314 9.71238 11.3721 9.02238 11.3721C8.33238 11.3721 7.65738 11.1314 7.12488 10.7046C7.08513 10.6709 3.89838 8.09313 2.11638 6.67938C1.87113 6.48438 1.51113 6.65988 1.51038 6.97338C1.50438 8.64288 1.49988 11.9624 1.49988 11.9624V11.9699C1.49988 14.0624 3.20238 15.7499 5.28738 15.7499H12.7199H12.7274Z"/>
    </symbol>
    <symbol viewBox="0 0 18 18" id="ARROW_RIGHT">
      <path d="M3 8.79405C3 8.50928 3.21162 8.27393 3.48617 8.23669L3.5625 8.23155L13.4505 8.232L9.87826 4.67435C9.65812 4.45516 9.65735 4.099 9.87655 3.87886C10.0758 3.67873 10.3883 3.6599 10.6088 3.82282L10.672 3.87715L15.2095 8.39515C15.2386 8.42404 15.2638 8.45531 15.2852 8.48833C15.2912 8.49827 15.2973 8.50844 15.3032 8.51881C15.3085 8.52771 15.3134 8.53694 15.318 8.54627C15.3243 8.55986 15.3305 8.57389 15.3361 8.58821C15.3407 8.59925 15.3445 8.60998 15.348 8.62081C15.3522 8.63423 15.3562 8.64853 15.3597 8.66305C15.3622 8.67318 15.3643 8.68294 15.3661 8.69274C15.3686 8.70731 15.3707 8.72239 15.3722 8.73765C15.3735 8.74929 15.3743 8.76082 15.3747 8.77236C15.3749 8.77936 15.375 8.78669 15.375 8.79405L15.3747 8.81584C15.3743 8.82688 15.3735 8.83791 15.3725 8.84891L15.375 8.79405C15.375 8.82955 15.3717 8.86428 15.3654 8.89795C15.364 8.90599 15.3622 8.91425 15.3603 8.92247C15.3563 8.9394 15.3517 8.95571 15.3464 8.97169C15.3438 8.97964 15.3407 8.98812 15.3375 8.99654C15.3309 9.01347 15.3238 9.02961 15.3159 9.04532C15.3122 9.05271 15.3082 9.06045 15.3039 9.06811C15.2968 9.0806 15.2896 9.09247 15.2819 9.10405C15.2765 9.11224 15.2706 9.12076 15.2643 9.12915L15.2594 9.13563C15.2443 9.15543 15.2278 9.1742 15.2102 9.1918L15.2096 9.19232L10.6721 13.7111C10.4519 13.9303 10.0958 13.9295 9.87658 13.7094C9.67729 13.5093 9.65979 13.1968 9.82363 12.9769L9.87823 12.9139L13.449 9.357L3.5625 9.35655C3.25184 9.35655 3 9.10471 3 8.79405Z"/>
    </symbol>
    <symbol viewBox="0 0 18 18" id="CHECK">
      <path fill-rule="evenodd" clip-rule="evenodd" d="M13.6762 6.56712L7.69659 12.5467C7.2707 12.9726 6.8448 12.9726 6.52112 12.5467L4.28092 10.298C3.95724 9.97428 3.85503 9.44617 4.28092 9.12249C4.70681 8.69659 5.13271 8.69659 5.45639 9.12249L7.05775 10.7239L12.5092 5.28092C12.8329 4.95724 13.361 4.85503 13.6847 5.28092C14.1106 5.81755 14.1106 6.24344 13.6847 6.5586L13.6762 6.56712Z"/>
    </symbol>
    <symbol viewBox="0 0 18 18" id="SUN">
      <path d="M9 4.7794C6.67415 4.7794 4.77756 6.66911 4.77756 9.0039C4.77756 11.3387 6.66634 13.2284 9 13.2284C11.3337 13.2284 13.2224 11.3387 13.2224 9.0039C13.2224 6.66911 11.3337 4.7794 9 4.7794ZM9 12.0493C7.32195 12.0493 5.94829 10.6828 5.94829 8.9961C5.94829 7.30942 7.31415 5.9429 9 5.9429C10.6859 5.9429 12.0517 7.30942 12.0517 8.9961C12.0517 10.6828 10.6859 12.0493 9 12.0493ZM8.41463 3.20986V1.58565C8.41463 1.2655 8.68 1 9 1C9.32 1 9.58537 1.2655 9.58537 1.58565V3.20986C9.58537 3.53001 9.32 3.79551 9 3.79551C8.68 3.79551 8.41463 3.53001 8.41463 3.20986ZM9.58537 14.7901V16.4143C9.58537 16.7345 9.32 17 9 17C8.68 17 8.41463 16.7345 8.41463 16.4143V14.7901C8.41463 14.47 8.68 14.2045 9 14.2045C9.32 14.2045 9.58537 14.47 9.58537 14.7901ZM3.34146 4.17033C3.11512 3.94387 3.11512 3.56906 3.34146 3.34261C3.5678 3.11615 3.94244 3.11615 4.16878 3.34261L5.3161 4.49048C5.54244 4.71693 5.54244 5.09175 5.3161 5.3182C5.19902 5.43533 5.05073 5.49 4.90244 5.49C4.75415 5.49 4.60585 5.43533 4.48878 5.3182L3.34146 4.17033ZM14.6585 13.8297C14.8849 14.0561 14.8849 14.4309 14.6585 14.6574C14.5415 14.7745 14.3932 14.8292 14.2449 14.8292C14.0966 14.8292 13.9483 14.7745 13.8312 14.6574L12.6839 13.5095C12.4576 13.2831 12.4576 12.9082 12.6839 12.6818C12.9102 12.4553 13.2849 12.4553 13.5112 12.6818L14.6585 13.8297ZM3.20878 9.58956H1.58537C1.26537 9.58956 1 9.32406 1 9.0039C1 8.68375 1.26537 8.41825 1.58537 8.41825H3.20878C3.52878 8.41825 3.79415 8.68375 3.79415 9.0039C3.79415 9.32406 3.52878 9.58956 3.20878 9.58956ZM17 9.0039C17 9.32406 16.7346 9.58956 16.4146 9.58956H14.7912C14.4712 9.58956 14.2059 9.32406 14.2059 9.0039C14.2059 8.68375 14.4712 8.41825 14.7912 8.41825H16.4146C16.7346 8.41825 17 8.68375 17 9.0039ZM5.3239 12.6818C5.55024 12.9082 5.55024 13.2831 5.3239 13.5095L4.17659 14.6574C4.05951 14.7745 3.91122 14.8292 3.76293 14.8292C3.61463 14.8292 3.46634 14.7745 3.34927 14.6574C3.12293 14.4309 3.12293 14.0561 3.34927 13.8297L4.49659 12.6818C4.72293 12.4553 5.09756 12.4553 5.3239 12.6818ZM12.6839 5.32601C12.4576 5.09956 12.4576 4.72474 12.6839 4.49829L13.8312 3.35041C14.0576 3.12396 14.4322 3.12396 14.6585 3.35041C14.8849 3.57687 14.8849 3.95168 14.6585 4.17814L13.5112 5.32601C13.3941 5.44314 13.2459 5.4978 13.0976 5.4978C12.9493 5.4978 12.801 5.44314 12.6839 5.32601Z"/>
    </symbol>
    <symbol viewBox="0 0 18 18" id="MOON">
      <path d="M14.9551 12.027C14.8773 11.8417 14.7061 11.7027 14.4961 11.6718C12.1152 11.332 10.3256 9.27027 10.3256 6.88417C10.3256 5.83398 10.6602 4.83012 11.2982 3.98842C11.4227 3.82625 11.4461 3.61004 11.3682 3.41699C11.2904 3.23166 11.1193 3.09266 10.917 3.06178C10.6291 3.02317 10.3334 3 10.0455 3C6.71544 3 4 5.68726 4 9C4 12.3127 6.70766 15 10.0455 15C11.9674 15 13.7336 14.1197 14.8851 12.5907C15.0096 12.4286 15.0329 12.2124 14.9551 12.0193V12.027ZM10.0455 13.8417C7.35345 13.8417 5.16709 11.6718 5.16709 9C5.16709 6.32818 7.22896 4.28958 9.81212 4.16602C9.38419 5 9.15855 5.92664 9.15855 6.88417C9.15855 9.49421 10.8936 11.7876 13.3212 12.583C12.4342 13.3938 11.2749 13.8417 10.0378 13.8417H10.0455Z"/>
    </symbol>
  </defs>
</svg>