<svg xmlns="http://www.w3.org/2000/svg" xmlns:xlink="http://www.w3.org/1999/xlink">
  <defs>
    <symbol viewBox="0 0 18 18" id="CALL">
      <path fillRule="evenodd" clipRule="evenodd" d="M4.99312 1.50041C5.83087 1.51166 6.42787 2.13941 7.18312 2.93366C7.36987 3.12941 7.57162 3.34316 7.79737 3.56816C8.89162 4.66316 8.58037 5.55641 8.32912 6.27341C8.05612 7.05566 7.81987 7.73066 9.23437 9.14516C10.6489 10.5597 11.3231 10.3234 12.1046 10.0482C12.8224 9.79766 13.7134 9.48416 14.8099 10.5792C15.0326 10.8019 15.2426 11.0014 15.4376 11.1867C16.2349 11.9457 16.8649 12.5449 16.8755 13.3849C16.8836 14.1004 16.4486 14.8309 15.3746 15.9049L14.8991 15.5824L15.3019 15.9747C15.0641 16.2184 14.4319 16.8679 13.1936 16.8754H13.1711C11.3021 16.8754 8.86537 15.3874 5.92837 12.4512C2.97937 9.50291 1.48912 7.05866 1.50031 5.18591C1.50712 3.94841 2.15587 3.31466 2.39962 3.07691L2.42043 3.05418L2.47087 3.00341C3.54712 1.92716 4.28662 1.48466 4.99312 1.50041ZM4.97887 2.62541H4.97287C4.63607 2.62541 4.12459 2.96291 3.41124 3.65583L3.26799 3.7965L3.26962 3.79616C3.26962 3.79616 3.25738 3.8102 3.23652 3.83147L3.18637 3.88166C3.00487 4.05791 2.62912 4.42466 2.62533 5.19191C2.61937 6.26516 3.32512 8.25791 6.72337 11.6554C10.1051 15.0364 12.0949 15.7504 13.1711 15.7504H13.1869C13.9541 15.7459 14.3201 15.3702 14.4964 15.1894C14.5496 15.1347 14.5931 15.0934 14.6239 15.0687C15.3716 14.3164 15.7541 13.7577 15.7504 13.3984C15.7459 13.0324 15.2906 12.6004 14.6614 12.0012C14.4611 11.8114 14.2436 11.6037 14.0141 11.3742C13.4186 10.7809 13.1254 10.8822 12.4766 11.1102C11.5804 11.4244 10.3526 11.8549 8.43937 9.94016C6.52537 8.02691 6.95437 6.79916 7.26712 5.90216C7.49362 5.25416 7.59712 4.95941 7.00237 4.36391C6.76987 4.13141 6.56062 3.91091 6.36787 3.70841C5.77237 3.08291 5.34262 2.63066 4.97887 2.62541ZM11.4349 4.16853C12.9957 4.47153 14.2009 5.67603 14.5047 7.23753C14.5639 7.54353 14.3652 7.83828 14.0607 7.89753C14.0239 7.90428 13.9879 7.90803 13.9519 7.90803C13.6879 7.90803 13.4532 7.72203 13.4007 7.45353C13.1847 6.34353 12.3289 5.48778 11.2204 5.27253C10.9152 5.21328 10.7164 4.91853 10.7757 4.61328C10.8349 4.30803 11.1349 4.10853 11.4349 4.16853ZM11.39 1.50468C14.4485 1.84443 16.8238 4.21668 17.1665 7.27443C17.201 7.58343 16.979 7.86168 16.6708 7.89618C16.6498 7.89843 16.628 7.89993 16.607 7.89993C16.3243 7.89993 16.0813 7.68768 16.049 7.40043C15.7648 4.86843 13.7983 2.90343 11.2655 2.62218C10.9573 2.58768 10.7345 2.31018 10.769 2.00118C10.8028 1.69293 11.078 1.46568 11.39 1.50468Z"/>
    </symbol>
    <symbol viewBox="0 0 18 18" id="MESSAGE">
      <path fillRule="evenodd" clipRule="evenodd" d="M12.4941 1.5C14.9916 1.5 16.8749 3.53775 16.8749 6.24V11.391C16.8749 12.774 16.3859 14.0235 15.4971 14.91C14.6999 15.7042 13.6656 16.125 12.5061 16.125H5.11638C3.95913 16.125 2.92563 15.705 2.12763 14.91C1.23888 14.0235 0.749878 12.774 0.749878 11.391V6.24C0.749878 3.53775 2.63313 1.5 5.13063 1.5H12.4941ZM12.4941 2.625H5.13063C3.24438 2.625 1.87488 4.14525 1.87488 6.24V11.391C1.87488 12.4732 2.24688 13.44 2.92188 14.1127C3.50388 14.694 4.26363 15 5.11863 15H12.4941C12.4956 14.9985 12.5016 15 12.5061 15C13.3619 15 14.1209 14.694 14.7029 14.1127C15.3786 13.44 15.7499 12.4732 15.7499 11.391V6.24C15.7499 4.14525 14.3804 2.625 12.4941 2.625ZM13.6761 6.0966C13.8719 6.33735 13.8351 6.69135 13.5944 6.88785L10.2614 9.59685C9.83988 9.93135 9.33588 10.0986 8.83263 10.0986C8.33088 10.0986 7.83063 9.93285 7.41213 9.60135L4.04838 6.88935C3.80613 6.69435 3.76863 6.3396 3.96288 6.0981C4.15863 5.85735 4.51263 5.8191 4.75413 6.01335L8.11488 8.72235C8.53713 9.05685 9.13188 9.05685 9.55713 8.71935L12.8841 6.01485C13.1256 5.8176 13.4796 5.8551 13.6761 6.0966Z"/>
    </symbol>
  </defs>
</svg>